<?xml version="1.0" encoding="utf-8"?>
<!-- Generator: Adobe Illustrator 16.0.0, SVG Export Plug-In . SVG Version: 6.00 Build 0)  -->
<!DOCTYPE svg PUBLIC "-//W3C//DTD SVG 1.1//EN" "http://www.w3.org/Graphics/SVG/1.1/DTD/svg11.dtd">
<svg version="1.1" id="Layer_1" xmlns="http://www.w3.org/2000/svg" xmlns:xlink="http://www.w3.org/1999/xlink" x="0px" y="0px"
	 width="84px" height="84px" viewBox="0 0 84 84" enable-background="new 0 0 84 84" xml:space="preserve">
<path opacity="0.85" fill-rule="evenodd" clip-rule="evenodd" fill="#505050" d="M42,0c23.196,0,42,18.804,42,42
	c0,23.195-18.804,42-42,42S0,65.195,0,42C0,18.804,18.804,0,42,0z"/>
<path fill="#FFFFFF" d="M59.775,39.215L33.758,22.738c-0.77-0.46-1.725-0.384-2.446-0.384c-2.885,0-2.872,2.239-2.872,2.807v33.678
	c0,0.48-0.013,2.808,2.872,2.808c0.722,0,1.677,0.076,2.446-0.384l26.017-16.479C61.911,43.507,61.542,42,61.542,42
	S61.911,40.493,59.775,39.215z"/>
</svg>
