<?xml version="1.0" encoding="utf-8"?>
<!DOCTYPE svg PUBLIC "-//W3C//DTD SVG 1.1//EN" "http://www.w3.org/Graphics/SVG/1.1/DTD/svg11.dtd">
<svg version="1.1" baseProfile="full"
 xmlns="http://www.w3.org/2000/svg"
 xmlns:xlink="http://www.w3.org/1999/xlink"
 xmlns:ev="http://www.w3.org/2001/xml-events" 
  height="16px" 
  width="20px" 
>
<path fill="rgb( 255, 255, 255 )"
 d="M19.816,5.30199999999991 C19.816,5.30199999999991 17.6099999999999,7.50800000000004 17.6099999999999,7.50800000000004 C17.6099999999999,7.50800000000004 19.8,9.69800000000009 19.8,9.69800000000009 C19.9839999999999,9.88200000000006 19.9839999999999,10.1869999999999 19.8,10.3710000000001 C19.8,10.3710000000001 19.355,10.816 19.355,10.816 C19.171,11 18.866,11 18.682,10.816 C18.682,10.816 16.492,8.62599999999998 16.492,8.62599999999998 C16.492,8.62599999999998 14.3019999999999,10.816 14.3019999999999,10.816 C14.1179999999999,11 13.8130000000001,11 13.6289999999999,10.816 C13.6289999999999,10.816 13.184,10.3710000000001 13.184,10.3710000000001 C13,10.1869999999999 13,9.88200000000006 13.184,9.69800000000009 C13.184,9.69800000000009 15.374,7.50800000000004 15.374,7.50800000000004 C15.374,7.50800000000004 13.184,5.31799999999998 13.184,5.31799999999998 C13,5.13400000000001 13,4.82899999999995 13.184,4.64499999999998 C13.184,4.64499999999998 13.6289999999999,4.20000000000005 13.6289999999999,4.20000000000005 C13.8130000000001,4.01600000000008 14.1179999999999,4.01600000000008 14.3019999999999,4.20000000000005 C14.3019999999999,4.20000000000005 16.492,6.3900000000001 16.492,6.3900000000001 C16.492,6.3900000000001 18.6980000000001,4.18399999999997 18.6980000000001,4.18399999999997 C18.8820000000001,4 19.1869999999999,4 19.3710000000001,4.18399999999997 C19.3710000000001,4.18399999999997 19.816,4.62899999999991 19.816,4.62899999999991 C20,4.8130000000001 20,5.11799999999994 19.816,5.30199999999991 ZM9.03600000000006,15.1679999999999 C9.03600000000006,15.1679999999999 3.78099999999995,11.1569999999999 3.78099999999995,11.1569999999999 C3.78099999999995,11.1569999999999 0,11.1569999999999 0,11.1569999999999 C0,11.1569999999999 0,4.7829999999999 0,4.7829999999999 C0,4.7829999999999 3.78099999999995,4.7829999999999 3.78099999999995,4.7829999999999 C3.78099999999995,4.7829999999999 9.15200000000004,0.65900000000011 9.15200000000004,0.65900000000011 C9.15200000000004,0.65900000000011 10,0 10,0.67499999999995 C10,1.45700000000011 10,14.28 10,15.1410000000001 C10,16 9.03600000000006,15.1679999999999 9.03600000000006,15.1679999999999 Z "/>
</svg>
