<?xml version="1.0" encoding="utf-8"?>
<!DOCTYPE svg PUBLIC "-//W3C//DTD SVG 1.1//EN" "http://www.w3.org/Graphics/SVG/1.1/DTD/svg11.dtd">
<svg version="1.1" baseProfile="full"
 xmlns="http://www.w3.org/2000/svg"
 xmlns:xlink="http://www.w3.org/1999/xlink"
 xmlns:ev="http://www.w3.org/2001/xml-events" 
  height="16px" 
  width="18px" 
>
<path fill="rgb( 255, 255, 255 )"
 d="M17,15 C17,15 17,0 17,0 C17,0 18,0 18,0 C18,0 18,15 18,15 C18,15 17,15 17,15 ZM15,3 C15,3 16,3 16,3 C16,3 16,12 16,12 C16,12 15,12 15,12 C15,12 15,3 15,3 ZM13,5 C13,5 14,5 14,5 C14,5 14,10 14,10 C14,10 13,10 13,10 C13,10 13,5 13,5 ZM9.03600000000006,15.1679999999999 C9.03600000000006,15.1679999999999 3.78099999999995,11.1569999999999 3.78099999999995,11.1569999999999 C3.78099999999995,11.1569999999999 0,11.1569999999999 0,11.1569999999999 C0,11.1569999999999 0,4.7829999999999 0,4.7829999999999 C0,4.7829999999999 3.78099999999995,4.7829999999999 3.78099999999995,4.7829999999999 C3.78099999999995,4.7829999999999 9.15200000000004,0.65900000000011 9.15200000000004,0.65900000000011 C9.15200000000004,0.65900000000011 10,0 10,0.67499999999995 C10,1.45700000000011 10,14.28 10,15.1410000000001 C10,16 9.03600000000006,15.1679999999999 9.03600000000006,15.1679999999999 Z "/>
</svg>
