<?xml version="1.0" encoding="utf-8"?>
<!-- Generator: Adobe Illustrator 16.0.0, SVG Export Plug-In . SVG Version: 6.00 Build 0)  -->
<!DOCTYPE svg PUBLIC "-//W3C//DTD SVG 1.1//EN" "http://www.w3.org/Graphics/SVG/1.1/DTD/svg11.dtd">
<svg version="1.1" id="_x36_" xmlns="http://www.w3.org/2000/svg" xmlns:xlink="http://www.w3.org/1999/xlink" x="0px" y="0px"
	 width="570px" height="542.936px" viewBox="0 0 570 542.936" enable-background="new 0 0 570 542.936" xml:space="preserve">
<g>
	<g>
		<path fill="none" stroke="#EC4D24" stroke-width="2.4109" stroke-miterlimit="10" d="M206.447,388.708
			c0,0,25.895-14.313,43.294-7.32c11.12,3.599,22.09,6.553,34.272,6.553c57.253,0,103.658-46.418,103.658-103.646
			c0-57.238-46.405-103.643-103.658-103.643c-57.228,0-103.632,46.403-103.632,103.643c0,19.658,6.437,38.656,15.729,54.192
			C212.561,366.193,206.447,388.708,206.447,388.708z"/>
		<g>
			<g>
				<path display="none" fill="#FFFFFF" d="M241.702,345.245h83.682v-8.683h-68.109l1.45-2.211
					c3.757-5.688,8.64-10.729,13.655-15.319c5.427-4.958,11.214-9.547,16.973-14.135c7.31-5.838,14.811-11.787,21.309-18.527
					c5.634-5.832,10.811-12.634,13.174-20.496c0.896-2.981,1.347-6.045,1.347-9.156c0-8.884-3.021-16.979-9.285-23.337
					c-7.253-7.352-17.61-11.141-27.807-11.626c-10.745-0.513-21.74,2.62-30.161,9.423c-6.833,5.519-11.306,15.352-12.773,24.088
					l10.508,1c0.666-6.7,3.166-12.772,8.208-17.442c16.236-15.052,50.583-7.442,50.583,17.552c0,7.667-3.873,14.816-8.531,20.675
					c-1.553,1.953-3.254,3.803-5.001,5.572c-2.169,2.219-4.464,4.348-6.784,6.418c-6.047,5.377-12.456,10.444-18.906,15.336
					c-3.002,2.266-5.914,4.685-8.729,7.185c-3.256,2.887-6.414,5.921-9.409,9.081C251.621,326.41,242.892,336.698,241.702,345.245
					L241.702,345.245z"/>
				<g>
					<path fill="none" stroke="#909090" stroke-width="0.8036" stroke-miterlimit="10" d="M242.203,342.888
						c-0.224,0.798-0.393,1.582-0.501,2.355h2.412"/>
					
						<line fill="none" stroke="#909090" stroke-width="0.8036" stroke-miterlimit="10" stroke-dasharray="4.6389,4.6389" x1="248.752" y1="345.245" x2="320.655" y2="345.245"/>
					<polyline fill="none" stroke="#909090" stroke-width="0.8036" stroke-miterlimit="10" points="322.975,345.245 
						325.387,345.245 325.387,342.833 					"/>
					<polyline fill="none" stroke="#909090" stroke-width="0.8036" stroke-miterlimit="10" points="325.387,338.973 
						325.387,336.563 322.975,336.563 					"/>
					
						<line fill="none" stroke="#909090" stroke-width="0.8036" stroke-miterlimit="10" stroke-dasharray="4.8686,4.8686" x1="318.106" y1="336.563" x2="262.118" y2="336.563"/>
					<polyline fill="none" stroke="#909090" stroke-width="0.8036" stroke-miterlimit="10" points="259.685,336.563 
						257.273,336.563 258.596,334.546 					"/>
					<path fill="none" stroke="#909090" stroke-width="0.8036" stroke-miterlimit="10" stroke-dasharray="4.8736,4.8736" d="
						M261.436,330.587c3.265-4.182,7.063-8.004,10.943-11.554c5.427-4.958,11.214-9.547,16.973-14.136
						c7.31-5.837,14.812-11.786,21.31-18.527c5.633-5.83,10.81-12.633,13.173-20.494c0.896-2.982,1.347-6.046,1.347-9.157
						c0-8.885-3.021-16.979-9.285-23.337c-7.253-7.352-17.61-11.14-27.807-11.626c-10.745-0.514-21.74,2.619-30.161,9.423
						c-5.622,4.539-9.643,11.995-11.713,19.361"/>
					<path fill="none" stroke="#909090" stroke-width="0.8036" stroke-miterlimit="10" d="M245.616,252.903
						c-0.179,0.794-0.334,1.582-0.465,2.362l2.398,0.228"/>
					<path fill="none" stroke="#909090" stroke-width="0.8036" stroke-miterlimit="10" d="M253.261,256.039l2.4,0.229
						c0.079-0.806,0.186-1.604,0.319-2.391"/>
					<path fill="none" stroke="#909090" stroke-width="0.8036" stroke-miterlimit="10" stroke-dasharray="4.8532,4.8532" d="
						M257.173,249.174c1.333-3.88,3.506-7.396,6.696-10.352c16.236-15.051,50.583-7.442,50.583,17.555
						c0,7.664-3.873,14.814-8.531,20.673c-1.553,1.952-3.254,3.802-5.001,5.573c-2.169,2.217-4.464,4.346-6.786,6.416
						c-6.045,5.377-12.454,10.446-18.904,15.336c-3.002,2.267-5.914,4.686-8.73,7.186c-3.254,2.886-6.414,5.92-9.409,9.08
						c-4.502,4.751-11.217,12.564-14.111,19.947"/>
				</g>
			</g>
		</g>
	</g>
	<line fill="none" stroke="#909090" stroke-width="1.14" stroke-miterlimit="10" x1="0" y1="178.94" x2="539.977" y2="178.94"/>
	
		<line fill="none" stroke="#909090" stroke-width="1.14" stroke-miterlimit="10" x1="75.218" y1="391.229" x2="567.501" y2="391.229"/>
	
		<line fill="none" stroke="#909090" stroke-width="1.14" stroke-miterlimit="10" x1="179.213" y1="13.271" x2="179.213" y2="543.256"/>
	
		<line fill="none" stroke="#909090" stroke-width="1.14" stroke-miterlimit="10" x1="389.286" y1="529.666" x2="389.286" y2="29.703"/>
	<path opacity="0.4" fill="none" stroke="#909090" stroke-width="1.0755" stroke-miterlimit="10" enable-background="new    " d="
		M83.635,179.754c0,189.05,136.143,342.028,304.389,342.028"/>
	<path fill="#909090" d="M388.839,139.736l-10.908-6.362v12.723L388.839,139.736"/>
	<path fill="#909090" d="M180.028,139.736l10.904,6.361v-12.723L180.028,139.736"/>
	
		<line fill="none" stroke="#909090" stroke-width="1.1534" stroke-miterlimit="10" x1="190.933" y1="139.736" x2="381.491" y2="139.736"/>
	<path fill="#909090" d="M434.173,390.538l6.361-10.906h-12.723L434.173,390.538"/>
	<path fill="#909090" d="M434.173,179.283l-6.362,10.905h12.722L434.173,179.283"/>
	
		<line fill="none" stroke="#909090" stroke-width="1.1706" stroke-miterlimit="10" x1="434.173" y1="185.553" x2="434.173" y2="381.867"/>
	<path fill="#909090" d="M83.635,180.099l-6.359,10.905h12.722L83.635,180.099"/>
	<path fill="#909090" d="M388.839,521.786l-10.908-6.363v12.723L388.839,521.786"/>
</g>
</svg>
