<?xml version="1.0" encoding="utf-8"?>
<!-- Generator: Adobe Illustrator 16.0.0, SVG Export Plug-In . SVG Version: 6.00 Build 0)  -->
<!DOCTYPE svg PUBLIC "-//W3C//DTD SVG 1.1//EN" "http://www.w3.org/Graphics/SVG/1.1/DTD/svg11.dtd">
<svg version="1.1" id="Layer_1" xmlns="http://www.w3.org/2000/svg" xmlns:xlink="http://www.w3.org/1999/xlink" x="0px" y="0px"
	 width="56px" height="51.894px" viewBox="-21.501 -19.924 56 51.894" enable-background="new -21.501 -19.924 56 51.894"
	 xml:space="preserve">
<path fill="#747474" d="M31.394-16.721c-1.985-2.005-4.619-3.107-7.446-3.107c-2.803,0-5.462,1.103-7.451,3.107l-27.899,28.147
	l-0.261,0.252l0.017,0.017c-1.085,1.288-1.679,2.903-1.679,4.599c0,1.894,0.741,3.687,2.066,5.037
	c1.346,1.346,3.122,2.086,4.999,2.086c1.885,0,3.677-0.744,4.994-2.086L17.043,2.813c0,0,0.812-0.804,0.146-1.54
	c-0.252-0.271-0.753-0.801-1.043-1.007c-0.778-0.539-1.464,0.168-1.464,0.168L-3.611,18.949c-0.707,0.707-1.645,1.103-2.634,1.103
	s-1.927-0.396-2.625-1.103c-0.707-0.707-1.094-1.662-1.094-2.655c0-1.005,0.387-1.947,1.085-2.658L18.856-14.34
	c1.354-1.369,3.159-2.12,5.091-2.12c1.927,0,3.728,0.751,5.099,2.12c1.347,1.367,2.104,3.189,2.104,5.127
	c0,1.939-0.758,3.762-2.104,5.131L1.135,24.057l-1.321,1.338c-1.994,2.003-4.645,3.131-7.464,3.131
	c-2.811,0-5.474-1.128-7.451-3.131c-1.994-2.02-3.088-4.687-3.088-7.53c0-2.845,1.094-5.504,3.088-7.531L1.118-6.105
	c0,0,0.669-0.629,0.088-1.296C0.865-7.782,0.289-8.391-0.056-8.679c-0.61-0.494-1.19,0.208-1.19,0.208L-17.441,7.973
	c-2.621,2.646-4.06,6.146-4.06,9.892c0,3.744,1.439,7.274,4.06,9.916c2.613,2.639,6.113,4.094,9.824,4.094
	c3.703,0,7.207-1.455,9.812-4.094L31.411-1.678c1.994-2.003,3.088-4.67,3.088-7.508C34.474-12.051,33.376-14.719,31.394-16.721z"/>
</svg>
