<?xml version="1.0" encoding="utf-8"?>
<!-- Generator: Adobe Illustrator 19.0.0, SVG Export Plug-In . SVG Version: 6.00 Build 0)  -->
<svg version="1.1" id="Layer_1" xmlns="http://www.w3.org/2000/svg" xmlns:xlink="http://www.w3.org/1999/xlink" x="0px" y="0px"
	 viewBox="-262.8 403.3 16 52" style="enable-background:new -262.8 403.3 16 52;" xml:space="preserve">
<style type="text/css">
	.st0{fill:none;stroke:#C0C0C0;stroke-miterlimit:10;}
	.st1{fill:#EE4B08;}
	.st2{fill:#747474;}
</style>
<g>
	<path class="st0" d="M-258.2,421.9h7c2.2,0,4,1.8,4,4v7c0,2.2-1.8,4-4,4h-7c-2.2,0-4-1.8-4-4v-7
		C-262.2,423.7-260.4,421.9-258.2,421.9z"/>
	<path class="st1" d="M-250.9,427.5c0-0.1-0.1-0.2-0.1-0.4l-0.7-0.7c-0.1-0.1-0.2-0.1-0.4-0.1c-0.1,0-0.2,0.1-0.4,0.1l-3.3,3.3
		l-1.5-1.5c-0.1-0.1-0.2-0.1-0.4-0.1c-0.1,0-0.2,0.1-0.4,0.1l-0.7,0.7c-0.1,0.1-0.1,0.2-0.1,0.4s0.1,0.2,0.1,0.4l1.8,1.8l0.7,0.7
		c0.1,0.1,0.2,0.1,0.4,0.1s0.2-0.1,0.4-0.1l0.7-0.7l3.6-3.6C-251,427.8-250.9,427.6-250.9,427.5z"/>
</g>
<g>
	<path class="st0" d="M-258.2,439.9h7c2.2,0,4,1.8,4,4v7c0,2.2-1.8,4-4,4h-7c-2.2,0-4-1.8-4-4v-7
		C-262.2,441.7-260.4,439.9-258.2,439.9z"/>
	<path class="st2" d="M-250.9,445.5c0-0.1-0.1-0.2-0.1-0.4l-0.7-0.7c-0.1-0.1-0.2-0.1-0.4-0.1c-0.1,0-0.2,0.1-0.4,0.1l-3.3,3.3
		l-1.5-1.5c-0.1-0.1-0.2-0.1-0.4-0.1c-0.1,0-0.2,0.1-0.4,0.1l-0.7,0.7c-0.1,0.1-0.1,0.2-0.1,0.4c0,0.1,0.1,0.2,0.1,0.4l1.8,1.8
		l0.7,0.7c0.1,0.1,0.2,0.1,0.4,0.1s0.2-0.1,0.4-0.1l0.7-0.7l3.6-3.6C-251,445.7-250.9,445.6-250.9,445.5z"/>
</g>
<path class="st0" d="M-258.2,403.9h7c2.2,0,4,1.8,4,4v7c0,2.2-1.8,4-4,4h-7c-2.2,0-4-1.8-4-4v-7
	C-262.2,405.7-260.4,403.9-258.2,403.9z"/>
</svg>
