<?xml version="1.0" encoding="utf-8"?>
<!-- Generator: Adobe Illustrator 16.0.0, SVG Export Plug-In . SVG Version: 6.00 Build 0)  -->
<!DOCTYPE svg PUBLIC "-//W3C//DTD SVG 1.1//EN" "http://www.w3.org/Graphics/SVG/1.1/DTD/svg11.dtd">
<svg version="1.1" id="Layer_1" xmlns="http://www.w3.org/2000/svg" xmlns:xlink="http://www.w3.org/1999/xlink" x="0px" y="0px"
	 width="399.5px" height="396.5px" viewBox="0 0 399.5 396.5" enable-background="new 0 0 399.5 396.5" xml:space="preserve">
<g>
	<path fill="none" stroke="#C0C0C0" stroke-width="2.6371" stroke-miterlimit="10" d="M371.458,246.143
		c-53.784-4.287-107.478-9.438-160.889-14.859c-65.514-6.643-135.806-9.811-203.818-19.668c2.331,28.477,11.537,55.748,24.35,79.389
		c23.937-2.986,47.874-6.025,71.823-8.936C192.53,271.148,281.942,258.221,371.458,246.143z"/>
	<path fill="none" stroke="#C0C0C0" stroke-width="2.6371" stroke-miterlimit="10" d="M394.751,197.529
		c0-44.269-14.975-84.944-39.903-117.618c-37.174,19.527-76.961,34.76-115.229,48.08c-78.095,27.182-152.545,40.566-230.009,48.112
		c74.708,11.878,153.189,15.471,224.446,21.065c53.359,4.191,106.68,9.097,160.039,13.347
		C394.378,206.201,394.751,201.914,394.751,197.529z"/>
	<path fill="none" stroke="#C0C0C0" stroke-width="2.6371" stroke-miterlimit="10" d="M128.535,315.211
		c-26.809,3.271-53.617,6.619-80.412,9.953c14.652,39.287,6.901,68.104,6.901,68.104s48.543-26.822,81.159-13.713
		c20.847,6.734,41.41,12.27,64.252,12.27c76.949,0,143.235-44.834,174.718-109.691C292.965,293.322,210.84,305.182,128.535,315.211z
		"/>
	<path fill="none" stroke="#C0C0C0" stroke-width="2.6371" stroke-miterlimit="10" d="M213.725,98.685
		c37.354-13.005,77.837-27.362,115.77-46.136C295.153,21.968,250.035,3.233,200.436,3.233c-87.211,0-161.004,57.479-185.572,136.63
		C81.781,133.341,147.09,121.875,213.725,98.685z"/>
	<g>
		<path fill-rule="evenodd" clip-rule="evenodd" fill="#EC4D24" d="M277.616,145.837c0-10.437-2.511-20.165-7.057-28.998
			c-6.219,2.324-12.412,4.578-18.593,6.779c3.451,6.168,5.523,13.34,5.523,21.574c0,14.37-7.249,27.774-15.979,38.757
			c-2.91,3.664-6.104,7.127-9.374,10.449c-0.824,0.844-1.738,1.603-2.575,2.434c1.493,0.109,3.013,0.219,4.493,0.335
			c6.258,0.489,12.528,1.023,18.786,1.533c9.567-10.327,18.169-22.135,22.238-35.7C276.754,157.413,277.616,151.67,277.616,145.837z
			"/>
		<path fill-rule="evenodd" clip-rule="evenodd" fill="#EC4D24" d="M178.624,262.664c10.172-9.297,21.026-17.898,31.816-26.514
			c1.777-1.428,3.554-2.922,5.356-4.352c-1.738-0.18-3.489-0.334-5.228-0.516c-6.374-0.643-12.786-1.262-19.237-1.84
			c-2.472,1.893-4.893,3.85-7.365,5.729c-5.627,4.264-11.086,8.795-16.365,13.482c-6.104,5.408-12.026,11.086-17.641,17.01
			c-3.064,3.244-6.683,7.301-10.313,11.742c9.181-1.172,18.361-2.291,27.542-3.488C170.885,270.016,174.709,266.242,178.624,262.664
			z"/>
		<path fill-rule="evenodd" clip-rule="evenodd" fill="#EC4D24" d="M155.588,311.787h122.415v-16.275h-0.181
			C237.095,301.139,196.354,306.623,155.588,311.787z"/>
		<path fill-rule="evenodd" clip-rule="evenodd" fill="#EC4D24" d="M160.609,114.619c0.722-0.76,1.275-1.603,2.061-2.331
			c13.211-12.251,32.821-16.469,50.784-13.514c0.09-0.039,0.18-0.058,0.271-0.09c9.013-3.136,18.232-6.374,27.529-9.709
			c-10.34-5.086-21.735-8.138-33.17-8.685c-20.15-0.959-40.766,4.913-56.552,17.667c-7.198,5.807-12.928,14.196-17.113,23.306
			C143.137,119.293,151.88,116.917,160.609,114.619z"/>
	</g>
</g>
</svg>
