<?xml version="1.0" encoding="utf-8"?>
<!DOCTYPE svg PUBLIC "-//W3C//DTD SVG 1.1//EN" "http://www.w3.org/Graphics/SVG/1.1/DTD/svg11.dtd">
<svg version="1.1" baseProfile="full"
 xmlns="http://www.w3.org/2000/svg"
 xmlns:xlink="http://www.w3.org/1999/xlink"
 xmlns:ev="http://www.w3.org/2001/xml-events" 
  height="22px" 
  width="28px" 
>
<path fill="rgb( 255, 255, 255 )"
 d="M13.885,16.661 C13.885,16.661 13.036,16.661 13.036,16.661 C13.036,16.661 13.036,15.205 13.036,15.205 C13.036,15.205 11.58,15.205 11.58,15.205 C11.58,15.205 11.58,14.356 11.58,14.356 C11.58,14.356 13.339,12.596 13.339,12.596 C13.339,12.596 15.645,14.902 15.645,14.902 C15.645,14.902 13.885,16.661 13.885,16.661 ZM20.559,5.74099999999999 C20.695,5.87700000000001 20.68,6.10500000000002 20.544,6.24099999999999 C20.544,6.24099999999999 15.235,11.55 15.235,11.55 C15.099,11.686 14.871,11.701 14.735,11.565 C14.598,11.428 14.613,11.201 14.75,11.064 C14.75,11.064 20.058,5.75599999999997 20.058,5.75599999999997 C20.195,5.61900000000003 20.422,5.60399999999999 20.559,5.74099999999999 ZM21.772,14.75 C21.772,14.553 21.651,14.386 21.469,14.31 C21.287,14.234 21.09,14.265 20.938,14.416 C20.938,14.416 19.967,15.387 19.967,15.387 C19.876,15.478 19.831,15.599 19.831,15.721 C19.831,15.721 19.831,17.632 19.831,17.632 C19.831,18.967 18.739,20.059 17.404,20.059 C17.404,20.059 4.78500000000003,20.059 4.78500000000003,20.059 C3.44999999999999,20.059 2.358,18.967 2.358,17.632 C2.358,17.632 2.358,5.01299999999998 2.358,5.01299999999998 C2.358,3.678 3.44999999999999,2.58600000000001 4.78500000000003,2.58600000000001 C4.78500000000003,2.58600000000001 17.404,2.58600000000001 17.404,2.58600000000001 C17.632,2.58600000000001 17.859,2.61599999999999 18.087,2.67700000000002 C18.254,2.738 18.436,2.69200000000001 18.572,2.55599999999998 C18.572,2.55599999999998 19.315,1.81200000000001 19.315,1.81200000000001 C19.437,1.69099999999997 19.482,1.53899999999999 19.452,1.37299999999999 C19.421,1.221 19.315,1.084 19.179,1.024 C18.618,0.76600000000002 18.011,0.64499999999998 17.404,0.64499999999998 C17.404,0.64499999999998 4.78500000000003,0.64499999999998 4.78500000000003,0.64499999999998 C2.37299999999999,0.64499999999998 0.41699999999997,2.601 0.41699999999997,5.01299999999998 C0.41699999999997,5.01299999999998 0.41699999999997,17.632 0.41699999999997,17.632 C0.41699999999997,20.043 2.37299999999999,22 4.78500000000003,22 C4.78500000000003,22 17.404,22 17.404,22 C19.816,22 21.772,20.043 21.772,17.632 C21.772,17.632 21.772,14.75 21.772,14.75 ZM20.316,3.55700000000002 C20.316,3.55700000000002 10.124,13.749 10.124,13.749 C10.124,13.749 10.124,18.117 10.124,18.117 C10.124,18.117 14.492,18.117 14.492,18.117 C14.492,18.117 24.684,7.92500000000001 24.684,7.92500000000001 C24.684,7.92500000000001 20.316,3.55700000000002 20.316,3.55700000000002 ZM27.051,5.55900000000003 C27.612,4.99799999999999 27.612,4.05700000000002 27.051,3.49599999999998 C27.051,3.49599999999998 24.745,1.19099999999997 24.745,1.19099999999997 C24.184,0.62900000000002 23.244,0.62900000000002 22.682,1.19099999999997 C22.682,1.19099999999997 21.287,2.58600000000001 21.287,2.58600000000001 C21.287,2.58600000000001 25.655,6.95400000000001 25.655,6.95400000000001 C25.655,6.95400000000001 27.051,5.55900000000003 27.051,5.55900000000003 Z "/>
</svg>
