<?xml version="1.0" encoding="utf-8"?>
<!DOCTYPE svg PUBLIC "-//W3C//DTD SVG 1.1//EN" "http://www.w3.org/Graphics/SVG/1.1/DTD/svg11.dtd">
<svg version="1.1" baseProfile="full"
 xmlns="http://www.w3.org/2000/svg"
 xmlns:xlink="http://www.w3.org/1999/xlink"
 xmlns:ev="http://www.w3.org/2001/xml-events" 
  height="28px" 
  width="27px" 
>
<path fill="rgb( 238, 75, 8 )"
 d="M3.87,24.214 C5.101,25.389 6.574,26.346 8.289,26.999 C10.004,27.652 11.917,28 13.984,28 C16.292,28 18.425,27.652 20.338,26.934 C22.075,26.303 20.58,23.104 19.304,23.627 C17.897,24.214 16.182,24.519 14.225,24.519 C12.686,24.519 11.279,24.279 10.048,23.823 C8.817,23.366 7.739,22.713 6.86,21.864 C5.981,21.016 5.277,19.972 4.793,18.775 C4.288,17.557 4.046,16.164 4.046,14.641 C4.046,13.205 4.288,11.834 4.771,10.616 C5.255,9.39800000000002 5.915,8.31 6.794,7.43900000000002 C7.652,6.548 8.707,5.82900000000001 9.916,5.32900000000001 C11.125,4.82900000000001 12.489,4.56799999999998 13.984,4.56799999999998 C15.369,4.56799999999998 16.644,4.76299999999998 17.787,5.11200000000002 C18.909,5.45999999999998 19.876,6.00400000000002 20.689,6.72199999999998 C21.503,7.43900000000002 22.141,8.31 22.602,9.35399999999999 C23.064,10.398 23.284,11.617 23.284,13.009 C23.284,13.814 23.196,14.576 23.02,15.294 C22.844,15.968 22.624,16.577 22.316,17.056 C22.031,17.513 21.701,17.883 21.305,18.144 C20.843,18.449 20.162,18.623 19.634,18.449 C18.975,18.231 19.106,17.317 19.15,16.773 C19.216,16.034 19.414,15.337 19.568,14.619 C19.81,13.444 20.074,12.291 20.316,11.138 C20.448,10.507 20.602,9.85500000000002 20.733,9.22399999999999 C20.909,8.41899999999998 20.294,7.63499999999999 19.436,7.63499999999999 C19.436,7.63499999999999 18.469,7.63499999999999 18.469,7.63499999999999 C17.875,7.63499999999999 17.348,8.02699999999999 17.194,8.59300000000002 C17.128,8.85399999999999 17.062,9.07100000000003 17.062,9.07100000000003 C16.578,7.59199999999998 14.797,7.178 13.39,7.19999999999999 C11.543,7.22199999999998 9.85,8.15800000000002 8.619,9.48500000000001 C8.509,9.61500000000001 8.377,9.74599999999998 8.267,9.87599999999998 C7.63,10.638 7.146,11.53 6.816,12.465 C6.464,13.466 6.288,14.489 6.288,15.533 C6.288,16.425 6.42,17.274 6.662,18.035 C6.926,18.818 7.3,19.493 7.783,20.059 C8.267,20.624 8.883,21.081 9.608,21.407 C10.334,21.734 11.147,21.908 12.027,21.908 C12.686,21.908 13.302,21.799 13.852,21.603 C14.379,21.407 14.863,21.168 15.281,20.885 C15.611,20.668 15.918,20.407 16.16,20.167 C16.314,20.45 16.49,20.69 16.732,20.929 C17.348,21.582 18.293,21.908 19.546,21.908 C20.536,21.908 21.503,21.712 22.404,21.32 C23.306,20.929 24.119,20.32 24.801,19.536 C25.461,18.753 26.01,17.796 26.406,16.664 C26.802,15.533 27,14.228 27,12.792 C27,10.834 26.626,9.09300000000002 25.9,7.63499999999999 C25.175,6.178 24.185,4.93700000000001 22.954,3.95800000000003 C21.745,2.97899999999999 20.338,2.26100000000002 18.777,1.76100000000002 C17.238,1.23899999999998 15.633,0.99900000000002 13.984,0.99900000000002 C12.071,0.99900000000002 10.246,1.34800000000001 8.553,2.02199999999999 C6.86,2.71800000000002 5.365,3.67599999999999 4.112,4.87200000000001 C2.837,6.06900000000002 1.825,7.52600000000001 1.1,9.15800000000002 C0.374,10.79 0,12.618 0,14.532 C0,16.469 0.33,18.296 1.012,19.928 C1.671,21.582 2.639,23.017 3.87,24.214 ZM15.765,15.076 C15.611,15.664 15.391,16.229 15.083,16.751 C14.775,17.252 14.401,17.665 13.918,17.992 C13.478,18.296 12.95,18.449 12.291,18.449 C11.873,18.449 11.543,18.362 11.301,18.209 C11.037,18.035 10.818,17.818 10.664,17.535 C10.488,17.23 10.378,16.904 10.312,16.577 C10.246,16.229 10.202,15.903 10.202,15.62 C10.202,15.011 10.29,14.402 10.466,13.771 C10.642,13.162 10.884,12.596 11.213,12.117 C11.543,11.639 11.917,11.247 12.379,10.942 C12.796,10.66 13.258,10.529 13.808,10.529 C14.247,10.529 14.599,10.594 14.863,10.747 C15.127,10.899 15.347,11.095 15.501,11.334 C15.677,11.595 15.786,11.9 15.874,12.226 C15.962,12.596 16.006,12.988 16.006,13.357 C15.984,13.901 15.918,14.467 15.765,15.076 Z "/>
</svg>
