<?xml version="1.0" encoding="utf-8"?>
<!-- Generator: Adobe Illustrator 16.0.0, SVG Export Plug-In . SVG Version: 6.00 Build 0)  -->
<!DOCTYPE svg PUBLIC "-//W3C//DTD SVG 1.1//EN" "http://www.w3.org/Graphics/SVG/1.1/DTD/svg11.dtd">
<svg version="1.1" id="Layer_1" xmlns="http://www.w3.org/2000/svg" xmlns:xlink="http://www.w3.org/1999/xlink" x="0px" y="0px"
	 width="374.512px" height="381.58px" viewBox="-116.696 -175.019 374.512 381.58"
	 enable-background="new -116.696 -175.019 374.512 381.58" xml:space="preserve">
<g>
	<path fill="none" stroke="#EC4D24" stroke-width="6.6535" stroke-miterlimit="10" d="M-69.602,203.731
		c0,0,46.782-25.86,78.217-13.216C28.719,197,48.536,202.341,70.53,202.341c103.441,0,187.285-83.857,187.285-187.259
		c0-103.428-83.844-187.272-187.285-187.272c-103.395,0-187.227,83.844-187.227,187.272c0,35.516,11.618,69.849,28.42,97.918
		C-58.556,163.031-69.602,203.731-69.602,203.731z"/>
</g>
<g>
	<g>
		<path fill="none" stroke="#EE4B08" stroke-width="6.6535" stroke-miterlimit="10" d="M95.455,92.936
			c0,13.774-10.604,24.34-24.886,24.34c-14.301,0-24.905-10.565-24.905-24.34v-0.572c0-13.723,10.604-24.313,24.905-24.313
			c14.282,0,24.886,10.539,24.886,24.313V92.936z M96.027-71.063l-12.319,107.6c-0.832,7.758-5.979,12.579-13.139,12.579
			c-7.186,0-12.332-4.887-13.151-12.579L45.093-71.121c-0.825-8.323,3.684-14.613,11.436-14.613h28.011
			C92.284-85.669,96.858-79.379,96.027-71.063L96.027-71.063z M96.027-71.063"/>
	</g>
</g>
</svg>
