<?xml version="1.0" encoding="utf-8"?>
<!-- Generator: Adobe Illustrator 16.0.0, SVG Export Plug-In . SVG Version: 6.00 Build 0)  -->
<!DOCTYPE svg PUBLIC "-//W3C//DTD SVG 1.1//EN" "http://www.w3.org/Graphics/SVG/1.1/DTD/svg11.dtd">
<svg version="1.1" id="Layer_1" xmlns="http://www.w3.org/2000/svg" xmlns:xlink="http://www.w3.org/1999/xlink" x="0px" y="0px"
	 width="500px" height="20.001px" viewBox="0 0 500 20.001" enable-background="new 0 0 500 20.001" xml:space="preserve">
<path id="flag" fill="#505050" d="M452.474,1.211c-1.563,0.322-2.932,0.049-3.677-0.195V0.655h-2.515V20h2.515v-9.343
	c2.772,0.263,5.128-0.201,7.7-1.002c3.038-0.944,6.148-0.124,6.449,0.055l0.002-9.366C459.187-0.634,454.762,0.737,452.474,1.211z"
	/>
<path id="sozial_share" fill="#505050" d="M387.087,13.035c-0.977,0-1.855,0.416-2.479,1.084l-7.29-3.628
	c0.027-0.171,0.041-0.343,0.041-0.521c0-0.173-0.016-0.342-0.039-0.509l7.28-3.589c0.623,0.674,1.504,1.097,2.486,1.097
	c1.892,0,3.426-1.56,3.426-3.484c0-1.923-1.534-3.483-3.426-3.483c-1.891,0-3.424,1.56-3.424,3.483c0,0.173,0.016,0.342,0.04,0.509
	l-7.278,3.59c-0.625-0.671-1.507-1.095-2.487-1.095c-1.893,0-3.426,1.559-3.426,3.481c0,1.923,1.533,3.482,3.426,3.482
	c0.977,0,1.854-0.416,2.478-1.084l7.29,3.63c-0.026,0.171-0.042,0.345-0.042,0.521c0,1.924,1.533,3.483,3.424,3.483
	c1.894,0,3.426-1.56,3.426-3.483S388.979,13.035,387.087,13.035z"/>
<path id="share" fill="#505050" d="M310.141,6.005c0-2.01,0-3.973,0-6.005c3.777,3.354,7.512,6.667,11.27,10.005
	c-3.758,3.335-7.486,6.647-11.256,9.995c0-2.017,0-3.989,0-5.991c-0.732-0.169-1.441-0.352-2.158-0.498
	c-1.742-0.342-3.5-0.513-5.271-0.444c-2.971,0.117-5.734,0.979-8.273,2.617c-1.049,0.682-2.037,1.46-3.041,2.188
	c0.068-0.174,0.15-0.398,0.24-0.625c0.9-2.207,2.037-4.258,3.607-6.014c2.027-2.268,4.518-3.665,7.344-4.412
	c2.225-0.585,4.486-0.78,6.768-0.813C309.615,6.002,309.857,6.005,310.141,6.005z"/>
<path id="comment" fill="#505050" d="M232.307,0c-2.21,0-4.256,0.396-6.137,1.189s-3.365,1.872-4.453,3.238
	c-1.088,1.366-1.632,2.853-1.632,4.462c0,1.377,0.412,2.673,1.233,3.89c0.822,1.215,1.95,2.238,3.385,3.072
	c-0.116,0.277-0.234,0.532-0.356,0.764c-0.122,0.232-0.266,0.455-0.434,0.669c-0.167,0.214-0.298,0.382-0.391,0.503
	c-0.092,0.121-0.243,0.293-0.451,0.512c-0.208,0.221-0.342,0.365-0.399,0.435c0-0.013-0.023,0.015-0.07,0.078
	s-0.072,0.093-0.078,0.087s-0.029,0.022-0.069,0.086c-0.041,0.064-0.061,0.096-0.061,0.096l-0.043,0.087
	c-0.018,0.034-0.029,0.069-0.035,0.104c-0.006,0.034-0.009,0.072-0.009,0.112s0.005,0.077,0.017,0.112
	c0.023,0.15,0.09,0.271,0.2,0.365c0.11,0.092,0.229,0.139,0.356,0.139h0.052c0.579-0.082,1.076-0.174,1.493-0.278
	c1.782-0.463,3.391-1.204,4.827-2.222c1.042,0.185,2.06,0.277,3.055,0.277c2.21,0,4.256-0.396,6.137-1.188s3.365-1.872,4.453-3.237
	c1.088-1.367,1.632-2.854,1.632-4.462c0-1.609-0.544-3.097-1.632-4.462c-1.088-1.366-2.572-2.445-4.453-3.238S234.518,0,232.307,0"
	/>
<path id="favorite" fill="#505050" d="M158.21,2.251c0.867-0.965,1.908-1.636,3.15-1.995c3.508-1.017,6.969,1.083,7.644,4.661
	c0.295,1.576-0.046,3.069-0.773,4.486c-0.712,1.385-1.685,2.573-2.73,3.705c-1.706,1.839-3.577,3.501-5.419,5.188
	c-0.56,0.511-1.122,1.022-1.684,1.526c-0.06,0.057-0.127,0.111-0.205,0.178c-0.437-0.395-0.871-0.776-1.291-1.176
	c-1.754-1.633-3.527-3.255-5.248-4.924c-1.258-1.222-2.401-2.555-3.276-4.093c-0.739-1.305-1.156-2.689-1.068-4.209
	c0.144-2.538,1.89-4.747,4.355-5.368c2.454-0.62,4.564,0.065,6.342,1.833c0.054,0.054,0.106,0.111,0.158,0.168
	C158.17,2.236,158.179,2.238,158.21,2.251z"/>
<g id="dislike">
	<path fill="#505050" d="M81.02,19.957c-0.427-0.176-0.693-0.516-0.898-0.901c-0.508-0.954-0.692-1.963-0.426-3.011
		c0.093-0.354,0.313-0.684,0.498-1.009c0.319-0.575,0.683-1.127,0.985-1.707c0.202-0.396,0.14-0.529-0.22-0.8
		c-0.362-0.273-0.78-0.311-1.226-0.301c-0.803,0.021-1.604,0.018-2.406,0.002c-0.432-0.007-0.86-0.072-1.288-0.08
		c-0.73-0.018-1.211-0.402-1.585-0.962c-0.213-0.319-0.418-0.656-0.33-1.049c0.056-0.263,0.177-0.513,0.283-0.764
		c0.065-0.148,0.15-0.29,0.233-0.43c0.103-0.181,0.085-0.342-0.025-0.512c-0.134-0.209-0.267-0.42-0.378-0.641
		C74.041,7.395,74.066,7,74.339,6.637c0.162-0.215,0.323-0.426,0.495-0.635c0.124-0.16,0.161-0.318,0.065-0.509
		c-0.054-0.11-0.082-0.232-0.129-0.349c-0.183-0.467-0.111-0.9,0.199-1.297c0.14-0.18,0.265-0.375,0.418-0.547
		c0.173-0.188,0.195-0.4,0.15-0.635c-0.04-0.182-0.077-0.371-0.123-0.551c-0.055-0.219-0.01-0.406,0.126-0.586
		c0.364-0.476,0.868-0.736,1.437-0.886c1.046-0.272,2.113-0.447,3.191-0.56c0.29-0.029,0.579-0.059,0.868-0.075
		c1.169-0.06,2.293,0.212,3.414,0.48c0.653,0.157,1.293,0.345,1.952,0.458c0.547,0.096,1.106,0.111,1.661,0.154
		c0.283,0.021,0.301,0.023,0.301,0.305c0,2.462,0,4.917,0.004,7.377c0,0.178-0.056,0.276-0.219,0.365
		c-0.922,0.493-1.51,1.266-1.893,2.206c-0.181,0.451-0.364,0.901-0.532,1.362c-0.234,0.64-0.64,1.163-1.108,1.646
		c-0.234,0.239-0.463,0.486-0.724,0.696c-0.7,0.571-1.126,1.312-1.361,2.151c-0.17,0.596-0.27,1.214-0.38,1.826
		c-0.075,0.411-0.208,0.767-0.653,0.921C81.362,20.002,81.201,20.028,81.02,19.957z"/>
	<path fill="#505050" d="M89.581,5.124c0-1.273,0-2.542,0-3.815c0-0.449,0.256-0.729,0.716-0.734
		c1.018-0.014,2.036-0.014,3.049-0.002c0.501,0.009,0.737,0.259,0.747,0.771c0.011,0.551,0.003,1.103,0.003,1.652
		c0,1.927,0,3.854,0,5.782c0,0.063,0,0.127-0.005,0.192c-0.039,0.477-0.278,0.705-0.769,0.708c-0.982,0.007-1.966,0.007-2.948,0.002
		c-0.547-0.003-0.796-0.266-0.796-0.8C89.581,7.629,89.581,6.375,89.581,5.124z"/>
</g>
<g id="like">
	<path fill="#505050" d="M13.078,0.044c0.427,0.178,0.693,0.517,0.898,0.902c0.508,0.954,0.692,1.963,0.427,3.012
		c-0.093,0.354-0.314,0.684-0.498,1.01c-0.319,0.574-0.684,1.125-0.984,1.708c-0.202,0.394-0.141,0.526,0.22,0.796
		c0.361,0.272,0.781,0.312,1.226,0.302c0.802-0.022,1.604-0.017,2.406-0.002c0.432,0.007,0.859,0.072,1.288,0.08
		c0.73,0.015,1.212,0.402,1.585,0.961c0.213,0.318,0.418,0.654,0.33,1.05c-0.057,0.262-0.178,0.512-0.283,0.764
		c-0.065,0.147-0.149,0.289-0.232,0.43c-0.104,0.179-0.087,0.342,0.024,0.511c0.133,0.208,0.267,0.42,0.377,0.64
		c0.197,0.398,0.173,0.794-0.101,1.157c-0.161,0.215-0.324,0.426-0.495,0.635c-0.123,0.159-0.161,0.318-0.064,0.508
		c0.052,0.11,0.081,0.234,0.127,0.348c0.184,0.469,0.112,0.902-0.199,1.299c-0.14,0.181-0.263,0.376-0.416,0.547
		c-0.173,0.189-0.195,0.4-0.149,0.635c0.039,0.183,0.074,0.37,0.122,0.55c0.055,0.22,0.01,0.407-0.127,0.588
		c-0.363,0.476-0.868,0.737-1.438,0.886c-1.045,0.271-2.112,0.447-3.189,0.558c-0.29,0.029-0.58,0.059-0.869,0.075
		c-1.171,0.061-2.293-0.212-3.415-0.48c-0.65-0.156-1.295-0.343-1.952-0.457c-0.547-0.096-1.106-0.112-1.662-0.153
		c-0.283-0.021-0.3-0.024-0.3-0.306c0-2.461,0.002-4.916-0.003-7.376c0-0.179,0.057-0.276,0.22-0.364
		c0.92-0.493,1.51-1.266,1.89-2.206c0.182-0.452,0.364-0.905,0.533-1.363c0.234-0.638,0.639-1.164,1.108-1.646
		c0.234-0.239,0.463-0.487,0.724-0.697c0.7-0.571,1.126-1.313,1.362-2.151c0.169-0.598,0.27-1.215,0.379-1.826
		c0.075-0.412,0.208-0.766,0.652-0.922C12.736,0,12.897-0.027,13.078,0.044z"/>
	<path fill="#505050" d="M4.518,14.878c0,1.272,0,2.542,0,3.814c0,0.449-0.255,0.729-0.716,0.735
		c-1.017,0.014-2.033,0.014-3.048,0.002c-0.5-0.008-0.737-0.259-0.747-0.77c-0.012-0.552-0.003-1.104-0.003-1.653
		c0-1.928,0-3.854,0-5.781c0-0.063,0-0.129,0.005-0.193c0.04-0.478,0.278-0.706,0.768-0.709c0.984-0.006,1.967-0.006,2.948-0.001
		c0.547,0.003,0.795,0.265,0.795,0.799C4.518,12.374,4.518,13.626,4.518,14.878z"/>
</g>
<g id="like_1_">
	<path fill="#EE4B08" d="M50.129,0.044c0.427,0.178,0.693,0.517,0.898,0.902C51.535,1.9,51.72,2.91,51.454,3.958
		c-0.093,0.354-0.314,0.684-0.498,1.01c-0.319,0.574-0.684,1.125-0.984,1.708c-0.202,0.394-0.141,0.526,0.22,0.796
		c0.361,0.272,0.781,0.312,1.226,0.302c0.802-0.022,1.604-0.017,2.406-0.002c0.432,0.007,0.859,0.072,1.288,0.08
		c0.73,0.015,1.212,0.402,1.585,0.961c0.213,0.318,0.418,0.654,0.33,1.05c-0.057,0.262-0.178,0.512-0.283,0.764
		c-0.065,0.147-0.149,0.289-0.232,0.43c-0.104,0.179-0.087,0.342,0.024,0.511c0.133,0.208,0.267,0.42,0.377,0.64
		c0.197,0.398,0.173,0.794-0.101,1.157C56.65,13.58,56.487,13.791,56.316,14c-0.123,0.158-0.161,0.318-0.064,0.508
		c0.052,0.109,0.081,0.234,0.127,0.348c0.184,0.469,0.112,0.902-0.199,1.299c-0.14,0.18-0.263,0.375-0.416,0.547
		c-0.173,0.189-0.195,0.4-0.149,0.635c0.039,0.182,0.074,0.369,0.122,0.549c0.055,0.221,0.01,0.408-0.127,0.588
		c-0.363,0.477-0.868,0.738-1.438,0.887c-1.045,0.271-2.112,0.447-3.189,0.557c-0.29,0.029-0.58,0.059-0.869,0.076
		c-1.171,0.061-2.293-0.213-3.415-0.48c-0.65-0.156-1.295-0.344-1.952-0.457c-0.547-0.096-1.106-0.113-1.662-0.154
		c-0.283-0.02-0.3-0.023-0.3-0.305c0-2.461,0.002-4.916-0.003-7.376c0-0.179,0.057-0.276,0.22-0.364
		c0.92-0.493,1.51-1.266,1.89-2.206c0.182-0.452,0.364-0.905,0.533-1.363c0.234-0.638,0.639-1.164,1.108-1.646
		c0.234-0.239,0.463-0.487,0.724-0.697c0.7-0.571,1.126-1.313,1.362-2.151c0.169-0.598,0.27-1.215,0.379-1.826
		c0.075-0.412,0.208-0.766,0.652-0.922C49.787,0,49.948-0.027,50.129,0.044z"/>
	<path fill="#EE4B08" d="M41.569,14.878c0,1.271,0,2.541,0,3.814c0,0.449-0.255,0.729-0.716,0.734
		c-1.017,0.014-2.033,0.014-3.048,0.002c-0.5-0.008-0.737-0.258-0.747-0.77c-0.012-0.551-0.003-1.104-0.003-1.652
		c0-1.928,0-3.855,0-5.781c0-0.063,0-0.129,0.005-0.193c0.04-0.478,0.278-0.706,0.768-0.709c0.984-0.006,1.967-0.006,2.948-0.001
		c0.547,0.003,0.795,0.265,0.795,0.799C41.569,12.374,41.569,13.626,41.569,14.878z"/>
</g>
<g id="dislike_1_">
	<path fill="#EE4B08" d="M118.072,19.956c-0.427-0.176-0.693-0.516-0.898-0.9c-0.508-0.955-0.692-1.963-0.426-3.012
		c0.093-0.354,0.313-0.684,0.498-1.008c0.319-0.576,0.683-1.127,0.985-1.707c0.202-0.396,0.14-0.529-0.22-0.801
		c-0.362-0.273-0.78-0.311-1.226-0.301c-0.803,0.021-1.604,0.018-2.406,0.002c-0.432-0.006-0.86-0.072-1.288-0.08
		c-0.73-0.018-1.211-0.402-1.585-0.962c-0.213-0.318-0.418-0.655-0.33-1.048c0.056-0.263,0.177-0.513,0.283-0.764
		c0.065-0.148,0.15-0.29,0.233-0.43c0.103-0.181,0.085-0.342-0.025-0.512c-0.134-0.209-0.267-0.42-0.378-0.641
		c-0.197-0.398-0.172-0.793,0.102-1.156c0.162-0.215,0.323-0.426,0.495-0.635c0.124-0.16,0.161-0.318,0.065-0.509
		c-0.054-0.11-0.082-0.232-0.129-0.349c-0.183-0.467-0.111-0.9,0.199-1.297c0.14-0.18,0.265-0.375,0.418-0.547
		c0.173-0.188,0.195-0.4,0.15-0.635c-0.04-0.182-0.077-0.371-0.123-0.551c-0.055-0.219-0.01-0.406,0.126-0.586
		c0.364-0.476,0.868-0.736,1.437-0.886c1.046-0.272,2.113-0.447,3.191-0.56c0.29-0.029,0.579-0.059,0.868-0.075
		c1.169-0.06,2.293,0.212,3.414,0.48c0.653,0.157,1.293,0.345,1.952,0.458c0.547,0.096,1.106,0.111,1.661,0.154
		c0.283,0.021,0.301,0.023,0.301,0.305c0,2.462,0,4.917,0.004,7.377c0,0.178-0.056,0.276-0.219,0.365
		c-0.922,0.493-1.51,1.266-1.893,2.205c-0.181,0.451-0.364,0.901-0.532,1.362c-0.234,0.641-0.64,1.164-1.108,1.646
		c-0.234,0.238-0.463,0.486-0.724,0.695c-0.7,0.572-1.126,1.313-1.361,2.152c-0.17,0.596-0.27,1.213-0.38,1.826
		c-0.075,0.41-0.208,0.766-0.653,0.92C118.414,20.002,118.253,20.028,118.072,19.956z"/>
	<path fill="#EE4B08" d="M126.632,5.124c0-1.273,0-2.542,0-3.815c0-0.449,0.256-0.729,0.716-0.734
		c1.018-0.014,2.036-0.014,3.049-0.002c0.501,0.009,0.737,0.259,0.747,0.771c0.011,0.551,0.003,1.103,0.003,1.652
		c0,1.927,0,3.854,0,5.782c0,0.063,0,0.127-0.005,0.192c-0.039,0.477-0.278,0.705-0.769,0.708c-0.982,0.007-1.966,0.007-2.948,0.002
		c-0.547-0.003-0.796-0.266-0.796-0.8C126.632,7.629,126.632,6.375,126.632,5.124z"/>
</g>
<path id="favorite_1_" fill="#EE4B08" d="M195.261,2.251c0.867-0.965,1.908-1.636,3.15-1.995c3.508-1.017,6.969,1.083,7.644,4.661
	c0.295,1.576-0.046,3.069-0.773,4.486c-0.712,1.385-1.685,2.573-2.73,3.705c-1.706,1.839-3.577,3.501-5.419,5.188
	c-0.56,0.511-1.122,1.022-1.684,1.526c-0.06,0.057-0.127,0.111-0.205,0.178c-0.437-0.395-0.871-0.776-1.291-1.176
	c-1.754-1.633-3.527-3.255-5.248-4.924c-1.258-1.222-2.401-2.555-3.276-4.093c-0.739-1.305-1.156-2.689-1.068-4.209
	c0.144-2.538,1.89-4.747,4.355-5.368c2.454-0.62,4.564,0.065,6.342,1.833c0.054,0.054,0.106,0.111,0.158,0.168
	C195.221,2.236,195.23,2.238,195.261,2.251z"/>
<path id="comment_1_" fill="#EE4B08" d="M269.359,0c-2.211,0-4.257,0.396-6.138,1.189s-3.365,1.872-4.453,3.238
	c-1.089,1.366-1.632,2.853-1.632,4.462c0,1.377,0.411,2.673,1.232,3.89c0.822,1.215,1.951,2.238,3.386,3.072
	c-0.116,0.277-0.234,0.532-0.356,0.764c-0.121,0.232-0.266,0.455-0.434,0.669s-0.298,0.382-0.391,0.503
	c-0.092,0.121-0.243,0.293-0.451,0.512c-0.209,0.221-0.342,0.365-0.399,0.435c0-0.013-0.023,0.015-0.069,0.078
	c-0.047,0.063-0.072,0.093-0.078,0.087s-0.029,0.022-0.07,0.086c-0.04,0.064-0.061,0.096-0.061,0.096l-0.043,0.087
	c-0.018,0.034-0.029,0.069-0.035,0.104c-0.006,0.034-0.008,0.072-0.008,0.112s0.005,0.077,0.017,0.112
	c0.023,0.15,0.09,0.271,0.2,0.365c0.109,0.092,0.229,0.139,0.355,0.139h0.053c0.578-0.082,1.076-0.174,1.492-0.278
	c1.783-0.463,3.392-1.204,4.827-2.222c1.042,0.185,2.06,0.277,3.056,0.277c2.21,0,4.256-0.396,6.137-1.188s3.365-1.872,4.453-3.237
	c1.088-1.367,1.632-2.854,1.632-4.462c0-1.609-0.544-3.097-1.632-4.462c-1.088-1.366-2.572-2.445-4.453-3.238S271.569,0,269.359,0"
	/>
<path id="share_1_" fill="#EE4B08" d="M347.191,6.005c0-2.01,0-3.973,0-6.005c3.777,3.354,7.512,6.667,11.27,10.005
	c-3.758,3.335-7.484,6.647-11.254,9.995c0-2.017,0-3.989,0-5.991c-0.732-0.169-1.443-0.352-2.158-0.498
	c-1.742-0.342-3.5-0.513-5.273-0.444c-2.969,0.117-5.734,0.979-8.271,2.617c-1.051,0.682-2.037,1.46-3.043,2.188
	c0.07-0.174,0.15-0.398,0.24-0.625c0.9-2.207,2.039-4.258,3.607-6.014c2.027-2.268,4.518-3.665,7.346-4.412
	c2.223-0.585,4.484-0.78,6.766-0.813C346.666,6.002,346.908,6.005,347.191,6.005z"/>
<path id="sozial_share_1_" fill="#EE4B08" d="M424.139,13.036c-0.977,0-1.855,0.416-2.479,1.084l-7.29-3.629
	c0.027-0.172,0.041-0.344,0.041-0.521c0-0.174-0.016-0.342-0.039-0.509l7.28-3.59c0.623,0.675,1.504,1.097,2.486,1.097
	c1.892,0,3.426-1.56,3.426-3.483c0-1.923-1.534-3.483-3.426-3.483c-1.891,0-3.424,1.561-3.424,3.483c0,0.173,0.016,0.342,0.04,0.509
	l-7.278,3.59c-0.625-0.672-1.507-1.095-2.487-1.095c-1.893,0-3.426,1.559-3.426,3.481s1.533,3.482,3.426,3.482
	c0.977,0,1.854-0.416,2.478-1.085l7.29,3.63c-0.026,0.172-0.042,0.346-0.042,0.521c0,1.924,1.533,3.482,3.424,3.482
	c1.894,0,3.426-1.559,3.426-3.482S426.03,13.036,424.139,13.036z"/>
<path id="flag_1_" fill="#EE4B08" d="M489.525,1.211c-1.563,0.322-2.932,0.049-3.677-0.195V0.655h-2.515V20h2.515v-9.343
	c2.772,0.263,5.128-0.201,7.7-1.002c3.038-0.944,6.148-0.124,6.449,0.055L500,0.344C496.238-0.634,491.813,0.737,489.525,1.211z"/>
</svg>
