<?xml version="1.0" encoding="utf-8"?>
<!-- Generator: Adobe Illustrator 16.0.0, SVG Export Plug-In . SVG Version: 6.00 Build 0)  -->
<!DOCTYPE svg PUBLIC "-//W3C//DTD SVG 1.1//EN" "http://www.w3.org/Graphics/SVG/1.1/DTD/svg11.dtd">
<svg version="1.1" xmlns="http://www.w3.org/2000/svg" xmlns:xlink="http://www.w3.org/1999/xlink" x="0px" y="0px"
	 width="781.027px" height="60px" viewBox="0 -12.25 781.027 60" enable-background="new 0 -12.25 781.027 60" xml:space="preserve"
	>
<g id="Layer_2">
</g>
<g id="Layer_1">
	<rect x="0" y="-12.25" display="none" fill="#3F3F3F" width="60" height="60"/>
	<g>
		<g>
			<path fill="#999999" d="M40.715,7.75h-21.43c-0.526,0-0.953,0.426-0.953,0.952v2.857c0,0.526,0.426,0.952,0.953,0.952h21.43
				c0.526,0,0.953-0.426,0.953-0.952V8.702C41.667,8.176,41.241,7.75,40.715,7.75z M40.715,15.369h-21.43
				c-0.526,0-0.953,0.426-0.953,0.952v2.857c0,0.526,0.426,0.953,0.953,0.953h21.43c0.526,0,0.953-0.427,0.953-0.953v-2.857
				C41.667,15.795,41.241,15.369,40.715,15.369z M40.715,22.988h-21.43c-0.526,0-0.953,0.426-0.953,0.952v2.857
				c0,0.525,0.426,0.952,0.953,0.952h21.43c0.526,0,0.953-0.427,0.953-0.952V23.94C41.667,23.415,41.241,22.988,40.715,22.988z"/>
		</g>
	</g>
	<rect x="65.548" y="-12.25" display="none" fill="#3F3F3F" width="60" height="60"/>
	<g>
		<g>
			<path fill="#FFFFFF" d="M106.262,7.75h-21.43c-0.526,0-0.953,0.426-0.953,0.952v2.857c0,0.526,0.426,0.952,0.953,0.952h21.43
				c0.526,0,0.953-0.426,0.953-0.952V8.702C107.215,8.176,106.789,7.75,106.262,7.75z M106.262,15.369h-21.43
				c-0.526,0-0.953,0.426-0.953,0.952v2.857c0,0.526,0.426,0.953,0.953,0.953h21.43c0.526,0,0.953-0.427,0.953-0.953v-2.857
				C107.215,15.795,106.789,15.369,106.262,15.369z M106.262,22.988h-21.43c-0.526,0-0.953,0.426-0.953,0.952v2.857
				c0,0.525,0.426,0.952,0.953,0.952h21.43c0.526,0,0.953-0.427,0.953-0.952V23.94C107.215,23.415,106.789,22.988,106.262,22.988z"
				/>
		</g>
	</g>
	<rect x="131.095" y="-12.25" display="none" fill="#3F3F3F" width="60" height="60"/>
	<g id="dashboard">
		<path fill="#999999" d="M158.24,14.981c0,0.74-0.599,1.339-1.339,1.339h-5.893c-0.74,0-1.34-0.6-1.34-1.339V9.09
			c0-0.738,0.6-1.34,1.34-1.34h5.892c0.741,0,1.339,0.602,1.339,1.34L158.24,14.981L158.24,14.981z"/>
		<path fill="#999999" d="M161.098,26.413c0,0.739-0.602,1.337-1.341,1.337h-8.749c-0.74,0-1.34-0.598-1.34-1.337v-5.892
			c0-0.74,0.6-1.342,1.34-1.342h8.75c0.74,0,1.341,0.603,1.341,1.342L161.098,26.413L161.098,26.413z"/>
		<path fill="#999999" d="M171.186,10.607c0.74,0,1.337,0.602,1.337,1.339v11.607c0,0.735-0.597,1.339-1.337,1.339h-5.895
			c-0.737,0-1.339-0.605-1.339-1.339V11.947c0-0.737,0.602-1.339,1.339-1.339H171.186L171.186,10.607z"/>
	</g>
	<rect x="196.643" y="-12.25" display="none" fill="#3F3F3F" width="60" height="60"/>
	<g id="dashboard_1_">
		<path fill="#FFFFFF" d="M223.787,14.981c0,0.74-0.598,1.339-1.338,1.339h-5.894c-0.74,0-1.34-0.6-1.34-1.339V9.09
			c0-0.738,0.6-1.34,1.34-1.34h5.893c0.74,0,1.339,0.602,1.339,1.34V14.981L223.787,14.981z"/>
		<path fill="#FFFFFF" d="M226.645,26.413c0,0.739-0.602,1.337-1.341,1.337h-8.749c-0.74,0-1.34-0.598-1.34-1.337v-5.892
			c0-0.74,0.6-1.341,1.34-1.341h8.75c0.74,0,1.341,0.602,1.341,1.341L226.645,26.413L226.645,26.413z"/>
		<path fill="#FFFFFF" d="M236.734,10.607c0.74,0,1.337,0.602,1.337,1.34v11.607c0,0.735-0.597,1.339-1.337,1.339h-5.895
			c-0.737,0-1.34-0.604-1.34-1.339V11.947c0-0.738,0.603-1.34,1.34-1.34H236.734L236.734,10.607z"/>
	</g>
	<rect x="262.191" y="-12.25" display="none" fill="#3F3F3F" width="60" height="60"/>
	<g id="inbox">
		<path fill="#999999" d="M283.079,22.705c0.587-0.544,1.18-1.083,1.769-1.625c0.775-0.714,1.565-1.412,2.355-2.115
			c0.539-0.472,1.077-0.947,1.617-1.422c-0.284-0.246-0.566-0.492-0.848-0.74c-0.707-0.626-1.415-1.255-2.117-1.886
			c-0.724-0.648-1.443-1.306-2.161-1.965c-0.826-0.754-1.644-1.52-2.454-2.292c-0.521-0.496-1.043-0.995-1.562-1.498
			c-0.493,0.63-0.789,1.422-0.789,2.284v12.613c0,0.757,0.224,1.456,0.611,2.035c0.503-0.492,1.016-0.971,1.522-1.457
			C281.706,23.987,282.389,23.344,283.079,22.705z"/>
		<path fill="#999999" d="M299.761,22.878c-0.779-0.623-1.564-1.25-2.339-1.881c-0.672-0.543-1.341-1.089-2.013-1.644
			c-0.279-0.237-0.565-0.473-0.847-0.711c-0.04-0.03-0.084-0.063-0.122-0.094c-0.015-0.014-0.018-0.003-0.029,0.008
			c-0.073,0.061-0.148,0.122-0.219,0.183c-0.14,0.121-0.276,0.241-0.416,0.356c0.018-0.011,0.032-0.026,0.044-0.037
			c-0.225,0.21-0.463,0.374-0.745,0.498c-0.283,0.115-0.575,0.167-0.883,0.177c-0.304-0.007-0.596-0.062-0.883-0.176
			c-0.278-0.127-0.52-0.291-0.746-0.502c0.016,0.015,0.029,0.028,0.044,0.038c-0.133-0.111-0.27-0.23-0.404-0.347
			c-0.071-0.062-0.143-0.125-0.213-0.185c-0.003-0.004-0.029-0.029-0.031-0.027c-0.037,0.032-0.075,0.061-0.109,0.091
			c-0.543,0.454-1.088,0.903-1.635,1.354c-0.767,0.63-1.534,1.261-2.311,1.881c-0.663,0.534-1.331,1.062-1.998,1.587
			c-0.699,0.549-1.397,1.094-2.105,1.638c-0.647,0.493-1.292,0.986-1.942,1.47c0.675,0.734,1.644,1.193,2.717,1.193h19.232
			c1.078,0,2.043-0.459,2.716-1.194c-0.826-0.613-1.646-1.238-2.46-1.867C301.3,24.09,300.529,23.49,299.761,22.878z"/>
		<path fill="#999999" d="M301.323,12.372c-0.582,0.541-1.17,1.076-1.757,1.612c-0.785,0.717-1.584,1.427-2.38,2.134
			c-0.535,0.474-1.08,0.951-1.617,1.423c0.219,0.19,0.439,0.383,0.653,0.573c0.656,0.576,1.312,1.153,1.956,1.737
			c0.725,0.652,1.445,1.305,2.163,1.958c0.656,0.6,1.31,1.208,1.956,1.816c0.87,0.818,1.729,1.639,2.579,2.467
			c0.39-0.584,0.616-1.281,0.616-2.037V11.442c0-0.861-0.296-1.653-0.788-2.282c-0.442,0.427-0.885,0.848-1.327,1.27
			C302.708,11.081,302.018,11.729,301.323,12.372z"/>
		<path fill="#999999" d="M284.729,12.282c0.774,0.62,1.55,1.241,2.32,1.863c0.668,0.542,1.333,1.085,1.995,1.639
			c0.56,0.467,1.117,0.931,1.674,1.397c0.279,0.231,0.558,0.47,0.837,0.708c0.045,0.04,0.092,0.078,0.135,0.118
			c0.161,0.148,0.371,0.19,0.584,0.186c0.111-0.021,0.21-0.04,0.31-0.099c0.073-0.038,0.135-0.093,0.196-0.15
			c0.033-0.031,0.071-0.062,0.105-0.092c0.559-0.471,1.116-0.943,1.681-1.41c0.534-0.45,1.074-0.896,1.613-1.337
			c0.767-0.631,1.534-1.26,2.312-1.88c0.664-0.532,1.329-1.061,1.998-1.586c0.698-0.55,1.397-1.095,2.103-1.639
			c0.567-0.433,1.138-0.864,1.705-1.292c-0.658-0.596-1.527-0.957-2.481-0.957h-19.233c-0.954,0-1.82,0.36-2.477,0.954
			c0.817,0.609,1.628,1.23,2.434,1.856C283.27,11.132,284.005,11.701,284.729,12.282z"/>
	</g>
	<rect x="327.739" y="-12.472" display="none" fill="#3F3F3F" width="60" height="60"/>
	<g id="inbox_1_">
		<path fill="#FFFFFF" d="M348.627,22.482c0.587-0.544,1.18-1.083,1.769-1.625c0.775-0.714,1.565-1.412,2.355-2.115
			c0.539-0.472,1.077-0.947,1.617-1.422c-0.284-0.246-0.566-0.492-0.848-0.74c-0.707-0.626-1.415-1.255-2.117-1.886
			c-0.724-0.648-1.443-1.306-2.161-1.965c-0.826-0.754-1.644-1.52-2.454-2.292c-0.521-0.496-1.043-0.995-1.562-1.498
			c-0.493,0.63-0.789,1.422-0.789,2.284v12.613c0,0.757,0.224,1.456,0.611,2.035c0.503-0.492,1.016-0.971,1.522-1.458
			C347.254,23.765,347.937,23.122,348.627,22.482z"/>
		<path fill="#FFFFFF" d="M365.309,22.655c-0.779-0.623-1.564-1.25-2.339-1.881c-0.672-0.543-1.341-1.089-2.013-1.644
			c-0.279-0.237-0.565-0.473-0.847-0.711c-0.04-0.03-0.084-0.063-0.122-0.094c-0.015-0.014-0.018-0.003-0.029,0.008
			c-0.073,0.061-0.148,0.122-0.219,0.183c-0.14,0.121-0.276,0.241-0.416,0.356c0.018-0.011,0.032-0.026,0.044-0.037
			c-0.225,0.21-0.463,0.374-0.745,0.498c-0.283,0.115-0.575,0.167-0.883,0.177c-0.304-0.007-0.596-0.062-0.883-0.176
			c-0.278-0.127-0.52-0.291-0.746-0.502c0.016,0.015,0.029,0.028,0.044,0.038c-0.133-0.111-0.27-0.23-0.404-0.347
			c-0.071-0.062-0.143-0.125-0.213-0.185c-0.003-0.004-0.029-0.029-0.031-0.027c-0.037,0.032-0.075,0.061-0.109,0.091
			c-0.543,0.454-1.088,0.903-1.635,1.354c-0.767,0.63-1.534,1.261-2.311,1.881c-0.663,0.534-1.331,1.062-1.998,1.587
			c-0.699,0.549-1.397,1.094-2.105,1.638c-0.647,0.493-1.292,0.986-1.942,1.47c0.675,0.734,1.644,1.193,2.717,1.193h19.232
			c1.078,0,2.043-0.459,2.716-1.194c-0.826-0.613-1.646-1.238-2.46-1.867C366.847,23.867,366.077,23.268,365.309,22.655z"/>
		<path fill="#FFFFFF" d="M366.871,12.149c-0.582,0.541-1.17,1.076-1.757,1.612c-0.785,0.717-1.584,1.427-2.38,2.134
			c-0.535,0.474-1.08,0.951-1.617,1.423c0.219,0.19,0.439,0.383,0.653,0.573c0.656,0.576,1.312,1.153,1.956,1.737
			c0.725,0.652,1.445,1.305,2.163,1.958c0.656,0.6,1.31,1.208,1.956,1.816c0.87,0.818,1.729,1.639,2.579,2.467
			c0.39-0.584,0.616-1.281,0.616-2.037V11.22c0-0.861-0.296-1.653-0.788-2.282c-0.442,0.427-0.885,0.848-1.327,1.27
			C368.256,10.858,367.566,11.506,366.871,12.149z"/>
		<path fill="#FFFFFF" d="M350.277,12.059c0.774,0.62,1.55,1.241,2.32,1.863c0.668,0.542,1.333,1.085,1.995,1.639
			c0.56,0.467,1.117,0.931,1.674,1.397c0.279,0.231,0.558,0.47,0.837,0.708c0.045,0.04,0.092,0.078,0.135,0.118
			c0.161,0.148,0.371,0.19,0.584,0.186c0.111-0.021,0.21-0.04,0.31-0.099c0.073-0.038,0.135-0.093,0.196-0.15
			c0.033-0.031,0.071-0.062,0.105-0.092c0.559-0.471,1.116-0.943,1.681-1.41c0.534-0.45,1.074-0.896,1.613-1.337
			c0.767-0.631,1.534-1.26,2.312-1.88c0.664-0.532,1.329-1.061,1.998-1.586c0.698-0.55,1.397-1.095,2.103-1.639
			c0.567-0.433,1.138-0.864,1.705-1.292c-0.658-0.596-1.527-0.957-2.481-0.957H348.13c-0.954,0-1.82,0.36-2.477,0.954
			c0.817,0.609,1.628,1.23,2.434,1.856C348.818,10.909,349.552,11.479,350.277,12.059z"/>
	</g>
	<rect x="393.288" y="-12.25" display="none" fill="#3F3F3F" width="60" height="60"/>
	<g id="InviteKinnectors">
		<path fill="#999999" d="M435.39,23.882c0-0.479-0.494-1.393-0.494-1.393c-1.02-1.776-2.83-2.354-2.83-2.354
			c-1.158-0.419-1.781-0.835-1.781-1.255c0-0.418,0.33-0.902,0.33-0.902c1.426-2.015,1.354-3.663,1.354-3.663
			c0-3.512-3.629-3.558-3.629-3.558s-0.6,0.008-1.314,0.254c0.158,0.558,0.242,1.165,0.242,1.815
			c0.004,0.248,0.004,2.239-1.465,4.755c0.086,0.132,0.172,0.262,0.266,0.397c0,0,0.328,0.483,0.328,0.902
			c0,0.303-0.324,0.603-0.939,0.904c0.303,0.168,0.742,0.371,1.398,0.613c0.27,0.087,2.941,1.033,4.488,3.732l0.006,0.008
			l0.006,0.008c0.041,0.087,0.148,0.286,0.27,0.545c1.828-0.06,2.785-0.148,2.785-0.148C435.517,24.466,435.39,23.882,435.39,23.882
			z"/>
		<g>
			<path fill="#999999" d="M421.265,27.75c5.646,0,8.686-0.288,8.686-0.288c1.58-0.107,1.396-0.942,1.396-0.942
				c0-0.683-0.709-1.986-0.709-1.986c-1.455-2.546-4.049-3.371-4.049-3.371c-1.648-0.599-2.539-1.196-2.539-1.795
				c0-0.599,0.471-1.288,0.471-1.288c2.039-2.88,1.938-5.239,1.938-5.239c0-5.021-5.191-5.09-5.191-5.09s-5.186,0.068-5.186,5.088
				c0,0-0.102,2.36,1.938,5.24c0,0,0.473,0.689,0.473,1.289s-0.893,1.196-2.545,1.796c0,0-2.594,0.825-4.051,3.37
				c0,0-0.709,1.304-0.709,1.986c0,0-0.184,0.831,1.4,0.942C412.582,27.462,415.627,27.75,421.265,27.75z"/>
		</g>
	</g>
	<rect x="458.836" y="-12.25" display="none" fill="#3F3F3F" width="60" height="60"/>
	<g id="InviteKinnectors_1_">
		<path fill="#FFFFFF" d="M500.938,23.882c0-0.479-0.493-1.394-0.493-1.394c-1.02-1.775-2.831-2.354-2.831-2.354
			c-1.157-0.42-1.781-0.836-1.781-1.256c0-0.418,0.33-0.902,0.33-0.902c1.427-2.014,1.354-3.662,1.354-3.662
			c0-3.513-3.629-3.559-3.629-3.559s-0.6,0.008-1.313,0.254c0.158,0.559,0.241,1.165,0.241,1.814
			c0.005,0.248,0.005,2.239-1.464,4.756c0.086,0.131,0.171,0.262,0.265,0.396c0,0,0.329,0.484,0.329,0.902
			c0,0.303-0.324,0.604-0.939,0.904c0.303,0.168,0.741,0.371,1.398,0.612c0.269,0.087,2.94,1.032,4.487,3.731l0.006,0.009
			l0.007,0.008c0.041,0.087,0.148,0.286,0.269,0.545c1.828-0.06,2.786-0.148,2.786-0.148
			C501.066,24.467,500.938,23.882,500.938,23.882z"/>
		<g>
			<path fill="#FFFFFF" d="M486.814,27.75c5.646,0,8.685-0.288,8.685-0.288c1.581-0.107,1.397-0.942,1.397-0.942
				c0-0.683-0.709-1.986-0.709-1.986c-1.456-2.546-4.05-3.371-4.05-3.371c-1.648-0.598-2.539-1.195-2.539-1.795
				c0-0.599,0.472-1.288,0.472-1.288c2.038-2.88,1.937-5.239,1.937-5.239c0-5.021-5.19-5.09-5.19-5.09s-5.187,0.068-5.187,5.088
				c0,0-0.102,2.36,1.938,5.24c0,0,0.472,0.689,0.472,1.289c0,0.599-0.893,1.195-2.544,1.795c0,0-2.594,0.825-4.052,3.37
				c0,0-0.708,1.304-0.708,1.986c0,0-0.185,0.831,1.399,0.942C478.13,27.462,481.175,27.75,486.814,27.75z"/>
		</g>
	</g>
	<rect x="524.384" y="-12.25" display="none" fill="#3F3F3F" width="60" height="60"/>
	<g id="notifications">
		<path id="notification_1_" fill="#999999" d="M561.77,22.753l-1.272-0.873V14.83c0-2.943-2.164-5.393-5.015-5.898
			c0.007-0.032,0.007-0.064,0.007-0.098c0-0.595-0.491-1.083-1.102-1.083c-0.607,0-1.099,0.484-1.099,1.083
			c0,0.03,0,0.063,0.005,0.098c-2.849,0.506-5.016,2.956-5.016,5.898v7.051l-1.273,0.884c-0.227-0.003-0.409,0.347-0.409,0.569
			v1.082c0,0.223,0.183,0.402,0.408,0.402h14.76c0.225,0,0.405-0.179,0.405-0.402v-1.248
			C562.179,22.943,561.996,22.753,561.77,22.753z"/>
		<path id="notification" fill="#999999" d="M554.385,27.75c0.859,0,1.558-0.945,1.558-2.112h-3.115
			C552.828,26.805,553.524,27.75,554.385,27.75z"/>
	</g>
	<rect x="589.931" y="-12.466" display="none" fill="#3F3F3F" width="60" height="60"/>
	<g id="notifications_1_">
		<path id="notification_3_" fill="#FFFFFF" d="M627.318,22.537l-1.272-0.873v-7.051c0-2.943-2.164-5.394-5.015-5.899
			c0.007-0.032,0.007-0.064,0.007-0.098c0-0.595-0.491-1.083-1.102-1.083c-0.607,0-1.099,0.484-1.099,1.083
			c0,0.03,0,0.063,0.005,0.098c-2.849,0.506-5.016,2.956-5.016,5.899v7.051l-1.273,0.883c-0.227-0.002-0.409,0.348-0.409,0.57v1.082
			c0,0.223,0.183,0.401,0.408,0.401h14.76c0.225,0,0.405-0.179,0.405-0.401v-1.248C627.727,22.727,627.544,22.537,627.318,22.537z"
			/>
		<path id="notification_2_" fill="#FFFFFF" d="M619.933,27.533c0.859,0,1.558-0.945,1.558-2.112h-3.115
			C618.376,26.588,619.072,27.533,619.933,27.533z"/>
	</g>
	<rect x="655.479" y="-11.216" display="none" fill="#3F3F3F" width="60" height="60"/>
	<g id="search">
		<path fill="#999999" d="M682.979,10.657c-3.125,0-5.625,2.5-5.625,5.627c0,3.124,2.5,5.624,5.625,5.624
			c3.122,0,5.622-2.5,5.622-5.624C688.601,13.157,686.101,10.657,682.979,10.657L682.979,10.657z M694.903,25.556
			c0.367,0.361,0.576,0.832,0.576,1.354c0,1.04-0.834,1.873-1.875,1.873c-0.522,0-0.99-0.21-1.303-0.575l0,0l-5.523-5.467
			c-1.094,0.676-2.396,1.04-3.801,1.04c-4.114,0-7.498-3.333-7.498-7.497c0-4.116,3.384-7.501,7.5-7.501
			c4.167,0,7.5,3.385,7.5,7.501c0,1.404-0.368,2.708-1.042,3.801L694.903,25.556z"/>
	</g>
	<rect x="721.027" y="-12.466" display="none" fill="#3F3F3F" width="60" height="60"/>
	<g id="search_1_">
		<path fill="#FFFFFF" d="M748.527,9.407c-3.125,0-5.625,2.5-5.625,5.627c0,3.124,2.5,5.624,5.625,5.624
			c3.122,0,5.622-2.5,5.622-5.624C754.149,11.907,751.649,9.407,748.527,9.407L748.527,9.407z M760.451,24.306
			c0.367,0.361,0.576,0.832,0.576,1.354c0,1.04-0.834,1.873-1.875,1.873c-0.522,0-0.99-0.21-1.303-0.575l0,0l-5.523-5.467
			c-1.094,0.676-2.396,1.04-3.801,1.04c-4.114,0-7.498-3.333-7.498-7.497c0-4.116,3.384-7.501,7.5-7.501
			c4.167,0,7.5,3.385,7.5,7.501c0,1.404-0.368,2.708-1.042,3.801L760.451,24.306z"/>
	</g>
</g>
</svg>
