<?xml version="1.0" encoding="utf-8"?>
<!-- Generator: Adobe Illustrator 16.0.0, SVG Export Plug-In . SVG Version: 6.00 Build 0)  -->
<!DOCTYPE svg PUBLIC "-//W3C//DTD SVG 1.1//EN" "http://www.w3.org/Graphics/SVG/1.1/DTD/svg11.dtd">
<svg version="1.1" id="Layer_1" xmlns="http://www.w3.org/2000/svg" xmlns:xlink="http://www.w3.org/1999/xlink" x="0px" y="0px"
	 width="366.054px" height="48px" viewBox="0 0 366.054 48" enable-background="new 0 0 366.054 48" xml:space="preserve">
<g id="dashboard">
	<path fill="#999999" d="M81.613,18.184c0,1.554-1.257,2.813-2.811,2.813H66.425c-1.554,0-2.814-1.26-2.814-2.813V5.812
		c0-1.55,1.26-2.814,2.814-2.814H78.8c1.554,0,2.811,1.264,2.811,2.814v12.372H81.613z"/>
	<path fill="#999999" d="M87.616,42.193c0,1.553-1.265,2.809-2.816,2.809H66.425c-1.554,0-2.814-1.256-2.814-2.809V29.821
		c0-1.555,1.26-2.818,2.814-2.818h18.377c1.554,0,2.816,1.264,2.816,2.818L87.616,42.193L87.616,42.193z"/>
	<path fill="#999999" d="M108.803,8.999c1.554,0,2.808,1.264,2.808,2.813v24.377c0,1.545-1.254,2.813-2.808,2.813H96.425
		c-1.549,0-2.814-1.269-2.814-2.813V11.812c0-1.549,1.265-2.813,2.814-2.813H108.803L108.803,8.999z"/>
</g>
<g id="inbox">
	<path fill="#999999" d="M134.781,32.937c1.06-0.981,2.128-1.954,3.19-2.931c1.401-1.288,2.825-2.548,4.25-3.817
		c0.974-0.851,1.944-1.708,2.918-2.566c-0.512-0.443-1.021-0.887-1.529-1.335c-1.275-1.131-2.554-2.265-3.82-3.403
		c-1.305-1.17-2.604-2.356-3.899-3.545c-1.49-1.361-2.965-2.742-4.426-4.135c-0.942-0.895-1.882-1.795-2.818-2.703
		c-0.89,1.137-1.425,2.566-1.425,4.12v22.756c0,1.364,0.404,2.626,1.104,3.671c0.908-0.887,1.832-1.75,2.747-2.629
		C132.304,35.251,133.537,34.091,134.781,32.937z"/>
	<path fill="#999999" d="M164.879,33.249c-1.406-1.123-2.823-2.254-4.22-3.393c-1.212-0.981-2.419-1.966-3.631-2.965
		c-0.504-0.428-1.019-0.853-1.527-1.283c-0.073-0.055-0.152-0.115-0.22-0.171c-0.026-0.026-0.032-0.005-0.053,0.014
		c-0.132,0.11-0.268,0.22-0.394,0.33c-0.252,0.218-0.499,0.436-0.751,0.644c0.032-0.021,0.058-0.048,0.079-0.068
		c-0.404,0.38-0.835,0.674-1.344,0.899c-0.512,0.208-1.039,0.3-1.593,0.32c-0.548-0.013-1.075-0.112-1.592-0.317
		c-0.502-0.23-0.939-0.524-1.347-0.905c0.029,0.026,0.053,0.05,0.079,0.068c-0.239-0.202-0.485-0.415-0.729-0.625
		c-0.129-0.112-0.257-0.226-0.383-0.333c-0.006-0.008-0.053-0.053-0.058-0.05c-0.066,0.058-0.135,0.11-0.197,0.165
		c-0.979,0.819-1.963,1.63-2.949,2.443c-1.383,1.136-2.768,2.274-4.169,3.393c-1.196,0.963-2.401,1.915-3.605,2.865
		c-1.262,0.989-2.521,1.973-3.799,2.954c-1.168,0.89-2.33,1.779-3.503,2.652c1.217,1.325,2.965,2.154,4.901,2.154h34.699
		c1.944,0,3.685-0.829,4.899-2.156c-1.49-1.107-2.968-2.233-4.438-3.369C167.654,35.435,166.264,34.354,164.879,33.249z"/>
	<path fill="#999999" d="M167.696,14.295c-1.049,0.976-2.109,1.941-3.169,2.909c-1.417,1.294-2.857,2.574-4.293,3.85
		c-0.966,0.855-1.949,1.716-2.918,2.568c0.394,0.344,0.793,0.692,1.179,1.034c1.183,1.039,2.366,2.08,3.528,3.135
		c1.308,1.176,2.608,2.354,3.904,3.532c1.182,1.083,2.362,2.181,3.529,3.277c1.569,1.475,3.12,2.957,4.652,4.452
		c0.703-1.055,1.112-2.312,1.112-3.676V12.618c0-1.554-0.535-2.983-1.422-4.117c-0.798,0.77-1.596,1.53-2.394,2.291
		C170.194,11.965,168.951,13.135,167.696,14.295z"/>
	<path fill="#999999" d="M137.759,14.132c1.398,1.118,2.795,2.238,4.186,3.361c1.206,0.977,2.405,1.957,3.6,2.957
		c1.008,0.842,2.015,1.68,3.02,2.521c0.504,0.417,1.005,0.848,1.509,1.277c0.082,0.071,0.166,0.14,0.244,0.213
		c0.291,0.268,0.669,0.344,1.053,0.336c0.201-0.037,0.38-0.073,0.559-0.179c0.131-0.068,0.244-0.168,0.354-0.271
		c0.059-0.055,0.129-0.11,0.189-0.165c1.008-0.85,2.015-1.702,3.033-2.545c0.963-0.811,1.938-1.616,2.912-2.411
		c1.383-1.139,2.766-2.274,4.17-3.393c1.198-0.96,2.397-1.913,3.604-2.862c1.26-0.992,2.521-1.976,3.794-2.957
		c1.023-0.782,2.052-1.559,3.075-2.33c-1.186-1.076-2.755-1.727-4.476-1.727h-34.7c-1.722,0-3.285,0.65-4.469,1.721
		c1.475,1.1,2.938,2.22,4.39,3.349C135.127,12.057,136.452,13.085,137.759,14.132z"/>
</g>
<g id="notifications">
	<path id="notification_1_" fill="#999999" d="M296.172,36.006l-3.054-2.095V16.99c0-7.063-5.193-12.943-12.035-14.156
		c0.016-0.076,0.016-0.154,0.016-0.235c0-1.428-1.179-2.598-2.643-2.598c-1.458,0-2.637,1.162-2.637,2.598
		c0,0.073,0,0.151,0.013,0.235c-6.837,1.215-12.038,7.094-12.038,14.156v16.921l-3.056,2.121c-0.545-0.006-0.982,0.832-0.982,1.366
		v2.598c0,0.535,0.438,0.964,0.979,0.964h35.423c0.539,0,0.972-0.429,0.972-0.964v-2.995
		C297.153,36.461,296.714,36.006,296.172,36.006z"/>
	<path id="notification" fill="#999999" d="M278.448,47.999c2.063,0,3.739-2.268,3.739-5.069h-7.476
		C274.712,45.731,276.382,47.999,278.448,47.999z"/>
</g>
<g id="InviteKinnectors">
	<path fill="#999999" d="M238.823,36.155c0-0.952-0.978-2.762-0.978-2.762c-2.021-3.522-5.612-4.669-5.612-4.669
		c-2.293-0.83-3.529-1.655-3.529-2.488c0-0.83,0.653-1.788,0.653-1.788c2.828-3.993,2.684-7.261,2.684-7.261
		c0-6.962-7.194-7.053-7.194-7.053s-1.188,0.015-2.604,0.503c0.313,1.106,0.478,2.31,0.478,3.598c0.01,0.491,0.01,4.438-2.902,9.425
		c0.17,0.262,0.34,0.52,0.525,0.788c0,0,0.652,0.958,0.652,1.788c0,0.6-0.643,1.196-1.862,1.791c0.6,0.334,1.47,0.737,2.772,1.215
		c0.533,0.173,5.828,2.048,8.896,7.398l0.01,0.017l0.014,0.016c0.082,0.173,0.294,0.567,0.533,1.08
		c3.624-0.117,5.523-0.295,5.523-0.295C239.077,37.313,238.823,36.155,238.823,36.155z"/>
	<g>
		<path fill="#999999" d="M210.825,43.822c11.191,0,17.216-0.572,17.216-0.572c3.135-0.213,2.77-1.868,2.77-1.868
			c0-1.353-1.405-3.937-1.405-3.937c-2.887-5.046-8.028-6.681-8.028-6.681c-3.269-1.188-5.034-2.371-5.034-3.56
			c0-1.187,0.935-2.553,0.935-2.553c4.041-5.71,3.84-10.386,3.84-10.386c0-9.954-10.289-10.089-10.289-10.089
			s-10.282,0.135-10.282,10.086c0,0-0.201,4.678,3.842,10.386c0,0,0.935,1.368,0.935,2.555c0,1.188-1.769,2.371-5.042,3.56
			c0,0-5.143,1.635-8.031,6.681c0,0-1.404,2.584-1.404,3.937c0,0-0.366,1.647,2.773,1.868
			C193.61,43.25,199.646,43.822,210.825,43.822z"/>
	</g>
</g>
<g id="search">
	<path fill="#999999" d="M336.054,4.498c-7.5,0-13.5,6-13.5,13.505c0,7.498,6,13.498,13.5,13.498c7.495,0,13.495-6,13.495-13.498
		C349.549,10.498,343.549,4.498,336.054,4.498L336.054,4.498z M364.674,40.255c0.88,0.865,1.38,1.995,1.38,3.25
		c0,2.495-2,4.495-4.5,4.495c-1.252,0-2.375-0.505-3.125-1.38l0,0L345.174,33.5c-2.625,1.62-5.75,2.495-9.122,2.495
		c-9.875,0-17.998-8-17.998-17.993c0-9.88,8.123-18.002,18-18.002c10.003,0,18,8.123,18,18.002c0,3.37-0.883,6.498-2.5,9.123
		L364.674,40.255z"/>
</g>
<g>
	<g>
		<path fill-rule="evenodd" clip-rule="evenodd" fill="#999999" d="M46.041,3.429H1.959C0.877,3.429,0,4.306,0,5.388v5.877
			c0,1.082,0.877,1.959,1.959,1.959h44.082c1.082,0,1.959-0.877,1.959-1.959V5.388C48,4.306,47.123,3.429,46.041,3.429z
			 M46.041,19.102H1.959C0.877,19.102,0,19.979,0,21.061v5.877c0,1.082,0.877,1.96,1.959,1.96h44.082
			c1.082,0,1.959-0.878,1.959-1.96v-5.877C48,19.979,47.123,19.102,46.041,19.102z M46.041,34.775H1.959
			C0.877,34.775,0,35.652,0,36.734v5.878c0,1.082,0.877,1.959,1.959,1.959h44.082c1.082,0,1.959-0.877,1.959-1.959v-5.878
			C48,35.652,47.123,34.775,46.041,34.775z"/>
	</g>
</g>
</svg>
