<?xml version="1.0" encoding="utf-8"?>
<!-- Generator: Adobe Illustrator 16.0.0, SVG Export Plug-In . SVG Version: 6.00 Build 0)  -->
<!DOCTYPE svg PUBLIC "-//W3C//DTD SVG 1.1//EN" "http://www.w3.org/Graphics/SVG/1.1/DTD/svg11.dtd">
<svg version="1.1" id="Layer_1" xmlns="http://www.w3.org/2000/svg" xmlns:xlink="http://www.w3.org/1999/xlink" x="0px" y="0px"
	 width="26px" height="26px" viewBox="0 0 26 26" enable-background="new 0 0 26 26" xml:space="preserve">
<g>
	<circle fill-rule="evenodd" clip-rule="evenodd" fill="#EE4B08" cx="13" cy="13" r="13"/>
	<path fill="#FFFFFF" d="M19.512,17.662l-1.14-0.948v-6.342c0-2.649-1.933-4.855-4.485-5.311c0.005-0.028,0.005-0.057,0.005-0.087
		C13.892,4.438,13.453,4,12.908,4c-0.545,0-0.984,0.436-0.984,0.974c0,0.028,0,0.056,0.005,0.087
		c-2.549,0.456-4.487,2.662-4.487,5.311v6.342l-1.139,1.001c-0.201,0-0.364,0.107-0.364,0.308v0.975c0,0.2,0.163,0.361,0.364,0.361
		h13.204c0.201,0,0.364-0.161,0.364-0.361v-0.921C19.875,17.876,19.71,17.662,19.512,17.662z"/>
	<path fill="#FFFFFF" d="M12.904,22c0.77,0,1.393-0.849,1.393-1.9h-2.786C11.511,21.151,12.135,22,12.904,22z"/>
</g>
</svg>
