<?xml version="1.0" encoding="utf-8"?>
<!-- Generator: Adobe Illustrator 16.0.0, SVG Export Plug-In . SVG Version: 6.00 Build 0)  -->
<!DOCTYPE svg PUBLIC "-//W3C//DTD SVG 1.1//EN" "http://www.w3.org/Graphics/SVG/1.1/DTD/svg11.dtd">
<svg version="1.1" id="Layer_1" xmlns="http://www.w3.org/2000/svg" xmlns:xlink="http://www.w3.org/1999/xlink" x="0px" y="0px"
	 width="21px" height="27px" viewBox="0 0 21 27" enable-background="new 0 0 21 27" xml:space="preserve">
<path fill="#EE4B08" d="M18.375,9h-1.313V6.429C17.063,2.879,14.122,0,10.5,0S3.938,2.879,3.938,6.429V9H2.625
	C1.181,9,0,10.157,0,11.571v12.857C0,25.843,1.181,27,2.625,27h15.75C19.818,27,21,25.843,21,24.429V11.571
	C21,10.157,19.818,9,18.375,9z M10.5,20.571c-1.444,0-2.625-1.157-2.625-2.571s1.181-2.571,2.625-2.571
	c1.443,0,2.625,1.157,2.625,2.571S11.943,20.571,10.5,20.571z M14.568,9H6.431V6.429c0-2.198,1.825-3.986,4.069-3.986
	s4.068,1.788,4.068,3.986V9z"/>
</svg>
