<?xml version="1.0" encoding="utf-8"?>
<!-- Generator: Adobe Illustrator 16.0.0, SVG Export Plug-In . SVG Version: 6.00 Build 0)  -->
<!DOCTYPE svg PUBLIC "-//W3C//DTD SVG 1.1//EN" "http://www.w3.org/Graphics/SVG/1.1/DTD/svg11.dtd">
<svg version="1.1" id="Layer_1" xmlns="http://www.w3.org/2000/svg" xmlns:xlink="http://www.w3.org/1999/xlink" x="0px" y="0px"
	 width="70px" height="70px" viewBox="0 0 70 70" enable-background="new 0 0 70 70" xml:space="preserve">
<circle fill="#EE4B08" cx="35" cy="35" r="35"/>
<g>
	<g>
		<path fill="#FFFFFF" d="M49.55,17.619L15.563,35.228c-1.397,0.723-1.339,1.785,0.126,2.359l4.339,1.694
			c1.464,0.572,3.685,0.261,4.928-0.7L43.803,23.9c1.24-0.966,1.372-0.822,0.297,0.317l-14.9,15.758
			c-1.08,1.135-0.757,2.525,0.71,3.089l0.507,0.197c1.468,0.563,3.872,1.503,5.331,2.093l4.813,1.936
			c1.463,0.588,2.657,1.076,2.657,1.085c0,0.008,0.01,0.032,0.017,0.036s0.354-1.226,0.768-2.729l7.335-26.643
			C51.751,17.534,50.946,16.897,49.55,17.619z M29.354,44.852l-3.33-1.346c-1.459-0.59-2.159,0.102-1.554,1.543
			c0.002,0,3.093,7.358,3.007,7.619c-0.091,0.256,2.963-4.367,2.963-4.367C31.306,46.995,30.814,45.441,29.354,44.852z"/>
	</g>
</g>
</svg>
