<?xml version="1.0" encoding="utf-8"?>
<!-- Generator: Adobe Illustrator 19.0.0, SVG Export Plug-In . SVG Version: 6.00 Build 0)  -->
<svg version="1.1" id="Layer_1" xmlns="http://www.w3.org/2000/svg" xmlns:xlink="http://www.w3.org/1999/xlink" x="0px" y="0px"
	 viewBox="-270 222 70 350" style="enable-background:new -270 222 70 350;" xml:space="preserve">
<style type="text/css">
	.st0{display:none;fill:#EE4B08;}
	.st1{fill:#FFFFFF;}
	.st2{display:none;}
	.st3{display:inline;fill:#FFFFFF;}
	.st4{display:none;fill:#FFFFFF;}
	.st5{display:inline;}
	.st6{display:none;fill:#C0C0C0;}
</style>
<g>
	<circle class="st0" cx="-235" cy="257" r="35"/>
	<path class="st1" d="M-217,253.3c-5.8,5.8-11.6,11.6-17.4,17.4c-1.4,1.4-2.8,2.8-4.2,4.2c-0.1,0.1-0.2,0.2-0.2,0.3c0,0,0,0-0.1,0
		c-0.1-0.1-0.2-0.2-0.3-0.3c-4.5-4.5-9.1-9.1-13.6-13.6c-0.1-0.1-0.3-0.2-0.5-0.3c0.6-0.6,1.1-1.1,1.6-1.6
		c6.8-6.8,13.5-13.5,20.3-20.3c0.2-0.2,0.4-0.3,0.7-0.3c4.5,0,8.9,0,13.4,0c0.2,0,0.3,0,0.5,0c0,4.8,0,9.6,0,14.3
		C-216.9,253.2-217,253.3-217,253.3z M-224.6,250c1.8,0,3.3-1.5,3.2-3.3c0-1.8-1.5-3.2-3.3-3.2s-3.3,1.5-3.3,3.3
		C-227.9,248.6-226.5,250-224.6,250z M-238.7,265.2c3.5-3.5,7-7,10.5-10.5c-0.5-0.5-1-1-1.4-1.4c-3.5,3.5-7,7-10.5,10.5
		C-239.7,264.3-239.2,264.8-238.7,265.2z M-232.7,250.3c-2.5,2.5-5,5-7.5,7.5c0.5,0.5,0.9,0.9,1.4,1.4c2.5-2.5,5-5,7.5-7.5
		C-231.7,251.2-232.2,250.7-232.7,250.3z"/>
</g>
<g class="st2">
	<path class="st3" d="M-517.4,399.6l3.5-4.6c0.3-0.4,0.9-0.4,1.3,0.1l0,0c0.5,0.4,0.6,1.1,0.3,1.5l-0.1,0.2
		c-0.3,0.1-2.7,3.6-2.9,3.9c-0.6,0.6-1.2,0.9-1.8,0.5C-517.5,400.7-517.6,400-517.4,399.6L-517.4,399.6z M-519.9,397.4l3.5-4.6
		c0.3-0.4,0.9-0.4,1.3,0.1l0,0c0.5,0.4,0.6,1.1,0.3,1.5l-3.5,4.6c-0.3,0.4-0.9,0.4-1.3-0.1l0,0C-520,398.5-520.1,397.8-519.9,397.4
		L-519.9,397.4z M-520.7,392.9l2-2.7c0.3-0.4,0.9-0.4,1.3,0.1l0,0c0.5,0.4,0.6,1.1,0.3,1.5l-4.3,5.5c-0.3,0.4-0.9,0.4-1.3-0.1l0,0
		c-0.3-0.3-0.4-0.6-0.5-1l0,0C-521.6,396.7-520,394.3-520.7,392.9L-520.7,392.9z M-524.1,391.1l2.5-3.3c0.3-0.4,0.9-0.4,1.3,0.1l0,0
		c0.5,0.4,0.6,1.1,0.3,1.5l-1.8,2.4C-522.5,391.4-523.3,391.1-524.1,391.1L-524.1,391.1z M-520.7,413.4h-3.6
		c0.2-3.9,0.4-7.4-0.6-10.3c-0.8-2.3-3-2.9-3.5-6.2c-0.4-2.8,3.4-6.6,6.5-4.3c1.3,1,0.8,2.3-0.2,2c-2.9-0.8-3.2,4.1,0.9,3.9
		l-0.3,3.5l0.9-2.7c2.2,1.6,3.8,2.6,4.8,2.5c1.6-0.2,2.1-2.3,3.6-4.1l0,0c0.4-0.5,1-0.2,0.7,0.5c-0.7,1.6-1.6,3.5-3.2,5.5v9.7h-4.2
		l-0.8-8.7"/>
</g>
<path class="st4" d="M-511.3,409.1h-2.6c-0.7,0-1.3-0.6-1.3-1.3v-9.3c0-0.7,0.6-1.3,1.3-1.3h2.6c0.7,0,1.3,0.6,1.3,1.3v9.3
	C-510,408.5-510.6,409.1-511.3,409.1z M-518.7,409.1h-2.6c-0.7,0-1.3-0.6-1.3-1.3v-14.6c0-0.7,0.6-1.3,1.3-1.3h2.6
	c0.7,0,1.3,0.6,1.3,1.3v14.6C-517.4,408.5-518,409.1-518.7,409.1z M-526.1,409.1h-2.6c-0.7,0-1.3-0.6-1.3-1.3v-2.6
	c0-0.7,0.6-1.3,1.3-1.3h2.6c0.7,0,1.3,0.6,1.3,1.3v2.6C-524.8,408.5-525.4,409.1-526.1,409.1z"/>
<g class="st2">
	<g class="st5">
		<path class="st1" d="M-514.6,402.3c-1.1-0.6-0.7-0.1-2.1-0.7c-1.4-0.6-1.7-0.8-1.7-0.8v-1.3c0,0,0.5-0.4,0.7-1.6
			c0.3,0.1,0.4-0.4,0.5-0.7c0-0.3,0.2-1.2-0.2-1.1c0.1-0.6,0.1-1.1,0.1-1.4c-0.1-1-0.8-2.1-2.6-2.2c-1.5,0.1-2.5,1.1-2.6,2.2
			c0,0.3,0,0.8,0.1,1.4c-0.4-0.1-0.2,0.8-0.2,1.1c0,0.3,0.1,0.8,0.5,0.7c0.2,1.2,0.7,1.6,0.7,1.6v1.3c0,0-0.3,0.2-1.7,0.8
			c-1.4,0.6-1,0.1-2.1,0.7c-1.8,0.9-1.8,3.3-1.8,3.3c0,0.4,0.3,0.7,0.7,0.7h13c0.4,0,0.7-0.3,0.7-0.7
			C-512.8,405.6-512.8,403.2-514.6,402.3z M-509.1,402.6c-1-0.5-0.6-0.1-1.9-0.6s-1.6-0.7-1.6-0.7v-1.2c0,0,0.5-0.4,0.6-1.5
			c0.3,0.1,0.4-0.3,0.4-0.6s0.2-1.1-0.2-1c0.1-0.5,0.1-1,0.1-1.3c-0.1-0.9-0.7-1.9-2.4-2c-1.4,0.1-2.3,1-2.4,2c0,0.3,0,0.8,0.1,1.3
			c-0.4-0.1-0.2,0.8-0.2,1c0,0.3,0.1,0.7,0.4,0.6c0.1,1.1,0.6,1.5,0.6,1.5v1.2c0.4,0.1,0.5,0,1.4,0.4c2,1,2,3.7,2,3.7l0,0
			c0,0.4-0.3,0.7-0.6,0.7h4.6c0.3,0,0.6-0.3,0.6-0.6l0,0C-507.5,405.6-507.5,403.4-509.1,402.6z M-528,405.7L-528,405.7
			c0,0,0-2.8,2-3.8c0.9-0.4,0.9-0.3,1.4-0.4v-1.2c0,0,0.5-0.4,0.6-1.5c0.3,0.1,0.4-0.3,0.4-0.6c0-0.3,0.2-1.1-0.2-1
			c0.1-0.6,0.1-1.1,0.1-1.3c-0.1-0.9-1-1.9-2.4-2c-1.6,0.1-2.3,1-2.4,2c0,0.3,0,0.8,0.1,1.3c-0.4-0.1-0.2,0.8-0.2,1
			c0,0.3,0.1,0.7,0.4,0.6c0.1,1.1,0.6,1.5,0.6,1.5v1.2c0,0-0.3,0.2-1.6,0.7s-0.9,0.1-1.9,0.6c-1.6,0.8-1.6,3-1.6,3
			c0,0.3,0.3,0.6,0.6,0.6h4.6C-527.7,406.4-528,406.1-528,405.7z"/>
	</g>
</g>
<g>
	<circle class="st0" cx="-235" cy="327" r="35"/>
	<path class="st1" d="M-219.8,342.1h-4.6c-1.3,0-2.3-1-2.3-2.3v-16.3c0-1.3,1-2.3,2.3-2.3h4.6c1.3,0,2.3,1,2.3,2.3v16.2
		C-217.5,341-218.5,342.1-219.8,342.1z M-232.7,342.1h-4.6c-1.3,0-2.3-1-2.3-2.3v-25.5c0-1.3,1-2.3,2.3-2.3h4.6c1.3,0,2.3,1,2.3,2.3
		v25.5C-230.4,341-231.5,342.1-232.7,342.1z M-245.7,342.1h-4.6c-1.3,0-2.3-1-2.3-2.3v-4.6c0-1.3,1-2.3,2.3-2.3h4.6
		c1.3,0,2.3,1,2.3,2.3v4.6C-243.4,341-244.4,342.1-245.7,342.1z"/>
</g>
<g>
	<circle class="st0" cx="-235" cy="397" r="35"/>
	<g>
		<path class="st1" d="M-230.4,395.5l6.1-8.1c0.5-0.7,1.5-0.6,2.3,0.1l0,0c0.8,0.8,1.1,2,0.6,2.7l-0.2,0.3c-0.6,0.2-4.7,6.3-5.1,6.7
			c-1,1.1-2.1,1.5-3.2,0.9C-230.6,397.3-230.9,396.1-230.4,395.5L-230.4,395.5z M-234.7,391.5l6.1-8.1c0.5-0.7,1.5-0.7,2.3,0.1l0,0
			c0.8,0.8,1.1,2,0.6,2.7l-6.1,8.1c-0.5,0.7-1.5,0.6-2.3-0.1l0,0C-235,393.4-235.3,392.2-234.7,391.5L-234.7,391.5z M-236.3,383.7
			l3.6-4.7c0.5-0.7,1.5-0.7,2.3,0.1l0,0c0.8,0.8,1.1,2,0.6,2.7l-7.5,9.7c-0.5,0.7-1.5,0.6-2.3-0.1l0,0c-0.5-0.5-0.8-1.1-0.8-1.7l0,0
			C-237.8,390.4-235,386.1-236.3,383.7L-236.3,383.7z M-242.1,380.6l4.4-5.8c0.5-0.7,1.5-0.6,2.3,0.1l0,0c0.8,0.8,1.1,2,0.6,2.7
			l-3.2,4.2C-239.4,381-240.7,380.6-242.1,380.6L-242.1,380.6z M-236.2,419.6h-6.4c0.4-6.7,0.7-12.9-1.1-18.1
			c-1.4-4.1-5.3-5-6.1-10.8c-0.7-5,5.9-11.6,11.4-7.5c2.2,1.7,1.4,4-0.3,3.5c-5.1-1.5-5.6,7.2,1.5,6.8l-0.5,6.1l1.5-4.7
			c3.8,2.8,6.6,4.6,8.4,4.3c2.7-0.4,3.7-4,6.3-7.1l0,0c0.7-0.8,1.8-0.4,1.2,0.9c-1.3,2.8-2.8,6.1-5.6,9.6v17h-7.3l-1.4-15.2"/>
	</g>
</g>
<g>
	<circle class="st0" cx="-235" cy="467" r="35"/>
	<g>
		<g>
			<path class="st1" d="M-225.5,470.1c-2-1-1.2-0.2-3.7-1.2c-2.4-1-3-1.3-3-1.3v-2.3c0,0,0.9-0.7,1.2-2.8c0.6,0.2,0.8-0.7,0.8-1.2
				s0.3-2.1-0.4-1.9c0.1-1.1,0.2-2,0.2-2.5c-0.2-1.8-1.4-3.6-4.6-3.8c-2.7,0.1-4.4,2-4.6,3.8c-0.1,0.5,0,1.5,0.2,2.5
				c-0.7-0.1-0.4,1.4-0.4,2c0,0.5,0.2,1.4,0.8,1.2c0.3,2.2,1.2,2.9,1.2,2.9v2.3c0,0-0.6,0.4-3,1.3c-2.4,1-1.7,0.2-3.7,1.2
				c-3.1,1.5-3.1,5.8-3.1,5.8c0,0.6,0.5,1.2,1.2,1.2h22.8c0.7,0,1.2-0.5,1.2-1.2C-222.3,475.9-222.3,471.7-225.5,470.1z
				 M-215.9,470.8c-1.8-0.9-1.1-0.2-3.3-1.1s-2.7-1.2-2.7-1.2v-2.1c0,0,0.8-0.6,1.1-2.6c0.5,0.1,0.7-0.6,0.7-1.1s0.3-1.9-0.3-1.8
				c0.1-1,0.2-1.8,0.2-2.3c-0.2-1.6-1.3-3.3-4.1-3.4c-2.4,0.1-4,1.8-4.2,3.4c0,0.5,0,1.3,0.2,2.3c-0.6-0.1-0.4,1.3-0.3,1.8
				c0,0.5,0.2,1.2,0.7,1.1c0.3,2,1.1,2.6,1.1,2.6v2.1c0.8,0.2,0.9,0,2.4,0.8c3.6,1.7,3.6,6.6,3.6,6.6l0,0c0,0.6-0.4,1.1-1,1.3h8
				c0.6,0,1.1-0.5,1.1-1.1l0,0C-213,476-213,472.2-215.9,470.8z M-248.9,476.2L-248.9,476.2c0,0,0-4.9,3.6-6.6
				c1.5-0.8,1.6-0.6,2.4-0.8v-2.1c0,0,0.8-0.6,1.1-2.6c0.5,0.1,0.7-0.6,0.7-1.1s0.3-1.9-0.3-1.8c0.1-1,0.2-1.8,0.2-2.3
				c-0.2-1.6-1.7-3.3-4.2-3.5c-2.9,0.1-4,1.8-4.1,3.5c0,0.5,0.1,1.3,0.2,2.3c-0.6-0.1-0.4,1.3-0.3,1.8c0,0.5,0.2,1.2,0.7,1.1
				c0.3,2,1.1,2.6,1.1,2.6v2.1c0,0-0.5,0.3-2.7,1.2c-2.2,0.9-1.5,0.2-3.3,1.1c-2.9,1.4-2.9,5.3-2.9,5.3c0,0.6,0.5,1.1,1.1,1.1h8
				C-248.5,477.3-248.9,476.8-248.9,476.2z"/>
		</g>
	</g>
</g>
<g>
	<circle class="st6" cx="-235" cy="537" r="35"/>
	<g>
		<g>
			<path class="st1" d="M-227.8,545.8c0,0.9-0.7,1.7-1.7,1.7h-16.7c-0.9,0-1.7-0.7-1.7-1.7v-16.5c0-0.9,0.7-1.7,1.7-1.7h7.8l5.6-3.3
				h-15c-1.8,0-3.3,1.5-3.3,3.3v19.9c0,1.8,1.5,3.3,3.3,3.3h20c1.8,0,3.3-1.5,3.3-3.3v-10l-3.3,2.5L-227.8,545.8L-227.8,545.8z
				 M-219,529.2l-6.1-5.7c-0.2-0.2-0.6-0.3-0.8-0.2c-0.3,0.1-0.5,0.4-0.5,0.7v2.7c-11.2,1-16.7,9.8-18.6,13.5
				c-0.2,0.3,0,0.7,0.3,0.9c0.1,0.1,0.3,0.1,0.4,0.1c0.2,0,0.4-0.1,0.6-0.2c7.2-7.4,13.9-8.6,17.3-8.6v3c0,0.3,0.2,0.6,0.5,0.7
				c0.3,0.1,0.6,0.1,0.8-0.2l6.1-5.7C-218.7,529.9-218.7,529.4-219,529.2z"/>
		</g>
	</g>
</g>
</svg>
