<?xml version="1.0" encoding="utf-8"?>
<!-- Generator: Adobe Illustrator 16.0.0, SVG Export Plug-In . SVG Version: 6.00 Build 0)  -->
<!DOCTYPE svg PUBLIC "-//W3C//DTD SVG 1.1//EN" "http://www.w3.org/Graphics/SVG/1.1/DTD/svg11.dtd">
<svg version="1.1" id="Layer_1" xmlns="http://www.w3.org/2000/svg" xmlns:xlink="http://www.w3.org/1999/xlink" x="0px" y="0px"
	 width="40px" height="40px" viewBox="0 0 40 40" enable-background="new 0 0 40 40" xml:space="preserve">
<circle fill="#EE4B08" cx="20" cy="20" r="20"/>
<path fill-rule="evenodd" clip-rule="evenodd" fill="#FFFFFF" d="M30.264,17.911c-3.309,3.308-6.615,6.616-9.924,9.924
	c-0.795,0.794-1.588,1.587-2.38,2.382c-0.05,0.049-0.088,0.112-0.131,0.17c-0.014,0-0.027,0-0.041,0
	c-0.049-0.056-0.093-0.114-0.146-0.166c-2.595-2.597-5.191-5.192-7.788-7.788c-0.066-0.064-0.152-0.112-0.26-0.191
	c0.338-0.328,0.631-0.604,0.917-0.891c3.859-3.857,7.718-7.715,11.573-11.576c0.115-0.115,0.229-0.156,0.39-0.156
	c2.556,0.004,5.11,0.003,7.667,0.003c0.089,0,0.175-0.004,0.264-0.008c0,2.731,0,5.465,0,8.196
	C30.357,17.843,30.304,17.87,30.264,17.911z M25.919,15.996c1.035-0.009,1.865-0.863,1.852-1.905
	c-0.014-1.006-0.88-1.855-1.882-1.844c-1.045,0.011-1.873,0.852-1.866,1.894C24.028,15.185,24.869,16.008,25.919,15.996z
	 M17.86,24.708c1.992-1.994,4.002-4.005,5.998-6.002c-0.268-0.267-0.548-0.546-0.814-0.812c-1.982,1.986-3.99,3.995-6.001,6.007
	C17.308,24.162,17.589,24.439,17.86,24.708z M21.322,16.161c-1.421,1.423-2.854,2.858-4.276,4.282
	c0.261,0.258,0.541,0.537,0.81,0.804c1.41-1.414,2.844-2.852,4.273-4.284C21.871,16.706,21.59,16.428,21.322,16.161z"/>
<g display="none">
	<path display="inline" fill-rule="evenodd" clip-rule="evenodd" fill="#FFFFFF" d="M22.647,19.127l3.499-4.643
		c0.298-0.386,0.87-0.37,1.328,0.071l0,0c0.459,0.441,0.626,1.143,0.335,1.533l-0.124,0.157c-0.338,0.121-2.696,3.572-2.908,3.852
		c-0.563,0.609-1.18,0.872-1.833,0.518C22.516,20.178,22.363,19.502,22.647,19.127L22.647,19.127z M20.145,16.875l3.504-4.634
		c0.29-0.391,0.868-0.375,1.317,0.066l0,0c0.458,0.437,0.63,1.142,0.34,1.533l-3.5,4.633c-0.297,0.386-0.87,0.37-1.326-0.065l0,0
		C20.025,17.966,19.854,17.265,20.145,16.875L20.145,16.875z M19.275,12.408l2.038-2.698c0.292-0.391,0.864-0.373,1.322,0.064l0,0
		c0.456,0.442,0.633,1.147,0.336,1.534l-4.281,5.538c-0.298,0.384-0.87,0.37-1.326-0.072l0,0c-0.272-0.264-0.443-0.625-0.472-0.954
		h0.003C18.408,16.219,20.025,13.764,19.275,12.408L19.275,12.408z M15.937,10.638l2.487-3.289c0.291-0.391,0.86-0.371,1.32,0.066
		l0,0c0.455,0.441,0.626,1.141,0.335,1.531l-1.825,2.412C17.509,10.866,16.722,10.638,15.937,10.638L15.937,10.638z M19.297,32.93
		h-3.636c0.206-3.851,0.38-7.381-0.643-10.331c-0.81-2.329-3.043-2.853-3.5-6.17c-0.392-2.832,3.37-6.623,6.506-4.279
		c1.275,0.954,0.794,2.285-0.155,2.016c-2.91-0.833-3.186,4.101,0.858,3.866l-0.294,3.477l0.876-2.659
		c2.154,1.588,3.757,2.628,4.826,2.457c1.565-0.249,2.138-2.31,3.594-4.056l0,0c0.386-0.462,1.01-0.207,0.694,0.499
		c-0.738,1.627-1.584,3.481-3.202,5.475v9.707h-4.174l-0.817-8.686"/>
</g>
<path display="none" fill-rule="evenodd" clip-rule="evenodd" fill="#FFFFFF" d="M28.708,28.615h-2.612
	c-0.723,0-1.306-0.594-1.306-1.328v-9.275c0-0.731,0.583-1.326,1.306-1.326h2.612c0.721,0,1.306,0.594,1.306,1.326v9.275
	C30.014,28.021,29.429,28.615,28.708,28.615z M21.306,28.615h-2.611c-0.721,0-1.307-0.594-1.307-1.328V12.71
	c0-0.733,0.586-1.326,1.307-1.326h2.611c0.722,0,1.307,0.593,1.307,1.326v14.577C22.612,28.021,22.027,28.615,21.306,28.615z
	 M13.904,28.615h-2.612c-0.723,0-1.306-0.594-1.306-1.328v-2.648c0-0.733,0.583-1.326,1.306-1.326h2.612
	c0.721,0,1.306,0.593,1.306,1.326v2.648C15.21,28.021,14.625,28.615,13.904,28.615z"/>
<g display="none">
	<g display="inline">
		<path fill-rule="evenodd" clip-rule="evenodd" fill="#FFFFFF" d="M25.449,21.789c-1.135-0.559-0.696-0.134-2.09-0.702
			c-1.393-0.572-1.724-0.757-1.724-0.757l-0.013-1.307c0,0,0.521-0.392,0.685-1.627c0.324,0.092,0.435-0.376,0.453-0.678
			c0.019-0.29,0.191-1.193-0.204-1.113c0.082-0.604,0.142-1.15,0.114-1.44c-0.098-1.014-0.811-2.075-2.601-2.151
			c-1.523,0.077-2.513,1.138-2.611,2.151c-0.031,0.29,0.028,0.836,0.111,1.44c-0.401-0.08-0.229,0.826-0.21,1.116
			c0.019,0.299,0.127,0.771,0.453,0.678c0.164,1.236,0.682,1.631,0.682,1.631l-0.013,1.313c0,0-0.328,0.2-1.72,0.767
			c-1.394,0.572-0.955,0.121-2.09,0.68c-1.794,0.881-1.794,3.305-1.794,3.305c0,0.368,0.302,0.665,0.672,0.665h13.019
			c0.373,0,0.674-0.297,0.674-0.665C27.242,25.094,27.242,22.67,25.449,21.789z M30.917,22.146c-1.032-0.508-0.634-0.12-1.901-0.638
			c-1.267-0.518-1.566-0.688-1.566-0.688l-0.013-1.188c0,0,0.475-0.355,0.624-1.48c0.295,0.083,0.396-0.344,0.412-0.616
			c0.016-0.265,0.175-1.088-0.188-1.014c0.074-0.549,0.132-1.045,0.105-1.31c-0.091-0.922-0.734-1.886-2.368-1.958
			c-1.384,0.071-2.284,1.036-2.374,1.958c-0.027,0.265,0.024,0.761,0.099,1.31c-0.36-0.074-0.202,0.752-0.191,1.014
			c0.02,0.275,0.117,0.703,0.414,0.62c0.147,1.125,0.623,1.483,0.623,1.483l-0.014,1.189c0.432,0.102,0.49,0.021,1.361,0.447
			c2.03,0.998,2.03,3.749,2.03,3.749s0,0,0,0.003c0,0.356-0.256,0.659-0.599,0.733h4.563c0.339,0,0.613-0.271,0.613-0.605
			c0,0,0,0,0-0.002C32.548,25.151,32.548,22.947,30.917,22.146z M12.034,25.244c0-0.004,0-0.004,0-0.004s0-2.773,2.035-3.782
			c0.869-0.432,0.928-0.349,1.359-0.449l-0.013-1.203c0,0,0.476-0.36,0.623-1.495c0.299,0.083,0.397-0.348,0.413-0.625
			c0.016-0.265,0.17-1.097-0.19-1.023c0.077-0.555,0.125-1.055,0.101-1.319c-0.092-0.931-0.993-1.906-2.379-1.977
			c-1.632,0.071-2.275,1.042-2.368,1.977c-0.024,0.264,0.032,0.764,0.105,1.319c-0.364-0.074-0.204,0.758-0.185,1.023
			c0.012,0.275,0.115,0.706,0.414,0.623c0.147,1.134,0.622,1.492,0.622,1.492l-0.012,1.199c0,0-0.302,0.174-1.569,0.697
			c-1.267,0.521-0.869,0.129-1.902,0.641c-1.635,0.811-1.635,3.037-1.635,3.037c0,0.34,0.278,0.61,0.618,0.61h4.561
			C12.292,25.91,12.034,25.605,12.034,25.244z"/>
	</g>
</g>
</svg>
