<?xml version="1.0" encoding="utf-8"?>
<!-- Generator: Adobe Illustrator 16.0.0, SVG Export Plug-In . SVG Version: 6.00 Build 0)  -->
<!DOCTYPE svg PUBLIC "-//W3C//DTD SVG 1.1//EN" "http://www.w3.org/Graphics/SVG/1.1/DTD/svg11.dtd">
<svg version="1.1" id="Layer_1" xmlns="http://www.w3.org/2000/svg" xmlns:xlink="http://www.w3.org/1999/xlink" x="0px" y="0px"
	 width="17.953px" height="16.082px" viewBox="0 0 17.953 16.082" enable-background="new 0 0 17.953 16.082" xml:space="preserve">
<g id="dashboard" display="none">
	<path display="inline" fill="#3A3A3A" d="M6.719,6.837c0,0.578-0.468,1.046-1.046,1.046H1.068c-0.578,0-1.046-0.468-1.046-1.046
		V2.232c0-0.577,0.468-1.047,1.046-1.047h4.605c0.578,0,1.046,0.47,1.046,1.047V6.837L6.719,6.837z"/>
	<path display="inline" fill="#3A3A3A" d="M8.952,15.77c0,0.578-0.469,1.045-1.046,1.045H1.068c-0.578,0-1.046-0.467-1.046-1.045
		v-4.604c0-0.578,0.468-1.047,1.046-1.047h6.838c0.578,0,1.046,0.469,1.046,1.047V15.77z"/>
	<path display="inline" fill="#3A3A3A" d="M16.836,3.419c0.579,0,1.046,0.468,1.046,1.047v9.069c0,0.576-0.467,1.047-1.046,1.047
		h-4.604c-0.578,0-1.047-0.471-1.047-1.047V4.466c0-0.579,0.469-1.047,1.047-1.047H16.836L16.836,3.419z"/>
</g>
<g id="search" display="none">
	<path display="inline" fill="#3A3A3A" d="M6.75,1.687c-2.813,0-5.063,2.25-5.063,5.064c0,2.812,2.25,5.062,5.063,5.062
		c2.811,0,5.061-2.25,5.061-5.062C11.811,3.937,9.561,1.687,6.75,1.687L6.75,1.687z M17.482,15.096
		C17.813,15.419,18,15.843,18,16.314C18,17.25,17.25,18,16.313,18c-0.47,0-0.891-0.188-1.172-0.518l0,0l-4.971-4.92
		c-0.985,0.607-2.156,0.936-3.421,0.936C3.046,13.498,0,10.5,0,6.751C0,3.046,3.046,0,6.75,0c3.751,0,6.75,3.046,6.75,6.751
		c0,1.264-0.331,2.437-0.938,3.42L17.482,15.096z"/>
</g>
<g id="notifications" display="none">
	<path id="notification_1_" display="inline" fill="#3A3A3A" d="M15.609,13.477l-1.139-0.781v-6.31c0-2.634-1.936-4.828-4.488-5.281
		c0.006-0.028,0.006-0.056,0.006-0.087c0-0.532-0.439-0.968-0.985-0.968c-0.544,0-0.984,0.433-0.984,0.968
		c0,0.028,0,0.056,0.005,0.087c-2.55,0.454-4.489,2.647-4.489,5.281v6.308l-1.14,0.791c-0.202,0-0.365,0.312-0.365,0.511v0.969
		c0,0.199,0.163,0.359,0.365,0.359h13.21c0.201,0,0.362-0.16,0.362-0.359v-1.117C15.975,13.646,15.811,13.477,15.609,13.477z"/>
	<path id="notification" display="inline" fill="#3A3A3A" d="M9,17.951c0.77,0,1.395-0.848,1.395-1.891H7.607
		C7.607,17.104,8.23,17.951,9,17.951z"/>
</g>
<g id="Kinnect2Coins" display="none">
	<rect x="7.292" y="0.546" display="inline" fill="#3A3A3A" width="3.569" height="16.909"/>
	<g display="inline">
		<polygon fill="#3A3A3A" points="17.908,3.359 13.658,3.359 9.988,9.001 13.658,14.643 17.908,14.643 13.855,9.001 		"/>
		<polygon fill="#3A3A3A" points="0.245,3.359 4.495,3.359 8.165,9.001 4.495,14.643 0.245,14.643 4.297,9.001 		"/>
	</g>
</g>
<g id="InviteKinnectors" display="none">
	<path display="inline" fill="#3A3A3A" d="M17.833,13.475c0-0.349-0.36-1.015-0.36-1.015c-0.744-1.299-2.065-1.721-2.065-1.721
		c-0.845-0.305-1.3-0.609-1.3-0.914c0-0.307,0.24-0.658,0.24-0.658c1.041-1.471,0.988-2.673,0.988-2.673
		c0-2.563-2.648-2.596-2.648-2.596s-0.438,0.005-0.959,0.185c0.115,0.407,0.176,0.85,0.176,1.324
		c0.005,0.181,0.005,1.634-1.067,3.469c0.062,0.096,0.125,0.192,0.192,0.291c0,0,0.24,0.353,0.24,0.658
		c0,0.219-0.235,0.439-0.686,0.658c0.221,0.123,0.542,0.271,1.021,0.447c0.195,0.064,2.146,0.754,3.274,2.723l0.004,0.008
		l0.005,0.006c0.03,0.062,0.108,0.207,0.196,0.396c1.333-0.043,2.033-0.107,2.033-0.107C17.927,13.9,17.833,13.475,17.833,13.475z"
		/>
	<g display="inline">
		<path fill="#3A3A3A" d="M7.527,16.296c4.12,0,6.337-0.209,6.337-0.209c1.155-0.08,1.021-0.688,1.021-0.688
			c0-0.498-0.517-1.448-0.517-1.448c-1.063-1.857-2.956-2.461-2.956-2.461c-1.205-0.437-1.855-0.871-1.855-1.31
			c0-0.437,0.344-0.94,0.344-0.94c1.488-2.102,1.414-3.823,1.414-3.823c0-3.663-3.788-3.713-3.788-3.713s-3.786,0.05-3.786,3.713
			c0,0-0.074,1.722,1.414,3.823c0,0,0.344,0.506,0.344,0.94c0,0.438-0.651,0.873-1.856,1.31c0,0-1.893,0.604-2.956,2.461
			c0,0-0.517,0.95-0.517,1.448c0,0-0.135,0.608,1.021,0.688C1.19,16.087,3.409,16.296,7.527,16.296z"/>
	</g>
</g>
<g id="inbox" display="none">
	<path display="inline" fill="#3A3A3A" d="M2.909,12.326c0.395-0.365,0.792-0.727,1.188-1.09c0.522-0.48,1.051-0.949,1.582-1.42
		C6.041,9.498,6.402,9.179,6.765,8.86c-0.191-0.165-0.381-0.33-0.57-0.497C5.721,7.942,5.245,7.52,4.773,7.096
		C4.288,6.66,3.805,6.219,3.322,5.777C2.768,5.27,2.219,4.756,1.674,4.238c-0.35-0.333-0.7-0.668-1.049-1.005
		C0.294,3.655,0.096,4.187,0.096,4.765v8.469c0,0.508,0.151,0.977,0.411,1.367c0.338-0.33,0.682-0.652,1.023-0.98
		C1.987,13.188,2.446,12.755,2.909,12.326z"/>
	<path display="inline" fill="#3A3A3A" d="M14.111,12.443c-0.524-0.418-1.051-0.838-1.571-1.262
		c-0.452-0.365-0.901-0.732-1.351-1.105C11,9.917,10.811,9.759,10.621,9.6c-0.028-0.021-0.057-0.043-0.083-0.065
		c-0.009-0.009-0.011-0.002-0.019,0.006c-0.049,0.041-0.1,0.082-0.146,0.123c-0.096,0.08-0.188,0.162-0.28,0.239
		c0.013-0.008,0.021-0.019,0.03-0.026c-0.15,0.143-0.313,0.252-0.5,0.336c-0.192,0.078-0.388,0.111-0.594,0.119
		c-0.204-0.004-0.401-0.041-0.592-0.117c-0.188-0.086-0.351-0.195-0.501-0.338c0.01,0.011,0.019,0.02,0.029,0.026
		c-0.09-0.075-0.181-0.155-0.272-0.233C7.647,9.626,7.599,9.585,7.551,9.544C7.549,9.542,7.532,9.525,7.53,9.527
		C7.505,9.548,7.481,9.568,7.457,9.587c-0.365,0.306-0.731,0.607-1.098,0.91c-0.515,0.422-1.03,0.846-1.551,1.262
		c-0.446,0.359-0.893,0.714-1.342,1.066c-0.469,0.369-0.939,0.736-1.414,1.1c-0.434,0.332-0.867,0.662-1.303,0.988
		c0.453,0.492,1.103,0.801,1.824,0.801h12.915c0.722,0,1.371-0.309,1.824-0.803c-0.557-0.412-1.106-0.83-1.652-1.254
		C15.145,13.255,14.625,12.854,14.111,12.443z"/>
	<path display="inline" fill="#3A3A3A" d="M15.16,5.388c-0.391,0.363-0.786,0.722-1.18,1.083c-0.527,0.481-1.063,0.958-1.598,1.432
		c-0.359,0.319-0.725,0.638-1.086,0.956c0.146,0.128,0.294,0.258,0.438,0.385c0.441,0.387,0.883,0.775,1.315,1.166
		c0.486,0.438,0.97,0.877,1.453,1.316c0.44,0.402,0.879,0.811,1.313,1.219c0.584,0.549,1.162,1.1,1.731,1.658
		c0.263-0.393,0.413-0.861,0.413-1.369v-8.47c0-0.578-0.197-1.111-0.527-1.532c-0.298,0.286-0.595,0.569-0.892,0.851
		C16.089,4.521,15.626,4.956,15.16,5.388z"/>
	<path display="inline" fill="#3A3A3A" d="M4.018,5.327c0.52,0.416,1.04,0.833,1.557,1.251c0.449,0.364,0.896,0.73,1.34,1.101
		c0.375,0.312,0.75,0.625,1.124,0.938C8.226,8.773,8.413,8.933,8.6,9.091c0.03,0.027,0.061,0.053,0.09,0.08
		c0.109,0.1,0.249,0.127,0.392,0.125C9.157,9.283,9.223,9.269,9.29,9.23c0.048-0.027,0.09-0.063,0.131-0.102
		c0.022-0.021,0.048-0.041,0.071-0.061c0.375-0.316,0.75-0.633,1.129-0.948c0.359-0.301,0.721-0.6,1.083-0.897
		c0.514-0.424,1.03-0.847,1.551-1.263c0.447-0.357,0.892-0.712,1.343-1.065c0.467-0.37,0.938-0.737,1.412-1.101
		c0.381-0.291,0.762-0.58,1.143-0.867c-0.438-0.399-1.021-0.642-1.661-0.642H2.575c-0.64,0-1.222,0.243-1.663,0.641
		C1.46,3.335,2.005,3.752,2.545,4.172C3.038,4.555,3.531,4.938,4.018,5.327z"/>
</g>
<path id="favouritefeeds" fill="#999999" d="M8.976,2.319C8.601,0.865,6.702,0,5.236,0C2.345,0,0,2.245,0,5.236
	c0,5.61,5.333,7.107,8.228,10.472c0.026,0.037,0.056,0.066,0.09,0.103c0.366,0.36,0.958,0.36,1.324,0
	c0.033-0.033,0.056-0.063,0.082-0.103c2.898-3.373,8.229-4.838,8.229-10.472C17.953,2.245,15.607,0,12.717,0
	C11.25,0,9.35,0.865,8.976,2.319z"/>
<g id="cart" display="none">
	<path display="inline" fill="#3A3A3A" d="M0.134,5.001l2.674,7.004c0.098,0.263,0.347,0.433,0.625,0.435l7.133,0.019
		c0.279,0,0.529-0.168,0.632-0.429l2.61-6.734l1.228-1.356l1.978,0.005c0.497,0.001,0.898-0.4,0.899-0.895
		c0.001-0.496-0.397-0.898-0.896-0.9l-2.377-0.006c-0.257-0.001-0.496,0.107-0.668,0.296l-1.521,1.68L0.764,4.088
		c-0.22,0-0.429,0.108-0.555,0.291C0.082,4.562,0.054,4.793,0.134,5.001z M3.704,9.52l6.217,0.019L9.92,10.434l-6.218-0.019
		L3.704,9.52z M2.897,7.629l8.104,0.021l-0.003,0.896L2.895,8.526L2.897,7.629z M2.19,5.725l9.589,0.025l-0.002,0.897L2.188,6.621
		L2.19,5.725z"/>
	<circle display="inline" fill="#3A3A3A" cx="9.518" cy="14.511" r="1.346"/>
	<circle display="inline" fill="#3A3A3A" cx="4.572" cy="14.498" r="1.346"/>
</g>
</svg>
