<?xml version="1.0" encoding="utf-8"?>
<!-- Generator: Adobe Illustrator 16.0.0, SVG Export Plug-In . SVG Version: 6.00 Build 0)  -->
<!DOCTYPE svg PUBLIC "-//W3C//DTD SVG 1.1//EN" "http://www.w3.org/Graphics/SVG/1.1/DTD/svg11.dtd">
<svg version="1.1" id="Layer_1" xmlns="http://www.w3.org/2000/svg" xmlns:xlink="http://www.w3.org/1999/xlink" x="0px" y="0px"
	 width="17.868px" height="13.43px" viewBox="0 0 17.868 13.43" enable-background="new 0 0 17.868 13.43" xml:space="preserve">
<g id="dashboard" display="none">
	<path display="inline" fill="#3A3A3A" d="M6.719,6.837c0,0.578-0.468,1.046-1.046,1.046H1.068c-0.578,0-1.046-0.468-1.046-1.046
		V2.232c0-0.577,0.468-1.047,1.046-1.047h4.605c0.578,0,1.046,0.47,1.046,1.047V6.837L6.719,6.837z"/>
	<path display="inline" fill="#3A3A3A" d="M8.952,15.77c0,0.578-0.469,1.045-1.046,1.045H1.068c-0.578,0-1.046-0.467-1.046-1.045
		v-4.604c0-0.578,0.468-1.048,1.046-1.048h6.838c0.578,0,1.046,0.47,1.046,1.048V15.77z"/>
	<path display="inline" fill="#3A3A3A" d="M16.836,3.419c0.578,0,1.045,0.468,1.045,1.047v9.069c0,0.575-0.467,1.047-1.045,1.047
		h-4.604c-0.578,0-1.047-0.472-1.047-1.047V4.466c0-0.579,0.469-1.047,1.047-1.047H16.836L16.836,3.419z"/>
</g>
<g id="search" display="none">
	<path display="inline" fill="#3A3A3A" d="M6.75,1.687c-2.813,0-5.063,2.25-5.063,5.064c0,2.812,2.25,5.062,5.063,5.062
		c2.811,0,5.061-2.25,5.061-5.062C11.811,3.937,9.561,1.687,6.75,1.687L6.75,1.687z M17.482,15.096
		C17.813,15.42,18,15.844,18,16.314C18,17.25,17.25,18,16.313,18c-0.471,0-0.891-0.189-1.172-0.519l0,0l-4.971-4.92
		c-0.985,0.608-2.156,0.937-3.421,0.937C3.046,13.498,0,10.499,0,6.751C0,3.046,3.046,0,6.75,0c3.75,0,6.75,3.046,6.75,6.751
		c0,1.264-0.332,2.437-0.938,3.421L17.482,15.096z"/>
</g>
<g id="notifications" display="none">
	<path id="notification_1_" display="inline" fill="#3A3A3A" d="M15.609,13.477l-1.139-0.781v-6.31c0-2.634-1.935-4.828-4.488-5.281
		c0.006-0.027,0.006-0.056,0.006-0.087c0-0.532-0.438-0.968-0.985-0.968c-0.544,0-0.984,0.433-0.984,0.968
		c0,0.028,0,0.057,0.005,0.087c-2.55,0.454-4.489,2.647-4.489,5.281v6.308l-1.14,0.791c-0.202,0-0.365,0.313-0.365,0.512v0.969
		c0,0.199,0.163,0.359,0.365,0.359h13.21c0.201,0,0.362-0.16,0.362-0.359v-1.118C15.975,13.646,15.811,13.477,15.609,13.477z"/>
	<path id="notification" display="inline" fill="#3A3A3A" d="M9,17.95c0.77,0,1.395-0.848,1.395-1.891H7.607
		C7.607,17.104,8.23,17.95,9,17.95z"/>
</g>
<g id="Kinnect2Coins" display="none">
	<rect x="7.292" y="0.546" display="inline" fill="#3A3A3A" width="3.569" height="16.908"/>
	<g display="inline">
		<polygon fill="#3A3A3A" points="17.909,3.359 13.659,3.359 9.988,9.001 13.659,14.643 17.909,14.643 13.855,9.001 		"/>
		<polygon fill="#3A3A3A" points="0.245,3.359 4.495,3.359 8.165,9.001 4.495,14.643 0.245,14.643 4.297,9.001 		"/>
	</g>
</g>
<g id="InviteKinnectors" display="none">
	<path display="inline" fill="#3A3A3A" d="M17.833,13.475c0-0.349-0.359-1.015-0.359-1.015c-0.744-1.298-2.066-1.72-2.066-1.72
		c-0.844-0.306-1.299-0.609-1.299-0.915c0-0.307,0.24-0.658,0.24-0.658c1.041-1.471,0.988-2.673,0.988-2.673
		c0-2.563-2.648-2.597-2.648-2.597s-0.438,0.005-0.959,0.186c0.115,0.407,0.176,0.85,0.176,1.324
		c0.004,0.181,0.004,1.634-1.068,3.47c0.062,0.095,0.125,0.191,0.193,0.29c0,0,0.24,0.353,0.24,0.658
		c0,0.22-0.236,0.439-0.686,0.658c0.221,0.123,0.541,0.272,1.021,0.447c0.196,0.064,2.146,0.754,3.274,2.723l0.004,0.008
		l0.005,0.006c0.03,0.062,0.108,0.208,0.196,0.396c1.334-0.043,2.033-0.107,2.033-0.107C17.926,13.9,17.833,13.475,17.833,13.475z"
		/>
	<g display="inline">
		<path fill="#3A3A3A" d="M7.527,16.297c4.12,0,6.337-0.21,6.337-0.21c1.155-0.079,1.021-0.688,1.021-0.688
			c0-0.498-0.518-1.448-0.518-1.448c-1.063-1.857-2.955-2.46-2.955-2.46c-1.205-0.438-1.855-0.872-1.855-1.311
			c0-0.437,0.344-0.939,0.344-0.939c1.488-2.103,1.414-3.823,1.414-3.823c0-3.663-3.788-3.713-3.788-3.713s-3.786,0.05-3.786,3.713
			c0,0-0.074,1.722,1.414,3.823c0,0,0.344,0.505,0.344,0.939c0,0.438-0.651,0.873-1.856,1.311c0,0-1.893,0.603-2.956,2.46
			c0,0-0.517,0.95-0.517,1.448c0,0-0.135,0.608,1.021,0.688C1.19,16.087,3.409,16.297,7.527,16.297z"/>
	</g>
</g>
<g id="inbox">
	<path fill="#999999" d="M2.814,10.041C3.209,9.676,3.606,9.314,4.002,8.95c0.521-0.479,1.051-0.948,1.582-1.42
		C5.946,7.213,6.307,6.894,6.67,6.574C6.479,6.409,6.29,6.244,6.1,6.077C5.626,5.656,5.15,5.235,4.678,4.811
		C4.193,4.375,3.71,3.934,3.227,3.491C2.673,2.985,2.124,2.471,1.58,1.952c-0.351-0.333-0.7-0.668-1.049-1.005
		C0.2,1.369,0.001,1.902,0.001,2.48v8.469c0,0.508,0.15,0.978,0.411,1.367c0.338-0.33,0.682-0.652,1.022-0.979
		C1.892,10.903,2.351,10.471,2.814,10.041z"/>
	<path fill="#999999" d="M14.016,10.157c-0.523-0.418-1.051-0.838-1.57-1.262c-0.452-0.365-0.901-0.732-1.352-1.104
		c-0.188-0.159-0.379-0.317-0.568-0.477c-0.027-0.021-0.057-0.043-0.082-0.064c-0.01-0.01-0.012-0.002-0.02,0.005
		c-0.049,0.041-0.099,0.082-0.146,0.123c-0.094,0.081-0.186,0.162-0.279,0.239C10.01,7.61,10.02,7.6,10.028,7.592
		c-0.15,0.142-0.311,0.251-0.5,0.335c-0.19,0.077-0.387,0.111-0.593,0.119c-0.204-0.005-0.4-0.042-0.592-0.118
		C8.156,7.842,7.993,7.733,7.842,7.591c0.01,0.01,0.019,0.019,0.029,0.025C7.782,7.541,7.69,7.462,7.599,7.384
		C7.552,7.342,7.504,7.3,7.457,7.26C7.455,7.257,7.437,7.24,7.435,7.241C7.411,7.263,7.386,7.282,7.362,7.303
		c-0.364,0.305-0.73,0.606-1.098,0.909C5.75,8.635,5.234,9.059,4.713,9.475c-0.446,0.358-0.894,0.713-1.342,1.066
		c-0.47,0.368-0.939,0.735-1.414,1.1c-0.435,0.331-0.867,0.662-1.304,0.987c0.453,0.493,1.104,0.802,1.824,0.802h12.915
		c0.723,0,1.371-0.309,1.824-0.803c-0.556-0.412-1.105-0.831-1.652-1.254C15.049,10.971,14.531,10.569,14.016,10.157z"/>
	<path fill="#999999" d="M15.065,3.103c-0.391,0.363-0.785,0.722-1.18,1.083c-0.527,0.481-1.063,0.958-1.597,1.432
		c-0.36,0.319-0.726,0.639-1.086,0.956c0.146,0.128,0.294,0.258,0.438,0.385c0.44,0.387,0.881,0.775,1.314,1.167
		c0.486,0.438,0.971,0.876,1.453,1.315c0.439,0.403,0.879,0.811,1.313,1.219c0.584,0.549,1.162,1.101,1.732,1.658
		c0.262-0.393,0.413-0.861,0.413-1.369v-8.47c0-0.578-0.198-1.111-0.528-1.532c-0.297,0.286-0.594,0.569-0.891,0.852
		C15.995,2.236,15.532,2.671,15.065,3.103z"/>
	<path fill="#999999" d="M3.923,3.042c0.52,0.416,1.04,0.833,1.557,1.251c0.449,0.363,0.896,0.729,1.34,1.101
		c0.375,0.313,0.75,0.625,1.124,0.938c0.188,0.156,0.374,0.316,0.562,0.476c0.03,0.026,0.061,0.052,0.09,0.079
		c0.109,0.1,0.249,0.128,0.392,0.125c0.075-0.014,0.142-0.027,0.208-0.066c0.049-0.026,0.091-0.063,0.132-0.101
		c0.021-0.021,0.048-0.041,0.07-0.062c0.375-0.316,0.75-0.633,1.129-0.947c0.359-0.302,0.722-0.601,1.084-0.897
		c0.514-0.424,1.029-0.847,1.551-1.263c0.447-0.357,0.893-0.712,1.343-1.065c0.468-0.37,0.938-0.736,1.412-1.101
		c0.381-0.291,0.763-0.58,1.144-0.867C16.619,0.242,16.036,0,15.395,0H2.48C1.84,0,1.258,0.242,0.817,0.641
		C1.366,1.05,1.911,1.467,2.451,1.887C2.943,2.27,3.436,2.653,3.923,3.042z"/>
</g>
<path id="favouritefeeds" display="none" fill="#3A3A3A" d="M9.023,3.279C8.648,1.824,6.749,0.96,5.283,0.96
	c-2.891,0-5.236,2.244-5.236,5.235c0,5.609,5.333,7.106,8.228,10.473c0.026,0.037,0.056,0.065,0.09,0.102
	c0.366,0.361,0.958,0.361,1.324,0c0.033-0.033,0.056-0.063,0.082-0.102C12.67,13.295,18,11.829,18,6.196
	c0-2.991-2.347-5.235-5.236-5.235C11.297,0.96,9.397,1.824,9.023,3.279z"/>
<g id="cart" display="none">
	<path display="inline" fill="#3A3A3A" d="M0.134,5.001l2.674,7.005c0.098,0.262,0.347,0.432,0.625,0.434l7.133,0.019
		c0.279,0.001,0.529-0.168,0.632-0.429l2.61-6.733l1.228-1.356l1.979,0.005c0.496,0.001,0.898-0.399,0.898-0.895
		c0.002-0.496-0.396-0.898-0.896-0.9L14.64,2.144c-0.257-0.001-0.496,0.107-0.668,0.296L12.452,4.12L0.764,4.088
		c-0.22,0-0.429,0.107-0.555,0.291C0.082,4.562,0.054,4.793,0.134,5.001z M3.704,9.52L9.92,9.538v0.896l-6.218-0.019L3.704,9.52z
		 M2.897,7.629L11,7.65l-0.002,0.897L2.895,8.526L2.897,7.629z M2.19,5.725l9.589,0.025l-0.002,0.896L2.188,6.621L2.19,5.725z"/>
	<circle display="inline" fill="#3A3A3A" cx="9.518" cy="14.511" r="1.346"/>
	<circle display="inline" fill="#3A3A3A" cx="4.572" cy="14.498" r="1.346"/>
</g>
</svg>
