<?xml version="1.0" encoding="utf-8"?>
<!-- Generator: Adobe Illustrator 16.0.0, SVG Export Plug-In . SVG Version: 6.00 Build 0)  -->
<!DOCTYPE svg PUBLIC "-//W3C//DTD SVG 1.1//EN" "http://www.w3.org/Graphics/SVG/1.1/DTD/svg11.dtd">
<svg version="1.1" id="Layer_1" xmlns="http://www.w3.org/2000/svg" xmlns:xlink="http://www.w3.org/1999/xlink" x="0px" y="0px"
	 width="17.664px" height="16.908px" viewBox="0 0 17.664 16.908" enable-background="new 0 0 17.664 16.908" xml:space="preserve">
<g id="dashboard" display="none">
	<path display="inline" fill="#3A3A3A" d="M6.719,6.837c0,0.578-0.468,1.046-1.046,1.046H1.068c-0.578,0-1.046-0.468-1.046-1.046
		V2.232c0-0.577,0.468-1.047,1.046-1.047h4.605c0.578,0,1.046,0.47,1.046,1.047V6.837L6.719,6.837z"/>
	<path display="inline" fill="#3A3A3A" d="M8.952,15.771c0,0.578-0.469,1.045-1.046,1.045H1.068c-0.578,0-1.046-0.467-1.046-1.045
		v-4.604c0-0.578,0.468-1.048,1.046-1.048h6.838c0.578,0,1.046,0.47,1.046,1.048V15.771z"/>
	<path display="inline" fill="#3A3A3A" d="M16.835,3.419c0.58,0,1.047,0.468,1.047,1.047v9.069c0,0.575-0.467,1.047-1.047,1.047
		h-4.604c-0.578,0-1.047-0.472-1.047-1.047V4.466c0-0.579,0.469-1.047,1.047-1.047H16.835L16.835,3.419z"/>
</g>
<g id="search" display="none">
	<path display="inline" fill="#3A3A3A" d="M6.75,1.687c-2.813,0-5.063,2.25-5.063,5.064c0,2.813,2.25,5.063,5.063,5.063
		c2.811,0,5.061-2.25,5.061-5.063C11.811,3.937,9.561,1.687,6.75,1.687L6.75,1.687z M17.482,15.097
		C17.813,15.42,18,15.844,18,16.313C18,17.25,17.25,18,16.313,18c-0.47,0-0.892-0.188-1.172-0.519l0,0l-4.972-4.92
		c-0.984,0.608-2.155,0.937-3.42,0.937C3.046,13.498,0,10.499,0,6.751C0,3.046,3.046,0,6.75,0c3.751,0,6.75,3.046,6.75,6.751
		c0,1.264-0.33,2.438-0.938,3.421L17.482,15.097z"/>
</g>
<g id="notifications" display="none">
	<path id="notification_1_" display="inline" fill="#3A3A3A" d="M15.609,13.478l-1.139-0.781V6.386c0-2.634-1.936-4.828-4.488-5.281
		c0.006-0.028,0.006-0.056,0.006-0.087c0-0.532-0.439-0.968-0.985-0.968c-0.544,0-0.984,0.433-0.984,0.968
		c0,0.028,0,0.056,0.005,0.087c-2.55,0.454-4.489,2.647-4.489,5.281v6.309l-1.14,0.791c-0.202,0-0.365,0.312-0.365,0.511v0.969
		c0,0.199,0.163,0.359,0.365,0.359h13.21c0.201,0,0.363-0.16,0.363-0.359v-1.118C15.975,13.646,15.811,13.478,15.609,13.478z"/>
	<path id="notification" display="inline" fill="#3A3A3A" d="M9,17.95c0.77,0,1.395-0.848,1.395-1.891H7.607
		C7.607,17.104,8.23,17.95,9,17.95z"/>
</g>
<g id="Kinnect2Coins">
	<rect x="7.047" fill="#999999" width="3.569" height="16.908"/>
	<g>
		<polygon fill="#999999" points="17.664,2.813 13.414,2.813 9.744,8.455 13.414,14.098 17.664,14.098 13.611,8.455 		"/>
		<polygon fill="#999999" points="0,2.813 4.25,2.813 7.92,8.455 4.25,14.098 0,14.098 4.052,8.455 		"/>
	</g>
</g>
<g id="InviteKinnectors" display="none">
	<path display="inline" fill="#3A3A3A" d="M17.833,13.476c0-0.35-0.36-1.016-0.36-1.016c-0.744-1.298-2.065-1.72-2.065-1.72
		c-0.845-0.306-1.3-0.609-1.3-0.915c0-0.307,0.24-0.658,0.24-0.658c1.041-1.47,0.987-2.673,0.987-2.673
		c0-2.563-2.647-2.596-2.647-2.596s-0.438,0.005-0.959,0.185c0.114,0.407,0.176,0.85,0.176,1.324
		c0.005,0.181,0.005,1.634-1.067,3.47c0.061,0.095,0.125,0.192,0.192,0.29c0,0,0.24,0.354,0.24,0.658
		c0,0.22-0.235,0.439-0.687,0.658c0.222,0.123,0.543,0.272,1.021,0.447c0.195,0.064,2.146,0.754,3.275,2.723l0.004,0.008
		l0.004,0.006c0.031,0.063,0.109,0.208,0.197,0.396c1.332-0.043,2.033-0.107,2.033-0.107C17.927,13.899,17.833,13.476,17.833,13.476
		z"/>
	<g display="inline">
		<path fill="#3A3A3A" d="M7.527,16.297c4.12,0,6.338-0.21,6.338-0.21c1.154-0.079,1.02-0.688,1.02-0.688
			c0-0.498-0.516-1.449-0.516-1.449c-1.063-1.857-2.957-2.46-2.957-2.46c-1.205-0.437-1.854-0.872-1.854-1.31s0.344-0.94,0.344-0.94
			c1.488-2.102,1.414-3.823,1.414-3.823c0-3.663-3.788-3.713-3.788-3.713s-3.786,0.05-3.786,3.713c0,0-0.074,1.722,1.414,3.823
			c0,0,0.344,0.505,0.344,0.94c0,0.438-0.651,0.873-1.856,1.31c0,0-1.893,0.603-2.956,2.46c0,0-0.517,0.951-0.517,1.449
			c0,0-0.135,0.607,1.021,0.688C1.19,16.087,3.409,16.297,7.527,16.297z"/>
	</g>
</g>
<g id="inbox" display="none">
	<path display="inline" fill="#3A3A3A" d="M2.909,12.326c0.395-0.365,0.792-0.728,1.188-1.091c0.522-0.479,1.051-0.948,1.582-1.42
		C6.041,9.498,6.402,9.179,6.765,8.86c-0.191-0.165-0.381-0.33-0.57-0.497C5.721,7.942,5.245,7.52,4.773,7.096
		C4.288,6.66,3.805,6.219,3.322,5.777C2.768,5.27,2.219,4.756,1.674,4.238c-0.35-0.333-0.7-0.668-1.049-1.005
		C0.294,3.655,0.096,4.187,0.096,4.765v8.468c0,0.508,0.151,0.978,0.411,1.367c0.338-0.33,0.682-0.652,1.023-0.979
		C1.987,13.188,2.446,12.756,2.909,12.326z"/>
	<path display="inline" fill="#3A3A3A" d="M14.111,12.442c-0.523-0.418-1.051-0.838-1.57-1.262
		c-0.453-0.365-0.901-0.732-1.352-1.104C11,9.917,10.811,9.759,10.621,9.601c-0.027-0.021-0.057-0.043-0.082-0.065
		c-0.01-0.009-0.012-0.002-0.02,0.005c-0.049,0.041-0.1,0.082-0.146,0.123c-0.095,0.081-0.187,0.162-0.279,0.24
		c0.012-0.008,0.021-0.019,0.029-0.026c-0.15,0.142-0.312,0.251-0.5,0.335c-0.191,0.078-0.388,0.112-0.594,0.12
		c-0.204-0.005-0.401-0.042-0.592-0.118c-0.188-0.086-0.351-0.195-0.501-0.337c0.01,0.011,0.019,0.019,0.029,0.026
		C7.875,9.827,7.784,9.748,7.693,9.67C7.647,9.627,7.599,9.585,7.551,9.545C7.549,9.542,7.532,9.524,7.53,9.526
		C7.505,9.548,7.481,9.567,7.457,9.588c-0.365,0.306-0.731,0.606-1.098,0.909c-0.515,0.423-1.03,0.847-1.551,1.263
		c-0.446,0.358-0.893,0.714-1.342,1.066c-0.469,0.368-0.939,0.735-1.414,1.1c-0.434,0.331-0.867,0.662-1.303,0.987
		c0.453,0.493,1.103,0.802,1.824,0.802h12.915c0.723,0,1.371-0.309,1.824-0.803c-0.557-0.412-1.105-0.831-1.652-1.254
		C15.145,13.256,14.625,12.854,14.111,12.442z"/>
	<path display="inline" fill="#3A3A3A" d="M15.16,5.388c-0.391,0.363-0.785,0.722-1.18,1.083c-0.527,0.481-1.063,0.958-1.598,1.432
		c-0.359,0.319-0.725,0.638-1.086,0.956c0.146,0.128,0.295,0.257,0.438,0.384c0.44,0.387,0.882,0.775,1.315,1.167
		c0.486,0.438,0.97,0.876,1.453,1.315c0.439,0.403,0.879,0.811,1.313,1.219c0.584,0.549,1.162,1.101,1.732,1.658
		c0.262-0.393,0.412-0.861,0.412-1.369V4.764c0-0.578-0.197-1.111-0.527-1.532c-0.297,0.286-0.594,0.569-0.891,0.851
		C16.089,4.521,15.626,4.956,15.16,5.388z"/>
	<path display="inline" fill="#3A3A3A" d="M4.018,5.327c0.52,0.416,1.04,0.833,1.557,1.251c0.449,0.364,0.896,0.73,1.34,1.101
		c0.375,0.312,0.75,0.625,1.124,0.937C8.226,8.773,8.413,8.933,8.6,9.092c0.03,0.026,0.061,0.052,0.09,0.079
		c0.109,0.1,0.249,0.128,0.392,0.125C9.157,9.282,9.223,9.269,9.29,9.229c0.047-0.026,0.09-0.063,0.131-0.101
		c0.021-0.021,0.047-0.041,0.07-0.062c0.375-0.316,0.75-0.632,1.129-0.947c0.359-0.301,0.721-0.6,1.084-0.897
		c0.514-0.424,1.029-0.847,1.551-1.263c0.447-0.357,0.892-0.712,1.343-1.065c0.467-0.37,0.938-0.737,1.411-1.101
		c0.382-0.291,0.763-0.58,1.144-0.867c-0.438-0.399-1.022-0.642-1.661-0.642H2.575c-0.64,0-1.222,0.243-1.663,0.641
		C1.46,3.335,2.005,3.752,2.545,4.172C3.038,4.555,3.531,4.938,4.018,5.327z"/>
</g>
<path id="favouritefeeds" display="none" fill="#3A3A3A" d="M9.023,3.279C8.648,1.824,6.749,0.96,5.283,0.96
	c-2.891,0-5.236,2.244-5.236,5.236c0,5.61,5.333,7.106,8.228,10.472c0.026,0.037,0.056,0.065,0.09,0.103
	c0.366,0.36,0.958,0.36,1.324,0c0.033-0.033,0.057-0.063,0.082-0.103C12.669,13.295,18,11.829,18,6.196
	c0-2.992-2.346-5.236-5.235-5.236C11.296,0.96,9.397,1.824,9.023,3.279z"/>
<g id="cart" display="none">
	<path display="inline" fill="#3A3A3A" d="M0.134,5.001l2.674,7.005c0.098,0.263,0.347,0.433,0.625,0.435l7.133,0.018
		c0.279,0.001,0.529-0.168,0.633-0.428l2.609-6.734l1.229-1.356l1.978,0.005c0.497,0.001,0.897-0.4,0.899-0.895
		c0-0.496-0.397-0.898-0.896-0.9L14.64,2.144c-0.256-0.001-0.496,0.107-0.668,0.296l-1.52,1.68L0.764,4.088
		c-0.22,0-0.429,0.108-0.555,0.291C0.082,4.562,0.054,4.793,0.134,5.001z M3.704,9.521l6.217,0.018l-0.002,0.896l-6.217-0.02
		L3.704,9.521z M2.897,7.629l8.104,0.021l-0.004,0.897L2.895,8.526L2.897,7.629z M2.19,5.725l9.589,0.025l-0.002,0.897L2.188,6.621
		L2.19,5.725z"/>
	<circle display="inline" fill="#3A3A3A" cx="9.518" cy="14.511" r="1.346"/>
	<circle display="inline" fill="#3A3A3A" cx="4.572" cy="14.498" r="1.346"/>
</g>
</svg>
