<?xml version="1.0" encoding="utf-8"?>
<!-- Generator: Adobe Illustrator 16.0.0, SVG Export Plug-In . SVG Version: 6.00 Build 0)  -->
<!DOCTYPE svg PUBLIC "-//W3C//DTD SVG 1.1//EN" "http://www.w3.org/Graphics/SVG/1.1/DTD/svg11.dtd">
<svg version="1.1" id="Layer_1" xmlns="http://www.w3.org/2000/svg" xmlns:xlink="http://www.w3.org/1999/xlink" x="0px" y="0px"
	 width="140.025px" height="30px" viewBox="0 0 140.025 30" enable-background="new 0 0 140.025 30" xml:space="preserve">
<g>
	<path fill="#FFFFFF" d="M42.991,12.06L42.991,12.06v16.329h1.448v-4.378c-0.002-2.413-0.001-4.076,0.252-5.262
		c0.576-2.726,2.768-4.937,5.34-5.377c0.401-0.095,0.821-0.144,1.247-0.144c1.774,0,3.512,0.839,4.53,2.186
		c0.726,1.002,1.127,2.306,1.109,3.569v9.405h1.445v-8.772c0.042-2.219-0.478-3.981-1.538-5.235
		c-1.309-1.639-3.228-2.616-5.398-2.616c-0.11,0-0.221,0.003-0.396,0.007c-2.561,0-5.22,1.625-6.592,3.859V12.06H42.991z"/>
	<path fill="#FFFFFF" d="M22.578,12.06L22.578,12.06v16.329h1.448v-4.378c-0.002-2.413-0.001-4.076,0.252-5.262
		c0.576-2.726,2.768-4.937,5.34-5.377c0.401-0.095,0.821-0.144,1.247-0.144c1.774,0,3.512,0.839,4.53,2.186
		c0.726,1.002,1.127,2.306,1.109,3.569v9.405h1.445v-8.772c0.042-2.219-0.478-3.981-1.538-5.235
		c-1.309-1.639-3.228-2.616-5.398-2.616c-0.11,0-0.221,0.003-0.396,0.007c-2.561,0-5.22,1.625-6.592,3.859V12.06H22.578z"/>
	<path fill="#FFFFFF" d="M0,7.569h1.225v13.224l9.713-8.563h1.81l-7.665,6.702l8.305,9.415H11.71l-7.586-8.502l-2.899,2.584v5.918H0
		V7.569z"/>
	<path fill="#FFFFFF" d="M16.082,7.514h1.448v3.337h-1.448V7.514z M16.082,12.23h1.448v16.117h-1.448V12.23z"/>
	<path fill="#FFFFFF" d="M90.671,27.076c-5.27,0-6.922-4.534-6.922-7.146c0-3.841,2.31-7.46,6.922-7.46
		c2.587,0,4.622,1.236,5.583,2.707h1.474c-0.953-2.137-3.468-3.966-7.057-3.966c-4.471,0-8.231,3.053-8.231,8.719
		c0,5.006,3.447,8.405,8.231,8.405c2.962,0,5.624-1.273,6.954-3.968H96.19C94.991,26.208,92.872,27.076,90.671,27.076z"/>
	<path fill="#FFFFFF" d="M76.143,24.367c-0.862,1.345-2.416,2.709-5.48,2.709c-4.508,0-6.838-2.61-7.142-6.297h15.28
		c-0.059-5.162-3.045-9.568-8.254-9.568c-6.382,0-8.374,5.067-8.374,8.436c0,5.352,3.22,8.688,8.344,8.688
		c3.29,0,5.645-1.251,7.079-3.968H76.143z M70.399,12.469c3.454,0,6.323,2.645,6.879,7.051H63.521
		C63.71,15.148,66.534,12.469,70.399,12.469z"/>
	<path fill="#EC4D24" d="M115.393,28.443c0,0,3.516-1.943,5.878-0.993c1.511,0.487,3,0.889,4.654,0.889
		c7.773,0,14.074-6.302,14.074-14.073c0-7.772-6.301-14.073-14.074-14.073c-7.771,0-14.071,6.301-14.071,14.073
		c0,2.669,0.873,5.249,2.136,7.359C116.223,25.385,115.393,28.443,115.393,28.443z"/>
	<g>
		<path fill-rule="evenodd" clip-rule="evenodd" fill="#FFFFFF" d="M120.18,22.541h11.363v-1.179h-9.249l0.197-0.299
			c0.51-0.772,1.173-1.457,1.854-2.08c0.737-0.674,1.523-1.297,2.305-1.921c0.992-0.792,2.012-1.6,2.894-2.515
			c0.765-0.792,1.469-1.716,1.788-2.783c0.121-0.404,0.184-0.82,0.184-1.243c0-1.206-0.411-2.306-1.261-3.168
			c-0.984-0.999-2.392-1.514-3.775-1.579c-1.459-0.069-2.952,0.355-4.096,1.279c-0.928,0.749-1.535,2.084-1.735,3.271l1.428,0.136
			c0.09-0.909,0.43-1.734,1.114-2.368c2.205-2.044,6.868-1.011,6.868,2.383c0,1.041-0.525,2.012-1.157,2.808
			c-0.211,0.266-0.442,0.517-0.68,0.757c-0.295,0.302-0.606,0.59-0.921,0.871c-0.822,0.73-1.692,1.418-2.567,2.082
			c-0.408,0.309-0.804,0.637-1.186,0.977c-0.442,0.392-0.871,0.803-1.278,1.231C121.526,19.985,120.341,21.38,120.18,22.541
			L120.18,22.541z"/>
	</g>
	<path fill="#FFFFFF" d="M103.488,25.035c0.042,1.593,1.219,3.08,2.778,3.443c1.2,0.365,2.437-0.021,3.562-0.438v-1.26
		c-1.28,0.318-2.8,0.844-4.035,0.119c-1.23-0.697-0.869-2.762-0.886-4.036v-0.881v-8.396h4.784v-1.259h-4.784V7.569h-1.448v4.759
		h-3.651v1.259h3.651v8.889L103.488,25.035z"/>
</g>
</svg>
