<?xml version="1.0" encoding="utf-8"?>
<!-- Generator: Adobe Illustrator 16.0.0, SVG Export Plug-In . SVG Version: 6.00 Build 0)  -->
<!DOCTYPE svg PUBLIC "-//W3C//DTD SVG 1.1//EN" "http://www.w3.org/Graphics/SVG/1.1/DTD/svg11.dtd">
<svg version="1.1" id="Layer_1" xmlns="http://www.w3.org/2000/svg" xmlns:xlink="http://www.w3.org/1999/xlink" x="0px" y="0px"
	 width="13.939px" height="17.9px" viewBox="0 0 13.939 17.9" enable-background="new 0 0 13.939 17.9" xml:space="preserve">
<g id="dashboard" display="none">
	<path display="inline" fill="#3A3A3A" d="M6.719,6.837c0,0.578-0.468,1.046-1.046,1.046H1.068c-0.578,0-1.046-0.468-1.046-1.046
		V2.232c0-0.577,0.468-1.047,1.046-1.047h4.604c0.578,0,1.046,0.47,1.046,1.047V6.837L6.719,6.837z"/>
	<path display="inline" fill="#3A3A3A" d="M8.952,15.77c0,0.578-0.469,1.045-1.046,1.045H1.068c-0.578,0-1.046-0.467-1.046-1.045
		v-4.604c0-0.578,0.468-1.048,1.046-1.048h6.838c0.578,0,1.046,0.47,1.046,1.048V15.77z"/>
	<path display="inline" fill="#3A3A3A" d="M16.836,3.419c0.579,0,1.046,0.469,1.046,1.047v9.069c0,0.576-0.467,1.047-1.046,1.047
		h-4.604c-0.578,0-1.047-0.471-1.047-1.047V4.466c0-0.578,0.469-1.047,1.047-1.047H16.836L16.836,3.419z"/>
</g>
<g id="search" display="none">
	<path display="inline" fill="#3A3A3A" d="M6.75,1.687c-2.813,0-5.063,2.25-5.063,5.063c0,2.813,2.25,5.063,5.063,5.063
		c2.812,0,5.062-2.25,5.062-5.063C11.811,3.937,9.561,1.687,6.75,1.687L6.75,1.687z M17.482,15.096
		C17.813,15.42,18,15.844,18,16.314C18,17.25,17.25,18,16.313,18c-0.471,0-0.892-0.188-1.172-0.518l0,0l-4.972-4.92
		c-0.984,0.607-2.155,0.936-3.421,0.936C3.046,13.498,0,10.499,0,6.751C0,3.046,3.046,0,6.75,0c3.751,0,6.75,3.046,6.75,6.751
		c0,1.265-0.331,2.438-0.938,3.421L17.482,15.096z"/>
</g>
<g id="notifications">
	<path id="notification_1_" fill="#999999" d="M13.58,13.427l-1.139-0.781V6.336c0-2.634-1.936-4.827-4.488-5.28
		c0.006-0.028,0.006-0.057,0.006-0.087C7.959,0.436,7.519,0,6.973,0C6.429,0,5.99,0.433,5.99,0.969c0,0.027,0,0.056,0.005,0.087
		c-2.55,0.454-4.489,2.646-4.489,5.28v6.309l-1.14,0.791C0.163,13.435,0,13.747,0,13.946v0.969c0,0.199,0.163,0.359,0.365,0.359
		h13.21c0.201,0,0.362-0.16,0.362-0.359v-1.117C13.946,13.596,13.782,13.427,13.58,13.427z"/>
	<path id="notification" fill="#999999" d="M6.97,17.9c0.77,0,1.395-0.847,1.395-1.89H5.577C5.577,17.054,6.2,17.9,6.97,17.9z"/>
</g>
<g id="Kinnect2Coins" display="none">
	<rect x="7.292" y="0.546" display="inline" fill="#3A3A3A" width="3.569" height="16.908"/>
	<g display="inline">
		<polygon fill="#3A3A3A" points="17.908,3.359 13.658,3.359 9.988,9.001 13.658,14.643 17.908,14.643 13.855,9.001 		"/>
		<polygon fill="#3A3A3A" points="0.245,3.359 4.495,3.359 8.165,9.001 4.495,14.643 0.245,14.643 4.297,9.001 		"/>
	</g>
</g>
<g id="InviteKinnectors" display="none">
	<path display="inline" fill="#3A3A3A" d="M17.833,13.475c0-0.35-0.359-1.016-0.359-1.016c-0.744-1.298-2.066-1.72-2.066-1.72
		c-0.844-0.305-1.299-0.609-1.299-0.915s0.24-0.658,0.24-0.658c1.041-1.47,0.987-2.673,0.987-2.673c0-2.563-2.647-2.596-2.647-2.596
		s-0.438,0.005-0.959,0.185c0.114,0.407,0.176,0.851,0.176,1.324c0.004,0.181,0.004,1.634-1.068,3.47
		c0.062,0.096,0.125,0.192,0.193,0.29c0,0,0.24,0.354,0.24,0.658c0,0.22-0.236,0.44-0.687,0.659
		c0.222,0.123,0.542,0.271,1.021,0.447c0.195,0.063,2.146,0.754,3.274,2.723l0.004,0.007l0.005,0.006
		c0.03,0.063,0.108,0.208,0.196,0.397c1.333-0.043,2.033-0.108,2.033-0.108C17.927,13.9,17.833,13.475,17.833,13.475z"/>
	<g display="inline">
		<path fill="#3A3A3A" d="M7.527,16.297c4.12,0,6.337-0.21,6.337-0.21c1.155-0.079,1.021-0.688,1.021-0.688
			c0-0.498-0.517-1.449-0.517-1.449c-1.063-1.857-2.956-2.46-2.956-2.46c-1.205-0.437-1.854-0.872-1.854-1.31s0.344-0.94,0.344-0.94
			c1.488-2.102,1.414-3.823,1.414-3.823c0-3.663-3.788-3.713-3.788-3.713s-3.786,0.05-3.786,3.713c0,0-0.074,1.723,1.414,3.823
			c0,0,0.344,0.505,0.344,0.94c0,0.438-0.65,0.873-1.855,1.31c0,0-1.894,0.603-2.956,2.46c0,0-0.518,0.951-0.518,1.449
			c0,0-0.135,0.607,1.021,0.688C1.19,16.087,3.409,16.297,7.527,16.297z"/>
	</g>
</g>
<g id="inbox" display="none">
	<path display="inline" fill="#3A3A3A" d="M2.909,12.326c0.396-0.365,0.792-0.727,1.188-1.09c0.521-0.48,1.051-0.949,1.582-1.42
		C6.041,9.498,6.402,9.179,6.765,8.86c-0.191-0.165-0.382-0.33-0.57-0.497C5.721,7.942,5.245,7.52,4.773,7.096
		C4.288,6.66,3.805,6.219,3.322,5.777C2.768,5.27,2.219,4.756,1.674,4.238C1.324,3.905,0.974,3.57,0.625,3.233
		C0.294,3.655,0.096,4.187,0.096,4.765v8.469c0,0.507,0.15,0.977,0.41,1.367c0.339-0.33,0.683-0.653,1.023-0.98
		C1.987,13.188,2.446,12.756,2.909,12.326z"/>
	<path display="inline" fill="#3A3A3A" d="M14.111,12.443c-0.524-0.418-1.051-0.838-1.571-1.262c-0.452-0.365-0.9-0.733-1.351-1.105
		C11,9.917,10.811,9.759,10.621,9.6c-0.028-0.021-0.057-0.043-0.083-0.065c-0.009-0.009-0.011-0.002-0.019,0.005
		c-0.049,0.041-0.1,0.082-0.146,0.123c-0.095,0.081-0.187,0.162-0.28,0.24c0.013-0.008,0.021-0.019,0.03-0.026
		c-0.15,0.143-0.312,0.251-0.5,0.335c-0.191,0.078-0.388,0.112-0.594,0.12c-0.204-0.005-0.401-0.042-0.592-0.118
		c-0.188-0.086-0.352-0.194-0.501-0.337c0.01,0.011,0.019,0.02,0.028,0.026C7.875,9.827,7.784,9.748,7.693,9.67
		C7.647,9.627,7.599,9.585,7.551,9.545C7.549,9.542,7.532,9.525,7.53,9.527C7.505,9.548,7.481,9.568,7.457,9.588
		c-0.365,0.306-0.73,0.607-1.098,0.909c-0.516,0.423-1.03,0.847-1.551,1.263c-0.446,0.358-0.894,0.714-1.343,1.066
		c-0.469,0.369-0.938,0.736-1.414,1.1c-0.434,0.331-0.866,0.662-1.303,0.987c0.453,0.493,1.104,0.802,1.824,0.802h12.915
		c0.722,0,1.371-0.309,1.824-0.803c-0.557-0.412-1.106-0.831-1.652-1.254C15.145,13.256,14.625,12.854,14.111,12.443z"/>
	<path display="inline" fill="#3A3A3A" d="M15.16,5.388c-0.391,0.362-0.786,0.722-1.18,1.083c-0.527,0.48-1.063,0.958-1.598,1.432
		c-0.359,0.319-0.725,0.638-1.086,0.956c0.146,0.128,0.294,0.257,0.438,0.384c0.44,0.387,0.882,0.776,1.314,1.167
		c0.486,0.438,0.971,0.876,1.453,1.316c0.44,0.402,0.879,0.81,1.313,1.219c0.584,0.548,1.162,1.1,1.731,1.658
		c0.263-0.394,0.413-0.862,0.413-1.369v-8.47c0-0.578-0.197-1.111-0.527-1.532c-0.298,0.286-0.595,0.568-0.892,0.851
		C16.089,4.521,15.626,4.956,15.16,5.388z"/>
	<path display="inline" fill="#3A3A3A" d="M4.018,5.327c0.52,0.416,1.04,0.833,1.557,1.251c0.449,0.364,0.896,0.73,1.34,1.102
		c0.375,0.312,0.75,0.625,1.124,0.937C8.226,8.773,8.413,8.933,8.6,9.092C8.63,9.118,8.661,9.144,8.69,9.171
		c0.108,0.101,0.249,0.128,0.392,0.125C9.157,9.282,9.223,9.269,9.29,9.23c0.048-0.027,0.09-0.063,0.131-0.102
		c0.022-0.021,0.048-0.041,0.071-0.061c0.375-0.317,0.75-0.633,1.129-0.948c0.359-0.301,0.721-0.6,1.083-0.896
		c0.514-0.425,1.03-0.848,1.551-1.264c0.447-0.356,0.893-0.712,1.344-1.064c0.467-0.37,0.938-0.737,1.411-1.102
		c0.382-0.291,0.763-0.58,1.144-0.867c-0.439-0.398-1.022-0.642-1.662-0.642H2.575c-0.64,0-1.222,0.243-1.663,0.641
		C1.46,3.335,2.005,3.752,2.545,4.172C3.038,4.555,3.531,4.938,4.018,5.327z"/>
</g>
<path id="favouritefeeds" display="none" fill="#3A3A3A" d="M9.023,3.279C8.648,1.824,6.749,0.96,5.283,0.96
	c-2.891,0-5.236,2.244-5.236,5.236c0,5.609,5.333,7.105,8.229,10.472c0.025,0.037,0.056,0.066,0.09,0.103
	c0.366,0.36,0.958,0.36,1.324,0c0.033-0.033,0.056-0.063,0.082-0.103C12.67,13.295,18,11.829,18,6.196
	c0-2.992-2.346-5.236-5.235-5.236C11.297,0.96,9.397,1.824,9.023,3.279z"/>
<g id="cart" display="none">
	<path display="inline" fill="#3A3A3A" d="M0.134,5.001l2.675,7.005c0.098,0.263,0.347,0.433,0.625,0.435l7.133,0.018
		c0.279,0.001,0.529-0.168,0.632-0.428l2.61-6.734l1.228-1.355l1.979,0.005c0.496,0.001,0.897-0.4,0.898-0.896
		s-0.396-0.897-0.896-0.899L14.64,2.144c-0.257-0.001-0.496,0.106-0.668,0.296l-1.521,1.68L0.764,4.088
		c-0.221,0-0.43,0.108-0.556,0.291C0.082,4.562,0.054,4.793,0.134,5.001z M3.704,9.52l6.217,0.018L9.92,10.434l-6.218-0.02
		L3.704,9.52z M2.897,7.629l8.104,0.021l-0.003,0.896L2.895,8.526L2.897,7.629z M2.19,5.725l9.589,0.024l-0.002,0.897L2.188,6.621
		L2.19,5.725z"/>
	<circle display="inline" fill="#3A3A3A" cx="9.518" cy="14.511" r="1.346"/>
	<circle display="inline" fill="#3A3A3A" cx="4.572" cy="14.498" r="1.346"/>
</g>
</svg>
