<?xml version="1.0" encoding="utf-8"?>
<!-- Generator: Adobe Illustrator 16.0.0, SVG Export Plug-In . SVG Version: 6.00 Build 0)  -->
<!DOCTYPE svg PUBLIC "-//W3C//DTD SVG 1.1//EN" "http://www.w3.org/Graphics/SVG/1.1/DTD/svg11.dtd">
<svg version="1.1" id="_x36_" xmlns="http://www.w3.org/2000/svg" xmlns:xlink="http://www.w3.org/1999/xlink" x="0px" y="0px"
	 width="500px" height="500px" viewBox="0 0 500 500" enable-background="new 0 0 500 500" xml:space="preserve">
<rect x="1.949" fill="#DDDDDD" width="500" height="500"/>
<g display="none">
	<path display="inline" fill="#909090" d="M95.622,513.331v0.341 M417.839,500.292v-94.646h7.151c3.482,0,6.311-2.824,6.311-6.312
		c0-3.484-2.826-6.309-6.311-6.309h-20.611v-95.861c3.377,0.745,6.884,0.974,10.396,0.64c16.813-1.604,29.985-16.644,29.985-34.232
		v-12.305c0-0.02-0.002-0.035-0.002-0.056c-0.001-0.141-0.012-0.28-0.021-0.424c-0.004-0.067-0.008-0.142-0.016-0.208
		c-0.014-0.128-0.036-0.255-0.059-0.384c-0.014-0.081-0.024-0.162-0.041-0.242c-0.021-0.102-0.051-0.201-0.077-0.302
		c-0.028-0.104-0.054-0.209-0.087-0.313c-0.021-0.072-0.053-0.144-0.079-0.217c-0.046-0.128-0.093-0.254-0.146-0.376
		c-0.024-0.058-0.058-0.114-0.082-0.171c-0.063-0.135-0.128-0.267-0.2-0.396c-0.008-0.015-0.017-0.03-0.021-0.045l-49.969-87.443
		c-3.511-6.145-10.088-9.961-17.166-9.961H123.204c-7.078,0-13.655,3.817-17.167,9.961L56.07,248.137
		c-0.008,0.015-0.014,0.031-0.022,0.046c-0.073,0.129-0.138,0.261-0.201,0.396c-0.027,0.057-0.058,0.113-0.083,0.17
		c-0.055,0.123-0.099,0.25-0.145,0.376c-0.025,0.073-0.056,0.145-0.08,0.219c-0.033,0.103-0.058,0.207-0.086,0.313
		c-0.027,0.1-0.056,0.2-0.078,0.301c-0.017,0.08-0.026,0.162-0.041,0.243c-0.022,0.128-0.045,0.255-0.059,0.385
		c-0.007,0.066-0.009,0.139-0.014,0.206c-0.01,0.144-0.021,0.283-0.021,0.425c0,0.02-0.002,0.037-0.002,0.055v12.305
		c0,17.593,13.172,32.631,29.988,34.232c1.06,0.102,2.118,0.149,3.173,0.149c2.442,0,4.862-0.271,7.221-0.794v95.866H75.01
		c-3.484,0-6.31,2.822-6.31,6.309s2.826,6.312,6.31,6.312h7.151v94.646 M404.379,513.672v-0.341 M383.005,166.954l44.574,78.003
		h-38.731l-33.309-81.605h21.257C379.355,163.352,381.734,164.732,383.005,166.954z M184.27,163.352l-19.984,81.605h-39.503
		l33.309-81.605H184.27z M223.925,163.352l-6.662,81.605h-39.986l19.985-81.605H223.925z M263.414,163.352l6.663,81.605h-40.152
		l6.662-81.605H263.414z M302.738,163.352l19.984,81.605h-39.986l-6.66-81.605H302.738z M341.91,163.352l33.308,81.605h-39.501
		l-19.986-81.605H341.91z M121.702,257.577h41.223v7.144c0,0.002,0,0.004,0,0.008c0,11.365-9.247,20.612-20.611,20.612
		c-11.365,0-20.612-9.247-20.612-20.612V257.577z M175.545,264.729v-7.149h41.224v7.149c0,11.365-9.246,20.612-20.611,20.612
		c-11.364,0-20.609-9.243-20.612-20.606C175.545,264.732,175.545,264.729,175.545,264.729z M229.388,257.577h41.223v7.149
		c0,11.365-9.245,20.612-20.61,20.612c-11.366,0-20.612-9.247-20.612-20.612L229.388,257.577L229.388,257.577z M283.23,257.577
		h41.225v7.149c0,11.365-9.247,20.612-20.611,20.612c-11.365,0-20.613-9.247-20.613-20.612V257.577L283.23,257.577z
		 M337.075,257.577h41.223v7.149c0,11.365-9.247,20.612-20.612,20.612c-11.362,0-20.608-9.247-20.608-20.612L337.075,257.577
		L337.075,257.577z M116.995,166.955c1.27-2.223,3.649-3.603,6.209-3.603h21.257l-33.309,81.605h-38.73L116.995,166.955z
		 M86.425,285.242c-10.411-0.993-18.566-10.512-18.566-21.672v-5.993h41.223v7.149c0,5.795-2.46,11.354-6.752,15.258
		C97.982,283.938,92.332,285.803,86.425,285.242z M391.76,291.65v101.377H108.241V291.65c0-0.071-0.008-0.143-0.011-0.211
		c0.894-0.662,1.76-1.364,2.59-2.119c1.712-1.557,3.245-3.28,4.581-5.133c6.044,8.336,15.853,13.771,26.913,13.771
		c11.066,0,20.878-5.44,26.921-13.785c6.043,8.345,15.856,13.785,26.922,13.785c11.065,0,20.878-5.44,26.921-13.785
		c6.043,8.345,15.856,13.785,26.922,13.785c11.066,0,20.878-5.44,26.922-13.785c6.043,8.345,15.855,13.785,26.922,13.785
		c11.064,0,20.879-5.44,26.922-13.785c6.043,8.345,15.854,13.785,26.92,13.785c11.063,0,20.869-5.438,26.914-13.771
		c1.336,1.853,2.867,3.576,4.58,5.133c0.828,0.755,1.694,1.459,2.59,2.119C391.768,291.511,391.76,291.58,391.76,291.65z
		 M432.141,263.57c0,11.16-8.152,20.679-18.563,21.672c-5.907,0.564-11.559-1.305-15.905-5.258
		c-4.291-3.901-6.752-9.463-6.752-15.258v-7.149h41.225v5.993H432.141L432.141,263.57z"/>
</g>
<g id="barcode">
	<rect x="96" y="152.531" fill="#6B6B6B" width="7.797" height="194.938"/>
	<rect x="107.696" y="152.531" fill="#6B6B6B" width="3.898" height="194.938"/>
	<rect x="119.393" y="152.531" fill="#6B6B6B" width="11.696" height="194.938"/>
	<rect x="138.886" y="152.531" fill="#6B6B6B" width="11.696" height="194.938"/>
	<rect x="154.481" y="152.531" fill="#6B6B6B" width="3.899" height="194.938"/>
	<rect x="162.278" y="152.531" fill="#6B6B6B" width="7.798" height="194.938"/>
	<rect x="181.772" y="152.531" fill="#6B6B6B" width="3.899" height="194.938"/>
	<rect x="193.468" y="152.531" fill="#6B6B6B" width="3.899" height="194.938"/>
	<rect x="212.962" y="152.531" fill="#6B6B6B" width="7.797" height="194.938"/>
	<rect x="224.658" y="152.531" fill="#6B6B6B" width="7.797" height="194.938"/>
	<rect x="244.152" y="152.531" fill="#6B6B6B" width="7.797" height="194.938"/>
	<rect x="255.848" y="152.531" fill="#6B6B6B" width="7.799" height="194.938"/>
	<rect x="267.544" y="152.531" fill="#6B6B6B" width="3.899" height="194.938"/>
	<rect x="279.24" y="152.531" fill="#6B6B6B" width="3.898" height="194.938"/>
	<rect x="290.938" y="152.531" fill="#6B6B6B" width="15.595" height="194.938"/>
	<rect x="310.432" y="152.531" fill="#6B6B6B" width="15.594" height="194.938"/>
	<rect x="329.924" y="152.531" fill="#6B6B6B" width="3.899" height="194.938"/>
	<rect x="337.723" y="152.531" fill="#6B6B6B" width="3.897" height="194.938"/>
	<rect x="353.316" y="152.531" fill="#6B6B6B" width="7.798" height="194.938"/>
	<rect x="372.811" y="152.531" fill="#6B6B6B" width="11.695" height="194.938"/>
	<rect x="388.405" y="152.531" fill="#6B6B6B" width="3.897" height="194.938"/>
	<rect x="396.202" y="152.531" fill="#6B6B6B" width="7.798" height="194.938"/>
</g>
<circle fill="#DDDDDD" cx="250" cy="250" r="72.311"/>
<path fill="none" stroke="#6B6B6B" stroke-width="3" stroke-miterlimit="10" d="M287.673,245.046
	c-13.744,13.741-27.48,27.486-41.226,41.227c-3.302,3.299-6.596,6.593-9.887,9.895c-0.207,0.203-0.366,0.468-0.543,0.706
	c-0.06,0-0.115,0-0.171,0c-0.202-0.231-0.388-0.472-0.606-0.69c-10.782-10.788-21.565-21.56-32.354-32.351
	c-0.273-0.259-0.631-0.47-1.081-0.787c1.406-1.363,2.623-2.507,3.81-3.708c16.033-16.018,32.064-32.054,48.08-48.092
	c0.479-0.478,0.95-0.647,1.623-0.647c10.621,0.016,21.225,0.012,31.847,0.012c0.374,0,0.73-0.016,1.105-0.032
	c0,11.339,0,22.702,0,34.048C288.063,244.762,287.845,244.876,287.673,245.046z M269.624,237.09c4.3-0.038,7.749-3.585,7.695-7.915
	c-0.062-4.179-3.658-7.706-7.821-7.659c-4.341,0.044-7.781,3.539-7.748,7.868C261.764,233.721,265.264,237.139,269.624,237.09z
	 M236.145,273.281c8.276-8.284,16.624-16.638,24.915-24.933c-1.112-1.11-2.272-2.268-3.376-3.373
	c-8.227,8.248-16.574,16.595-24.93,24.951C233.853,271.014,235.019,272.167,236.145,273.281z M250.528,237.776
	c-5.905,5.912-11.859,11.873-17.766,17.787c1.085,1.073,2.249,2.234,3.366,3.343c5.858-5.876,11.815-11.849,17.75-17.799
	C252.808,240.04,251.64,238.884,250.528,237.776z"/>
</svg>
