<?xml version="1.0" encoding="utf-8"?>
<!-- Generator: Adobe Illustrator 16.0.0, SVG Export Plug-In . SVG Version: 6.00 Build 0)  -->
<!DOCTYPE svg PUBLIC "-//W3C//DTD SVG 1.1//EN" "http://www.w3.org/Graphics/SVG/1.1/DTD/svg11.dtd">
<svg version="1.1" id="Layer_1" xmlns="http://www.w3.org/2000/svg" xmlns:xlink="http://www.w3.org/1999/xlink" x="0px" y="0px"
	 width="70px" height="70px" viewBox="-15 -15 70 70" enable-background="new -15 -15 70 70" xml:space="preserve">
<path display="none" fill="#FFFFFF" d="M30.264,17.911c-3.309,3.308-6.615,6.616-9.924,9.924c-0.795,0.794-1.588,1.587-2.38,2.382
	c-0.05,0.049-0.088,0.112-0.131,0.17c-0.014,0-0.027,0-0.041,0c-0.049-0.056-0.093-0.113-0.146-0.166
	c-2.595-2.597-5.191-5.188-7.788-7.787c-0.066-0.063-0.152-0.113-0.26-0.188c0.338-0.328,0.631-0.604,0.917-0.895
	c3.859-3.854,7.718-7.716,11.573-11.577c0.115-0.115,0.229-0.156,0.391-0.156c2.559,0.004,5.109,0.003,7.666,0.003
	c0.09,0,0.176-0.004,0.268-0.008c0,2.729,0,5.465,0,8.196C30.357,17.843,30.305,17.87,30.264,17.911z M25.919,15.996
	c1.035-0.009,1.865-0.863,1.853-1.905c-0.015-1.006-0.881-1.855-1.883-1.844c-1.045,0.011-1.873,0.852-1.865,1.894
	C24.027,15.185,24.869,16.008,25.919,15.996z M17.86,24.708c1.992-1.994,4.001-4.005,5.998-6.002
	c-0.268-0.267-0.547-0.546-0.813-0.812c-1.98,1.986-3.99,3.995-6.001,6.006C17.308,24.162,17.589,24.439,17.86,24.708z
	 M21.322,16.161c-1.421,1.423-2.854,2.858-4.276,4.282c0.261,0.258,0.541,0.538,0.81,0.804c1.41-1.414,2.844-2.852,4.273-4.284
	C21.871,16.706,21.59,16.428,21.322,16.161z"/>
<circle fill="#DDDDDD" cx="20" cy="20" r="35"/>
<g display="none">
	<path display="inline" fill="#FFFFFF" d="M22.646,19.127l3.5-4.643c0.297-0.386,0.869-0.37,1.328,0.071l0,0
		c0.459,0.441,0.625,1.143,0.334,1.533l-0.123,0.157c-0.338,0.121-2.697,3.572-2.908,3.852c-0.563,0.609-1.18,0.872-1.834,0.518
		C22.516,20.178,22.363,19.502,22.646,19.127L22.646,19.127z M20.145,16.875l3.503-4.634c0.291-0.391,0.869-0.375,1.313,0.066l0,0
		c0.458,0.437,0.63,1.142,0.345,1.533l-3.5,4.633c-0.302,0.386-0.871,0.37-1.331-0.065l0,0
		C20.025,17.966,19.854,17.265,20.145,16.875L20.145,16.875z M19.275,12.408l2.038-2.698c0.293-0.391,0.864-0.373,1.322,0.064l0,0
		c0.456,0.442,0.633,1.147,0.336,1.534l-4.281,5.538c-0.298,0.384-0.87,0.37-1.326-0.072l0,0c-0.272-0.264-0.443-0.625-0.472-0.954
		h0.003C18.408,16.219,20.025,13.764,19.275,12.408L19.275,12.408z M15.937,10.638l2.487-3.289c0.291-0.391,0.86-0.371,1.32,0.066
		l0,0c0.455,0.441,0.626,1.141,0.335,1.531l-1.825,2.412C17.509,10.866,16.722,10.638,15.937,10.638L15.937,10.638z M19.297,32.93
		h-3.636c0.206-3.851,0.38-7.381-0.643-10.33c-0.81-2.33-3.043-2.854-3.5-6.167c-0.392-2.832,3.37-6.623,6.506-4.279
		c1.275,0.954,0.794,2.285-0.155,2.016c-2.91-0.833-3.186,4.101,0.858,3.866l-0.294,3.478l0.876-2.66
		c2.154,1.588,3.757,2.625,4.826,2.458c1.565-0.248,2.139-2.313,3.594-4.059l0,0c0.391-0.462,1.014-0.207,0.694,0.499
		c-0.737,1.627-1.584,3.479-3.202,5.478v9.707h-4.174l-0.817-8.688"/>
</g>
<path display="none" fill="#FFFFFF" d="M28.708,28.615h-2.612c-0.723,0-1.306-0.594-1.306-1.328v-9.275
	c0-0.731,0.583-1.326,1.306-1.326h2.612c0.722,0,1.306,0.594,1.306,1.326v9.275C30.014,28.021,29.43,28.615,28.708,28.615z
	 M21.307,28.615h-2.612c-0.721,0-1.307-0.594-1.307-1.328V12.71c0-0.733,0.586-1.326,1.307-1.326h2.612
	c0.721,0,1.311,0.593,1.311,1.326v14.577C22.611,28.021,22.027,28.615,21.307,28.615z M13.904,28.615h-2.612
	c-0.723,0-1.306-0.594-1.306-1.328v-2.648c0-0.729,0.583-1.326,1.306-1.326h2.612c0.721,0,1.306,0.598,1.306,1.326v2.648
	C15.21,28.021,14.625,28.615,13.904,28.615z"/>
<g>
	<path fill="#6B6B6B" d="M27.212,23.529c-1.502-0.738-0.919-0.18-2.765-0.928c-1.848-0.76-2.285-1.004-2.285-1.004l-0.016-1.729
		c0,0,0.684-0.519,0.907-2.151c0.426,0.121,0.574-0.498,0.595-0.898c0.029-0.383,0.255-1.578-0.263-1.472
		c0.107-0.799,0.188-1.521,0.146-1.906c-0.133-1.342-1.076-2.745-3.444-2.845c-2.014,0.101-3.325,1.505-3.454,2.845
		c-0.042,0.384,0.036,1.107,0.146,1.906c-0.531-0.107-0.303,1.094-0.278,1.477c0.026,0.395,0.167,1.021,0.599,0.897
		c0.217,1.634,0.902,2.158,0.902,2.158l-0.018,1.738c0,0-0.434,0.263-2.276,1.013c-1.844,0.757-1.262,0.159-2.766,0.904
		c-2.373,1.164-2.373,4.373-2.373,4.373c0,0.485,0.399,0.877,0.889,0.877h17.234c0.494,0,0.891-0.392,0.891-0.877
		C29.584,27.902,29.584,24.694,27.212,23.529z M34.447,24.002c-1.367-0.673-0.84-0.158-2.519-0.848
		c-1.673-0.684-2.066-0.908-2.066-0.908l-0.021-1.572c0,0,0.631-0.471,0.826-1.958c0.391,0.109,0.522-0.456,0.543-0.815
		c0.025-0.35,0.234-1.44-0.246-1.342c0.096-0.726,0.173-1.383,0.141-1.734c-0.129-1.218-0.973-2.495-3.137-2.59
		c-1.83,0.095-3.021,1.372-3.139,2.59c-0.036,0.352,0.027,1.008,0.131,1.734c-0.479-0.098-0.267,0.996-0.251,1.342
		c0.027,0.364,0.152,0.93,0.547,0.82c0.193,1.489,0.823,1.963,0.823,1.963l-0.019,1.574c0.573,0.135,0.646,0.029,1.802,0.588
		c2.685,1.322,2.685,4.961,2.685,4.961s0,0,0,0.004c0,0.47-0.34,0.873-0.793,0.971h6.038c0.447,0,0.809-0.359,0.809-0.802l0,0
		C36.604,27.979,36.604,25.061,34.447,24.002z M9.461,27.789c0-0.005,0-0.005,0-0.005s0-3.671,2.691-5.004
		c1.151-0.572,1.228-0.463,1.799-0.597l-0.017-1.591c0,0,0.63-0.477,0.825-1.978c0.396,0.111,0.524-0.459,0.545-0.826
		c0.021-0.352,0.226-1.452-0.251-1.355c0.103-0.735,0.165-1.396,0.134-1.746c-0.121-1.232-1.314-2.522-3.148-2.615
		c-2.159,0.092-3.009,1.379-3.132,2.615c-0.032,0.35,0.042,1.011,0.136,1.746c-0.482-0.099-0.27,1.003-0.245,1.355
		c0.015,0.362,0.152,0.933,0.547,0.824c0.193,1.5,0.823,1.972,0.823,1.972l-0.016,1.59c0,0-0.4,0.229-2.077,0.921
		c-1.675,0.688-1.151,0.171-2.518,0.848c-2.162,1.071-2.162,4.019-2.162,4.019c0,0.451,0.367,0.807,0.817,0.807h6.035
		C9.803,28.672,9.461,28.267,9.461,27.789z"/>
</g>
</svg>
