<?xml version="1.0" encoding="utf-8"?>
<!-- Generator: Adobe Illustrator 16.0.0, SVG Export Plug-In . SVG Version: 6.00 Build 0)  -->
<!DOCTYPE svg PUBLIC "-//W3C//DTD SVG 1.1//EN" "http://www.w3.org/Graphics/SVG/1.1/DTD/svg11.dtd">
<svg version="1.1" id="_x36_" xmlns="http://www.w3.org/2000/svg" xmlns:xlink="http://www.w3.org/1999/xlink" x="0px" y="0px"
	 width="500px" height="500px" viewBox="0 0 500 500" enable-background="new 0 0 500 500" xml:space="preserve">
<rect fill="#DDDDDD" width="500" height="500"/>
<g>
	<path fill="#6B6B6B" d="M148.204,142.405c23.782-21.001,53.435-36.526,85.37-39.5c61.198-7.863,124.118,28.405,150.075,83.99
		c14.31,26.786,15.994,58.034,12.625,87.623c-6.776,41.108-32.146,78.993-67.549,100.96
		c-31.434,17.999-69.258,27.909-105.256,19.854c-12.318-2.279-24.102-6.607-35.605-11.497c-14.166-7.631-28.438,3.97-42.199,6.907
		c-1.201-12.619,9.283-28.81-2.741-38.55c-26.648-27.412-42.539-65.916-40.495-104.364
		C101.48,208.259,119.903,169.588,148.204,142.405L148.204,142.405z"/>
	<g>
		<path fill="#DDDDDD" d="M247.543,159.32c31.374,0,62.257,14.447,62.257,49.006c0,31.865-36.52,44.122-44.359,55.631
			c-5.891,8.568-3.924,20.604-20.1,20.604c-10.539,0-15.684-8.573-15.684-16.413c0-29.182,42.878-35.79,42.878-59.816
			c0-13.227-8.799-21.072-23.517-21.072c-31.368,0-19.118,32.34-42.873,32.34c-8.579,0-15.944-5.146-15.944-14.944
			C190.195,180.624,217.638,159.32,247.543,159.32z M246.323,300.472c11.014,0,20.101,9.06,20.101,20.101
			c0,11.047-9.07,20.106-20.101,20.106c-11.025,0-20.101-9.048-20.101-20.106C226.222,309.536,235.298,300.472,246.323,300.472z"/>
	</g>
</g>
</svg>
