<?xml version="1.0" encoding="utf-8"?>
<!-- Generator: Adobe Illustrator 16.0.0, SVG Export Plug-In . SVG Version: 6.00 Build 0)  -->
<!DOCTYPE svg PUBLIC "-//W3C//DTD SVG 1.1//EN" "http://www.w3.org/Graphics/SVG/1.1/DTD/svg11.dtd">
<svg version="1.1" id="_x36_" xmlns="http://www.w3.org/2000/svg" xmlns:xlink="http://www.w3.org/1999/xlink" x="0px" y="0px"
	 width="500px" height="500px" viewBox="0 0 500 500" enable-background="new 0 0 500 500" xml:space="preserve">
<rect fill="#DDDDDD" width="500" height="500"/>
<g>
	<g>
		<path fill="#6B6B6B" d="M250.684,365.786l-0.745-0.01l-0.623,0.01c-1.339,0-2.074-0.092-2.074-0.092l-2.227-0.388
			c-7.617-1.23-21.017-5.443-37.398-19.229c-27.393-23.082-41.43-36.622-42.141-46.61c-0.544-7.797,0.249-17.951,0.551-21.379
			c-3.735-4.004-18.539-21.006-22.123-42.265c-2.399-14.259-1.346-23.813,3.219-29.214c2.849-3.364,7.014-5.072,12.381-5.072
			c2.537,0,3.152-0.945,3.354-1.253c1.48-2.27-0.098-7.666-1.095-9.923l-0.194-0.693c-0.123-0.967-2.927-23.836,13.849-43.492
			c14.087-16.512,37.439-25.506,69.425-26.754v-0.082l2.537-0.116l2.65,0.057l5.128-0.057v0.198
			c31.984,1.248,55.334,10.243,69.424,26.754c16.777,19.655,13.973,42.525,13.85,43.492l-0.195,0.693
			c-0.994,2.257-2.572,7.653-1.094,9.923c0.197,0.308,0.814,1.253,3.354,1.253c5.369,0,9.535,1.708,12.381,5.072
			c4.566,5.401,5.621,14.956,3.219,29.214c-3.584,21.259-18.389,38.261-22.119,42.265c0.303,3.428,1.096,13.582,0.549,21.379
			c-0.709,9.988-14.746,23.528-42.143,46.604c-16.371,13.781-29.766,17.995-37.383,19.228v0.021l-2.238,0.377
			C252.76,365.694,252.023,365.786,250.684,365.786z M249.939,360.705l0.745,0.013c0.185,0,0.353-0.006,0.506-0.013l1.004-0.141
			c6.445-0.682,19.813-3.97,36.921-18.37c20.898-17.608,39.711-34.154,40.342-43.087c0.629-8.892-0.631-21.553-0.642-21.676
			l-0.123-1.191l0.851-0.852c0.172-0.182,17.801-18.166,21.551-40.41c2.105-12.519,1.402-20.962-2.09-25.098
			c-1.864-2.201-4.646-3.271-8.508-3.271c-4.377,0-6.554-1.941-7.611-3.567c-3.09-4.763-0.268-12.397,0.552-14.359
			c0.258-2.743,1.539-22.576-12.767-39.282c-13.481-15.749-36.401-24.157-68.117-24.992l-2.361-0.061l-0.16,0.004l-1.367-0.031
			l-1.217,0.088c-31.759,0.835-54.693,9.264-68.171,25.057c-14.302,16.758-12.972,36.482-12.708,39.215
			c0.812,1.954,3.647,9.598,0.548,14.362c-1.057,1.625-3.235,3.567-7.611,3.567c-3.864,0-6.644,1.07-8.508,3.271
			c-3.492,4.136-4.193,12.579-2.091,25.098c3.751,22.243,21.382,40.229,21.555,40.409l0.843,0.853l-0.12,1.19
			c-0.009,0.123-1.267,12.795-0.642,21.678c0.633,8.932,19.442,25.478,40.342,43.086c17.112,14.4,30.477,17.688,36.925,18.37
			l1.431,0.151c0.028,0,0.054,0,0.078,0L249.939,360.705z"/>
	</g>
	<path fill="#6B6B6B" d="M359.988,146.365c-3.26-24.445-18.688-37.191-22.324-39.886c-1.094-2.911-5.277-12.545-15.738-22.197
		c-11.182-10.316-32.01-22.618-67.74-22.618l-2.033,0.012c-73.308,0.929-116.616,77.097-118.313,103.275
		c-1.782,27.614,9.473,48.751,9.957,49.638l2.813,5.192l1.978-5.564c0.016-0.06,2.173-5.761,7.325-7.115
		c1.748-0.453,2.867-0.297,3.647,0.665c2.295,2.852,1.606,11.038,0.638,15.527l-1.641,7.552l23.459-19.794v-37.644
		c5.285,0.687,16.977,1.939,31.813,1.939c11.752,0,23.016-0.795,33.485-2.366c27.28-4.093,48.083-20.308,56.758-28.132
		c0.609,8.906,3.219,25.413,13.811,35.34c12.551,11.763,4.686,32.869,4.604,33.08l-0.635,1.674l19.67,18.032l-3.584-10.013
		c-0.17-0.465-3.979-11.416,4.006-16.694C353.504,198.637,363.508,172.743,359.988,146.365z"/>
	<path fill="#6B6B6B" d="M428.352,425.796c-69.99-18.624-102.98-53.479-103.461-53.983l-5.814-5.345l-1.421,3.518
		c-7.161,17.616-25.47,47.173-67.655,47.173c-42.188,0-60.494-29.557-67.652-47.173l-1.424-3.518l-5.964,5.499
		c-0.327,0.351-33.318,35.205-103.311,53.829C-1.21,445.184-0.019,496.96,0.003,497.472L0.104,500h499.789l0.104-2.528
		C500.02,496.96,501.207,445.184,428.352,425.796z"/>
	<g>
		<path fill="#6B6B6B" d="M249.999,422.724c-60.821,0-72.837-50.603-72.95-51.11l-3.383-65.09l5.537,6.15
			c7.52,8.362,19.797,18.985,31.938,29.213c17.027,14.336,30.307,17.608,36.708,18.281l1.411,0.147c0.022,0,0.041,0,0.057,0
			l0.61-0.011l0.759,0.011c0.152,0,0.295,0,0.432-0.008l1.035-0.142c6.4-0.673,19.68-3.945,36.703-18.281
			c12.146-10.228,24.422-20.851,31.941-29.213l5.537-6.15l-3.32,64.603C322.836,372.121,310.822,422.724,249.999,422.724z
			 M180.353,322.348l2.486,48.474c0.365,1.406,11.146,46.041,67.159,46.041c56.013,0,66.796-44.634,67.229-46.535l2.424-47.99
			c-7.515,7.438-17.312,15.867-27.012,24.041c-16.201,13.641-29.521,17.951-37.246,19.263v0.031l-2.584,0.421
			c0,0-0.754,0.091-2.125,0.091l-0.759-0.009l-0.61,0.009c-1.37,0-2.125-0.091-2.125-0.091l-2.565-0.449
			c-7.718-1.308-21.048-5.61-37.264-19.266C197.663,338.208,187.867,329.773,180.353,322.348z"/>
	</g>
</g>
</svg>
