<?xml version="1.0" encoding="utf-8"?>
<!-- Generator: Adobe Illustrator 16.0.0, SVG Export Plug-In . SVG Version: 6.00 Build 0)  -->
<!DOCTYPE svg PUBLIC "-//W3C//DTD SVG 1.1//EN" "http://www.w3.org/Graphics/SVG/1.1/DTD/svg11.dtd">
<svg version="1.1" id="Layer_1" xmlns="http://www.w3.org/2000/svg" xmlns:xlink="http://www.w3.org/1999/xlink" x="0px" y="0px"
	 width="1920px" height="500px" viewBox="0 0 1920 500" enable-background="new 0 0 1920 500" xml:space="preserve">
<image overflow="visible" enable-background="new    " width="1920" height="500" xlink:href="coverphoto5.jpg" >
</image>
<rect y="1.276" fill="#909090" width="1920" height="500"/>
<g opacity="0.3">
	
		<line opacity="0.5" fill="none" stroke="#FFFFFF" stroke-width="1.6527" stroke-linecap="round" stroke-linejoin="round" stroke-miterlimit="10" enable-background="new    " x1="13.132" y1="3.303" x2="13.132" y2="499.249"/>
	
		<line opacity="0.5" fill="none" stroke="#FFFFFF" stroke-width="1.6527" stroke-linecap="round" stroke-linejoin="round" stroke-miterlimit="10" enable-background="new    " x1="40.042" y1="3.303" x2="40.042" y2="499.249"/>
	
		<line opacity="0.5" fill="none" stroke="#FFFFFF" stroke-width="1.6527" stroke-linecap="round" stroke-linejoin="round" stroke-miterlimit="10" enable-background="new    " x1="66.952" y1="3.303" x2="66.952" y2="499.249"/>
	
		<line opacity="0.5" fill="none" stroke="#FFFFFF" stroke-width="1.6527" stroke-linecap="round" stroke-linejoin="round" stroke-miterlimit="10" enable-background="new    " x1="93.861" y1="3.303" x2="93.861" y2="499.249"/>
	
		<line opacity="0.5" fill="none" stroke="#FFFFFF" stroke-width="1.6527" stroke-linecap="round" stroke-linejoin="round" stroke-miterlimit="10" enable-background="new    " x1="120.771" y1="3.303" x2="120.771" y2="499.249"/>
	
		<line opacity="0.5" fill="none" stroke="#FFFFFF" stroke-width="1.6527" stroke-linecap="round" stroke-linejoin="round" stroke-miterlimit="10" enable-background="new    " x1="147.681" y1="3.303" x2="147.681" y2="499.249"/>
	
		<line opacity="0.5" fill="none" stroke="#FFFFFF" stroke-width="1.6527" stroke-linecap="round" stroke-linejoin="round" stroke-miterlimit="10" enable-background="new    " x1="174.59" y1="3.303" x2="174.59" y2="499.249"/>
	
		<line opacity="0.5" fill="none" stroke="#FFFFFF" stroke-width="1.6527" stroke-linecap="round" stroke-linejoin="round" stroke-miterlimit="10" enable-background="new    " x1="201.5" y1="3.303" x2="201.5" y2="499.249"/>
	
		<line opacity="0.5" fill="none" stroke="#FFFFFF" stroke-width="1.6527" stroke-linecap="round" stroke-linejoin="round" stroke-miterlimit="10" enable-background="new    " x1="228.41" y1="3.303" x2="228.41" y2="499.249"/>
	
		<line opacity="0.5" fill="none" stroke="#FFFFFF" stroke-width="1.6527" stroke-linecap="round" stroke-linejoin="round" stroke-miterlimit="10" enable-background="new    " x1="255.319" y1="3.303" x2="255.319" y2="499.249"/>
	
		<line opacity="0.5" fill="none" stroke="#FFFFFF" stroke-width="1.6527" stroke-linecap="round" stroke-linejoin="round" stroke-miterlimit="10" enable-background="new    " x1="282.229" y1="3.303" x2="282.229" y2="499.249"/>
	
		<line opacity="0.5" fill="none" stroke="#FFFFFF" stroke-width="1.6527" stroke-linecap="round" stroke-linejoin="round" stroke-miterlimit="10" enable-background="new    " x1="309.139" y1="3.303" x2="309.139" y2="499.249"/>
	
		<line opacity="0.5" fill="none" stroke="#FFFFFF" stroke-width="1.6527" stroke-linecap="round" stroke-linejoin="round" stroke-miterlimit="10" enable-background="new    " x1="336.048" y1="3.303" x2="336.048" y2="499.249"/>
	
		<line opacity="0.5" fill="none" stroke="#FFFFFF" stroke-width="1.6527" stroke-linecap="round" stroke-linejoin="round" stroke-miterlimit="10" enable-background="new    " x1="362.958" y1="3.303" x2="362.958" y2="499.249"/>
	
		<line opacity="0.5" fill="none" stroke="#FFFFFF" stroke-width="1.6527" stroke-linecap="round" stroke-linejoin="round" stroke-miterlimit="10" enable-background="new    " x1="389.868" y1="3.303" x2="389.868" y2="499.249"/>
	
		<line opacity="0.5" fill="none" stroke="#FFFFFF" stroke-width="1.6527" stroke-linecap="round" stroke-linejoin="round" stroke-miterlimit="10" enable-background="new    " x1="416.777" y1="3.303" x2="416.777" y2="499.249"/>
	
		<line opacity="0.5" fill="none" stroke="#FFFFFF" stroke-width="1.6527" stroke-linecap="round" stroke-linejoin="round" stroke-miterlimit="10" enable-background="new    " x1="443.688" y1="3.303" x2="443.688" y2="499.249"/>
	
		<line opacity="0.5" fill="none" stroke="#FFFFFF" stroke-width="1.6527" stroke-linecap="round" stroke-linejoin="round" stroke-miterlimit="10" enable-background="new    " x1="470.597" y1="3.303" x2="470.597" y2="499.249"/>
	
		<line opacity="0.5" fill="none" stroke="#FFFFFF" stroke-width="1.6527" stroke-linecap="round" stroke-linejoin="round" stroke-miterlimit="10" enable-background="new    " x1="497.506" y1="3.303" x2="497.506" y2="499.249"/>
	
		<line opacity="0.5" fill="none" stroke="#FFFFFF" stroke-width="1.6527" stroke-linecap="round" stroke-linejoin="round" stroke-miterlimit="10" enable-background="new    " x1="524.416" y1="3.303" x2="524.416" y2="499.249"/>
	
		<line opacity="0.5" fill="none" stroke="#FFFFFF" stroke-width="1.6527" stroke-linecap="round" stroke-linejoin="round" stroke-miterlimit="10" enable-background="new    " x1="551.326" y1="3.303" x2="551.326" y2="499.249"/>
	
		<line opacity="0.5" fill="none" stroke="#FFFFFF" stroke-width="1.6527" stroke-linecap="round" stroke-linejoin="round" stroke-miterlimit="10" enable-background="new    " x1="578.235" y1="3.303" x2="578.235" y2="499.249"/>
	
		<line opacity="0.5" fill="none" stroke="#FFFFFF" stroke-width="1.6527" stroke-linecap="round" stroke-linejoin="round" stroke-miterlimit="10" enable-background="new    " x1="605.145" y1="3.303" x2="605.145" y2="499.249"/>
	
		<line opacity="0.5" fill="none" stroke="#FFFFFF" stroke-width="1.6527" stroke-linecap="round" stroke-linejoin="round" stroke-miterlimit="10" enable-background="new    " x1="632.055" y1="3.303" x2="632.055" y2="499.249"/>
	
		<line opacity="0.5" fill="none" stroke="#FFFFFF" stroke-width="1.6527" stroke-linecap="round" stroke-linejoin="round" stroke-miterlimit="10" enable-background="new    " x1="658.964" y1="3.303" x2="658.964" y2="499.249"/>
	
		<line opacity="0.5" fill="none" stroke="#FFFFFF" stroke-width="1.6527" stroke-linecap="round" stroke-linejoin="round" stroke-miterlimit="10" enable-background="new    " x1="685.874" y1="3.303" x2="685.874" y2="499.249"/>
	
		<line opacity="0.5" fill="none" stroke="#FFFFFF" stroke-width="1.6527" stroke-linecap="round" stroke-linejoin="round" stroke-miterlimit="10" enable-background="new    " x1="712.784" y1="3.303" x2="712.784" y2="499.249"/>
	
		<line opacity="0.5" fill="none" stroke="#FFFFFF" stroke-width="1.6527" stroke-linecap="round" stroke-linejoin="round" stroke-miterlimit="10" enable-background="new    " x1="739.693" y1="3.303" x2="739.693" y2="499.249"/>
	
		<line opacity="0.5" fill="none" stroke="#FFFFFF" stroke-width="1.6527" stroke-linecap="round" stroke-linejoin="round" stroke-miterlimit="10" enable-background="new    " x1="766.604" y1="3.303" x2="766.604" y2="499.249"/>
	
		<line opacity="0.5" fill="none" stroke="#FFFFFF" stroke-width="1.6527" stroke-linecap="round" stroke-linejoin="round" stroke-miterlimit="10" enable-background="new    " x1="793.513" y1="3.303" x2="793.513" y2="499.249"/>
	
		<line opacity="0.5" fill="none" stroke="#FFFFFF" stroke-width="1.6527" stroke-linecap="round" stroke-linejoin="round" stroke-miterlimit="10" enable-background="new    " x1="820.422" y1="3.303" x2="820.422" y2="499.249"/>
	
		<line opacity="0.5" fill="none" stroke="#FFFFFF" stroke-width="1.6527" stroke-linecap="round" stroke-linejoin="round" stroke-miterlimit="10" enable-background="new    " x1="847.332" y1="3.303" x2="847.332" y2="499.249"/>
	
		<line opacity="0.5" fill="none" stroke="#FFFFFF" stroke-width="1.6527" stroke-linecap="round" stroke-linejoin="round" stroke-miterlimit="10" enable-background="new    " x1="874.242" y1="3.303" x2="874.242" y2="499.249"/>
	
		<line opacity="0.5" fill="none" stroke="#FFFFFF" stroke-width="1.6527" stroke-linecap="round" stroke-linejoin="round" stroke-miterlimit="10" enable-background="new    " x1="901.151" y1="3.303" x2="901.151" y2="499.249"/>
	
		<line opacity="0.5" fill="none" stroke="#FFFFFF" stroke-width="1.6527" stroke-linecap="round" stroke-linejoin="round" stroke-miterlimit="10" enable-background="new    " x1="928.061" y1="3.303" x2="928.061" y2="499.249"/>
	
		<line opacity="0.5" fill="none" stroke="#FFFFFF" stroke-width="1.6527" stroke-linecap="round" stroke-linejoin="round" stroke-miterlimit="10" enable-background="new    " x1="954.971" y1="3.303" x2="954.971" y2="499.249"/>
	
		<line opacity="0.5" fill="none" stroke="#FFFFFF" stroke-width="1.6527" stroke-linecap="round" stroke-linejoin="round" stroke-miterlimit="10" enable-background="new    " x1="981.881" y1="3.303" x2="981.881" y2="499.249"/>
	
		<line opacity="0.5" fill="none" stroke="#FFFFFF" stroke-width="1.6527" stroke-linecap="round" stroke-linejoin="round" stroke-miterlimit="10" enable-background="new    " x1="1008.791" y1="3.303" x2="1008.791" y2="499.249"/>
	
		<line opacity="0.5" fill="none" stroke="#FFFFFF" stroke-width="1.6527" stroke-linecap="round" stroke-linejoin="round" stroke-miterlimit="10" enable-background="new    " x1="1035.701" y1="3.303" x2="1035.701" y2="499.249"/>
	
		<line opacity="0.5" fill="none" stroke="#FFFFFF" stroke-width="1.6527" stroke-linecap="round" stroke-linejoin="round" stroke-miterlimit="10" enable-background="new    " x1="1062.611" y1="3.303" x2="1062.611" y2="499.249"/>
	
		<line opacity="0.5" fill="none" stroke="#FFFFFF" stroke-width="1.6527" stroke-linecap="round" stroke-linejoin="round" stroke-miterlimit="10" enable-background="new    " x1="1089.521" y1="3.303" x2="1089.521" y2="499.249"/>
	
		<line opacity="0.5" fill="none" stroke="#FFFFFF" stroke-width="1.6527" stroke-linecap="round" stroke-linejoin="round" stroke-miterlimit="10" enable-background="new    " x1="1116.432" y1="3.303" x2="1116.432" y2="499.249"/>
	
		<line opacity="0.5" fill="none" stroke="#FFFFFF" stroke-width="1.6527" stroke-linecap="round" stroke-linejoin="round" stroke-miterlimit="10" enable-background="new    " x1="1143.342" y1="3.303" x2="1143.342" y2="499.249"/>
	
		<line opacity="0.5" fill="none" stroke="#FFFFFF" stroke-width="1.6527" stroke-linecap="round" stroke-linejoin="round" stroke-miterlimit="10" enable-background="new    " x1="1170.252" y1="3.303" x2="1170.252" y2="499.249"/>
	
		<line opacity="0.5" fill="none" stroke="#FFFFFF" stroke-width="1.6527" stroke-linecap="round" stroke-linejoin="round" stroke-miterlimit="10" enable-background="new    " x1="1197.162" y1="3.303" x2="1197.162" y2="499.249"/>
	
		<line opacity="0.5" fill="none" stroke="#FFFFFF" stroke-width="1.6527" stroke-linecap="round" stroke-linejoin="round" stroke-miterlimit="10" enable-background="new    " x1="1224.072" y1="3.303" x2="1224.072" y2="499.249"/>
	
		<line opacity="0.5" fill="none" stroke="#FFFFFF" stroke-width="1.6527" stroke-linecap="round" stroke-linejoin="round" stroke-miterlimit="10" enable-background="new    " x1="1250.982" y1="3.303" x2="1250.982" y2="499.249"/>
	
		<line opacity="0.5" fill="none" stroke="#FFFFFF" stroke-width="1.6527" stroke-linecap="round" stroke-linejoin="round" stroke-miterlimit="10" enable-background="new    " x1="1277.893" y1="3.303" x2="1277.893" y2="499.249"/>
	
		<line opacity="0.5" fill="none" stroke="#FFFFFF" stroke-width="1.6527" stroke-linecap="round" stroke-linejoin="round" stroke-miterlimit="10" enable-background="new    " x1="1304.803" y1="3.303" x2="1304.803" y2="499.249"/>
	
		<line opacity="0.5" fill="none" stroke="#FFFFFF" stroke-width="1.6527" stroke-linecap="round" stroke-linejoin="round" stroke-miterlimit="10" enable-background="new    " x1="1331.713" y1="3.303" x2="1331.713" y2="499.249"/>
	
		<line opacity="0.5" fill="none" stroke="#FFFFFF" stroke-width="1.6527" stroke-linecap="round" stroke-linejoin="round" stroke-miterlimit="10" enable-background="new    " x1="1358.623" y1="3.303" x2="1358.623" y2="499.249"/>
	
		<line opacity="0.5" fill="none" stroke="#FFFFFF" stroke-width="1.6527" stroke-linecap="round" stroke-linejoin="round" stroke-miterlimit="10" enable-background="new    " x1="1385.533" y1="3.303" x2="1385.533" y2="499.249"/>
	
		<line opacity="0.5" fill="none" stroke="#FFFFFF" stroke-width="1.6527" stroke-linecap="round" stroke-linejoin="round" stroke-miterlimit="10" enable-background="new    " x1="1412.443" y1="3.303" x2="1412.443" y2="499.249"/>
	
		<line opacity="0.5" fill="none" stroke="#FFFFFF" stroke-width="1.6527" stroke-linecap="round" stroke-linejoin="round" stroke-miterlimit="10" enable-background="new    " x1="1439.354" y1="3.303" x2="1439.354" y2="499.249"/>
	
		<line opacity="0.5" fill="none" stroke="#FFFFFF" stroke-width="1.6527" stroke-linecap="round" stroke-linejoin="round" stroke-miterlimit="10" enable-background="new    " x1="1466.264" y1="3.303" x2="1466.264" y2="499.249"/>
	
		<line opacity="0.5" fill="none" stroke="#FFFFFF" stroke-width="1.6527" stroke-linecap="round" stroke-linejoin="round" stroke-miterlimit="10" enable-background="new    " x1="1493.174" y1="3.303" x2="1493.174" y2="499.249"/>
	
		<line opacity="0.5" fill="none" stroke="#FFFFFF" stroke-width="1.6527" stroke-linecap="round" stroke-linejoin="round" stroke-miterlimit="10" enable-background="new    " x1="1520.084" y1="3.303" x2="1520.084" y2="499.249"/>
	
		<line opacity="0.5" fill="none" stroke="#FFFFFF" stroke-width="1.6527" stroke-linecap="round" stroke-linejoin="round" stroke-miterlimit="10" enable-background="new    " x1="1546.994" y1="3.303" x2="1546.994" y2="499.249"/>
	
		<line opacity="0.5" fill="none" stroke="#FFFFFF" stroke-width="1.6527" stroke-linecap="round" stroke-linejoin="round" stroke-miterlimit="10" enable-background="new    " x1="1573.904" y1="3.303" x2="1573.904" y2="499.249"/>
	
		<line opacity="0.5" fill="none" stroke="#FFFFFF" stroke-width="1.6527" stroke-linecap="round" stroke-linejoin="round" stroke-miterlimit="10" enable-background="new    " x1="1600.814" y1="3.303" x2="1600.814" y2="499.249"/>
	
		<line opacity="0.5" fill="none" stroke="#FFFFFF" stroke-width="1.6527" stroke-linecap="round" stroke-linejoin="round" stroke-miterlimit="10" enable-background="new    " x1="1627.725" y1="3.303" x2="1627.725" y2="499.249"/>
	
		<line opacity="0.5" fill="none" stroke="#FFFFFF" stroke-width="1.6527" stroke-linecap="round" stroke-linejoin="round" stroke-miterlimit="10" enable-background="new    " x1="1654.635" y1="3.303" x2="1654.635" y2="499.249"/>
	
		<line opacity="0.5" fill="none" stroke="#FFFFFF" stroke-width="1.6527" stroke-linecap="round" stroke-linejoin="round" stroke-miterlimit="10" enable-background="new    " x1="1681.545" y1="3.303" x2="1681.545" y2="499.249"/>
	
		<line opacity="0.5" fill="none" stroke="#FFFFFF" stroke-width="1.6527" stroke-linecap="round" stroke-linejoin="round" stroke-miterlimit="10" enable-background="new    " x1="1708.455" y1="3.303" x2="1708.455" y2="499.249"/>
	
		<line opacity="0.5" fill="none" stroke="#FFFFFF" stroke-width="1.6527" stroke-linecap="round" stroke-linejoin="round" stroke-miterlimit="10" enable-background="new    " x1="1735.365" y1="3.303" x2="1735.365" y2="499.249"/>
	
		<line opacity="0.5" fill="none" stroke="#FFFFFF" stroke-width="1.6527" stroke-linecap="round" stroke-linejoin="round" stroke-miterlimit="10" enable-background="new    " x1="1762.275" y1="3.303" x2="1762.275" y2="499.249"/>
	
		<line opacity="0.5" fill="none" stroke="#FFFFFF" stroke-width="1.6527" stroke-linecap="round" stroke-linejoin="round" stroke-miterlimit="10" enable-background="new    " x1="1789.186" y1="3.303" x2="1789.186" y2="499.249"/>
	
		<line opacity="0.5" fill="none" stroke="#FFFFFF" stroke-width="1.6527" stroke-linecap="round" stroke-linejoin="round" stroke-miterlimit="10" enable-background="new    " x1="1816.096" y1="3.303" x2="1816.096" y2="499.249"/>
	
		<line opacity="0.5" fill="none" stroke="#FFFFFF" stroke-width="1.6527" stroke-linecap="round" stroke-linejoin="round" stroke-miterlimit="10" enable-background="new    " x1="1843.006" y1="3.303" x2="1843.006" y2="499.249"/>
	
		<line opacity="0.5" fill="none" stroke="#FFFFFF" stroke-width="1.7058" stroke-linecap="round" stroke-linejoin="round" stroke-miterlimit="10" enable-background="new    " x1="1869.709" y1="5.25" x2="1869.709" y2="497.355"/>
	
		<line opacity="0.5" fill="none" stroke="#FFFFFF" stroke-width="1.6527" stroke-linecap="round" stroke-linejoin="round" stroke-miterlimit="10" enable-background="new    " x1="1923.736" y1="3.303" x2="1923.736" y2="499.249"/>
	
		<line opacity="0.5" fill="none" stroke="#FFFFFF" stroke-width="1.7058" stroke-linecap="round" stroke-linejoin="round" stroke-miterlimit="10" enable-background="new    " x1="1895.924" y1="2.477" x2="1895.924" y2="494.583"/>
</g>
<g opacity="0.3">
	
		<line opacity="0.5" fill="none" stroke="#FFFFFF" stroke-width="3.255" stroke-linecap="round" stroke-linejoin="round" stroke-miterlimit="10" enable-background="new    " x1="1923.736" y1="16.833" x2="0" y2="16.833"/>
	
		<line opacity="0.5" fill="none" stroke="#FFFFFF" stroke-width="3.255" stroke-linecap="round" stroke-linejoin="round" stroke-miterlimit="10" enable-background="new    " x1="1923.736" y1="43.743" x2="0" y2="43.743"/>
	
		<line opacity="0.5" fill="none" stroke="#FFFFFF" stroke-width="3.255" stroke-linecap="round" stroke-linejoin="round" stroke-miterlimit="10" enable-background="new    " x1="1923.736" y1="70.653" x2="0" y2="70.653"/>
	
		<line opacity="0.5" fill="none" stroke="#FFFFFF" stroke-width="3.255" stroke-linecap="round" stroke-linejoin="round" stroke-miterlimit="10" enable-background="new    " x1="1923.736" y1="97.563" x2="0" y2="97.563"/>
	
		<line opacity="0.5" fill="none" stroke="#FFFFFF" stroke-width="3.255" stroke-linecap="round" stroke-linejoin="round" stroke-miterlimit="10" enable-background="new    " x1="1923.736" y1="124.474" x2="0" y2="124.474"/>
	
		<line opacity="0.5" fill="none" stroke="#FFFFFF" stroke-width="3.255" stroke-linecap="round" stroke-linejoin="round" stroke-miterlimit="10" enable-background="new    " x1="1923.736" y1="151.384" x2="0" y2="151.384"/>
	
		<line opacity="0.5" fill="none" stroke="#FFFFFF" stroke-width="3.255" stroke-linecap="round" stroke-linejoin="round" stroke-miterlimit="10" enable-background="new    " x1="1923.736" y1="178.294" x2="0" y2="178.294"/>
	
		<line opacity="0.5" fill="none" stroke="#FFFFFF" stroke-width="3.255" stroke-linecap="round" stroke-linejoin="round" stroke-miterlimit="10" enable-background="new    " x1="1923.736" y1="205.204" x2="0" y2="205.204"/>
	
		<line opacity="0.5" fill="none" stroke="#FFFFFF" stroke-width="3.255" stroke-linecap="round" stroke-linejoin="round" stroke-miterlimit="10" enable-background="new    " x1="1923.736" y1="232.114" x2="0" y2="232.114"/>
	
		<line opacity="0.5" fill="none" stroke="#FFFFFF" stroke-width="3.255" stroke-linecap="round" stroke-linejoin="round" stroke-miterlimit="10" enable-background="new    " x1="1923.736" y1="259.023" x2="0" y2="259.023"/>
	
		<line opacity="0.5" fill="none" stroke="#FFFFFF" stroke-width="3.255" stroke-linecap="round" stroke-linejoin="round" stroke-miterlimit="10" enable-background="new    " x1="1923.736" y1="285.936" x2="0" y2="285.936"/>
	
		<line opacity="0.5" fill="none" stroke="#FFFFFF" stroke-width="3.255" stroke-linecap="round" stroke-linejoin="round" stroke-miterlimit="10" enable-background="new    " x1="1923.736" y1="312.845" x2="0" y2="312.845"/>
	
		<line opacity="0.5" fill="none" stroke="#FFFFFF" stroke-width="3.255" stroke-linecap="round" stroke-linejoin="round" stroke-miterlimit="10" enable-background="new    " x1="1923.736" y1="339.755" x2="0" y2="339.755"/>
	
		<line opacity="0.5" fill="none" stroke="#FFFFFF" stroke-width="3.255" stroke-linecap="round" stroke-linejoin="round" stroke-miterlimit="10" enable-background="new    " x1="1923.736" y1="366.665" x2="0" y2="366.665"/>
	
		<line opacity="0.5" fill="none" stroke="#FFFFFF" stroke-width="3.255" stroke-linecap="round" stroke-linejoin="round" stroke-miterlimit="10" enable-background="new    " x1="1923.736" y1="393.575" x2="0" y2="393.575"/>
	
		<line opacity="0.5" fill="none" stroke="#FFFFFF" stroke-width="3.255" stroke-linecap="round" stroke-linejoin="round" stroke-miterlimit="10" enable-background="new    " x1="1923.736" y1="420.485" x2="0" y2="420.485"/>
	
		<line opacity="0.5" fill="none" stroke="#FFFFFF" stroke-width="3.255" stroke-linecap="round" stroke-linejoin="round" stroke-miterlimit="10" enable-background="new    " x1="1923.736" y1="447.396" x2="0" y2="447.396"/>
	
		<line opacity="0.5" fill="none" stroke="#FFFFFF" stroke-width="3.255" stroke-linecap="round" stroke-linejoin="round" stroke-miterlimit="10" enable-background="new    " x1="1923.736" y1="474.306" x2="0" y2="474.306"/>
	
		<line opacity="0.5" fill="none" stroke="#FFFFFF" stroke-width="3.255" stroke-linecap="round" stroke-linejoin="round" stroke-miterlimit="10" enable-background="new    " x1="1923.736" y1="501.216" x2="0" y2="501.216"/>
</g>
<path opacity="0.3" fill="none" stroke="#FFFFFF" stroke-width="1.5901" stroke-miterlimit="10" enable-background="new    " d="
	M1477.755,360.87c-6.248-13.382-21.396-22.112-36.127-20.22c-7.688,0.715-14.828,4.45-20.553,9.509
	c-6.814,6.543-11.25,15.854-11.021,25.379c-0.493,9.254,3.332,18.523,9.748,25.125c2.895,2.346,0.373,6.24,0.659,9.279
	c3.315-0.709,6.751-3.5,10.161-1.662c2.767,1.174,5.605,2.217,8.57,2.766c8.667,1.939,17.771-0.445,25.339-4.777
	c8.521-5.285,14.63-14.406,16.26-24.307C1481.604,374.839,1481.198,367.315,1477.755,360.87z M1431.673,395.741
	c0.207-1.475-0.635-3.563,0.979-4.432c6.797-4.896,13.469-9.971,20.084-15.104c4.508-3.438,5.764-10.758,1.787-15.051
	c-3.188-3.619-8.636-3.438-12.902-2.314c-4.198,1.434-4.604,6.336-6.879,9.51c-1.072-0.93-3.309-1.336-2.928-3.18
	c0.318-3.648,2.401-7.107,5.527-9.041c6.614-4.166,16.458-3.203,21.371,3.164c2.871,3.482,3.164,8.357,2.241,12.604
	c-1.533,5.303-6.354,8.477-10.486,11.662c-3.569,2.998-7.696,5.24-11.313,8.176c7.608,0.246,15.231-0.326,22.834,0.156
	c0.023,1.307,0.023,2.602,0.018,3.896C1451.9,395.995,1441.777,396.091,1431.673,395.741z"/>
<path opacity="0.3" fill="none" stroke="#FFFFFF" stroke-width="0.8398" stroke-miterlimit="10" enable-background="new    " d="
	M1462.574,108.222c-3.303-7.066-11.303-11.679-19.081-10.678c-4.063,0.376-7.832,2.352-10.855,5.021
	c-3.6,3.458-5.94,8.375-5.819,13.405c-0.262,4.887,1.762,9.784,5.147,13.27c1.527,1.239,0.197,3.294,0.349,4.9
	c1.752-0.375,3.565-1.848,5.367-0.877c1.46,0.619,2.96,1.17,4.526,1.461c4.577,1.023,9.385-0.235,13.381-2.523
	c4.502-2.791,7.728-7.609,8.589-12.837C1464.604,115.599,1464.392,111.627,1462.574,108.222z M1438.235,126.639
	c0.107-0.777-0.337-1.88,0.518-2.339c3.588-2.585,7.111-5.266,10.607-7.976c2.38-1.816,3.043-5.683,0.941-7.95
	c-1.685-1.911-4.561-1.813-6.813-1.223c-2.22,0.757-2.435,3.347-3.634,5.022c-0.565-0.49-1.745-0.705-1.547-1.679
	c0.168-1.927,1.27-3.754,2.92-4.774c3.492-2.2,8.69-1.692,11.285,1.67c1.521,1.839,1.672,4.414,1.187,6.657
	c-0.813,2.8-3.355,4.476-5.539,6.16c-1.883,1.583-4.063,2.767-5.975,4.317c4.021,0.129,8.046-0.172,12.06,0.084
	c0.014,0.688,0.014,1.372,0.009,2.057C1448.917,126.775,1443.572,126.825,1438.235,126.639z"/>
<path opacity="0.3" fill="none" stroke="#FFFFFF" stroke-width="0.6124" stroke-miterlimit="10" enable-background="new    " d="
	M341.769,68.256c-2.407-5.152-8.24-8.515-13.913-7.785c-2.961,0.274-5.71,1.714-7.915,3.661c-2.624,2.521-4.333,6.105-4.244,9.773
	c-0.189,3.563,1.284,7.135,3.754,9.676c1.114,0.903,0.144,2.402,0.254,3.573c1.277-0.273,2.6-1.349,3.913-0.641
	c1.064,0.451,2.159,0.854,3.301,1.064c3.337,0.747,6.843-0.171,9.757-1.839c3.283-2.036,5.634-5.55,6.262-9.36
	C343.249,73.636,343.094,70.74,341.769,68.256z M324.022,81.685c0.08-0.565-0.245-1.37,0.377-1.705
	c2.616-1.885,5.186-3.84,7.734-5.815c1.735-1.324,2.219-4.144,0.688-5.796c-1.229-1.395-3.326-1.323-4.969-0.894
	c-1.618,0.554-1.773,2.44-2.649,3.662c-0.412-0.355-1.273-0.513-1.126-1.224c0.123-1.405,0.924-2.738,2.129-3.481
	c2.547-1.604,6.337-1.232,8.229,1.219c1.107,1.341,1.219,3.219,0.864,4.854c-0.592,2.042-2.447,3.265-4.04,4.491
	c-1.374,1.155-2.963,2.019-4.355,3.147c2.931,0.095,5.866-0.125,8.793,0.062c0.01,0.502,0.01,1.001,0.006,1.5
	C331.811,81.785,327.913,81.822,324.022,81.685z"/>
<path opacity="0.3" fill="none" stroke="#FFFFFF" stroke-width="0.6124" stroke-miterlimit="10" enable-background="new    " d="
	M341.769,441.546c-2.407-5.151-8.24-8.515-13.913-7.785c-2.961,0.274-5.71,1.714-7.915,3.661c-2.624,2.521-4.333,6.105-4.244,9.773
	c-0.188,3.563,1.284,7.135,3.754,9.676c1.114,0.903,0.145,2.402,0.254,3.573c1.277-0.273,2.601-1.35,3.913-0.642
	c1.064,0.451,2.159,0.854,3.301,1.064c3.338,0.747,6.844-0.171,9.758-1.839c3.282-2.036,5.634-5.55,6.262-9.36
	C343.248,446.926,343.094,444.029,341.769,441.546z M324.021,454.975c0.08-0.564-0.245-1.368,0.377-1.703
	c2.616-1.887,5.186-3.842,7.734-5.816c1.734-1.324,2.219-4.144,0.688-5.796c-1.229-1.396-3.326-1.323-4.969-0.895
	c-1.618,0.555-1.773,2.44-2.649,3.662c-0.412-0.354-1.272-0.513-1.126-1.224c0.123-1.405,0.924-2.738,2.129-3.481
	c2.547-1.604,6.337-1.231,8.229,1.22c1.106,1.341,1.219,3.219,0.864,4.854c-0.593,2.042-2.447,3.266-4.04,4.491
	c-1.374,1.155-2.964,2.019-4.356,3.147c2.931,0.095,5.866-0.125,8.793,0.062c0.01,0.502,0.01,1.001,0.006,1.5
	C331.811,455.074,327.912,455.111,324.021,454.975z"/>
<path opacity="0.3" fill="none" stroke="#FFFFFF" stroke-width="0.9898" stroke-miterlimit="10" enable-background="new    " d="
	M736.045,128.989c-3.891-8.328-13.316-13.764-22.486-12.583c-4.785,0.442-9.229,2.769-12.793,5.916
	c-4.24,4.076-7.002,9.868-6.858,15.797c-0.307,5.761,2.075,11.532,6.067,15.639c1.801,1.462,0.231,3.883,0.41,5.777
	c2.064-0.442,4.202-2.178,6.325-1.036c1.72,0.729,3.489,1.379,5.335,1.721c5.395,1.209,11.061-0.275,15.771-2.971
	c5.306-3.292,9.105-8.969,10.121-15.131C738.438,137.683,738.188,133.001,736.045,128.989z M707.361,150.692
	c0.129-0.916-0.396-2.213,0.609-2.756c4.229-3.046,8.381-6.207,12.501-9.401c2.806-2.14,3.586-6.695,1.112-9.366
	c-1.985-2.254-5.375-2.14-8.032-1.442c-2.614,0.893-2.866,3.943-4.28,5.919c-0.666-0.578-2.06-0.83-1.821-1.979
	c0.198-2.27,1.494-4.426,3.44-5.625c4.116-2.595,10.243-1.995,13.301,1.967c1.789,2.168,1.971,5.203,1.396,7.845
	c-0.957,3.302-3.955,5.278-6.528,7.261c-2.22,1.866-4.789,3.261-7.041,5.089c4.736,0.151,9.48-0.202,14.213,0.098
	c0.016,0.813,0.016,1.616,0.01,2.424C719.95,150.853,713.65,150.913,707.361,150.692z"/>
<path opacity="0.3" fill="none" stroke="#FFFFFF" stroke-width="0.8995" stroke-miterlimit="10" enable-background="new    " d="
	M349.692,207.489l-1.674-10.534c-0.239-1.511-1.425-2.696-2.936-2.936l-10.534-1.675c-1.118-0.178-2.254,0.191-3.054,0.992
	l-21.442,21.441c-1.38,1.38-1.38,3.618,0,4.999l12.208,12.207c1.381,1.381,3.619,1.381,4.999,0l21.441-21.441
	C349.501,209.743,349.87,208.607,349.692,207.489z M326.342,229.249c-0.54,0.539-1.415,0.539-1.954,0l-11.599-11.6
	c-0.54-0.539-0.54-1.414,0-1.954c0.54-0.539,1.415-0.539,1.954,0l11.599,11.6C326.881,227.833,326.881,228.708,326.342,229.249z
	 M341.946,203.856c-1.04,1.04-2.727,1.04-3.765,0c-1.04-1.039-1.04-2.725,0-3.765c1.039-1.039,2.725-1.039,3.765,0
	C342.985,201.131,342.985,202.817,341.946,203.856z"/>
<path opacity="0.3" fill="none" stroke="#FFFFFF" stroke-width="0.8995" stroke-miterlimit="10" enable-background="new    " d="
	M736.333,412.805l-1.674-10.533c-0.24-1.512-1.425-2.696-2.937-2.937l-10.533-1.675c-1.118-0.178-2.254,0.19-3.055,0.992
	l-21.44,21.44c-1.38,1.38-1.38,3.618,0,4.999l12.208,12.207c1.381,1.381,3.619,1.381,4.999,0l21.44-21.44
	C736.143,415.059,736.511,413.923,736.333,412.805z M712.982,434.564c-0.539,0.538-1.414,0.538-1.953,0l-11.6-11.601
	c-0.54-0.539-0.54-1.414,0-1.954c0.54-0.539,1.415-0.539,1.954,0l11.599,11.601C713.521,433.149,713.521,434.024,712.982,434.564z
	 M728.587,409.172c-1.04,1.04-2.725,1.04-3.765,0c-1.04-1.039-1.04-2.725,0-3.765c1.04-1.039,2.725-1.039,3.765,0
	C729.626,406.447,729.626,408.133,728.587,409.172z"/>
<path opacity="0.3" fill="none" stroke="#FFFFFF" stroke-miterlimit="10" enable-background="new    " d="M301.099,323.159
	c0,3.289,2.258,6.031,5.302,6.819v16.148h-3.535c-0.974,0-1.768,0.791-1.768,1.768c0,0.978,0.794,1.769,1.768,1.769h53.021
	c0.98,0,1.769-0.791,1.769-1.769c0-0.977-0.787-1.768-1.769-1.768h-3.535v-16.148c3.045-0.788,5.303-3.53,5.303-6.819v-1.769
	h-56.556V323.159z M336.446,330.229c3.908,0,7.069-3.165,7.069-7.069c0,3.289,2.258,6.031,5.303,6.819v16.148h-26.51v-15.898
	c3.907,0,7.069-3.165,7.069-7.069C329.377,327.063,332.545,330.229,336.446,330.229z M320.54,329.979v16.148h-10.604v-16.148
	c3.044-0.788,5.302-3.53,5.302-6.819C315.238,326.448,317.496,329.19,320.54,329.979z M350.585,307.938h-42.417l-7.069,11.688
	h56.556L350.585,307.938z M315.238,342.71c0-0.65,0.366-1.188,0.883-1.498v-4.074c-0.518-0.311-0.883-0.85-0.883-1.498
	 M318.773,335.64c0,0.648-0.363,1.188-0.884,1.498v4.074c0.521,0.312,0.884,0.848,0.884,1.498 M308.168,305.016
	c0-0.81,0.794-1.461,1.768-1.461h38.882c0.98,0,1.768,0.651,1.768,1.461c0,0.807-0.787,1.46-1.768,1.46h-38.882
	C308.962,306.476,308.168,305.82,308.168,305.016z"/>
<path opacity="0.3" fill="none" stroke="#FFFFFF" stroke-miterlimit="10" enable-background="new    " d="M687.74,271.718
	c0,3.289,2.258,6.03,5.303,6.82v16.147h-3.535c-0.974,0-1.768,0.791-1.768,1.769s0.794,1.767,1.768,1.767h53.021
	c0.979,0,1.768-0.789,1.768-1.767s-0.787-1.769-1.768-1.769h-3.534v-16.147c3.044-0.79,5.302-3.531,5.302-6.82v-1.768H687.74
	V271.718z M723.088,278.787c3.907,0,7.069-3.165,7.069-7.069c0,3.289,2.258,6.03,5.302,6.82v16.147h-26.51v-15.898
	c3.906,0,7.068-3.165,7.068-7.069C716.02,275.622,719.188,278.787,723.088,278.787z M707.182,278.538v16.147h-10.604v-16.147
	c3.045-0.79,5.303-3.531,5.303-6.82C701.88,275.007,704.137,277.748,707.182,278.538z M737.227,256.494h-42.416l-7.069,11.688
	h56.556L737.227,256.494z M701.88,291.268c0-0.648,0.365-1.188,0.883-1.498v-4.072c-0.518-0.311-0.883-0.85-0.883-1.498
	 M705.414,284.198c0,0.647-0.362,1.188-0.884,1.497v4.074c0.521,0.311,0.884,0.849,0.884,1.498 M694.811,253.572
	c0-0.809,0.793-1.461,1.768-1.461h38.882c0.979,0,1.769,0.652,1.769,1.461c0,0.808-0.787,1.461-1.769,1.461h-38.882
	C695.604,255.033,694.811,254.38,694.811,253.572z"/>
<g>
	<path opacity="0.3" fill="none" stroke="#FFFFFF" stroke-width="1.1547" stroke-miterlimit="10" enable-background="new    " d="
		M984.563,113.443c-4.537-9.717-15.535-16.058-26.231-14.681c-5.585,0.516-10.771,3.233-14.925,6.9
		c-4.949,4.754-8.169,11.517-8.004,18.432c-0.358,6.718,2.422,13.453,7.08,18.246c2.101,1.703,0.271,4.526,0.479,6.733
		c2.408-0.513,4.902-2.539,7.381-1.205c2.007,0.851,4.068,1.61,6.223,2.011c6.295,1.406,12.902-0.324,18.396-3.471
		c6.19-3.837,10.624-10.461,11.809-17.646C987.355,123.585,987.063,118.124,984.563,113.443z M951.102,138.762
		c0.148-1.067-0.462-2.583,0.713-3.216c4.933-3.552,9.775-7.239,14.582-10.965c3.271-2.497,4.186-7.812,1.297-10.931
		c-2.313-2.626-6.271-2.493-9.368-1.68c-3.049,1.04-3.345,4.602-4.994,6.903c-0.778-0.674-2.401-0.967-2.125-2.307
		c0.229-2.651,1.741-5.16,4.015-6.566c4.803-3.023,11.947-2.325,15.518,2.299c2.088,2.527,2.299,6.07,1.629,9.152
		c-1.115,3.849-4.614,6.151-7.616,8.471c-2.589,2.173-5.588,3.801-8.214,5.932c5.527,0.18,11.063-0.237,16.579,0.117
		c0.019,0.944,0.019,1.885,0.013,2.827C965.788,138.951,958.439,139.019,951.102,138.762z"/>
	<g opacity="0.3">
		<g>
			<path fill="#FFFFFF" d="M983.204,397.146l-14.656-18.515l0.517-0.406c0.603-0.473,0.702-1.35,0.227-1.951l-1.273-1.608
				c-0.477-0.604-1.354-0.707-1.955-0.232l-0.516,0.404l-0.816-1.031l0.517-0.405c0.603-0.474,0.703-1.35,0.228-1.951l-2.548-3.216
				c-0.478-0.604-1.354-0.708-1.956-0.234l-0.525,0.414c-1.313-1.398-3.51-1.589-5.037-0.385l-15.606,12.287
				c-1.614,1.271-1.887,3.619-0.605,5.234l22.557,28.492c1.28,1.615,3.633,1.896,5.248,0.625l15.604-12.287
				C984.212,401.109,984.482,398.763,983.204,397.146z M966.92,375.563l1.24,1.565l-0.495,0.391l-1.24-1.567L966.92,375.563z
				 M961.827,369.127l2.515,3.178l-0.492,0.39l-2.516-3.177L961.827,369.127z M981.717,401.27l-15.604,12.284
				c-1.002,0.789-2.462,0.615-3.255-0.387L940.3,384.675c-0.794-1.002-0.625-2.459,0.376-3.248l15.606-12.286
				c1-0.787,2.46-0.611,3.254,0.39l22.557,28.491C982.886,399.024,982.718,400.48,981.717,401.27z M958.634,388.111
				c-4.735,3.729-5.534,10.619-1.78,15.359s10.659,5.563,15.395,1.836c4.737-3.727,5.536-10.617,1.781-15.358
				C970.275,385.206,963.37,384.382,958.634,388.111z M971.368,404.195c-4.124,3.246-10.136,2.525-13.403-1.602
				c-3.269-4.127-2.57-10.125,1.552-13.371c4.122-3.245,10.136-2.527,13.4,1.601C976.186,394.951,975.489,400.949,971.368,404.195z
				 M961.181,391.327c-2.963,2.333-3.464,6.646-1.113,9.614c2.349,2.967,6.671,3.482,9.636,1.148s3.465-6.646,1.113-9.612
				C968.468,389.509,964.145,388.994,961.181,391.327z M968.82,400.979c-2.353,1.852-5.78,1.44-7.644-0.911
				c-1.864-2.354-1.467-5.774,0.884-7.625c2.354-1.852,5.78-1.442,7.644,0.913C971.567,395.706,971.171,399.128,968.82,400.979z
				 M966.876,392.991c-0.095-0.119-0.226-0.207-0.372-0.246c-1.278-0.346-2.602-0.08-3.625,0.727
				c-1.025,0.808-1.591,2.027-1.55,3.35c0.004,0.15,0.057,0.3,0.151,0.418l2.522,3.188c0.095,0.119,0.226,0.205,0.372,0.246
				c1.279,0.344,2.602,0.08,3.627-0.728c1.023-0.809,1.59-2.026,1.55-3.35c-0.005-0.151-0.059-0.299-0.153-0.418L966.876,392.991z
				 M967.122,398.833c-0.611,0.481-1.39,0.668-2.16,0.522l-2.215-2.796c0.037-0.782,0.397-1.492,1.012-1.976
				s1.391-0.668,2.161-0.521l2.214,2.796C968.097,397.64,967.734,398.351,967.122,398.833z M965,396.153
				c-0.146,0.114-0.241,0.287-0.265,0.473c-0.021,0.187,0.032,0.375,0.148,0.521c0.115,0.146,0.289,0.243,0.476,0.266
				c0.186,0.021,0.375-0.031,0.521-0.146c0.146-0.114,0.241-0.288,0.263-0.473c0.022-0.185-0.03-0.375-0.146-0.521
				c-0.116-0.146-0.288-0.244-0.478-0.268C965.337,395.984,965.146,396.037,965,396.153z M967.755,384.259
				c0.526-0.414,0.615-1.183,0.197-1.711c-0.418-0.529-1.188-0.621-1.716-0.207c-0.527,0.418-0.618,1.187-0.197,1.713
				C966.456,384.583,967.227,384.675,967.755,384.259z"/>
		</g>
	</g>
	<g opacity="0.3">
		<g>
			<g>
				<path fill="none" stroke="#FFFFFF" stroke-width="0.7844" stroke-miterlimit="10" d="M958.872,255.93h-16.074
					c-0.645,0-1.213,0.426-1.391,1.047l-3.085,10.68l21.626,2.365l1.696-8.121C960.589,260.014,959.616,257.994,958.872,255.93z"/>
				<path fill="none" stroke="#FFFFFF" stroke-width="0.7844" stroke-miterlimit="10" d="M979.069,272.113l6.493,0.711l-1.938-6.717
					c-0.26,0.386-0.521,0.759-0.774,1.117C981.538,269.073,980.227,270.73,979.069,272.113z"/>
				<path fill="none" stroke="#FFFFFF" stroke-width="0.7844" stroke-miterlimit="10" d="M964.985,267.16l-0.697,3.336l3.511,0.384
					c-0.882-1.096-1.818-2.319-2.76-3.644C965.021,267.212,965.003,267.186,964.985,267.16z"/>
				<path fill="none" stroke="#FFFFFF" stroke-width="0.7844" stroke-miterlimit="10" d="M934.163,282.059
					c-0.127,0.438-0.04,0.909,0.233,1.272c0.273,0.364,0.701,0.578,1.157,0.578h21.491l2.008-9.613l-21.955-2.401L934.163,282.059z"
					/>
				<path fill="none" stroke="#FFFFFF" stroke-width="0.7844" stroke-miterlimit="10" d="M986.868,277.339l-23.474-2.567
					l-1.909,9.139h25.354c0.001,0,0.002,0,0.003,0c0.8,0,1.448-0.648,1.448-1.449c0-0.173-0.03-0.34-0.086-0.493L986.868,277.339z"
					/>
				<path fill="none" stroke="#FFFFFF" stroke-width="0.7844" stroke-miterlimit="10" d="M973.343,273.954
					c0.154,0.166,0.371,0.26,0.599,0.26c0.227,0,0.441-0.094,0.599-0.26c1.319-1.403,3.927-4.312,6.539-7.986
					c3.29-4.634,7.212-11.427,7.212-17.479c0-7.913-6.438-14.35-14.35-14.35s-14.351,6.437-14.351,14.35
					c0,6.059,3.927,12.854,7.222,17.49C969.423,269.656,972.023,272.555,973.343,273.954z M973.939,239.537
					c4.832,0,8.763,3.932,8.763,8.763c0,4.83-3.931,8.763-8.763,8.763c-4.83,0-8.762-3.933-8.762-8.763
					C965.179,243.469,969.107,239.537,973.939,239.537z"/>
			</g>
		</g>
	</g>
</g>
<g>
	<path opacity="0.3" fill="none" stroke="#FFFFFF" stroke-width="1.5901" stroke-miterlimit="10" enable-background="new    " d="
		M873.934,34.034c-6.248-13.381-21.395-22.112-36.127-20.219c-7.688,0.715-14.828,4.452-20.553,9.509
		c-6.814,6.542-11.25,15.853-11.02,25.378c-0.493,9.254,3.332,18.526,9.748,25.125c2.893,2.346,0.373,6.24,0.657,9.279
		c3.315-0.708,6.75-3.5,10.161-1.662c2.768,1.175,5.606,2.217,8.57,2.765c8.667,1.941,17.771-0.444,25.339-4.777
		c8.523-5.288,14.63-14.407,16.26-24.307C877.782,48.004,877.377,40.481,873.934,34.034z M827.852,68.906
		c0.207-1.472-0.636-3.563,0.979-4.429c6.797-4.897,13.468-9.97,20.083-15.105c4.509-3.436,5.764-10.758,1.79-15.051
		c-3.188-3.618-8.636-3.435-12.905-2.314c-4.198,1.432-4.604,6.337-6.877,9.509c-1.073-0.929-3.307-1.336-2.926-3.179
		c0.316-3.649,2.4-7.108,5.525-9.041c6.614-4.167,16.457-3.204,21.37,3.165c2.872,3.483,3.165,8.356,2.243,12.602
		c-1.534,5.303-6.353,8.476-10.486,11.664c-3.569,2.998-7.695,5.24-11.313,8.174c7.608,0.246,15.231-0.326,22.835,0.158
		c0.023,1.305,0.023,2.6,0.016,3.896C848.079,69.16,837.957,69.256,827.852,68.906z"/>
	<g opacity="0.3">
		<g>
			<path fill="#FFFFFF" d="M861.708,184.751c-0.19-1.958-1.943-3.39-3.906-3.194l-22.496,2.249l-0.062-0.625
				c-0.07-0.729-0.723-1.264-1.456-1.19l-1.953,0.195c-0.731,0.073-1.271,0.725-1.199,1.456l0.062,0.625l-1.253,0.126l-0.063-0.625
				c-0.069-0.729-0.725-1.263-1.457-1.19l-3.907,0.392c-0.73,0.073-1.271,0.725-1.197,1.456l0.062,0.638
				c-1.807,0.336-3.094,2.007-2.913,3.862l1.842,18.927c0.189,1.958,1.941,3.391,3.905,3.194l34.621-3.46
				c1.963-0.197,3.404-1.949,3.215-3.907L861.708,184.751z M833.895,183.34l0.061,0.6l-1.904,0.19l-0.059-0.601L833.895,183.34z
				 M828.033,183.927l0.058,0.599l-3.857,0.386l-0.061-0.6L828.033,183.927z M860.202,206.236l-34.619,3.46
				c-1.218,0.122-2.306-0.768-2.423-1.981l-1.841-18.927c-0.118-1.213,0.775-2.301,1.993-2.423l34.617-3.46
				c1.221-0.121,2.309,0.767,2.426,1.981l1.842,18.926C862.314,205.027,861.42,206.114,860.202,206.236z M847.26,185.234
				c-5.762,0.576-9.992,5.716-9.436,11.46c0.56,5.743,5.701,9.946,11.461,9.371c5.762-0.577,9.993-5.718,9.435-11.46
				C858.162,188.861,853.02,184.657,847.26,185.234z M849.154,204.717c-5.018,0.501-9.49-3.159-9.979-8.159
				c-0.483-5,3.198-9.475,8.214-9.976c5.018-0.501,9.491,3.159,9.979,8.158C857.854,199.741,854.17,204.215,849.154,204.717z
				 M847.639,189.131c-3.604,0.359-6.254,3.577-5.903,7.172c0.35,3.594,3.565,6.227,7.174,5.866
				c3.604-0.361,6.254-3.579,5.903-7.173C854.462,191.401,851.245,188.771,847.639,189.131z M848.775,200.82
				c-2.86,0.286-5.412-1.801-5.689-4.652s1.824-5.404,4.686-5.689c2.858-0.286,5.41,1.801,5.688,4.652
				C853.737,197.983,851.636,200.534,848.775,200.82z M850.308,192.276c-0.125-0.074-0.271-0.107-0.417-0.093l-3.873,0.388
				c-0.146,0.014-0.28,0.075-0.391,0.173c-0.939,0.852-1.408,2.055-1.287,3.297c0.121,1.243,0.813,2.33,1.897,2.979
				c0.126,0.076,0.271,0.108,0.417,0.093l3.873-0.386c0.146-0.016,0.281-0.075,0.391-0.173c0.939-0.854,1.408-2.056,1.288-3.299
				C852.085,194.012,851.395,192.928,850.308,192.276z M850.158,197.403l-3.396,0.34c-0.609-0.435-0.998-1.093-1.068-1.835
				c-0.072-0.743,0.18-1.465,0.695-2.012l3.396-0.34c0.611,0.435,0.997,1.093,1.068,1.835
				C850.925,196.133,850.674,196.856,850.158,197.403z M848.207,194.976c-0.178,0.018-0.346,0.106-0.46,0.245
				c-0.112,0.139-0.167,0.32-0.15,0.497c0.019,0.177,0.106,0.343,0.244,0.458c0.138,0.112,0.319,0.167,0.498,0.148
				c0.177-0.018,0.347-0.106,0.458-0.245c0.113-0.139,0.17-0.319,0.152-0.498c-0.019-0.177-0.106-0.343-0.245-0.456
				C848.566,195.011,848.386,194.958,848.207,194.976z M839.433,187.353c-0.062-0.639-0.635-1.108-1.276-1.044
				c-0.644,0.064-1.113,0.638-1.053,1.277c0.063,0.642,0.638,1.11,1.277,1.045C839.023,188.566,839.495,187.992,839.433,187.353z"/>
		</g>
	</g>
	<path opacity="0.3" fill="none" stroke="#FFFFFF" stroke-miterlimit="10" enable-background="new    " d="M813.482,340.856
		c0,3.288,2.258,6.029,5.302,6.819v16.148h-3.534c-0.975,0-1.768,0.79-1.768,1.768s0.793,1.768,1.768,1.768h53.02
		c0.98,0,1.769-0.79,1.769-1.768s-0.787-1.768-1.769-1.768h-3.533v-16.148c3.044-0.79,5.302-3.531,5.302-6.819v-1.769h-56.555
		L813.482,340.856L813.482,340.856z M848.829,347.926c3.907,0,7.069-3.165,7.069-7.068c0,3.289,2.258,6.029,5.303,6.819v16.148
		h-26.512v-15.899c3.907,0,7.069-3.165,7.069-7.068C841.759,344.761,844.928,347.926,848.829,347.926z M832.922,347.677v16.148
		h-10.604v-16.148c3.045-0.79,5.303-3.53,5.303-6.819C827.621,344.146,829.878,346.887,832.922,347.677z M862.968,325.633H820.55
		l-7.067,11.688h56.555L862.968,325.633z M827.621,360.406c0-0.649,0.365-1.188,0.883-1.498v-4.073
		c-0.518-0.311-0.883-0.85-0.883-1.498 M831.156,353.337c0,0.648-0.363,1.188-0.885,1.498v4.073
		c0.521,0.311,0.885,0.849,0.885,1.498 M820.55,322.711c0-0.808,0.795-1.461,1.769-1.461h38.883c0.979,0,1.768,0.653,1.768,1.461
		s-0.787,1.461-1.768,1.461h-38.883C821.345,324.172,820.55,323.519,820.55,322.711z"/>
	<g opacity="0.3">
		<g>
			<g>
				<path fill="none" stroke="#FFFFFF" stroke-width="0.7844" stroke-miterlimit="10" d="M839.433,447.995H823.36
					c-0.646,0-1.214,0.426-1.393,1.047l-3.085,10.68l21.626,2.365l1.696-8.121C841.148,452.08,840.178,450.061,839.433,447.995z"/>
				<path fill="none" stroke="#FFFFFF" stroke-width="0.7844" stroke-miterlimit="10" d="M859.631,464.18l6.494,0.711l-1.939-6.716
					c-0.26,0.385-0.52,0.758-0.774,1.117C862.099,461.14,860.787,462.797,859.631,464.18z"/>
				<path fill="none" stroke="#FFFFFF" stroke-width="0.7844" stroke-miterlimit="10" d="M845.547,459.227l-0.697,3.336l3.511,0.385
					c-0.882-1.097-1.819-2.319-2.761-3.645C845.582,459.278,845.564,459.251,845.547,459.227z"/>
				<path fill="none" stroke="#FFFFFF" stroke-width="0.7844" stroke-miterlimit="10" d="M814.724,474.125
					c-0.126,0.438-0.04,0.909,0.233,1.272c0.273,0.364,0.703,0.577,1.158,0.577h21.49l2.01-9.612l-21.956-2.402L814.724,474.125z"/>
				<path fill="none" stroke="#FFFFFF" stroke-width="0.7844" stroke-miterlimit="10" d="M867.429,469.405l-23.473-2.568
					l-1.909,9.139H867.4h0.002c0.801,0,1.449-0.648,1.449-1.448c0-0.174-0.031-0.34-0.087-0.493L867.429,469.405z"/>
				<path fill="none" stroke="#FFFFFF" stroke-width="0.7844" stroke-miterlimit="10" d="M853.903,466.021
					c0.153,0.165,0.37,0.26,0.599,0.26c0.227,0,0.441-0.094,0.598-0.26c1.32-1.403,3.929-4.312,6.539-7.986
					c3.291-4.634,7.213-11.427,7.213-17.48c0-7.913-6.438-14.35-14.35-14.35s-14.35,6.437-14.35,14.35
					c0,6.06,3.926,12.855,7.221,17.491C849.984,461.723,852.585,464.62,853.903,466.021z M854.502,431.604
					c4.831,0,8.762,3.933,8.762,8.764c0,4.83-3.932,8.763-8.762,8.763c-4.832,0-8.762-3.933-8.762-8.763
					C845.74,435.535,849.67,431.604,854.502,431.604z"/>
			</g>
		</g>
	</g>
</g>
<g>
	<path opacity="0.3" fill="none" stroke="#FFFFFF" stroke-width="0.9046" stroke-miterlimit="10" enable-background="new    " d="
		M1345.088,39.805c-3.557-7.61-12.172-12.58-20.552-11.501c-4.374,0.405-8.436,2.534-11.69,5.407
		c-3.878,3.725-6.399,9.021-6.271,14.438c-0.28,5.264,1.896,10.539,5.545,14.294c1.646,1.334,0.214,3.548,0.376,5.276
		c1.887-0.402,3.84-1.989,5.781-0.945c1.572,0.667,3.188,1.261,4.874,1.574c4.931,1.101,10.108-0.254,14.413-2.719
		c4.85-3.005,8.322-8.195,9.25-13.826C1347.276,47.751,1347.048,43.472,1345.088,39.805z M1318.875,59.642
		c0.116-0.837-0.362-2.027,0.558-2.521c3.864-2.783,7.66-5.671,11.426-8.589c2.563-1.958,3.276-6.122,1.016-8.564
		c-1.813-2.059-4.91-1.952-7.339-1.316c-2.391,0.816-2.62,3.604-3.913,5.409c-0.608-0.528-1.881-0.758-1.664-1.808
		c0.183-2.076,1.365-4.043,3.146-5.143c3.763-2.37,9.359-1.822,12.154,1.799c1.637,1.98,1.802,4.753,1.275,7.17
		c-0.873,3.015-3.612,4.819-5.966,6.635c-2.026,1.705-4.378,2.979-6.436,4.649c4.329,0.14,8.665-0.186,12.987,0.091
		c0.016,0.741,0.016,1.476,0.011,2.215C1330.379,59.787,1324.622,59.841,1318.875,59.642z"/>
	<path opacity="0.3" fill="none" stroke="#FFFFFF" stroke-width="0.96" stroke-miterlimit="10" enable-background="new    " d="
		M1346.21,448.225c-3.772-8.076-12.918-13.352-21.813-12.206c-4.641,0.433-8.948,2.69-12.407,5.738
		c-4.115,3.954-6.791,9.574-6.652,15.323c-0.297,5.586,2.015,11.185,5.885,15.172c1.746,1.416,0.228,3.765,0.398,5.599
		c2.002-0.427,4.076-2.11,6.135-1.003c1.67,0.707,3.385,1.338,5.174,1.671c5.232,1.169,10.73-0.271,15.299-2.886
		c5.146-3.188,8.832-8.695,9.814-14.674C1348.532,456.657,1348.29,452.117,1346.21,448.225z M1318.39,469.278
		c0.123-0.891-0.385-2.15,0.591-2.677c4.104-2.951,8.133-6.021,12.125-9.114c2.723-2.078,3.479-6.496,1.079-9.093
		c-1.926-2.185-5.213-2.068-7.788-1.396c-2.535,0.868-2.781,3.826-4.152,5.742c-0.646-0.563-1.998-0.808-1.771-1.919
		c0.193-2.204,1.451-4.292,3.339-5.458c3.993-2.517,9.936-1.936,12.899,1.909c1.736,2.102,1.912,5.045,1.355,7.608
		c-0.931,3.199-3.837,5.113-6.332,7.04c-2.152,1.813-4.646,3.164-6.83,4.938c4.596,0.146,9.196-0.197,13.785,0.097
		c0.018,0.787,0.018,1.566,0.012,2.352C1330.599,469.433,1324.489,469.489,1318.39,469.278z"/>
	<path opacity="0.3" fill="none" stroke="#FFFFFF" stroke-width="0.8995" stroke-miterlimit="10" enable-background="new    " d="
		M1347.1,186.35l-1.674-10.534c-0.238-1.511-1.424-2.696-2.936-2.936l-10.533-1.675c-1.119-0.178-2.254,0.191-3.055,0.992
		l-21.441,21.441c-1.381,1.38-1.381,3.618,0,4.999l12.207,12.207c1.381,1.381,3.619,1.381,5,0l21.441-21.441
		C1346.908,188.604,1347.277,187.468,1347.1,186.35z M1323.75,208.11c-0.539,0.539-1.414,0.539-1.954,0l-11.599-11.6
		c-0.54-0.539-0.54-1.414,0-1.954c0.539-0.539,1.414-0.539,1.953,0l11.6,11.6C1324.289,206.695,1324.289,207.57,1323.75,208.11z
		 M1339.354,182.717c-1.038,1.04-2.725,1.04-3.765,0c-1.04-1.039-1.04-2.725,0-3.765c1.04-1.039,2.726-1.039,3.765,0
		C1340.393,179.993,1340.393,181.678,1339.354,182.717z"/>
	<g opacity="0.3">
		<g>
			<g>
				<path fill="none" stroke="#FFFFFF" stroke-width="0.7844" stroke-miterlimit="10" d="M1324.458,303.896h-16.073
					c-0.645,0-1.213,0.426-1.392,1.047l-3.085,10.68l21.626,2.365l1.696-8.121C1326.175,307.981,1325.203,305.962,1324.458,303.896z
					"/>
				<path fill="none" stroke="#FFFFFF" stroke-width="0.7844" stroke-miterlimit="10" d="M1344.656,320.081l6.494,0.711
					l-1.939-6.716c-0.26,0.385-0.52,0.758-0.775,1.117C1347.124,317.041,1345.813,318.698,1344.656,320.081z"/>
				<path fill="none" stroke="#FFFFFF" stroke-width="0.7844" stroke-miterlimit="10" d="M1330.572,315.128l-0.697,3.336l3.51,0.384
					c-0.881-1.096-1.818-2.318-2.76-3.644C1330.607,315.18,1330.59,315.152,1330.572,315.128z"/>
				<path fill="none" stroke="#FFFFFF" stroke-width="0.7844" stroke-miterlimit="10" d="M1299.749,330.026
					c-0.126,0.438-0.04,0.908,0.233,1.271c0.273,0.365,0.703,0.578,1.157,0.578h21.491l2.009-9.613l-21.956-2.401L1299.749,330.026z
					"/>
				<path fill="none" stroke="#FFFFFF" stroke-width="0.7844" stroke-miterlimit="10" d="M1352.454,325.307l-23.474-2.567
					l-1.908,9.139h25.354h0.002c0.801,0,1.449-0.648,1.449-1.449c0-0.173-0.031-0.34-0.086-0.493L1352.454,325.307z"/>
				<path fill="none" stroke="#FFFFFF" stroke-width="0.7844" stroke-miterlimit="10" d="M1338.929,321.922
					c0.154,0.166,0.371,0.26,0.6,0.26c0.227,0,0.44-0.094,0.598-0.26c1.32-1.403,3.928-4.311,6.539-7.986
					c3.291-4.634,7.213-11.427,7.213-17.479c0-7.913-6.438-14.351-14.35-14.351c-7.912,0-14.351,6.438-14.351,14.351
					c0,6.06,3.926,12.854,7.221,17.491C1335.01,317.624,1337.61,320.521,1338.929,321.922z M1339.527,287.505
					c4.831,0,8.762,3.933,8.762,8.763s-3.932,8.764-8.762,8.764c-4.832,0-8.763-3.934-8.763-8.764
					C1330.766,291.438,1334.695,287.505,1339.527,287.505z"/>
			</g>
		</g>
	</g>
</g>
<g>
	<path opacity="0.3" fill="none" stroke="#FFFFFF" stroke-width="1.2326" stroke-miterlimit="10" enable-background="new    " d="
		M240.153,145.396c-4.846-10.372-16.586-17.141-28.006-15.672c-5.96,0.553-11.494,3.451-15.932,7.37
		c-5.282,5.073-8.721,12.29-8.543,19.673c-0.382,7.173,2.584,14.361,7.557,19.478c2.242,1.818,0.289,4.835,0.511,7.192
		c2.571-0.549,5.233-2.713,7.877-1.288c2.143,0.908,4.345,1.717,6.644,2.144c6.717,1.502,13.774-0.346,19.64-3.704
		c6.608-4.097,11.342-11.168,12.604-18.841C243.134,156.224,242.822,150.393,240.153,145.396z M204.43,172.427
		c0.162-1.142-0.493-2.76,0.76-3.434c5.267-3.794,10.438-7.729,15.569-11.708c3.493-2.665,4.466-8.34,1.386-11.668
		c-2.473-2.805-6.695-2.662-10.003-1.794c-3.256,1.111-3.569,4.912-5.333,7.372c-0.83-0.72-2.563-1.035-2.268-2.464
		c0.247-2.829,1.86-5.511,4.285-7.008c5.126-3.229,12.756-2.484,16.564,2.452c2.229,2.699,2.455,6.479,1.74,9.77
		c-1.191,4.11-4.926,6.57-8.131,9.041c-2.765,2.324-5.965,4.063-8.769,6.336c5.9,0.19,11.808-0.252,17.7,0.123
		c0.02,1.011,0.02,2.015,0.013,3.021C220.108,172.625,212.263,172.7,204.43,172.427z"/>
	<g opacity="0.3">
		<g>
			<g>
				<path fill="none" stroke="#FFFFFF" stroke-width="0.7844" stroke-miterlimit="10" d="M233.081,389.15l6.495,0.711l-1.939-6.715
					c-0.26,0.384-0.52,0.757-0.775,1.115C235.549,386.11,234.238,387.768,233.081,389.15z"/>
				<path fill="none" stroke="#FFFFFF" stroke-width="0.7844" stroke-miterlimit="10" d="M218.997,384.197l-0.697,3.336l3.51,0.385
					c-0.882-1.096-1.82-2.32-2.76-3.645C219.033,384.249,219.015,384.223,218.997,384.197z"/>
				<path fill="none" stroke="#FFFFFF" stroke-width="0.7844" stroke-miterlimit="10" d="M188.174,399.096
					c-0.126,0.438-0.04,0.909,0.234,1.273c0.274,0.364,0.703,0.578,1.158,0.578h21.491l2.009-9.613l-21.956-2.402L188.174,399.096z"
					/>
				<path fill="none" stroke="#FFFFFF" stroke-width="0.7844" stroke-miterlimit="10" d="M240.879,394.377l-23.473-2.569l-1.91,9.14
					h25.354c0.001,0,0.002,0,0.003,0c0.8,0,1.449-0.649,1.449-1.448c0-0.174-0.031-0.34-0.086-0.494L240.879,394.377z"/>
				<path fill="none" stroke="#FFFFFF" stroke-width="0.7844" stroke-miterlimit="10" d="M227.354,390.992
					c0.154,0.166,0.371,0.26,0.598,0.26s0.442-0.094,0.599-0.26c1.32-1.404,3.927-4.312,6.539-7.987
					c3.291-4.634,7.212-11.427,7.212-17.479c0-7.914-6.438-14.352-14.35-14.352s-14.35,6.438-14.35,14.352
					c0,6.058,3.927,12.854,7.221,17.489C223.435,386.693,226.036,389.592,227.354,390.992z M227.952,356.574
					c4.832,0,8.762,3.932,8.762,8.764c0,4.83-3.931,8.762-8.762,8.762s-8.762-3.932-8.762-8.762
					C219.19,360.506,223.121,356.574,227.952,356.574z"/>
			</g>
		</g>
	</g>
	<g opacity="0.3">
		<path fill="none" stroke="#FFFFFF" stroke-miterlimit="10" d="M234.803,246.055l-31.469-0.006l-1.319-4.541
			c-0.196-0.676-0.742-1.211-1.422-1.396l-4.616-1.248c-0.174-0.047-0.353-0.07-0.532-0.07c-0.916,0-1.723,0.617-1.962,1.504
			c-0.142,0.523-0.071,1.072,0.199,1.543c0.271,0.471,0.708,0.809,1.233,0.951l3.513,0.949l7.132,25.723
			c-1.016,0.502-1.675,1.539-1.675,2.697c0,1.657,1.349,3.006,3.007,3.006c1.658,0,3.007-1.351,3.007-3.006
			c0-0.041,0-0.078-0.002-0.119h14.518c-0.002,0.041-0.002,0.08-0.002,0.119c0,1.657,1.349,3.006,3.007,3.006
			c1.658,0,3.007-1.351,3.007-3.006c0-1.525-1.159-2.804-2.642-2.984c-3.608-0.584-18.335-1.295-18.335-1.295l-0.483-1.896h18.375
			c0.939,0,1.774-0.631,2.031-1.532l3.971-13.99h1.459c1.217,0,2.205-0.986,2.205-2.203
			C237.008,247.041,236.021,246.055,234.803,246.055z M211.399,261.307h-3.444c-0.094-0.002-0.232,0.021-0.295-0.203
			c-0.08-0.28-0.192-0.668-0.192-0.668l-2.7-9.508c-0.013-0.047-0.003-0.098,0.025-0.137c0.029-0.037,0.075-0.061,0.124-0.061h4.186
			c0.073,0,0.135,0.049,0.151,0.121l2.283,10.223l0.008,0.031c0.004,0.016,0.006,0.028,0.006,0.045
			C211.551,261.236,211.483,261.305,211.399,261.307z M220.189,250.918l-1.86,10.268c-0.016,0.07-0.078,0.121-0.151,0.121h-2.598
			c-0.073,0-0.135-0.051-0.151-0.121l-1.86-10.268c-0.01-0.045,0-0.094,0.03-0.129c0.03-0.037,0.074-0.059,0.121-0.059h6.319
			c0.047,0,0.091,0.021,0.121,0.059C220.188,250.824,220.199,250.873,220.189,250.918z M228.99,250.928l-2.915,10.266
			c-0.019,0.066-0.08,0.113-0.149,0.113h-3.564c-0.047,0-0.091-0.021-0.121-0.059c-0.03-0.038-0.041-0.084-0.03-0.131l2.292-10.266
			c0.016-0.07,0.08-0.121,0.151-0.121h4.186c0.048,0,0.094,0.022,0.123,0.061C228.993,250.83,229.003,250.881,228.99,250.928z"/>
	</g>
</g>
<g>
	<path opacity="0.3" fill="none" stroke="#FFFFFF" stroke-width="1.8296" stroke-miterlimit="10" enable-background="new    " d="
		M486.849,120.967c-7.188-15.396-24.616-25.441-41.566-23.263c-8.849,0.823-17.063,5.123-23.648,10.941
		c-7.84,7.528-12.944,18.24-12.679,29.2c-0.567,10.648,3.833,21.315,11.215,28.908c3.329,2.699,0.43,7.181,0.759,10.676
		c3.814-0.814,7.768-4.026,11.69-1.912c3.184,1.353,6.45,2.552,9.861,3.182c9.973,2.234,20.446-0.51,29.154-5.496
		c9.809-6.083,16.833-16.577,18.708-27.967C491.277,137.04,490.811,128.386,486.849,120.967z M433.828,161.09
		c0.236-1.692-0.731-4.097,1.125-5.095c7.82-5.635,15.497-11.472,23.106-17.381c5.188-3.953,6.634-12.378,2.061-17.318
		c-3.668-4.163-9.938-3.952-14.849-2.663c-4.83,1.647-5.297,7.291-7.912,10.941c-1.236-1.07-3.808-1.537-3.367-3.659
		c0.365-4.198,2.763-8.178,6.356-10.401c7.612-4.794,18.938-3.687,24.591,3.641c3.304,4.008,3.642,9.615,2.58,14.5
		c-1.766,6.102-7.311,9.752-12.065,13.419c-4.107,3.45-8.855,6.029-13.02,9.405c8.757,0.283,17.528-0.375,26.273,0.183
		c0.027,1.5,0.027,2.991,0.018,4.483C457.101,161.383,445.455,161.493,433.828,161.09z"/>
	<path opacity="0.3" fill="none" stroke="#FFFFFF" stroke-width="0.6124" stroke-miterlimit="10" enable-background="new    " d="
		M462.22,27.535c-2.407-5.152-8.239-8.515-13.913-7.785c-2.961,0.274-5.71,1.714-7.915,3.661c-2.624,2.521-4.333,6.105-4.243,9.773
		c-0.188,3.563,1.283,7.135,3.754,9.676c1.113,0.903,0.145,2.402,0.255,3.573c1.275-0.273,2.6-1.348,3.912-0.64
		c1.063,0.451,2.159,0.854,3.302,1.064c3.337,0.747,6.843-0.171,9.757-1.839c3.283-2.036,5.634-5.549,6.262-9.36
		C463.701,32.915,463.545,30.019,462.22,27.535z M444.473,40.963c0.08-0.566-0.244-1.37,0.377-1.705
		c2.616-1.885,5.188-3.84,7.734-5.816c1.734-1.324,2.219-4.143,0.688-5.796c-1.229-1.394-3.325-1.323-4.969-0.893
		c-1.618,0.553-1.772,2.44-2.647,3.662c-0.412-0.356-1.273-0.513-1.127-1.224c0.123-1.405,0.925-2.738,2.13-3.481
		c2.547-1.604,6.337-1.233,8.229,1.218c1.107,1.341,1.219,3.219,0.864,4.854c-0.592,2.042-2.447,3.265-4.04,4.491
		c-1.374,1.155-2.963,2.019-4.355,3.148c2.932,0.094,5.865-0.125,8.793,0.061c0.011,0.502,0.011,1.001,0.006,1.5
		C452.262,41.063,448.364,41.101,444.473,40.963z"/>
	<path opacity="0.3" fill="none" stroke="#FFFFFF" stroke-width="0.8995" stroke-miterlimit="10" enable-background="new    " d="
		M470.145,381.887l-1.675-10.534c-0.239-1.511-1.425-2.695-2.936-2.936L455,366.742c-1.118-0.178-2.254,0.19-3.054,0.992
		l-21.441,21.44c-1.38,1.38-1.38,3.618,0,4.999l12.208,12.207c1.381,1.381,3.619,1.381,4.999,0l21.441-21.44
		C469.953,384.141,470.322,383.005,470.145,381.887z M446.794,403.646c-0.54,0.538-1.415,0.538-1.954,0l-11.599-11.601
		c-0.54-0.539-0.54-1.414,0-1.954c0.54-0.539,1.415-0.539,1.954,0l11.599,11.601C447.333,402.231,447.333,403.106,446.794,403.646z
		 M462.396,378.254c-1.039,1.04-2.725,1.04-3.765,0c-1.04-1.039-1.04-2.725,0-3.765c1.04-1.039,2.726-1.039,3.765,0
		C463.438,375.529,463.438,377.215,462.396,378.254z"/>
	<g opacity="0.3">
		<path fill="none" stroke="#FFFFFF" stroke-miterlimit="10" d="M469.422,257.346l-31.469-0.006l-1.319-4.541
			c-0.196-0.677-0.742-1.212-1.422-1.396l-4.616-1.248c-0.174-0.047-0.353-0.07-0.531-0.07c-0.916,0-1.724,0.617-1.963,1.503
			c-0.142,0.523-0.07,1.072,0.199,1.544c0.271,0.472,0.708,0.81,1.233,0.95l3.513,0.95l7.132,25.723
			c-1.016,0.501-1.675,1.539-1.675,2.696c0,1.658,1.35,3.007,3.007,3.007c1.658,0,3.007-1.351,3.007-3.007
			c0-0.04,0-0.078-0.002-0.118h14.519c-0.002,0.04-0.002,0.079-0.002,0.118c0,1.658,1.349,3.007,3.007,3.007
			s3.007-1.351,3.007-3.007c0-1.523-1.159-2.803-2.642-2.984c-3.608-0.583-18.335-1.295-18.335-1.295l-0.483-1.895h18.375
			c0.939,0,1.773-0.631,2.031-1.533l3.971-13.989h1.459c1.217,0,2.205-0.985,2.205-2.204
			C471.627,258.333,470.64,257.346,469.422,257.346z M446.018,272.598h-3.443c-0.094-0.003-0.232,0.02-0.295-0.203
			c-0.08-0.281-0.192-0.668-0.192-0.668l-2.7-9.509c-0.013-0.046-0.003-0.097,0.025-0.136c0.029-0.038,0.075-0.063,0.124-0.063
			h4.186c0.073,0,0.136,0.051,0.151,0.121l2.283,10.225l0.008,0.031c0.004,0.015,0.006,0.028,0.006,0.045
			C446.17,272.525,446.102,272.596,446.018,272.598z M454.808,262.209l-1.859,10.268c-0.017,0.07-0.078,0.121-0.151,0.121h-2.598
			c-0.073,0-0.135-0.051-0.151-0.121l-1.859-10.268c-0.011-0.046,0-0.094,0.029-0.13c0.03-0.037,0.074-0.06,0.121-0.06h6.319
			c0.047,0,0.091,0.021,0.121,0.06C454.807,262.115,454.818,262.163,454.808,262.209z M463.608,262.218l-2.915,10.267
			c-0.02,0.066-0.08,0.113-0.149,0.113h-3.563c-0.048,0-0.092-0.021-0.121-0.059c-0.03-0.037-0.041-0.085-0.03-0.131l2.292-10.268
			c0.016-0.068,0.08-0.119,0.15-0.119h4.187c0.048,0,0.094,0.021,0.123,0.061C463.612,262.121,463.622,262.172,463.608,262.218z"/>
	</g>
</g>
<g>
	<path opacity="0.3" fill="none" stroke="#FFFFFF" stroke-width="2" stroke-miterlimit="10" enable-background="new    " d="
		M122.33,59.138c-7.86-16.83-26.91-27.81-45.439-25.43c-9.671,0.9-18.65,5.6-25.851,11.96c-8.57,8.23-14.149,19.94-13.859,31.92
		c-0.62,11.64,4.189,23.3,12.26,31.6c3.64,2.95,0.47,7.85,0.83,11.67c4.17-0.89,8.489-4.4,12.779-2.09
		c3.48,1.479,7.051,2.79,10.78,3.479c10.9,2.44,22.351-0.56,31.87-6.01c10.72-6.649,18.4-18.12,20.45-30.57
		C127.17,76.709,126.66,67.25,122.33,59.138z M64.37,102.999c0.26-1.85-0.8-4.479,1.23-5.569c8.55-6.16,16.939-12.541,25.26-19
		c5.67-4.32,7.25-13.53,2.25-18.93c-4.01-4.55-10.86-4.32-16.23-2.91c-5.279,1.8-5.79,7.97-8.649,11.96
		c-1.351-1.17-4.16-1.68-3.681-4c0.4-4.59,3.021-8.94,6.95-11.37c8.32-5.24,20.7-4.03,26.88,3.98c3.61,4.38,3.98,10.51,2.82,15.85
		c-1.93,6.67-7.99,10.66-13.19,14.67c-4.489,3.77-9.68,6.59-14.229,10.28c9.57,0.311,19.16-0.409,28.72,0.2
		c0.03,1.641,0.03,3.271,0.021,4.9C89.811,103.319,77.08,103.439,64.37,102.999z"/>
	<path opacity="0.3" fill="none" stroke="#FFFFFF" stroke-width="1.4635" stroke-miterlimit="10" enable-background="new    " d="
		M111.476,297.494c-5.752-12.314-19.692-20.35-33.251-18.607c-7.077,0.658-13.647,4.098-18.917,8.752
		c-6.271,6.021-10.354,14.592-10.142,23.357c-0.454,8.518,3.065,17.051,8.971,23.125c2.663,2.158,0.344,5.744,0.607,8.539
		c3.051-0.65,6.212-3.221,9.351-1.529c2.547,1.082,5.16,2.041,7.889,2.545c7.977,1.787,16.355-0.408,23.322-4.395
		c7.844-4.867,13.464-13.262,14.964-22.371C115.017,310.354,114.644,303.43,111.476,297.494z M69.063,329.59
		c0.19-1.354-0.585-3.277,0.9-4.074c6.256-4.508,12.396-9.178,18.484-13.903c4.149-3.16,5.305-9.9,1.646-13.853
		c-2.934-3.33-7.947-3.162-11.877-2.131c-3.863,1.316-4.237,5.832-6.33,8.752c-0.988-0.855-3.044-1.229-2.693-2.928
		c0.293-3.357,2.21-6.541,5.086-8.318c6.089-3.836,15.148-2.949,19.67,2.912c2.642,3.205,2.913,7.689,2.064,11.598
		c-1.412,4.882-5.847,7.802-9.652,10.734c-3.285,2.76-7.083,4.824-10.413,7.523c7.003,0.227,14.021-0.302,21.016,0.146
		c0.021,1.199,0.021,2.394,0.015,3.586C87.68,329.824,78.364,329.912,69.063,329.59z"/>
	<g opacity="0.3">
		<g>
			<path fill="#FFFFFF" d="M102.183,209.685l-3.901-16.665c-0.404-1.724-2.138-2.793-3.866-2.384l-19.801,4.691l-0.128-0.55
				c-0.151-0.642-0.797-1.041-1.442-0.888l-1.719,0.408c-0.645,0.152-1.046,0.799-0.896,1.441l0.128,0.55l-1.103,0.262L69.326,196
				c-0.149-0.643-0.797-1.041-1.441-0.888l-3.44,0.815c-0.645,0.152-1.046,0.799-0.896,1.442l0.131,0.562
				c-1.572,0.516-2.52,2.16-2.138,3.793l3.901,16.665c0.403,1.724,2.138,2.793,3.867,2.383l30.471-7.218
				C101.508,213.144,102.586,211.408,102.183,209.685z M73.3,195.081l0.124,0.528l-1.677,0.398l-0.123-0.529L73.3,195.081z
				 M68.14,196.303l0.124,0.528l-3.397,0.805l-0.124-0.528L68.14,196.303z M99.502,212.366l-30.472,7.219
				c-1.071,0.254-2.147-0.41-2.397-1.478l-3.901-16.666c-0.25-1.069,0.418-2.146,1.49-2.399l30.471-7.219
				c1.073-0.253,2.149,0.41,2.399,1.479l3.9,16.665C101.242,211.036,100.573,212.112,99.502,212.366z M85.449,195.175
				c-5.071,1.201-8.233,6.292-7.049,11.35c1.184,5.057,6.272,8.193,11.342,6.992c5.071-1.202,8.233-6.293,7.049-11.35
				C95.608,197.111,90.519,193.973,85.449,195.175z M89.464,212.331c-4.414,1.046-8.843-1.685-9.874-6.088
				c-1.03-4.402,1.723-8.834,6.137-9.88c4.415-1.045,8.844,1.685,9.875,6.087C96.632,206.851,93.879,211.283,89.464,212.331z
				 M86.252,198.606c-3.174,0.751-5.153,3.938-4.413,7.103c0.741,3.165,3.926,5.129,7.1,4.377s5.153-3.939,4.412-7.104
				C92.61,199.817,89.426,197.854,86.252,198.606z M88.662,208.899c-2.518,0.596-5.044-0.961-5.631-3.471
				c-0.588-2.511,0.982-5.039,3.499-5.635c2.517-0.596,5.044,0.961,5.631,3.471C92.749,205.775,91.179,208.302,88.662,208.899z
				 M89.008,201.094c-0.121-0.052-0.254-0.063-0.383-0.033l-3.409,0.809c-0.127,0.029-0.243,0.101-0.328,0.201
				c-0.736,0.872-1.011,2-0.755,3.095c0.256,1.094,1.003,1.98,2.049,2.431c0.12,0.052,0.255,0.064,0.383,0.033l3.409-0.807
				c0.128-0.031,0.243-0.101,0.328-0.202c0.736-0.873,1.012-2.001,0.755-3.096C90.801,202.431,90.055,201.545,89.008,201.094z
				 M89.487,205.686l-2.99,0.708c-0.598-0.315-1.021-0.856-1.174-1.51c-0.153-0.654-0.014-1.328,0.381-1.878l2.989-0.708
				c0.598,0.315,1.021,0.856,1.173,1.51C90.02,204.461,89.882,205.135,89.487,205.686z M87.918,203.826
				c-0.136-0.084-0.305-0.111-0.461-0.074c-0.157,0.037-0.296,0.136-0.381,0.274c-0.084,0.137-0.112,0.305-0.076,0.46
				c0.037,0.157,0.136,0.294,0.272,0.379c0.137,0.084,0.305,0.111,0.462,0.074c0.156-0.037,0.295-0.137,0.38-0.273
				c0.085-0.137,0.113-0.304,0.076-0.462C88.154,204.048,88.054,203.91,87.918,203.826z M78.719,198
				c-0.132-0.564-0.699-0.914-1.265-0.779c-0.565,0.133-0.917,0.702-0.786,1.265c0.132,0.564,0.699,0.914,1.265,0.779
				C78.499,199.13,78.851,198.563,78.719,198z"/>
		</g>
	</g>
	<g opacity="0.3">
		<path fill="none" stroke="#FFFFFF" stroke-miterlimit="10" d="M101.456,401.732l-31.469-0.007l-1.319-4.541
			c-0.196-0.676-0.742-1.211-1.422-1.396l-4.616-1.248c-0.174-0.047-0.353-0.07-0.532-0.07c-0.916,0-1.723,0.617-1.962,1.504
			c-0.142,0.523-0.071,1.072,0.199,1.543c0.271,0.472,0.708,0.81,1.233,0.951l3.513,0.949l7.132,25.723
			c-1.016,0.502-1.675,1.539-1.675,2.697c0,1.658,1.349,3.006,3.007,3.006s3.007-1.35,3.007-3.006c0-0.041,0-0.078-0.002-0.119
			h14.518c-0.002,0.041-0.002,0.08-0.002,0.119c0,1.658,1.349,3.006,3.007,3.006c1.658,0,3.007-1.35,3.007-3.006
			c0-1.525-1.159-2.803-2.642-2.984c-3.608-0.584-18.335-1.295-18.335-1.295l-0.483-1.895h18.375c0.939,0,1.774-0.631,2.031-1.533
			l3.971-13.99h1.459c1.217,0,2.205-0.985,2.205-2.203C103.661,402.719,102.673,401.732,101.456,401.732z M78.051,416.984h-3.444
			c-0.094-0.002-0.232,0.02-0.295-0.203c-0.08-0.281-0.192-0.668-0.192-0.668l-2.7-9.508c-0.013-0.048-0.003-0.099,0.025-0.138
			c0.029-0.037,0.075-0.061,0.124-0.061h4.186c0.073,0,0.135,0.049,0.151,0.121l2.283,10.223l0.008,0.031
			c0.004,0.016,0.006,0.028,0.006,0.045C78.204,416.914,78.136,416.982,78.051,416.984z M86.841,406.596l-1.86,10.269
			c-0.016,0.069-0.078,0.121-0.151,0.121h-2.598c-0.073,0-0.135-0.052-0.151-0.121l-1.86-10.269c-0.01-0.045,0-0.094,0.03-0.129
			c0.03-0.037,0.074-0.059,0.121-0.059h6.319c0.047,0,0.091,0.021,0.121,0.059C86.841,406.502,86.852,406.551,86.841,406.596z
			 M95.642,406.605l-2.915,10.266c-0.019,0.066-0.08,0.113-0.149,0.113h-3.564c-0.047,0-0.091-0.021-0.121-0.06
			c-0.03-0.038-0.041-0.084-0.03-0.131l2.292-10.266c0.016-0.07,0.08-0.121,0.151-0.121h4.186c0.048,0,0.094,0.022,0.123,0.061
			C95.646,406.508,95.655,406.559,95.642,406.605z"/>
	</g>
</g>
<g>
	<path opacity="0.3" fill="none" stroke="#FFFFFF" stroke-width="1.4272" stroke-miterlimit="10" enable-background="new    " d="
		M606.447,319.57c-5.609-12.01-19.203-19.848-32.426-18.146c-6.901,0.639-13.31,3.996-18.447,8.53
		c-6.116,5.875-10.098,14.23-9.891,22.778c-0.443,8.305,2.991,16.629,8.748,22.554c2.597,2.104,0.336,5.597,0.594,8.323
		c2.977-0.635,6.06-3.141,9.121-1.489c2.48,1.053,5.029,1.987,7.691,2.481c7.777,1.739,15.947-0.396,22.738-4.289
		c7.65-4.741,13.131-12.931,14.596-21.813C609.898,332.106,609.538,325.355,606.447,319.57z M565.087,350.865
		c0.187-1.32-0.57-3.195,0.881-3.978c6.097-4.391,12.085-8.947,18.025-13.552c4.044-3.087,5.172-9.658,1.604-13.512
		c-2.861-3.246-7.75-3.08-11.58-2.078c-3.771,1.288-4.134,5.688-6.174,8.532c-0.962-0.833-2.967-1.193-2.627-2.852
		c0.285-3.275,2.153-6.379,4.962-8.114c5.936-3.736,14.77-2.874,19.178,2.841c2.581,3.124,2.842,7.502,2.014,11.313
		c-1.378,4.757-5.703,7.604-9.413,10.469c-3.2,2.688-6.907,4.7-10.151,7.335c6.831,0.221,13.671-0.292,20.492,0.145
		c0.021,1.169,0.021,2.33,0.015,3.495C583.239,351.099,574.157,351.185,565.087,350.865z"/>
	<g opacity="0.3">
		<g>
			<path fill="#FFFFFF" d="M591.342,74.858l-5.922-13.701c-0.611-1.417-2.266-2.066-3.688-1.449l-16.271,7.083l-0.194-0.453
				c-0.229-0.528-0.845-0.771-1.375-0.54l-1.412,0.615c-0.529,0.23-0.775,0.847-0.547,1.376l0.194,0.452l-0.906,0.395l-0.196-0.453
				c-0.228-0.528-0.844-0.77-1.373-0.54l-2.827,1.231c-0.528,0.23-0.773,0.847-0.546,1.375l0.198,0.462
				c-1.27,0.685-1.83,2.243-1.25,3.585l5.921,13.701c0.612,1.417,2.267,2.068,3.687,1.449l25.04-10.9
				C591.297,77.932,591.953,76.275,591.342,74.858z M564.297,66.782l0.188,0.435l-1.378,0.6l-0.188-0.435L564.297,66.782z
				 M560.058,68.628l0.188,0.434l-2.792,1.216l-0.188-0.435L560.058,68.628z M589.454,77.575l-25.039,10.899
				c-0.88,0.384-1.907-0.02-2.286-0.898l-5.92-13.702c-0.379-0.878,0.028-1.906,0.909-2.289l25.038-10.9
				c0.882-0.383,1.906,0.02,2.288,0.899l5.919,13.701C590.742,76.164,590.335,77.19,589.454,77.575z M574.739,64.987
				c-4.167,1.813-6.095,6.671-4.298,10.83c1.797,4.158,6.647,6.064,10.813,4.251c4.168-1.815,6.095-6.672,4.299-10.83
				C583.758,65.081,578.905,63.173,574.739,64.987z M580.834,79.093c-3.627,1.579-7.852-0.082-9.415-3.701
				c-1.563-3.619,0.115-7.849,3.742-9.427c3.627-1.579,7.852,0.082,9.415,3.7C586.141,73.285,584.461,77.513,580.834,79.093z
				 M575.958,67.809c-2.606,1.135-3.813,4.175-2.69,6.778c1.125,2.602,4.162,3.796,6.771,2.661c2.606-1.136,3.813-4.176,2.688-6.778
				C581.604,67.867,578.566,66.673,575.958,67.809z M579.615,76.271c-2.068,0.901-4.478-0.046-5.369-2.11
				c-0.893-2.064,0.064-4.476,2.135-5.376c2.067-0.9,4.477,0.046,5.368,2.11C582.643,72.958,581.684,75.371,579.615,76.271z
				 M578.708,69.519c-0.11-0.025-0.228-0.015-0.333,0.03l-2.801,1.22c-0.104,0.045-0.193,0.125-0.25,0.224
				c-0.497,0.862-0.56,1.873-0.17,2.773c0.389,0.899,1.167,1.545,2.134,1.77c0.112,0.027,0.229,0.016,0.333-0.03l2.803-1.219
				c0.104-0.047,0.192-0.124,0.25-0.224c0.496-0.864,0.561-1.875,0.17-2.774S579.676,69.745,578.708,69.519z M579.827,73.386
				l-2.457,1.07c-0.562-0.178-1.008-0.577-1.239-1.114c-0.232-0.538-0.218-1.138,0.036-1.67l2.457-1.07
				c0.562,0.178,1.007,0.577,1.24,1.115C580.097,72.252,580.082,72.853,579.827,73.386z M578.194,72.033
				c-0.13-0.052-0.279-0.049-0.408,0.007c-0.128,0.057-0.232,0.163-0.285,0.294c-0.051,0.13-0.049,0.279,0.007,0.407
				c0.057,0.128,0.162,0.231,0.293,0.284c0.13,0.05,0.278,0.047,0.406-0.009c0.129-0.056,0.232-0.163,0.284-0.293
				c0.052-0.131,0.05-0.279-0.005-0.408C578.431,72.186,578.324,72.083,578.194,72.033z M568.193,67.977
				c-0.465,0.202-0.68,0.744-0.479,1.207c0.2,0.464,0.74,0.676,1.205,0.474c0.465-0.202,0.681-0.744,0.479-1.207
				C569.199,67.987,568.658,67.774,568.193,67.977z"/>
		</g>
	</g>
	<path opacity="0.3" fill="none" stroke="#FFFFFF" stroke-miterlimit="10" enable-background="new    " d="M550.659,208.902
		c0,3.289,2.258,6.03,5.302,6.82v16.148h-3.535c-0.974,0-1.768,0.79-1.768,1.768c0,0.977,0.794,1.767,1.768,1.767h53.021
		c0.979,0,1.768-0.79,1.768-1.767c0-0.978-0.787-1.768-1.768-1.768h-3.535v-16.148c3.044-0.79,5.302-3.531,5.302-6.82v-1.768
		h-56.556L550.659,208.902L550.659,208.902z M586.006,215.972c3.908,0,7.069-3.165,7.069-7.069c0,3.289,2.258,6.03,5.302,6.82
		v16.148h-26.51v-15.899c3.906,0,7.068-3.165,7.068-7.069C578.938,212.807,582.105,215.972,586.006,215.972z M570.1,215.723v16.148
		h-10.604v-16.148c3.044-0.79,5.302-3.531,5.302-6.82C564.798,212.191,567.056,214.933,570.1,215.723z M600.146,193.679h-42.418
		l-7.068,11.688h56.556L600.146,193.679z M564.798,228.452c0-0.649,0.366-1.188,0.883-1.498v-4.073
		c-0.518-0.311-0.883-0.85-0.883-1.498 M568.333,221.383c0,0.648-0.363,1.188-0.884,1.498v4.073
		c0.521,0.311,0.884,0.849,0.884,1.498 M557.729,190.757c0-0.808,0.795-1.461,1.769-1.461h38.882c0.98,0,1.768,0.653,1.768,1.461
		c0,0.808-0.786,1.461-1.768,1.461h-38.882C558.521,192.218,557.729,191.564,557.729,190.757z"/>
	<g opacity="0.3">
		<path fill="none" stroke="#FFFFFF" stroke-miterlimit="10" d="M598.53,438.605l-31.47-0.006l-1.318-4.541
			c-0.196-0.677-0.742-1.212-1.422-1.396l-4.616-1.248c-0.174-0.047-0.353-0.07-0.532-0.07c-0.916,0-1.723,0.617-1.962,1.503
			c-0.142,0.524-0.071,1.072,0.199,1.544s0.708,0.81,1.233,0.95l3.513,0.95l7.132,25.723c-1.016,0.501-1.675,1.539-1.675,2.696
			c0,1.658,1.349,3.007,3.007,3.007s3.007-1.35,3.007-3.007c0-0.04,0-0.078-0.002-0.118h14.519c-0.002,0.04-0.002,0.079-0.002,0.118
			c0,1.658,1.349,3.007,3.007,3.007c1.657,0,3.007-1.35,3.007-3.007c0-1.523-1.159-2.803-2.643-2.984
			c-3.607-0.582-18.335-1.295-18.335-1.295l-0.482-1.894h18.375c0.938,0,1.773-0.631,2.03-1.534l3.972-13.989h1.459
			c1.217,0,2.205-0.985,2.205-2.204C600.735,439.593,599.748,438.605,598.53,438.605z M575.126,453.857h-3.444
			c-0.094-0.002-0.231,0.02-0.295-0.202c-0.08-0.281-0.191-0.668-0.191-0.668l-2.7-9.51c-0.013-0.046-0.003-0.097,0.024-0.136
			c0.029-0.038,0.075-0.062,0.125-0.062h4.186c0.073,0,0.135,0.05,0.15,0.121l2.283,10.224l0.008,0.031
			c0.005,0.015,0.007,0.028,0.007,0.045C575.278,453.787,575.21,453.856,575.126,453.857z M583.916,443.47l-1.86,10.268
			c-0.016,0.07-0.077,0.121-0.15,0.121h-2.599c-0.072,0-0.135-0.051-0.15-0.121l-1.86-10.268c-0.01-0.046,0-0.094,0.03-0.13
			c0.03-0.037,0.074-0.059,0.121-0.059h6.318c0.047,0,0.092,0.021,0.121,0.059C583.916,443.376,583.926,443.424,583.916,443.47z
			 M592.717,443.479l-2.915,10.268c-0.019,0.066-0.08,0.112-0.148,0.112h-3.564c-0.047,0-0.091-0.021-0.121-0.059
			s-0.041-0.085-0.03-0.131l2.293-10.267c0.016-0.069,0.08-0.12,0.15-0.12h4.186c0.049,0,0.095,0.021,0.123,0.061
			C592.72,443.382,592.73,443.433,592.717,443.479z"/>
	</g>
</g>
<g>
	<path opacity="0.3" fill="none" stroke="#FFFFFF" stroke-width="1.8296" stroke-miterlimit="10" enable-background="new    " d="
		M1117.758,424.507c-7.188-15.396-24.617-25.44-41.566-23.265c-8.849,0.823-17.063,5.123-23.648,10.94
		c-7.84,7.526-12.943,18.24-12.679,29.2c-0.567,10.646,3.833,21.314,11.215,28.908c3.329,2.698,0.43,7.181,0.759,10.677
		c3.814-0.813,7.768-4.026,11.69-1.912c3.184,1.353,6.448,2.552,9.86,3.183c9.974,2.232,20.447-0.512,29.155-5.496
		c9.808-6.084,16.833-16.577,18.708-27.968C1122.186,440.579,1121.719,431.925,1117.758,424.507z M1064.736,464.63
		c0.235-1.692-0.731-4.098,1.125-5.096c7.819-5.636,15.496-11.474,23.106-17.381c5.188-3.953,6.634-12.379,2.061-17.318
		c-3.668-4.162-9.938-3.951-14.85-2.662c-4.829,1.646-5.296,7.291-7.911,10.941c-1.236-1.07-3.808-1.537-3.367-3.658
		c0.365-4.199,2.763-8.18,6.356-10.402c7.612-4.794,18.938-3.688,24.591,3.642c3.305,4.008,3.643,9.614,2.579,14.5
		c-1.765,6.103-7.31,9.752-12.064,13.42c-4.107,3.449-8.855,6.028-13.02,9.404c8.757,0.283,17.528-0.375,26.273,0.184
		c0.026,1.502,0.026,2.992,0.019,4.482C1088.01,464.923,1076.363,465.032,1064.736,464.63z"/>
	<path opacity="0.3" fill="none" stroke="#FFFFFF" stroke-width="0.8398" stroke-miterlimit="10" enable-background="new    " d="
		M1097.73,43.793c-3.302-7.066-11.301-11.68-19.08-10.679c-4.063,0.376-7.832,2.353-10.854,5.021
		c-3.601,3.457-5.941,8.375-5.82,13.403c-0.262,4.888,1.762,9.784,5.147,13.271c1.527,1.239,0.197,3.294,0.35,4.898
		c1.751-0.373,3.564-1.848,5.366-0.877c1.461,0.619,2.961,1.17,4.526,1.461c4.576,1.023,9.385-0.234,13.381-2.522
		c4.502-2.791,7.729-7.609,8.589-12.837C1099.762,51.17,1099.548,47.198,1097.73,43.793z M1073.393,62.209
		c0.108-0.776-0.336-1.881,0.519-2.34c3.588-2.584,7.11-5.266,10.606-7.976c2.381-1.816,3.043-5.683,0.942-7.95
		c-1.685-1.911-4.562-1.813-6.813-1.223c-2.22,0.758-2.433,3.347-3.633,5.021c-0.565-0.489-1.746-0.704-1.546-1.678
		c0.168-1.928,1.269-3.755,2.92-4.775c3.491-2.198,8.689-1.69,11.284,1.671c1.521,1.84,1.673,4.414,1.187,6.657
		c-0.813,2.799-3.355,4.476-5.539,6.159c-1.884,1.583-4.064,2.767-5.975,4.317c4.021,0.129,8.046-0.172,12.06,0.084
		c0.014,0.688,0.014,1.371,0.009,2.057C1084.073,62.345,1078.729,62.396,1073.393,62.209z"/>
	<path opacity="0.3" fill="none" stroke="#FFFFFF" stroke-miterlimit="10" enable-background="new    " d="M1052.46,192.854
		c0,3.289,2.258,6.03,5.302,6.82v16.148h-3.534c-0.975,0-1.768,0.79-1.768,1.768c0,0.977,0.793,1.767,1.768,1.767h53.021
		c0.979,0,1.768-0.79,1.768-1.767c0-0.978-0.787-1.768-1.768-1.768h-3.534v-16.148c3.044-0.79,5.302-3.531,5.302-6.82v-1.768
		h-56.555L1052.46,192.854L1052.46,192.854z M1087.807,199.924c3.907,0,7.069-3.165,7.069-7.069c0,3.289,2.258,6.03,5.303,6.82
		v16.148h-26.511v-15.899c3.907,0,7.069-3.165,7.069-7.069C1080.737,196.759,1083.906,199.924,1087.807,199.924z M1071.9,199.675
		v16.148h-10.604v-16.148c3.045-0.79,5.303-3.531,5.303-6.82C1066.599,196.144,1068.855,198.885,1071.9,199.675z M1101.946,177.631
		h-42.418l-7.068,11.688h56.556L1101.946,177.631z M1066.599,212.404c0-0.649,0.365-1.188,0.884-1.498v-4.073
		c-0.519-0.311-0.884-0.85-0.884-1.498 M1070.134,205.335c0,0.648-0.362,1.188-0.885,1.498v4.073
		c0.521,0.311,0.885,0.849,0.885,1.498 M1059.528,174.709c0-0.808,0.795-1.461,1.768-1.461h38.883c0.98,0,1.769,0.653,1.769,1.461
		s-0.787,1.461-1.769,1.461h-38.883C1060.323,176.17,1059.528,175.517,1059.528,174.709z"/>
	<g opacity="0.3">
		<path fill="none" stroke="#FFFFFF" stroke-miterlimit="10" d="M1100.331,310.323l-31.469-0.004l-1.319-4.542
			c-0.195-0.678-0.741-1.213-1.422-1.396l-4.616-1.248c-0.174-0.047-0.353-0.069-0.532-0.069c-0.916,0-1.723,0.617-1.961,1.502
			c-0.143,0.524-0.071,1.072,0.199,1.545c0.271,0.471,0.708,0.809,1.232,0.949l3.513,0.95l7.132,25.724
			c-1.016,0.5-1.675,1.539-1.675,2.694c0,1.658,1.349,3.009,3.007,3.009s3.008-1.351,3.008-3.009c0-0.039,0-0.078-0.002-0.116
			h14.519c-0.002,0.038-0.002,0.077-0.002,0.116c0,1.658,1.349,3.009,3.007,3.009s3.007-1.351,3.007-3.009
			c0-1.522-1.158-2.803-2.642-2.983c-3.608-0.582-18.336-1.295-18.336-1.295l-0.482-1.894h18.374c0.938,0,1.774-0.631,2.03-1.535
			l3.973-13.987h1.46c1.217,0,2.204-0.986,2.204-2.205C1102.536,311.313,1101.549,310.323,1100.331,310.323z M1076.927,325.575
			h-3.443c-0.095-0.002-0.232,0.02-0.296-0.201c-0.079-0.281-0.191-0.668-0.191-0.668l-2.7-9.51
			c-0.013-0.045-0.003-0.097,0.025-0.136c0.028-0.038,0.076-0.063,0.124-0.063h4.187c0.072,0,0.136,0.051,0.15,0.121l2.283,10.225
			l0.008,0.031c0.005,0.014,0.007,0.029,0.007,0.045C1077.079,325.505,1077.012,325.575,1076.927,325.575z M1085.717,315.188
			l-1.859,10.267c-0.018,0.072-0.078,0.121-0.151,0.121h-2.598c-0.072,0-0.136-0.049-0.15-0.121l-1.861-10.267
			c-0.01-0.047,0.001-0.094,0.031-0.131c0.029-0.037,0.073-0.059,0.12-0.059h6.319c0.047,0,0.091,0.021,0.12,0.059
			S1085.727,315.142,1085.717,315.188z M1094.518,315.196l-2.914,10.268c-0.02,0.066-0.079,0.111-0.148,0.111h-3.564
			c-0.047,0-0.091-0.021-0.119-0.058c-0.029-0.036-0.041-0.086-0.031-0.131l2.293-10.268c0.016-0.068,0.08-0.119,0.15-0.119h4.188
			c0.047,0,0.094,0.021,0.123,0.061C1094.523,315.101,1094.531,315.151,1094.518,315.196z"/>
	</g>
</g>
<g>
	<path opacity="0.3" fill="none" stroke="#FFFFFF" stroke-width="0.6124" stroke-miterlimit="10" enable-background="new    " d="
		M1219.126,248.325c-2.408-5.152-8.24-8.515-13.914-7.785c-2.961,0.274-5.71,1.714-7.914,3.661
		c-2.625,2.521-4.333,6.105-4.244,9.773c-0.188,3.563,1.283,7.135,3.755,9.676c1.112,0.901,0.145,2.401,0.254,3.572
		c1.276-0.272,2.6-1.349,3.912-0.64c1.063,0.45,2.159,0.854,3.302,1.063c3.337,0.746,6.843-0.172,9.757-1.84
		c3.283-2.035,5.636-5.549,6.263-9.359C1220.605,253.705,1220.449,250.811,1219.126,248.325z M1201.376,261.754
		c0.08-0.564-0.243-1.369,0.379-1.705c2.615-1.885,5.187-3.84,7.733-5.814c1.734-1.324,2.22-4.144,0.688-5.796
		c-1.229-1.394-3.326-1.323-4.969-0.893c-1.618,0.553-1.773,2.44-2.65,3.663c-0.412-0.356-1.271-0.515-1.126-1.225
		c0.123-1.405,0.926-2.738,2.13-3.481c2.547-1.604,6.337-1.233,8.229,1.218c1.105,1.341,1.219,3.22,0.862,4.854
		c-0.593,2.042-2.446,3.265-4.039,4.49c-1.373,1.154-2.963,2.021-4.354,3.148c2.931,0.094,5.865-0.125,8.793,0.061
		c0.011,0.502,0.011,1.002,0.006,1.5C1209.167,261.854,1205.27,261.893,1201.376,261.754z"/>
	<g opacity="0.3">
		<g>
			<path fill="#FFFFFF" d="M1228.763,106.779l-22.595-7.968l0.224-0.627c0.262-0.731-0.125-1.538-0.859-1.797l-1.963-0.692
				c-0.735-0.259-1.546,0.125-1.807,0.857l-0.224,0.626l-1.259-0.443l0.223-0.627c0.262-0.731-0.126-1.538-0.861-1.797l-3.926-1.384
				c-0.733-0.259-1.545,0.125-1.805,0.857l-0.229,0.64c-1.885-0.491-3.871,0.533-4.533,2.393l-6.754,18.986
				c-0.696,1.964,0.338,4.128,2.313,4.823l34.771,12.264c1.973,0.695,4.145-0.336,4.845-2.3l6.752-18.986
				C1231.771,109.637,1230.734,107.475,1228.763,106.779z M1203.111,97.055l1.912,0.674l-0.215,0.603l-1.914-0.675L1203.111,97.055z
				 M1195.261,94.285l3.875,1.368l-0.213,0.601l-3.877-1.367L1195.261,94.285z M1229.715,111.123l-6.754,18.984
				c-0.434,1.219-1.78,1.859-3.005,1.428l-34.771-12.264c-1.223-0.431-1.864-1.774-1.433-2.991l6.753-18.986
				c0.434-1.217,1.781-1.857,3.004-1.426l34.771,12.262C1229.504,108.563,1230.146,109.905,1229.715,111.123z M1216.993,105.561
				c-5.786-2.041-12.16,0.986-14.21,6.748c-2.049,5.761,0.992,12.108,6.775,14.149c5.787,2.04,12.16-0.988,14.209-6.748
				C1225.82,113.949,1222.779,107.601,1216.993,105.561z M1222.413,119.23c-1.785,5.016-7.334,7.65-12.372,5.875
				c-5.036-1.777-7.683-7.302-5.896-12.318c1.782-5.015,7.332-7.65,12.368-5.873C1221.55,108.691,1224.195,114.216,1222.413,119.23z
				 M1215.604,109.471c-3.621-1.278-7.61,0.616-8.896,4.222c-1.281,3.605,0.62,7.579,4.242,8.856
				c3.621,1.277,7.608-0.618,8.895-4.224C1221.128,114.719,1219.226,110.747,1215.604,109.471z M1218.486,117.847
				c-1.02,2.86-4.184,4.362-7.055,3.35c-2.873-1.013-4.383-4.164-3.364-7.024c1.018-2.86,4.183-4.364,7.055-3.349
				C1217.994,111.836,1219.504,114.987,1218.486,117.847z M1216.39,113.413l-3.891-1.372c-0.146-0.052-0.305-0.055-0.453-0.009
				c-1.283,0.395-2.274,1.336-2.72,2.583c-0.442,1.247-0.27,2.601,0.479,3.713c0.086,0.129,0.213,0.226,0.358,0.276l3.89,1.373
				c0.146,0.05,0.307,0.055,0.453,0.009c1.284-0.396,2.276-1.338,2.721-2.585c0.442-1.247,0.269-2.6-0.479-3.713
				C1216.66,113.562,1216.535,113.465,1216.39,113.413z M1215.869,116.924c-0.268,0.744-0.831,1.324-1.573,1.616l-3.41-1.203
				c-0.392-0.692-0.467-1.497-0.201-2.243c0.267-0.745,0.832-1.324,1.574-1.616l3.41,1.203
				C1216.061,115.373,1216.134,116.179,1215.869,116.924z M1213.517,115.333c-0.179-0.063-0.379-0.054-0.552,0.028
				c-0.17,0.082-0.305,0.231-0.368,0.409c-0.063,0.178-0.052,0.377,0.028,0.549c0.082,0.17,0.23,0.303,0.411,0.366
				c0.178,0.063,0.38,0.054,0.55-0.028c0.172-0.082,0.306-0.229,0.37-0.409c0.063-0.178,0.052-0.377-0.03-0.547
				C1213.847,115.529,1213.696,115.396,1213.517,115.333z M1206.947,104.823c0.646,0.228,1.354-0.11,1.584-0.752
				c0.229-0.642-0.11-1.349-0.756-1.577c-0.646-0.228-1.355,0.11-1.583,0.752C1205.963,103.888,1206.302,104.596,1206.947,104.823z"
				/>
		</g>
	</g>
	<g opacity="0.3">
		<path fill="none" stroke="#FFFFFF" stroke-miterlimit="10" d="M1226.328,360.287l-31.469-0.004l-1.32-4.541
			c-0.195-0.678-0.74-1.213-1.422-1.396l-4.615-1.248c-0.174-0.047-0.354-0.069-0.533-0.069c-0.916,0-1.723,0.616-1.961,1.502
			c-0.143,0.524-0.072,1.071,0.199,1.545c0.271,0.471,0.709,0.809,1.232,0.949l3.514,0.95l7.131,25.724
			c-1.016,0.5-1.674,1.539-1.674,2.694c0,1.658,1.348,3.009,3.006,3.009s3.008-1.351,3.008-3.009c0-0.038,0-0.077-0.002-0.116
			h14.519c-0.002,0.039-0.002,0.078-0.002,0.116c0,1.658,1.35,3.009,3.008,3.009s3.006-1.351,3.006-3.009
			c0-1.522-1.158-2.803-2.641-2.983c-3.609-0.582-18.336-1.295-18.336-1.295l-0.482-1.894h18.373c0.938,0,1.775-0.631,2.031-1.535
			l3.973-13.987h1.459c1.217,0,2.205-0.986,2.205-2.205C1228.533,361.275,1227.545,360.287,1226.328,360.287z M1202.924,375.539
			h-3.445c-0.094-0.002-0.231,0.02-0.295-0.201c-0.08-0.281-0.19-0.668-0.19-0.668l-2.701-9.51
			c-0.012-0.045-0.002-0.096,0.024-0.135c0.029-0.039,0.076-0.063,0.125-0.063h4.187c0.072,0,0.135,0.051,0.15,0.121l2.282,10.225
			l0.009,0.031c0.006,0.015,0.008,0.029,0.008,0.045C1203.076,375.469,1203.008,375.539,1202.924,375.539z M1211.713,365.152
			l-1.859,10.266c-0.018,0.072-0.077,0.121-0.151,0.121h-2.599c-0.071,0-0.135-0.049-0.149-0.121l-1.861-10.266
			c-0.01-0.047,0.002-0.095,0.031-0.131c0.029-0.037,0.074-0.06,0.121-0.06h6.317c0.048,0,0.093,0.021,0.121,0.06
			C1211.713,365.059,1211.723,365.105,1211.713,365.152z M1220.514,365.16l-2.914,10.268c-0.02,0.066-0.079,0.111-0.147,0.111
			h-3.563c-0.048,0-0.093-0.021-0.121-0.057c-0.029-0.037-0.041-0.086-0.031-0.132l2.293-10.268c0.016-0.068,0.08-0.119,0.152-0.119
			h4.186c0.047,0,0.094,0.021,0.123,0.062S1220.527,365.115,1220.514,365.16z"/>
	</g>
</g>
<path opacity="0.3" fill="none" stroke="#FFFFFF" stroke-miterlimit="10" enable-background="new    " d="M1417.303,238.964
	c0,3.289,2.258,6.03,5.303,6.82v16.147h-3.534c-0.976,0-1.769,0.791-1.769,1.769c0,0.977,0.793,1.767,1.769,1.767h53.02
	c0.98,0,1.769-0.79,1.769-1.767c0-0.978-0.787-1.769-1.769-1.769h-3.534v-16.147c3.044-0.79,5.303-3.531,5.303-6.82v-1.768h-56.556
	L1417.303,238.964L1417.303,238.964z M1452.649,246.033c3.906,0,7.068-3.165,7.068-7.069c0,3.289,2.259,6.03,5.304,6.82v16.147
	h-26.512v-15.898c3.907,0,7.069-3.165,7.069-7.069C1445.58,242.868,1448.749,246.033,1452.649,246.033z M1436.743,245.784v16.147
	h-10.604v-16.147c3.045-0.79,5.304-3.531,5.304-6.82C1431.441,242.253,1433.699,244.994,1436.743,245.784z M1466.789,223.74h-42.418
	l-7.068,11.688h56.556L1466.789,223.74z M1431.441,258.514c0-0.648,0.364-1.188,0.883-1.498v-4.072
	c-0.518-0.312-0.883-0.851-0.883-1.498 M1434.977,251.443c0,0.648-0.362,1.188-0.885,1.498v4.074
	c0.521,0.311,0.885,0.849,0.885,1.498 M1424.371,220.818c0-0.808,0.795-1.461,1.768-1.461h38.883c0.98,0,1.769,0.653,1.769,1.461
	s-0.787,1.461-1.769,1.461h-38.883C1425.166,222.279,1424.371,221.626,1424.371,220.818z"/>
<g>
	<path opacity="0.3" fill="none" stroke="#FFFFFF" stroke-width="1.3219" stroke-miterlimit="10" enable-background="new    " d="
		M1608.164,158.533c-5.194-11.125-17.785-18.382-30.032-16.808c-6.394,0.594-12.327,3.701-17.087,7.905
		c-5.664,5.438-9.354,13.179-9.159,21.097c-0.41,7.693,2.771,15.4,8.104,20.886c2.404,1.95,0.311,5.188,0.548,7.714
		c2.756-0.588,5.612-2.909,8.446-1.381c2.302,0.977,4.66,1.843,7.125,2.299c7.205,1.613,14.771-0.369,21.063-3.971
		c7.087-4.396,12.162-11.977,13.518-20.207C1611.363,170.145,1611.025,163.892,1608.164,158.533z M1569.855,187.522
		c0.172-1.224-0.527-2.961,0.813-3.683c5.65-4.07,11.197-8.288,16.697-12.557c3.746-2.856,4.791-8.943,1.486-12.512
		c-2.65-3.008-7.18-2.855-10.729-1.924c-3.489,1.19-3.826,5.268-5.718,7.906c-0.893-0.773-2.75-1.111-2.434-2.644
		c0.266-3.034,1.996-5.909,4.596-7.516c5.498-3.463,13.683-2.663,17.767,2.63c2.387,2.896,2.631,6.947,1.862,10.477
		c-1.273,4.408-5.28,7.046-8.719,9.695c-2.967,2.493-6.396,4.356-9.404,6.796c6.326,0.204,12.664-0.271,18.982,0.131
		c0.021,1.085,0.021,2.161,0.014,3.239C1586.671,187.733,1578.257,187.812,1569.855,187.522z"/>
	<path opacity="0.3" fill="none" stroke="#FFFFFF" stroke-width="0.7076" stroke-miterlimit="10" enable-background="new    " d="
		M1595.734,448.282c-2.78-5.953-9.521-9.842-16.075-8.997c-3.423,0.315-6.599,1.981-9.146,4.229
		c-3.032,2.915-5.006,7.06-4.903,11.295c-0.22,4.117,1.483,8.244,4.338,11.185c1.287,1.044,0.168,2.773,0.295,4.127
		c1.476-0.314,3.004-1.558,4.521-0.739c1.23,0.521,2.494,0.986,3.813,1.23c3.855,0.86,7.91-0.198,11.275-2.127
		c3.793-2.352,6.512-6.409,7.234-10.814C1597.448,454.498,1597.27,451.151,1595.734,448.282z M1575.229,463.801
		c0.093-0.654-0.282-1.585,0.437-1.972c3.022-2.178,5.993-4.438,8.938-6.721c2.006-1.53,2.563-4.787,0.795-6.699
		c-1.418-1.61-3.842-1.526-5.74-1.03c-1.869,0.64-2.051,2.82-3.061,4.231c-0.479-0.412-1.475-0.595-1.306-1.413
		c0.144-1.625,1.069-3.164,2.46-4.023c2.943-1.854,7.323-1.425,9.509,1.408c1.28,1.548,1.409,3.718,1,5.607
		c-0.685,2.357-2.827,3.771-4.668,5.188c-1.586,1.335-3.425,2.332-5.032,3.638c3.388,0.109,6.777-0.146,10.16,0.071
		c0.012,0.58,0.012,1.155,0.008,1.733C1584.229,463.914,1579.727,463.956,1575.229,463.801z"/>
	<g opacity="0.3">
		<path fill="none" stroke="#FFFFFF" stroke-miterlimit="10" d="M1601.011,301.918l-31.469-0.004l-1.319-4.541
			c-0.195-0.678-0.74-1.213-1.423-1.396l-4.614-1.248c-0.174-0.047-0.354-0.069-0.533-0.069c-0.916,0-1.723,0.616-1.961,1.502
			c-0.144,0.524-0.072,1.071,0.199,1.545c0.271,0.472,0.709,0.81,1.231,0.949l3.515,0.95l7.131,25.724
			c-1.017,0.5-1.674,1.539-1.674,2.695c0,1.657,1.348,3.008,3.006,3.008c1.657,0,3.008-1.351,3.008-3.008
			c0-0.039,0-0.078-0.002-0.117h14.518c-0.002,0.039-0.002,0.078-0.002,0.117c0,1.657,1.35,3.008,3.008,3.008
			s3.006-1.351,3.006-3.008c0-1.523-1.157-2.804-2.641-2.984c-3.609-0.582-18.336-1.295-18.336-1.295l-0.482-1.894h18.373
			c0.939,0,1.775-0.631,2.031-1.534l3.973-13.988h1.459c1.218,0,2.205-0.986,2.205-2.205
			C1603.216,302.906,1602.229,301.918,1601.011,301.918z M1577.605,317.17h-3.444c-0.095-0.002-0.232,0.021-0.295-0.201
			c-0.08-0.28-0.191-0.668-0.191-0.668l-2.701-9.51c-0.012-0.045-0.002-0.096,0.025-0.135c0.028-0.039,0.076-0.063,0.125-0.063
			h4.187c0.071,0,0.135,0.051,0.149,0.121l2.283,10.226l0.008,0.03c0.006,0.015,0.008,0.029,0.008,0.045
			C1577.759,317.1,1577.689,317.17,1577.605,317.17z M1586.396,306.783l-1.859,10.266c-0.018,0.072-0.078,0.121-0.152,0.121h-2.598
			c-0.072,0-0.135-0.049-0.15-0.121l-1.861-10.266c-0.01-0.047,0.002-0.094,0.031-0.131s0.074-0.06,0.121-0.06h6.318
			c0.047,0,0.092,0.021,0.121,0.06S1586.405,306.736,1586.396,306.783z M1595.196,306.791l-2.914,10.268
			c-0.021,0.066-0.08,0.111-0.147,0.111h-3.564c-0.047,0-0.092-0.02-0.121-0.057s-0.041-0.086-0.031-0.131l2.293-10.269
			c0.016-0.068,0.08-0.119,0.152-0.119h4.186c0.047,0,0.094,0.021,0.123,0.062S1595.21,306.746,1595.196,306.791z"/>
	</g>
	<path opacity="0.3" fill="none" stroke="#FFFFFF" stroke-width="0.8995" stroke-miterlimit="10" enable-background="new    " d="
		M1601.732,46.645l-1.674-10.533c-0.239-1.512-1.424-2.697-2.937-2.936L1586.59,31.5c-1.119-0.178-2.254,0.191-3.055,0.992
		l-21.441,21.441c-1.381,1.381-1.381,3.619,0,5l12.207,12.207c1.381,1.381,3.619,1.381,5,0l21.441-21.441
		C1601.541,48.898,1601.91,47.764,1601.732,46.645z M1578.383,68.404c-0.539,0.539-1.414,0.539-1.953,0l-11.6-11.6
		c-0.54-0.539-0.54-1.414,0-1.953c0.539-0.539,1.414-0.539,1.953,0l11.6,11.6C1578.922,66.99,1578.922,67.865,1578.383,68.404z
		 M1593.986,43.012c-1.039,1.041-2.726,1.041-3.766,0c-1.04-1.039-1.04-2.725,0-3.764s2.725-1.039,3.766,0
		C1595.025,40.287,1595.025,41.973,1593.986,43.012z"/>
</g>
<g>
	<path opacity="0.3" fill="none" stroke="#FFFFFF" stroke-width="1.0975" stroke-miterlimit="10" enable-background="new    " d="
		M1738.943,379.376c-4.314-9.233-14.77-15.263-24.938-13.954c-5.307,0.491-10.232,3.073-14.186,6.562
		c-4.705,4.52-7.768,10.944-7.607,17.519c-0.34,6.388,2.302,12.786,6.729,17.343c1.996,1.619,0.259,4.306,0.457,6.402
		c2.287-0.488,4.658-2.414,7.015-1.146c1.907,0.811,3.866,1.528,5.914,1.91c5.981,1.336,12.266-0.309,17.485-3.299
		c5.885-3.646,10.101-9.943,11.226-16.774C1741.598,389.018,1741.32,383.826,1738.943,379.376z M1707.137,403.443
		c0.145-1.017-0.438-2.457,0.678-3.058c4.688-3.377,9.295-6.883,13.861-10.424c3.109-2.374,3.979-7.427,1.232-10.391
		c-2.201-2.497-5.959-2.369-8.905-1.599c-2.897,0.989-3.179,4.373-4.747,6.563c-0.738-0.642-2.281-0.92-2.021-2.191
		c0.221-2.521,1.658-4.908,3.814-6.242c4.564-2.872,11.357-2.209,14.748,2.186c1.984,2.403,2.188,5.769,1.551,8.7
		c-1.062,3.657-4.387,5.848-7.24,8.05c-2.459,2.066-5.313,3.614-7.808,5.642c5.255,0.17,10.515-0.225,15.761,0.11
		c0.018,0.896,0.018,1.791,0.012,2.688C1721.096,403.621,1714.111,403.688,1707.137,403.443z"/>
	<path opacity="0.3" fill="none" stroke="#FFFFFF" stroke-width="0.9553" stroke-miterlimit="10" enable-background="new    " d="
		M1732.885,103.85c-3.756-8.038-12.854-13.286-21.705-12.147c-4.619,0.429-8.906,2.678-12.349,5.711
		c-4.095,3.935-6.759,9.527-6.621,15.248c-0.296,5.56,2.003,11.131,5.856,15.098c1.735,1.409,0.225,3.747,0.396,5.572
		c1.992-0.425,4.056-2.102,6.106-0.998c1.66,0.704,3.365,1.332,5.146,1.662c5.207,1.163,10.679-0.269,15.224-2.871
		c5.121-3.174,8.791-8.654,9.77-14.602C1735.195,112.242,1734.954,107.723,1732.885,103.85z M1705.198,124.802
		c0.124-0.885-0.382-2.141,0.589-2.662c4.081-2.939,8.091-5.991,12.066-9.072c2.705-2.067,3.461-6.465,1.071-9.046
		c-1.916-2.174-5.188-2.061-7.752-1.391c-2.521,0.863-2.767,3.808-4.131,5.714c-0.646-0.558-1.987-0.802-1.761-1.909
		c0.191-2.193,1.443-4.271,3.32-5.432c3.976-2.503,9.888-1.924,12.839,1.9c1.729,2.091,1.901,5.021,1.35,7.572
		c-0.924,3.184-3.815,5.09-6.302,7.007c-2.143,1.802-4.624,3.147-6.797,4.911c4.572,0.147,9.15-0.196,13.719,0.096
		c0.018,0.783,0.018,1.56,0.011,2.34C1717.35,124.954,1711.268,125.011,1705.198,124.802z"/>
	<g opacity="0.3">
		<g>
			<g>
				<path fill="none" stroke="#FFFFFF" stroke-width="0.7844" stroke-miterlimit="10" d="M1705.46,235.698h-16.073
					c-0.645,0-1.213,0.426-1.392,1.047l-3.085,10.68l21.626,2.365l1.696-8.121C1707.177,239.783,1706.205,237.764,1705.46,235.698z"
					/>
				<path fill="none" stroke="#FFFFFF" stroke-width="0.7844" stroke-miterlimit="10" d="M1725.658,251.883l6.494,0.711
					l-1.939-6.716c-0.26,0.385-0.52,0.758-0.775,1.117C1728.126,248.843,1726.814,250.5,1725.658,251.883z"/>
				<path fill="none" stroke="#FFFFFF" stroke-width="0.7844" stroke-miterlimit="10" d="M1711.574,246.93l-0.697,3.336l3.51,0.384
					c-0.881-1.096-1.818-2.319-2.76-3.645C1711.609,246.981,1711.592,246.954,1711.574,246.93z"/>
				<path fill="none" stroke="#FFFFFF" stroke-width="0.7844" stroke-miterlimit="10" d="M1680.751,261.828
					c-0.126,0.438-0.04,0.908,0.233,1.271c0.273,0.365,0.703,0.578,1.158,0.578h21.49l2.01-9.613l-21.957-2.401L1680.751,261.828z"
					/>
				<path fill="none" stroke="#FFFFFF" stroke-width="0.7844" stroke-miterlimit="10" d="M1733.456,257.107l-23.474-2.567
					l-1.908,9.14h25.354h0.002c0.801,0,1.449-0.649,1.449-1.449c0-0.174-0.031-0.34-0.086-0.494L1733.456,257.107z"/>
				<path fill="none" stroke="#FFFFFF" stroke-width="0.7844" stroke-miterlimit="10" d="M1719.932,253.725
					c0.153,0.166,0.37,0.26,0.599,0.26c0.227,0,0.44-0.094,0.598-0.26c1.32-1.404,3.929-4.312,6.539-7.987
					c3.291-4.634,7.213-11.427,7.213-17.48c0-7.913-6.438-14.35-14.35-14.35c-7.912,0-14.351,6.437-14.351,14.35
					c0,6.059,3.926,12.855,7.221,17.491C1716.012,249.426,1718.612,252.323,1719.932,253.725z M1720.529,219.307
					c4.831,0,8.762,3.932,8.762,8.763c0,4.83-3.932,8.763-8.762,8.763c-4.832,0-8.762-3.933-8.762-8.763
					C1711.768,223.238,1715.697,219.307,1720.529,219.307z"/>
			</g>
		</g>
	</g>
</g>
<g>
	<path opacity="0.3" fill="none" stroke="#FFFFFF" stroke-width="2.0225" stroke-miterlimit="10" enable-background="new    " d="
		M1888.021,49.413c-7.946-17.02-27.211-28.125-45.948-25.717c-9.78,0.91-18.86,5.663-26.142,12.095
		c-8.668,8.321-14.31,20.163-14.017,32.278c-0.627,11.77,4.237,23.563,12.397,31.956c3.679,2.984,0.476,7.937,0.838,11.803
		c4.218-0.901,8.587-4.452,12.925-2.114c3.52,1.494,7.129,2.819,10.899,3.518c11.023,2.468,22.603-0.565,32.229-6.076
		c10.842-6.725,18.606-18.325,20.682-30.916C1892.918,67.18,1892.4,57.612,1888.021,49.413z M1829.412,93.766
		c0.262-1.872-0.809-4.53,1.243-5.634c8.646-6.228,17.132-12.68,25.546-19.212c5.732-4.37,7.33-13.683,2.273-19.143
		c-4.056-4.602-10.982-4.369-16.412-2.944c-5.34,1.821-5.854,8.06-8.748,12.096c-1.363-1.183-4.207-1.699-3.723-4.044
		c0.403-4.642,3.055-9.041,7.028-11.499c8.414-5.299,20.935-4.074,27.183,4.024c3.651,4.43,4.024,10.629,2.854,16.029
		c-1.951,6.745-8.08,10.78-13.34,14.834c-4.539,3.813-9.787,6.665-14.39,10.397c9.679,0.312,19.374-0.415,29.042,0.201
		c0.03,1.659,0.03,3.306,0.021,4.956C1855.138,94.089,1842.264,94.21,1829.412,93.766z"/>
	<path opacity="0.3" fill="none" stroke="#FFFFFF" stroke-width="1.5901" stroke-miterlimit="10" enable-background="new    " d="
		M1879.273,432.206c-6.248-13.382-21.395-22.112-36.127-20.22c-7.688,0.715-14.827,4.45-20.553,9.509
		c-6.813,6.543-11.25,15.854-11.02,25.379c-0.493,9.254,3.332,18.525,9.748,25.125c2.893,2.346,0.373,6.24,0.658,9.279
		c3.314-0.709,6.752-3.5,10.162-1.662c2.767,1.174,5.604,2.217,8.568,2.766c8.667,1.939,17.771-0.445,25.339-4.776
		c8.523-5.286,14.63-14.407,16.261-24.308C1883.123,446.175,1882.718,438.651,1879.273,432.206z M1833.191,467.077
		c0.207-1.475-0.635-3.563,0.979-4.431c6.797-4.896,13.47-9.972,20.084-15.104c4.509-3.437,5.765-10.758,1.789-15.051
		c-3.188-3.619-8.636-3.438-12.904-2.314c-4.198,1.434-4.604,6.336-6.878,9.511c-1.072-0.931-3.309-1.337-2.927-3.181
		c0.317-3.648,2.401-7.107,5.526-9.041c6.613-4.166,16.459-3.203,21.371,3.164c2.87,3.482,3.163,8.357,2.241,12.604
		c-1.534,5.303-6.354,8.477-10.487,11.664c-3.568,2.996-7.695,5.238-11.313,8.174c7.607,0.246,15.23-0.326,22.834,0.157
		c0.023,1.306,0.023,2.601,0.017,3.896C1853.42,467.331,1843.298,467.427,1833.191,467.077z"/>
	<g opacity="0.3">
		<g>
			<g>
				<path fill="none" stroke="#FFFFFF" stroke-width="0.7844" stroke-miterlimit="10" d="M1844.773,298.1H1828.7
					c-0.646,0-1.214,0.426-1.392,1.047l-3.086,10.68l21.627,2.365l1.695-8.121C1846.49,302.184,1845.52,300.164,1844.773,298.1z"/>
				<path fill="none" stroke="#FFFFFF" stroke-width="0.7844" stroke-miterlimit="10" d="M1864.973,314.283l6.493,0.711
					l-1.938-6.716c-0.26,0.385-0.521,0.758-0.775,1.116C1867.439,311.243,1866.128,312.9,1864.973,314.283z"/>
				<path fill="none" stroke="#FFFFFF" stroke-width="0.7844" stroke-miterlimit="10" d="M1850.888,309.33l-0.696,3.336l3.51,0.384
					c-0.881-1.096-1.819-2.318-2.76-3.644C1850.923,309.382,1850.905,309.354,1850.888,309.33z"/>
				<path fill="none" stroke="#FFFFFF" stroke-width="0.7844" stroke-miterlimit="10" d="M1820.064,324.229
					c-0.127,0.438-0.041,0.909,0.232,1.272c0.274,0.365,0.703,0.578,1.158,0.578h21.49l2.01-9.613L1823,314.063L1820.064,324.229z"
					/>
				<path fill="none" stroke="#FFFFFF" stroke-width="0.7844" stroke-miterlimit="10" d="M1872.77,319.509l-23.473-2.567
					l-1.909,9.139h25.354h0.002c0.801,0,1.449-0.649,1.449-1.449c0-0.173-0.031-0.34-0.086-0.493L1872.77,319.509z"/>
				<path fill="none" stroke="#FFFFFF" stroke-width="0.7844" stroke-miterlimit="10" d="M1859.244,316.124
					c0.154,0.166,0.371,0.26,0.599,0.26s0.441-0.094,0.599-0.26c1.319-1.403,3.928-4.312,6.539-7.986
					c3.291-4.634,7.213-11.427,7.213-17.479c0-7.913-6.438-14.35-14.351-14.35c-7.911,0-14.35,6.437-14.35,14.35
					c0,6.059,3.926,12.855,7.221,17.491C1855.325,311.826,1857.926,314.724,1859.244,316.124z M1859.843,281.707
					c4.831,0,8.763,3.932,8.763,8.764c0,4.829-3.933,8.762-8.763,8.762c-4.832,0-8.762-3.933-8.762-8.762
					C1851.081,285.639,1855.011,281.707,1859.843,281.707z"/>
			</g>
		</g>
	</g>
	<path opacity="0.3" fill="none" stroke="#FFFFFF" stroke-miterlimit="10" enable-background="new    " d="M1818.823,167.713
		c0,3.289,2.258,6.03,5.301,6.82v16.148h-3.533c-0.975,0-1.768,0.79-1.768,1.768c0,0.977,0.793,1.767,1.768,1.767h53.021
		c0.979,0,1.768-0.79,1.768-1.767c0-0.978-0.787-1.768-1.768-1.768h-3.535v-16.148c3.045-0.79,5.303-3.531,5.303-6.82v-1.768
		h-56.555L1818.823,167.713L1818.823,167.713z M1854.169,174.783c3.908,0,7.069-3.165,7.069-7.069c0,3.289,2.259,6.03,5.304,6.82
		v16.148h-26.513v-15.899c3.908,0,7.07-3.165,7.07-7.069C1847.102,171.618,1850.27,174.783,1854.169,174.783z M1838.263,174.534
		v16.148h-10.604v-16.148c3.045-0.79,5.303-3.531,5.303-6.82C1832.962,171.002,1835.22,173.744,1838.263,174.534z M1868.311,152.49
		h-42.418l-7.068,11.688h56.555L1868.311,152.49z M1832.962,187.263c0-0.649,0.365-1.188,0.884-1.498v-4.073
		c-0.519-0.311-0.884-0.85-0.884-1.498 M1836.497,180.194c0,0.648-0.363,1.188-0.886,1.498v4.073
		c0.521,0.311,0.886,0.849,0.886,1.498 M1825.893,149.568c0-0.808,0.795-1.461,1.768-1.461h38.883c0.98,0,1.768,0.653,1.768,1.461
		s-0.787,1.461-1.768,1.461h-38.883C1826.688,151.029,1825.893,150.375,1825.893,149.568z"/>
</g>
</svg>
