<?xml version="1.0" encoding="utf-8"?>
<!-- Generator: Adobe Illustrator 16.0.0, SVG Export Plug-In . SVG Version: 6.00 Build 0)  -->
<!DOCTYPE svg PUBLIC "-//W3C//DTD SVG 1.1//EN" "http://www.w3.org/Graphics/SVG/1.1/DTD/svg11.dtd">
<svg version="1.1" id="Layer_1" xmlns="http://www.w3.org/2000/svg" xmlns:xlink="http://www.w3.org/1999/xlink" x="0px" y="0px"
	 width="40px" height="40px" viewBox="0 0 40 40" enable-background="new 0 0 40 40" xml:space="preserve">
<path display="none" fill="#FFFFFF" d="M30.264,17.911c-3.309,3.308-6.615,6.616-9.924,9.924c-0.795,0.794-1.588,1.587-2.38,2.382
	c-0.05,0.049-0.088,0.112-0.131,0.17c-0.014,0-0.027,0-0.041,0c-0.049-0.056-0.093-0.113-0.146-0.166
	c-2.595-2.597-5.191-5.189-7.788-7.787c-0.066-0.063-0.152-0.113-0.26-0.189c0.338-0.328,0.631-0.604,0.917-0.893
	c3.859-3.855,7.718-7.716,11.573-11.577c0.115-0.115,0.229-0.156,0.391-0.156c2.557,0.004,5.109,0.003,7.666,0.003
	c0.09,0,0.176-0.004,0.266-0.008c0,2.729,0,5.465,0,8.196C30.357,17.843,30.305,17.87,30.264,17.911z M25.919,15.996
	c1.035-0.009,1.865-0.863,1.853-1.905c-0.015-1.006-0.881-1.855-1.883-1.844c-1.045,0.011-1.873,0.852-1.865,1.894
	C24.027,15.185,24.869,16.008,25.919,15.996z M17.86,24.708c1.992-1.994,4.001-4.005,5.998-6.002
	c-0.268-0.267-0.547-0.546-0.813-0.812c-1.98,1.986-3.99,3.995-6.001,6.006C17.308,24.162,17.589,24.439,17.86,24.708z
	 M21.322,16.161c-1.421,1.423-2.854,2.858-4.276,4.282c0.261,0.258,0.541,0.538,0.81,0.804c1.41-1.414,2.844-2.852,4.273-4.284
	C21.871,16.706,21.59,16.428,21.322,16.161z"/>
<g>
	<path fill="#909090" d="M24.093,18.648l5.413-7.181c0.458-0.597,1.344-0.572,2.054,0.11l0,0c0.709,0.682,0.966,1.768,0.517,2.37
		l-0.19,0.243c-0.522,0.187-4.171,5.523-4.497,5.957c-0.871,0.942-1.825,1.348-2.837,0.801
		C23.89,20.273,23.655,19.228,24.093,18.648L24.093,18.648z M20.225,15.166L25.643,8c0.45-0.605,1.344-0.58,2.034,0.102l0,0
		c0.708,0.675,0.974,1.766,0.529,2.37l-5.412,7.166c-0.464,0.597-1.348,0.572-2.055-0.101l0,0
		C20.038,16.853,19.774,15.769,20.225,15.166L20.225,15.166z M18.878,8.258l3.152-4.173c0.453-0.605,1.337-0.577,2.044,0.099l0,0
		c0.706,0.683,0.979,1.774,0.521,2.373l-6.621,8.564c-0.461,0.594-1.346,0.572-2.05-0.112l0,0c-0.421-0.408-0.686-0.966-0.73-1.475
		h0.004C17.539,14.15,20.038,10.354,18.878,8.258L18.878,8.258z M13.717,5.521l3.846-5.086c0.45-0.605,1.33-0.574,2.042,0.102l0,0
		c0.704,0.682,0.968,1.765,0.519,2.368l-2.823,3.729C16.147,5.873,14.931,5.521,13.717,5.521L13.717,5.521z M18.912,39.994H13.29
		c0.319-5.955,0.587-11.414-0.995-15.976c-1.252-3.603-4.706-4.413-5.413-9.54c-0.606-4.38,5.212-10.243,10.062-6.618
		c1.972,1.475,1.228,3.534-0.239,3.118c-4.5-1.289-4.927,6.342,1.327,5.979l-0.455,5.377l1.355-4.112
		c3.331,2.456,5.811,4.062,7.463,3.802c2.421-0.384,3.308-3.575,5.558-6.275l0,0c0.601-0.714,1.564-0.32,1.074,0.771
		c-1.141,2.516-2.449,5.38-4.952,8.47v15.012h-6.455l-1.264-13.435"/>
</g>
<path display="none" fill="#FFFFFF" d="M28.708,28.615h-2.612c-0.723,0-1.306-0.594-1.306-1.328v-9.275
	c0-0.731,0.583-1.326,1.306-1.326h2.612c0.722,0,1.306,0.594,1.306,1.326v9.275C30.014,28.021,29.43,28.615,28.708,28.615z
	 M21.307,28.615h-2.612c-0.721,0-1.307-0.594-1.307-1.328V12.71c0-0.733,0.586-1.326,1.307-1.326h2.612
	c0.721,0,1.309,0.593,1.309,1.326v14.577C22.611,28.021,22.027,28.615,21.307,28.615z M13.904,28.615h-2.612
	c-0.723,0-1.306-0.594-1.306-1.328v-2.648c0-0.73,0.583-1.326,1.306-1.326h2.612c0.721,0,1.306,0.596,1.306,1.326v2.648
	C15.21,28.021,14.625,28.615,13.904,28.615z"/>
<g display="none">
	<g display="inline">
		<path fill="#FFFFFF" d="M25.449,21.789c-1.135-0.559-0.696-0.135-2.09-0.702c-1.396-0.571-1.727-0.757-1.727-0.757l-0.013-1.307
			c0,0,0.521-0.392,0.687-1.627c0.322,0.092,0.436-0.376,0.451-0.678c0.021-0.29,0.191-1.193-0.201-1.113
			c0.082-0.604,0.142-1.15,0.111-1.44c-0.1-1.014-0.813-2.075-2.601-2.151c-1.523,0.077-2.513,1.138-2.611,2.151
			c-0.031,0.29,0.028,0.836,0.111,1.44c-0.401-0.08-0.229,0.826-0.21,1.116c0.019,0.299,0.127,0.771,0.453,0.678
			c0.164,1.236,0.682,1.631,0.682,1.631l-0.013,1.313c0,0-0.328,0.2-1.72,0.767c-1.394,0.572-0.955,0.121-2.09,0.683
			c-1.794,0.881-1.794,3.308-1.794,3.308c0,0.365,0.302,0.662,0.672,0.662h13.021c0.373,0,0.674-0.297,0.674-0.662
			C27.242,25.094,27.242,22.67,25.449,21.789z M30.917,22.146c-1.032-0.508-0.634-0.121-1.901-0.641
			c-1.267-0.518-1.563-0.688-1.563-0.688l-0.015-1.188c0,0,0.477-0.355,0.623-1.48c0.295,0.083,0.396-0.344,0.412-0.616
			c0.018-0.265,0.176-1.088-0.188-1.014c0.074-0.549,0.132-1.045,0.105-1.31c-0.094-0.922-0.734-1.886-2.369-1.958
			c-1.383,0.071-2.283,1.036-2.373,1.958c-0.027,0.265,0.021,0.761,0.099,1.31c-0.36-0.074-0.202,0.752-0.19,1.014
			c0.021,0.275,0.116,0.703,0.414,0.62c0.146,1.125,0.622,1.483,0.622,1.483l-0.014,1.189c0.433,0.104,0.489,0.021,1.36,0.445
			c2.029,0.998,2.029,3.748,2.029,3.748s0,0,0,0.004c0,0.355-0.257,0.658-0.6,0.732h4.563c0.34,0,0.612-0.271,0.612-0.605
			c0,0,0,0,0-0.002C32.548,25.15,32.548,22.947,30.917,22.146z M12.034,25.244c0-0.004,0-0.004,0-0.004s0-2.773,2.035-3.782
			c0.869-0.433,0.928-0.349,1.359-0.449l-0.013-1.203c0,0,0.476-0.36,0.623-1.495c0.299,0.083,0.397-0.348,0.413-0.625
			c0.016-0.265,0.17-1.097-0.19-1.023c0.077-0.555,0.125-1.055,0.101-1.319c-0.092-0.931-0.993-1.906-2.379-1.977
			c-1.632,0.071-2.275,1.042-2.368,1.977c-0.024,0.264,0.032,0.764,0.104,1.319c-0.364-0.074-0.204,0.758-0.185,1.023
			c0.012,0.275,0.115,0.706,0.414,0.623c0.146,1.134,0.622,1.492,0.622,1.492L12.559,21c0,0-0.302,0.174-1.569,0.697
			c-1.267,0.521-0.869,0.129-1.902,0.641c-1.635,0.811-1.635,3.037-1.635,3.037c0,0.34,0.278,0.609,0.618,0.609h4.561
			C12.292,25.91,12.034,25.605,12.034,25.244z"/>
	</g>
</g>
</svg>
