<?xml version="1.0" encoding="utf-8"?>
<!-- Generator: Adobe Illustrator 16.0.0, SVG Export Plug-In . SVG Version: 6.00 Build 0)  -->
<!DOCTYPE svg PUBLIC "-//W3C//DTD SVG 1.1//EN" "http://www.w3.org/Graphics/SVG/1.1/DTD/svg11.dtd">
<svg version="1.1" id="Layer_2" xmlns="http://www.w3.org/2000/svg" xmlns:xlink="http://www.w3.org/1999/xlink" x="0px" y="0px"
	 width="500px" height="500px" viewBox="0 0 500 500" enable-background="new 0 0 500 500" xml:space="preserve">
<rect fill="#DDDDDD" width="500" height="500"/>
<g id="_x35_">
	<g>
		<g>
			<path fill="#6B6B6B" d="M243.964,469.913c-1.14-14.146-10.401-34.706-32.943-49.962c-7.481-5.066-11.77-10.395-12.755-15.834
				c-1.242-6.965,3.126-13.092,5.74-16.745c1.046-1.479,3.857-5.397,0.974-33.541l-0.336-3.283l-3.145,1.004
				c-13.352,4.268-25.26,10.229-35.391,17.73c-16.293,12.063-9.639,34.436-6.585,42.373c-11.271,3.412-53.12,16.095-72.262,22.229
				c-53.036,16.999-63.597,60.982-64.021,62.846L22.5,500h223.67l-0.188-2.854C245.981,497.146,244.98,482.302,243.964,469.913z"/>
			<path fill="#6B6B6B" d="M476.757,496.729c-0.427-1.859-10.987-45.845-64.021-62.844c-19.145-6.136-60.992-18.816-72.265-22.229
				c3.055-7.938,9.715-30.311-6.574-42.373c-10.131-7.502-22.039-13.465-35.398-17.73l-3.137-1.004l-0.336,3.283
				c-2.885,28.144-0.086,32.063,0.975,33.541c2.614,3.653,6.98,9.78,5.729,16.745c-0.974,5.439-5.271,10.768-12.742,15.834
				c-22.551,15.256-31.803,35.814-32.955,49.962c-1.004,12.389-2.006,27.231-2.006,27.231l-0.2,2.854H477.5L476.757,496.729z"/>
		</g>
		<g>
			<path fill="#6B6B6B" d="M249.996,370.87c-54.458,0-88.74-88.079-95.118-105.909c-0.929,0.323-2.008,0.568-3.191,0.568
				c-8.719,0-13.142-11.557-13.142-34.354c0-18.98,4.64-28.603,13.785-28.603c3.7,0,7.328,1.809,9.962,3.549
				c6.744-53.178,37.744-82.371,87.704-82.371c49.963,0,80.962,29.193,87.716,82.371c2.624-1.74,6.252-3.549,9.952-3.549
				c9.146,0,13.788,9.623,13.788,28.603c0,12.284-1.274,21.354-3.794,26.957c-2.75,6.111-6.607,7.396-9.348,7.396l0,0
				c-1.182,0-2.271-0.244-3.197-0.567C338.734,282.791,304.466,370.87,249.996,370.87z M157.693,256.592l1.233,3.701
				c0.355,1.057,35.617,105.226,91.069,105.226c55.483,0,90.726-104.169,91.071-105.226l1.231-3.701l3.011,2.482
				c0.377,0.294,1.687,1.104,3.002,1.104c1.692,0,3.196-1.427,4.465-4.24c2.203-4.905,3.324-13.233,3.324-24.762
				c0-8.681-1.1-23.25-8.438-23.25c-3.995,0-8.729,3.738-10.226,5.176l-3.982,3.862l-0.543-5.525
				c-6.609-68.053-48.741-82.334-82.917-82.334c-34.176,0-76.299,14.281-82.915,82.334l-0.533,5.5l-3.983-3.833
				c-1.503-1.442-6.261-5.18-10.234-5.18c-7.335,0-8.431,14.569-8.431,23.25c0,21.381,4.024,29.002,7.787,29.002
				c1.563,0,2.984-1.092,2.997-1.104L157.693,256.592z"/>
		</g>
		<g>
			<path fill="#6B6B6B" d="M259.186,500h-18.378l-0.166-2.499c0,0-1.001-14.792-2.006-27.161
				c-0.994-12.313-9.619-31.743-30.613-45.957c-8.729-5.899-13.778-12.404-15.021-19.313c-1.65-9.189,3.754-16.747,6.647-20.807
				c1.61-2.251,2.185-14.737-1.484-42.513l-1.127-8.624l5.781,6.49c30.651,34.37,63.709,34.37,94.362,0l5.795-6.49l-1.142,8.624
				c-3.672,27.773-3.085,40.262-1.476,42.513c2.896,4.06,8.289,11.615,6.639,20.807c-1.243,6.909-6.293,13.414-15.014,19.313
				c-21.002,14.214-29.616,33.644-30.623,45.957c-0.989,12.369-1.994,27.161-1.994,27.161L259.186,500z M245.803,494.648h8.387
				c0.332-4.745,1.086-15.435,1.841-24.735c1.149-14.146,10.403-34.706,32.952-49.962c7.476-5.066,11.771-10.395,12.744-15.834
				c1.254-6.965-3.112-13.092-5.729-16.745c-1.09-1.509-4.216-5.9-0.48-38.243c-29.349,28.865-61.693,28.865-91.04,0
				c3.744,32.343,0.605,36.734-0.472,38.243c-2.614,3.653-6.982,9.78-5.74,16.745c0.985,5.439,5.273,10.768,12.755,15.834
				c22.542,15.256,31.804,35.814,32.943,49.962C244.729,479.216,245.482,489.903,245.803,494.648z"/>
		</g>
		<path fill="#6B6B6B" d="M385.751,416.693c-4.653-0.377-7.862-2.081-9.517-5.056c-3.031-5.474-1.267-15.157,4.985-27.275
			c6.858-13.275-3.331-24.392-11.521-33.318c-5.706-6.215-10.621-11.578-8.563-15.511l1.191-2.247
			c7.338-13.812,18.42-34.694,9.439-49.665c-5.437-9.059-2.311-31.051,0.713-52.313c1.494-10.523,3.03-21.406,3.68-31.328
			c1.337-20.492-7.414-64.588-36.571-95.716c-21.304-22.734-49.198-34.265-82.903-34.265c-90.895,0-119.125,86.443-129.751,118.982
			c-0.831,2.552-1.56,4.774-2.193,6.593c-9.07,25.812-7.64,67.357,7.858,84.322c7.947,8.692,11.56,17.082,10.743,24.933
			c-0.774,7.407-5.583,14.334-14.296,20.596c-17.368,12.485-9.811,27.27-3.147,40.302c2.4,4.695,4.88,9.56,6.092,14.083
			c2.185,8.188-0.377,10.174-5.982,14.531c-4.337,3.377-10.282,8-15.165,17.294c-5.038,9.591-15.869,11.345-28.414,13.37
			c-11.496,1.861-24.527,3.976-34.574,13.018c-20.604,18.552-24.515,57.411-24.672,59.055L22.908,500h165.176l-1.453-3.669
			c-2.739-6.867-8.813-27.632-1.035-32.66c11.659-7.548,7.843-24.49,3.439-44.104c-0.53-2.372-1.089-4.801-1.61-7.25
			c-2.436-11.333,2.512-14.085,9.369-17.914c4.598-2.563,9.814-5.473,12.532-11.512c6.44-14.312-5.549-41.439-6.063-42.587
			l-0.446-0.688c-3.734-4.193-7.426-8.901-11.054-14.023c-9.729-20.334-8.979-45.767,2.053-69.759
			c11.446-24.872,31.593-43.303,53.914-49.294c39.442-10.589,59.602-39.968,65.603-50.254
			c10.756,13.565,17.344,32.095,19.581,55.152l0.543,5.5l3.982-3.833c1.494-1.442,6.252-5.18,10.226-5.18
			c7.339,0,8.438,14.569,8.438,23.25c0,21.38-4.027,28.997-7.791,29.002c-1.314,0-2.623-0.81-3-1.104l-3.012-2.481l-1.232,3.701
			c-0.156,0.479-16.313,48.408-43.891,79.323l-0.753,0.854l0.085,1.133c0.021,0.263,1.885,26.201-7.665,43.594
			c-5.97,10.882-8.76,32.155-2.172,50.136c4.058,11.035,11.069,18.743,20.291,22.277c5.709,2.185,9.691,5.82,11.854,10.819
			c5.125,11.854-1.267,27.729-1.327,27.883L315.975,500H476.82v-2.675C476.819,424.891,389.471,416.991,385.751,416.693z"/>
	</g>
</g>
</svg>
