<?xml version="1.0" encoding="utf-8"?>
<!-- Generator: Adobe Illustrator 16.0.0, SVG Export Plug-In . SVG Version: 6.00 Build 0)  -->
<!DOCTYPE svg PUBLIC "-//W3C//DTD SVG 1.1//EN" "http://www.w3.org/Graphics/SVG/1.1/DTD/svg11.dtd">
<svg version="1.1" id="Layer_1" xmlns="http://www.w3.org/2000/svg" xmlns:xlink="http://www.w3.org/1999/xlink" x="0px" y="0px"
	 width="11px" height="11px" viewBox="0 0 11 11" enable-background="new 0 0 11 11" xml:space="preserve">
<path fill="#397BBF" d="M11,4.75C11,4.336,10.664,4,10.25,4H7V0.75C7,0.336,6.664,0,6.25,0h-1.5C4.336,0,4,0.336,4,0.75V4H0.75
	C0.336,4,0,4.336,0,4.75v1.5C0,6.664,0.336,7,0.75,7H4v3.25C4,10.664,4.336,11,4.75,11h1.5C6.664,11,7,10.664,7,10.25V7h3.25
	C10.664,7,11,6.664,11,6.25V4.75z"/>
</svg>
