<?xml version="1.0" encoding="utf-8"?>
<!-- Generator: Adobe Illustrator 16.0.0, SVG Export Plug-In . SVG Version: 6.00 Build 0)  -->
<!DOCTYPE svg PUBLIC "-//W3C//DTD SVG 1.1//EN" "http://www.w3.org/Graphics/SVG/1.1/DTD/svg11.dtd">
<svg version="1.1" id="Capa_1" xmlns="http://www.w3.org/2000/svg" xmlns:xlink="http://www.w3.org/1999/xlink" x="0px" y="0px"
	 width="19.281px" height="15.674px" viewBox="456.308 458.121 19.281 15.674"
	 enable-background="new 456.308 458.121 19.281 15.674" xml:space="preserve">
<g>
	<path fill="none" stroke="#0080E8" stroke-width="0.5" stroke-miterlimit="10" d="M457.889,465.536
		c0.104,0.357,0.249,0.701,0.431,1.023l-0.52,0.655c-0.17,0.215-0.151,0.521,0.04,0.715l0.896,0.895
		c0.193,0.193,0.5,0.211,0.713,0.041l0.652-0.516c0.335,0.193,0.692,0.344,1.063,0.451l0.098,0.838
		c0.032,0.271,0.261,0.475,0.532,0.475h1.268c0.271,0,0.501-0.203,0.533-0.475l0.093-0.809c0.399-0.105,0.781-0.26,1.141-0.461
		l0.63,0.498c0.214,0.17,0.52,0.15,0.713-0.039l0.896-0.896c0.194-0.193,0.211-0.5,0.04-0.713l-0.49-0.623
		c0.205-0.352,0.363-0.728,0.47-1.121l0.757-0.087c0.271-0.032,0.475-0.262,0.475-0.533v-1.268c0-0.272-0.203-0.501-0.475-0.533
		l-0.747-0.087c-0.102-0.389-0.254-0.76-0.45-1.108l0.459-0.579c0.171-0.215,0.15-0.521-0.04-0.714l-0.894-0.894
		c-0.193-0.193-0.499-0.21-0.713-0.041l-0.563,0.446c-0.365-0.214-0.756-0.378-1.165-0.488l-0.086-0.728
		c-0.032-0.272-0.261-0.476-0.532-0.476h-1.268c-0.272,0-0.501,0.203-0.534,0.476l-0.084,0.728c-0.42,0.112-0.821,0.282-1.195,0.506
		l-0.584-0.464c-0.214-0.169-0.521-0.15-0.713,0.041l-0.896,0.896c-0.193,0.193-0.21,0.499-0.04,0.714l0.488,0.617
		c-0.195,0.354-0.344,0.729-0.441,1.119l-0.781,0.09c-0.271,0.031-0.476,0.261-0.476,0.533v1.267c0,0.272,0.204,0.502,0.476,0.533
		L457.889,465.536z M462.481,462.107c1.154,0,2.095,0.94,2.095,2.095c0,1.155-0.941,2.097-2.095,2.097
		c-1.155,0-2.096-0.941-2.096-2.097C460.385,463.048,461.326,462.107,462.481,462.107z"/>
	<path fill="#0080E8" d="M474.398,466.654l-0.582-0.491c-0.18-0.152-0.443-0.145-0.613,0.016l-0.322,0.302
		c-0.271-0.131-0.56-0.224-0.857-0.277l-0.09-0.443c-0.047-0.229-0.259-0.388-0.492-0.37l-0.759,0.065
		c-0.233,0.021-0.417,0.211-0.424,0.445l-0.015,0.45c-0.292,0.105-0.567,0.25-0.818,0.432l-0.385-0.256
		c-0.196-0.129-0.456-0.092-0.607,0.086l-0.492,0.586c-0.151,0.18-0.144,0.443,0.017,0.613l0.337,0.359
		c-0.117,0.262-0.2,0.537-0.248,0.82l-0.48,0.098c-0.229,0.047-0.389,0.26-0.37,0.492l0.065,0.76
		c0.02,0.232,0.211,0.416,0.445,0.424l0.52,0.016c0.094,0.248,0.218,0.482,0.367,0.701l-0.29,0.439
		c-0.13,0.195-0.092,0.455,0.087,0.607l0.582,0.492c0.179,0.15,0.443,0.143,0.613-0.018l0.381-0.357
		c0.25,0.117,0.512,0.205,0.782,0.256l0.104,0.521c0.047,0.229,0.26,0.389,0.492,0.369l0.76-0.064
		c0.232-0.02,0.416-0.211,0.423-0.445l0.017-0.51c0.277-0.098,0.539-0.23,0.781-0.396l0.42,0.277
		c0.196,0.131,0.456,0.094,0.607-0.086l0.492-0.582c0.151-0.18,0.145-0.443-0.017-0.613l-0.339-0.359
		c0.125-0.262,0.215-0.539,0.267-0.824l0.462-0.094c0.229-0.047,0.388-0.258,0.37-0.492l-0.065-0.76
		c-0.02-0.232-0.211-0.416-0.445-0.422l-0.463-0.016c-0.098-0.27-0.226-0.525-0.388-0.762l0.254-0.379
		C474.615,467.068,474.577,466.806,474.398,466.654z M471.535,471.044c-0.82,0.07-1.545-0.541-1.612-1.361
		c-0.07-0.82,0.541-1.545,1.361-1.613c0.821-0.07,1.546,0.541,1.614,1.361C472.968,470.251,472.355,470.976,471.535,471.044z"/>
</g>
</svg>
