<?xml version="1.0" encoding="utf-8"?>
<!-- Generator: Adobe Illustrator 16.0.0, SVG Export Plug-In . SVG Version: 6.00 Build 0)  -->
<!DOCTYPE svg PUBLIC "-//W3C//DTD SVG 1.1//EN" "http://www.w3.org/Graphics/SVG/1.1/DTD/svg11.dtd">
<svg version="1.1" id="Layer_1" xmlns="http://www.w3.org/2000/svg" xmlns:xlink="http://www.w3.org/1999/xlink" x="0px" y="0px"
	 width="23.709px" height="20px" viewBox="0 0 23.709 20" enable-background="new 0 0 23.709 20" xml:space="preserve">
<g>
	<g>
		<path fill="#EC4D24" d="M23.273,15.686l-9.081-14.39C13.681,0.484,12.807,0,11.854,0s-1.826,0.484-2.338,1.296l-9.081,14.39
			c-0.545,0.863-0.581,1.959-0.094,2.857C0.829,19.441,1.761,20,2.774,20h18.161c1.014,0,1.945-0.559,2.434-1.457
			C23.854,17.645,23.818,16.549,23.273,15.686z M12.547,15.965c-0.198,0.178-0.43,0.268-0.694,0.268
			c-0.269,0-0.504-0.088-0.705-0.265s-0.301-0.423-0.301-0.74c0-0.277,0.096-0.513,0.288-0.708c0.192-0.193,0.427-0.291,0.705-0.291
			s0.515,0.098,0.71,0.291c0.197,0.195,0.295,0.431,0.295,0.708C12.845,15.54,12.745,15.785,12.547,15.965z M12.798,8.532
			l-0.283,3.304c-0.031,0.394-0.098,0.695-0.199,0.904c-0.102,0.211-0.269,0.315-0.503,0.315c-0.238,0-0.403-0.102-0.496-0.305
			c-0.092-0.203-0.159-0.513-0.198-0.929l-0.212-3.21c-0.04-0.625-0.06-1.074-0.06-1.347c0-0.371,0.096-0.66,0.288-0.868
			c0.192-0.208,0.444-0.312,0.757-0.312c0.379,0,0.632,0.133,0.761,0.399c0.127,0.266,0.191,0.649,0.191,1.149
			C12.845,7.929,12.829,8.229,12.798,8.532z"/>
	</g>
</g>
</svg>
