<?xml version="1.0" encoding="utf-8"?>
<!-- Generator: Adobe Illustrator 16.0.0, SVG Export Plug-In . SVG Version: 6.00 Build 0)  -->
<!DOCTYPE svg PUBLIC "-//W3C//DTD SVG 1.1//EN" "http://www.w3.org/Graphics/SVG/1.1/DTD/svg11.dtd">
<svg version="1.1" id="Layer_1" xmlns="http://www.w3.org/2000/svg" xmlns:xlink="http://www.w3.org/1999/xlink" x="0px" y="0px"
	 width="12.998px" height="12.045px" viewBox="63.393 0 12.998 12.045" enable-background="new 63.393 0 12.998 12.045"
	 xml:space="preserve">
<path fill="#747474" d="M75.675,0.743c-0.461-0.465-1.073-0.721-1.729-0.721c-0.65,0-1.267,0.256-1.729,0.721l-6.476,6.533
	l-0.061,0.059l0.004,0.004c-0.251,0.299-0.389,0.674-0.389,1.067c0,0.44,0.172,0.856,0.479,1.169
	c0.313,0.313,0.725,0.484,1.16,0.484c0.438,0,0.854-0.172,1.16-0.484l4.25-4.297c0,0,0.188-0.187,0.034-0.358
	c-0.058-0.063-0.175-0.186-0.242-0.234c-0.181-0.125-0.34,0.039-0.34,0.039L67.55,9.022c-0.164,0.164-0.382,0.256-0.612,0.256
	c-0.229,0-0.447-0.092-0.609-0.256c-0.164-0.164-0.254-0.385-0.254-0.616c0-0.233,0.09-0.452,0.252-0.617l6.438-6.493
	c0.314-0.318,0.733-0.492,1.181-0.492c0.448,0,0.866,0.174,1.184,0.492c0.313,0.317,0.488,0.74,0.488,1.19
	c0,0.45-0.176,0.873-0.488,1.191l-6.479,6.531l-0.306,0.311c-0.463,0.465-1.078,0.726-1.732,0.726c-0.653,0-1.271-0.261-1.73-0.726
	c-0.463-0.469-0.717-1.088-0.717-1.748s0.254-1.278,0.717-1.748l3.764-3.816c0,0,0.156-0.146,0.021-0.301
	c-0.079-0.088-0.213-0.229-0.293-0.296c-0.142-0.115-0.276,0.048-0.276,0.048l-3.759,3.817c-0.608,0.614-0.943,1.427-0.943,2.296
	s0.335,1.688,0.943,2.301c0.606,0.613,1.419,0.951,2.28,0.951c0.86,0,1.673-0.338,2.278-0.951l6.781-6.837
	c0.462-0.465,0.716-1.084,0.716-1.743C76.389,1.827,76.135,1.208,75.675,0.743z"/>
</svg>
