<?xml version="1.0" encoding="utf-8"?>
<!DOCTYPE svg PUBLIC "-//W3C//DTD SVG 1.1//EN" "http://www.w3.org/Graphics/SVG/1.1/DTD/svg11.dtd">
<svg version="1.1" baseProfile="full"
 xmlns="http://www.w3.org/2000/svg"
 xmlns:xlink="http://www.w3.org/1999/xlink"
 xmlns:ev="http://www.w3.org/2001/xml-events" 
  height="32px" 
  width="36px" 
>
<path fill="rgb( 255, 255, 255 )"
 d="M34.021,1.923 C32.7449999999999,0.68299999999999 31.0450000000001,0 29.236,0 C27.426,0 25.727,0.68299999999999 24.451,1.923 C24.451,1.923 6.52099999999996,19.342 6.52099999999996,19.342 C6.52099999999996,19.342 6.36099999999999,19.501 6.36099999999999,19.501 C6.36099999999999,19.501 6.37099999999998,19.509 6.37099999999998,19.509 C5.67899999999997,20.304 5.29999999999995,21.307 5.29999999999995,22.355 C5.29999999999995,23.534 5.77300000000002,24.6420000000001 6.63099999999997,25.476 C7.48699999999997,26.308 8.62800000000004,26.766 9.84299999999996,26.766 C11.057,26.766 12.198,26.308 13.054,25.476 C13.054,25.476 24.819,14.014 24.819,14.014 C24.819,14.014 25.345,13.5170000000001 24.9160000000001,13.0599999999999 C24.759,12.893 24.4349999999999,12.564 24.2430000000001,12.437 C23.74,12.106 23.302,12.54 23.302,12.54 C23.302,12.54 11.538,24.002 11.538,24.002 C11.086,24.441 10.484,24.683 9.84299999999996,24.683 C9.202,24.683 8.60000000000002,24.441 8.14800000000002,24.002 C7.69500000000005,23.562 7.44600000000003,22.977 7.44600000000003,22.355 C7.44600000000003,21.735 7.69399999999996,21.151 8.14400000000001,20.712 C8.14400000000001,20.712 25.967,3.39599999999996 25.967,3.39599999999996 C26.8390000000001,2.54999999999995 28,2.08299999999997 29.236,2.08299999999997 C30.472,2.08299999999997 31.6320000000001,2.54999999999995 32.5039999999999,3.39599999999996 C33.376,4.24300000000005 33.855,5.37 33.855,6.57100000000003 C33.855,7.77200000000005 33.376,8.89999999999998 32.5039999999999,9.74699999999996 C32.5039999999999,9.74699999999996 14.571,27.164 14.571,27.164 C14.571,27.164 13.727,27.989 13.727,27.989 C12.448,29.232 10.744,29.917 8.92999999999995,29.917 C7.11599999999999,29.917 5.41200000000003,29.232 4.13199999999995,27.989 C2.851,26.744 2.14499999999998,25.0890000000001 2.14499999999998,23.328 C2.14499999999998,21.568 2.851,19.912 4.13199999999995,18.668 C4.13199999999995,18.668 14.547,8.48199999999997 14.547,8.48199999999997 C14.547,8.48199999999997 14.984,8.09100000000001 14.597,7.67999999999995 C14.377,7.44600000000003 14.009,7.06700000000001 13.787,6.88999999999999 C13.403,6.58299999999997 13.021,7.01800000000003 13.021,7.01800000000003 C13.021,7.01800000000003 2.61500000000001,17.194 2.61500000000001,17.194 C0.92899999999997,18.832 0,21.011 0,23.328 C0,25.646 0.92899999999997,27.824 2.61500000000001,29.463 C4.29899999999998,31.099 6.54200000000003,32 8.92999999999995,32 C11.317,32 13.5599999999999,31.099 15.244,29.463 C15.244,29.463 34.021,11.22 34.021,11.22 C35.297,9.98099999999999 36,8.32899999999995 36,6.57100000000003 C36,4.81299999999999 35.297,3.16200000000003 34.021,1.923 Z "/>
</svg>
