<?xml version="1.0" encoding="utf-8"?>
<!-- Generator: Adobe Illustrator 16.0.0, SVG Export Plug-In . SVG Version: 6.00 Build 0)  -->
<!DOCTYPE svg PUBLIC "-//W3C//DTD SVG 1.1//EN" "http://www.w3.org/Graphics/SVG/1.1/DTD/svg11.dtd">
<svg version="1.1" id="Layer_1" xmlns="http://www.w3.org/2000/svg" xmlns:xlink="http://www.w3.org/1999/xlink" x="0px" y="0px"
	 width="15px" height="12.743px" viewBox="7.5 8.628 15 12.743" enable-background="new 7.5 8.628 15 12.743" xml:space="preserve">
<g>
	<g id="cart">
		<path fill="#FFFFFF" d="M7.543,10.991l2.557,6.695c0.094,0.252,0.333,0.413,0.598,0.415l6.821,0.019
			c0.266,0,0.505-0.161,0.604-0.41l2.495-6.439l0.683-1.051l0.402,0.006c0.441,0.001,0.797-0.354,0.797-0.792
			c0.001-0.439-0.352-0.795-0.794-0.797l-0.753-0.008c-0.228,0-0.438,0.096-0.592,0.263l-1.036,1.255l-11.18-0.028
			c-0.21,0-0.41,0.104-0.53,0.279C7.493,10.572,7.466,10.792,7.543,10.991z M10.957,15.313l5.945,0.015v0.858l-5.947-0.02
			L10.957,15.313z M10.186,13.503l7.75,0.021l-0.003,0.856l-7.749-0.02L10.186,13.503z M9.51,11.684l9.168,0.024l-0.001,0.857
			l-9.169-0.025L9.51,11.684z"/>
		<circle fill="#FFFFFF" cx="16.518" cy="20.084" r="1.287"/>
		<circle fill="#FFFFFF" cx="11.787" cy="20.071" r="1.286"/>
	</g>
</g>
</svg>
