<?xml version="1.0" encoding="utf-8"?>
<!-- Generator: Adobe Illustrator 16.0.0, SVG Export Plug-In . SVG Version: 6.00 Build 0)  -->
<!DOCTYPE svg PUBLIC "-//W3C//DTD SVG 1.1//EN" "http://www.w3.org/Graphics/SVG/1.1/DTD/svg11.dtd">
<svg version="1.1" id="Layer_1" xmlns="http://www.w3.org/2000/svg" xmlns:xlink="http://www.w3.org/1999/xlink" x="0px" y="0px"
	 width="12.992px" height="11px" viewBox="0 0 12.992 11" enable-background="new 0 0 12.992 11" xml:space="preserve">
<path fill="#505150" d="M11,6.266c0-0.102-0.063-0.188-0.156-0.227c-0.031-0.016-0.063-0.023-0.094-0.023
	c-0.063,0-0.125,0.023-0.18,0.078l-0.5,0.5C10.023,6.641,10,6.703,10,6.766V8.75C10,9.438,9.438,10,8.75,10h-6.5
	C1.563,10,1,9.438,1,8.75v-6.5C1,1.563,1.563,1,2.25,1h6.5c0.117,0,0.234,0.016,0.352,0.047c0.023,0.008,0.047,0.016,0.07,0.016
	c0.063,0,0.133-0.031,0.18-0.078l0.383-0.383c0.063-0.063,0.086-0.141,0.07-0.227c-0.016-0.078-0.07-0.148-0.141-0.18
	C9.375,0.063,9.063,0,8.75,0h-6.5C1.008,0,0,1.008,0,2.25v6.5C0,9.992,1.008,11,2.25,11h6.5C9.992,11,11,9.992,11,8.75V6.266z
	 M12.805,2.445c0.25-0.25,0.25-0.641,0-0.891l-0.859-0.859c-0.25-0.25-0.641-0.25-0.891,0L6,5.75L3.945,3.695
	c-0.25-0.25-0.641-0.25-0.891,0L2.195,4.555c-0.25,0.25-0.25,0.641,0,0.891l3.359,3.359c0.25,0.25,0.641,0.25,0.891,0L12.805,2.445z
	"/>
</svg>
