<?xml version="1.0" encoding="utf-8"?>
<!-- Generator: Adobe Illustrator 16.0.0, SVG Export Plug-In . SVG Version: 6.00 Build 0)  -->
<!DOCTYPE svg PUBLIC "-//W3C//DTD SVG 1.1//EN" "http://www.w3.org/Graphics/SVG/1.1/DTD/svg11.dtd">
<svg version="1.1" id="Layer_1" xmlns="http://www.w3.org/2000/svg" xmlns:xlink="http://www.w3.org/1999/xlink" x="0px" y="0px"
	 width="32px" height="32px" viewBox="0 0 32 32" enable-background="new 0 0 32 32" xml:space="preserve">
<path fill-rule="evenodd" clip-rule="evenodd" fill="#EC4D24" d="M16,32c14.188-3.837,16-15.729,16-19.653
	C32,8.423,30.786,4.29,27.585,0C25.176,0.942,19.915,1.361,16,0C12.086,1.361,6.824,0.942,4.415,0C1.214,4.29,0,8.423,0,12.347
	C0,16.271,1.813,28.163,16,32z"/>
<g>
	<g id="cart">
		<path fill="#FFFFFF" d="M5.49,9.812l3.946,10.335c0.146,0.388,0.516,0.636,0.924,0.639l10.529,0.031
			c0.41,0,0.778-0.248,0.932-0.634l3.852-9.937l1.055-1.625l0.62,0.009c0.682,0.003,1.229-0.546,1.229-1.221
			c0.003-0.678-0.542-1.227-1.225-1.23l-1.163-0.012c-0.353,0-0.675,0.147-0.913,0.404L23.677,8.51L6.418,8.467
			c-0.323,0-0.632,0.159-0.816,0.431C5.413,9.167,5.371,9.504,5.49,9.812z M10.76,16.483l9.177,0.023v1.324l-9.18-0.03L10.76,16.483
			z M9.568,13.689l11.963,0.033l-0.003,1.32l-11.963-0.03L9.568,13.689z M8.525,10.881l14.151,0.037l-0.001,1.324l-14.153-0.04
			L8.525,10.881z"/>
		<circle fill="#FFFFFF" cx="19.343" cy="23.849" r="1.987"/>
		<circle fill="#FFFFFF" cx="12.041" cy="23.829" r="1.986"/>
	</g>
</g>
</svg>
