<?xml version="1.0" encoding="utf-8"?>
<!-- Generator: Adobe Illustrator 16.0.0, SVG Export Plug-In . SVG Version: 6.00 Build 0)  -->
<!DOCTYPE svg PUBLIC "-//W3C//DTD SVG 1.1//EN" "http://www.w3.org/Graphics/SVG/1.1/DTD/svg11.dtd">
<svg version="1.1" id="Layer_1" xmlns:ev="http://www.w3.org/2001/xml-events"
	 xmlns="http://www.w3.org/2000/svg" xmlns:xlink="http://www.w3.org/1999/xlink" x="0px" y="0px" width="16px" height="15.563px"
	 viewBox="0 -1.281 16 15.563" enable-background="new 0 -1.281 16 15.563" xml:space="preserve">
<g>
	<path fill="#4C4F5E" d="M11.564,6.5l3.852-3.852c0.244-0.244,0.365-0.541,0.365-0.891s-0.121-0.646-0.365-0.891l-1.783-1.781
		c-0.244-0.245-0.541-0.367-0.891-0.367s-0.646,0.122-0.891,0.367L8,2.937L4.149-0.914C3.905-1.159,3.608-1.281,3.258-1.281
		c-0.349,0-0.646,0.122-0.891,0.367L0.586,0.867C0.341,1.111,0.219,1.408,0.219,1.758s0.123,0.646,0.367,0.891L4.437,6.5
		l-3.851,3.852c-0.245,0.244-0.367,0.541-0.367,0.891s0.123,0.646,0.367,0.891l1.782,1.783c0.244,0.244,0.542,0.365,0.891,0.365
		c0.35,0,0.646-0.121,0.891-0.365L8,10.064l3.852,3.852c0.246,0.244,0.541,0.365,0.893,0.365c0.348,0,0.645-0.121,0.891-0.365
		l1.781-1.783c0.244-0.244,0.365-0.541,0.365-0.891s-0.121-0.646-0.365-0.891L11.564,6.5z"/>
</g>
</svg>
