<?xml version="1.0" encoding="utf-8"?>
<!-- Generator: Adobe Illustrator 16.0.0, SVG Export Plug-In . SVG Version: 6.00 Build 0)  -->
<!DOCTYPE svg PUBLIC "-//W3C//DTD SVG 1.1//EN" "http://www.w3.org/Graphics/SVG/1.1/DTD/svg11.dtd">
<svg version="1.1" id="Layer_1" xmlns="http://www.w3.org/2000/svg" xmlns:xlink="http://www.w3.org/1999/xlink" x="0px" y="0px"
	 width="18.926px" height="23.564px" viewBox="0 0 18.926 23.564" enable-background="new 0 0 18.926 23.564" xml:space="preserve">
<g>
	<g>
		<path fill="#757575" d="M16.997,0H1.932C0.87,0,0,0.869,0,1.931v19.7c0,1.063,0.869,1.933,1.932,1.933h15.064
			c1.062,0,1.93-0.869,1.93-1.933V1.834C18.926,0.772,18.058,0,16.997,0z M17.672,21.632c0,0.289-0.291,0.579-0.58,0.579H2.028
			c-0.29,0-0.578-0.29-0.578-0.579V1.834c0-0.29,0.289-0.579,0.578-0.579h15.064c0.289,0,0.58,0.289,0.58,0.579V21.632z"/>
		<rect x="3.477" y="2.994" fill="#757575" width="12.07" height="1.738"/>
		<polygon fill="#757575" points="14.872,7.725 6.374,7.725 6.374,8.788 14.874,8.788 14.874,7.725 		"/>
		<rect x="6.374" y="10.14" fill="#757575" width="8.5" height="1.063"/>
		<rect x="6.374" y="12.554" fill="#757575" width="8.5" height="1.063"/>
		<rect x="6.374" y="14.968" fill="#757575" width="8.5" height="1.063"/>
		<rect x="3.477" y="18.059" fill="#757575" width="12.07" height="1.063"/>
	</g>
</g>
</svg>
