<?xml version="1.0" encoding="utf-8"?>
<!-- Generator: Adobe Illustrator 16.0.0, SVG Export Plug-In . SVG Version: 6.00 Build 0)  -->
<!DOCTYPE svg PUBLIC "-//W3C//DTD SVG 1.1//EN" "http://www.w3.org/Graphics/SVG/1.1/DTD/svg11.dtd">
<svg version="1.1" id="Layer_1" xmlns:ev="http://www.w3.org/2001/xml-events"
	 xmlns="http://www.w3.org/2000/svg" xmlns:xlink="http://www.w3.org/1999/xlink" x="0px" y="0px" width="161.561px"
	 height="18.983px" viewBox="0 1.017 161.561 18.983" enable-background="new 0 1.017 161.561 18.983" xml:space="preserve">
<path fill="#747474" d="M50.223,1.939l-3.936,14.293c-0.223,0.806-0.407,1.465-0.411,1.463s-0.008-0.016-0.008-0.021
	c-0.001-0.004-0.644-0.266-1.427-0.581l-2.582-1.037c-0.783-0.316-2.072-0.822-2.859-1.123l-0.273-0.105
	c-0.787-0.303-0.959-1.051-0.379-1.659l7.991-8.453c0.578-0.611,0.507-0.688-0.157-0.17L36.07,12.422
	c-0.668,0.516-1.858,0.684-2.644,0.376L31.1,11.889c-0.787-0.309-0.817-0.878-0.068-1.266l18.232-9.447
	C50.014,0.789,50.445,1.131,50.223,1.939z M8.469,18.573C7.533,19.493,6.287,20,4.961,20c-1.327,0-2.572-0.507-3.508-1.427
	C0.516,17.65,0,16.426,0,15.122s0.516-2.529,1.453-3.45l5.781-5.724c0,0,0.212-0.245,0.426-0.072C7.783,5.975,7.987,6.188,8.11,6.32
	c0.214,0.231-0.028,0.451-0.028,0.451l-5.786,5.73c-0.712,0.7-1.104,1.631-1.104,2.621c0,0.989,0.392,1.922,1.104,2.622
	c0.711,0.699,1.657,1.084,2.665,1.084s1.955-0.385,2.665-1.084l0.469-0.465l9.963-9.796c0.484-0.477,0.751-1.111,0.751-1.787
	c0-0.675-0.267-1.309-0.751-1.786c-0.484-0.476-1.129-0.738-1.816-0.738s-1.331,0.262-1.816,0.738l-9.902,9.74
	c-0.25,0.248-0.387,0.576-0.387,0.925c0,0.35,0.138,0.679,0.39,0.926c0.251,0.247,0.585,0.383,0.941,0.383
	c0.356,0,0.691-0.136,0.942-0.383l6.536-6.447c0,0,0.243-0.244,0.522-0.058c0.107,0.071,0.287,0.256,0.374,0.35
	c0.238,0.257-0.054,0.537-0.054,0.537L7.252,16.33c-0.475,0.468-1.109,0.727-1.784,0.727c-0.675,0-1.308-0.259-1.784-0.727
	c-0.477-0.469-0.739-1.092-0.739-1.755c0-0.591,0.21-1.154,0.594-1.601l-0.005-0.006l0.089-0.089l9.961-9.799
	C14.293,2.384,15.237,2,16.242,2c1.005,0,1.95,0.384,2.659,1.081C19.61,3.779,20,4.708,20,5.697c0,0.988-0.39,1.917-1.099,2.615
	L8.469,18.573z M36.645,15.064l1.785,0.722c0.783,0.317,1.047,1.149,0.584,1.85c0,0-1.639,2.48-1.591,2.343
	c0.045-0.14-1.612-4.086-1.612-4.086C35.484,15.118,35.861,14.747,36.645,15.064z"/>
<g id="search">
	<path fill="#747474" d="M67.848,5.227c-2.031,0-3.656,1.625-3.656,3.657c0,2.03,1.625,3.655,3.656,3.655
		c2.03,0,3.655-1.625,3.655-3.655C71.503,6.852,69.878,5.227,67.848,5.227L67.848,5.227z M75.599,14.91
		c0.238,0.234,0.374,0.541,0.374,0.881c0,0.676-0.542,1.217-1.219,1.217c-0.339,0-0.644-0.137-0.847-0.373l0,0l-3.59-3.553
		c-0.711,0.438-1.557,0.676-2.471,0.676c-2.674,0-4.874-2.166-4.874-4.874c0-2.676,2.2-4.876,4.875-4.876
		c2.709,0,4.875,2.2,4.875,4.876c0,0.913-0.239,1.76-0.677,2.471L75.599,14.91z"/>
</g>
<path fill="#747474" d="M92.663,14.258c0,0.141-0.109,0.25-0.25,0.25h-0.5c-0.141,0-0.25-0.109-0.25-0.25v-5.5
	c0-0.141,0.109-0.25,0.25-0.25h0.5c0.141,0,0.25,0.109,0.25,0.25V14.258z M94.663,14.258c0,0.141-0.109,0.25-0.25,0.25h-0.5
	c-0.141,0-0.25-0.109-0.25-0.25v-5.5c0-0.141,0.109-0.25,0.25-0.25h0.5c0.141,0,0.25,0.109,0.25,0.25V14.258z M96.663,14.258
	c0,0.141-0.109,0.25-0.25,0.25h-0.5c-0.141,0-0.25-0.109-0.25-0.25v-5.5c0-0.141,0.109-0.25,0.25-0.25h0.5
	c0.141,0,0.25,0.109,0.25,0.25V14.258z M92.413,6.508l0.383-0.914c0.023-0.031,0.086-0.078,0.133-0.086h2.477
	c0.039,0.008,0.109,0.055,0.133,0.086l0.375,0.914H92.413z M99.663,6.758c0-0.141-0.109-0.25-0.25-0.25h-2.414l-0.547-1.305
	c-0.156-0.383-0.625-0.695-1.039-0.695h-2.5c-0.414,0-0.883,0.313-1.039,0.695l-0.547,1.305h-2.414c-0.141,0-0.25,0.109-0.25,0.25
	v0.5c0,0.141,0.109,0.25,0.25,0.25h0.75v7.437c0,0.859,0.563,1.563,1.25,1.563h6.5c0.688,0,1.25-0.734,1.25-1.594V7.508h0.75
	c0.141,0,0.25-0.109,0.25-0.25V6.758z"/>
<g>
	<path fill="#747474" d="M119.756,10.893c0-0.345,0.271-0.742,0.271-0.742c1.173-1.656,1.115-3.013,1.115-3.013
		c0-2.888-2.984-2.927-2.984-2.927s-2.985,0.039-2.985,2.927c0,0-0.058,1.356,1.114,3.013c0,0,0.271,0.397,0.271,0.742
		c0,0.343-0.514,0.687-1.463,1.031c0,0-1.492,0.475-2.33,1.939c0,0-0.407,0.75-0.407,1.143c0,0-0.106,0.48,0.804,0.543
		c0,0,1.75,0.164,4.996,0.164c1.242,0,2.266-0.023,3.055-0.053c-0.187-0.389-0.292-0.822-0.292-1.275
		c0-0.844,0.365-1.615,0.942-2.164c-0.374-0.211-0.644-0.297-0.644-0.297C120.27,11.58,119.756,11.236,119.756,10.893z"/>
	<polygon fill="#747474" points="127.354,13.902 124.925,13.902 124.925,11.473 124.452,11.473 124.452,13.902 122.023,13.902 
		122.023,14.375 124.452,14.375 124.452,16.805 124.925,16.805 124.925,14.375 127.354,14.375 	"/>
</g>
<path fill="#FFFFFF" d="M145.619,9.347c0-0.045-0.022-0.096-0.057-0.129l-0.278-0.279c-0.034-0.033-0.084-0.056-0.129-0.056
	c-0.044,0-0.095,0.022-0.128,0.056l-2.195,2.196l-2.195-2.196c-0.033-0.033-0.083-0.056-0.128-0.056
	c-0.05,0-0.095,0.022-0.128,0.056l-0.279,0.279c-0.033,0.033-0.057,0.084-0.057,0.129c0,0.044,0.023,0.095,0.057,0.128l2.602,2.603
	c0.034,0.033,0.084,0.055,0.129,0.055s0.096-0.021,0.129-0.055l2.602-2.603C145.597,9.442,145.619,9.391,145.619,9.347z"/>
<path fill="none" d="M158.775,7.721c-0.045,0-0.096,0.022-0.129,0.057l-0.279,0.278c-0.033,0.034-0.057,0.084-0.057,0.129
	c0,0.044,0.023,0.095,0.057,0.128l2.195,2.195l-2.195,2.195c-0.033,0.033-0.057,0.083-0.057,0.128c0,0.05,0.023,0.095,0.057,0.128
	l0.279,0.279c0.033,0.033,0.084,0.057,0.129,0.057c0.043,0,0.094-0.023,0.127-0.057l2.604-2.602
	c0.033-0.034,0.055-0.084,0.055-0.129s-0.021-0.096-0.055-0.129l-2.604-2.602C158.869,7.743,158.818,7.721,158.775,7.721z"/>
</svg>
