<?xml version="1.0" encoding="utf-8"?>
<!-- Generator: Adobe Illustrator 16.0.0, SVG Export Plug-In . SVG Version: 6.00 Build 0)  -->
<!DOCTYPE svg PUBLIC "-//W3C//DTD SVG 1.1//EN" "http://www.w3.org/Graphics/SVG/1.1/DTD/svg11.dtd">
<svg version="1.1" id="Layer_1" xmlns="http://www.w3.org/2000/svg" xmlns:xlink="http://www.w3.org/1999/xlink" x="0px" y="0px"
	 width="76.391px" height="12.045px" viewBox="0 0 76.391 12.045" enable-background="new 0 0 76.391 12.045" xml:space="preserve">
<g id="InviteKinnectors">
	<g>
		<path fill="#FFFFFF" d="M28.082,7.59c-0.517-0.253-0.799-0.507-0.799-0.76c0-0.351,0.276-0.755,0.276-0.755
			c1.196-1.69,1.136-3.072,1.136-3.072c0-2.943-3.042-2.983-3.042-2.983s-3.042,0.04-3.042,2.983c0,0-0.06,1.384,1.136,3.072
			c0,0,0.277,0.405,0.277,0.755c0,0.351-0.523,0.701-1.491,1.052c0,0-1.521,0.484-2.375,1.977c0,0-0.415,0.764-0.415,1.163
			c0,0-0.109,0.49,0.82,0.554c0,0,1.782,0.169,5.09,0.169c1.21,0,2.19-0.023,2.975-0.053C27.723,10.573,27.544,8.928,28.082,7.59z"
			/>
	</g>
</g>
<g>
	<g>
		<polygon fill-rule="evenodd" clip-rule="evenodd" fill="#FFFFFF" points="34.816,8.166 32.89,8.166 32.89,6.24 30.962,6.24 
			30.962,8.166 29.036,8.166 29.036,10.094 30.962,10.094 30.962,12.02 32.89,12.02 32.89,10.094 34.816,10.094 		"/>
	</g>
</g>
<g>
	<path fill="#FFFFFF" d="M5.281,1.026c0-0.129-0.003-0.258,0-0.386c0.005-0.38,0.244-0.619,0.625-0.618
		C6.03,0.023,6.154,0.018,6.274,0.039c0.263,0.044,0.452,0.27,0.458,0.535C6.739,0.823,6.739,1.072,6.736,1.32
		C6.729,1.834,7.034,2.296,7.506,2.48C7.988,2.668,8.52,2.537,8.867,2.152c0.153-0.171,0.318-0.334,0.486-0.493
		c0.22-0.205,0.563-0.202,0.781,0.001c0.081,0.076,0.159,0.156,0.235,0.236c0.214,0.227,0.212,0.576-0.007,0.801
		c-0.167,0.172-0.341,0.339-0.51,0.51c-0.35,0.35-0.465,0.767-0.316,1.237c0.146,0.476,0.486,0.758,0.979,0.836
		c0.188,0.03,0.385,0.013,0.576,0.016c0.131,0.003,0.26-0.005,0.388,0.007c0.313,0.024,0.53,0.262,0.537,0.575
		c0.001,0.093,0.001,0.187,0,0.28c-0.004,0.341-0.249,0.586-0.587,0.589c-0.24,0.002-0.479,0.003-0.722,0.001
		c-0.5-0.004-0.946,0.293-1.14,0.751c-0.188,0.459-0.08,0.979,0.28,1.334c0.162,0.16,0.322,0.32,0.483,0.482
		C10.6,9.58,10.6,9.922,10.337,10.187c-0.063,0.063-0.123,0.125-0.188,0.188c-0.233,0.228-0.583,0.228-0.813-0.003
		c-0.167-0.163-0.33-0.331-0.487-0.502C8.502,9.494,7.967,9.371,7.496,9.56c-0.47,0.188-0.771,0.652-0.764,1.157
		c0.005,0.243,0.003,0.485-0.001,0.728c-0.006,0.322-0.231,0.561-0.559,0.574c-0.114,0.006-0.231,0.006-0.35-0.002
		C5.531,12,5.307,11.787,5.289,11.492c-0.017-0.257-0.015-0.515-0.008-0.771C5.29,10.199,4.986,9.737,4.5,9.551
		C4.018,9.366,3.48,9.509,3.138,9.901c-0.151,0.176-0.316,0.339-0.486,0.494c-0.218,0.201-0.56,0.188-0.773-0.019
		c-0.076-0.069-0.149-0.146-0.226-0.222C1.43,9.922,1.43,9.577,1.656,9.343c0.171-0.176,0.346-0.348,0.519-0.523
		C2.53,8.462,2.632,7.946,2.439,7.491C2.244,7.036,1.8,6.746,1.304,6.748C1.064,6.75,0.823,6.75,0.583,6.746
		C0.256,6.744,0.011,6.506,0.002,6.18c-0.003-0.114-0.004-0.229,0.001-0.342C0.019,5.56,0.233,5.324,0.508,5.306
		c0.264-0.017,0.526-0.012,0.789-0.011c0.5,0.003,0.943-0.28,1.14-0.735C2.63,4.103,2.532,3.588,2.18,3.23
		C2.014,3.061,1.846,2.894,1.679,2.725C1.42,2.464,1.421,2.121,1.68,1.861c0.058-0.059,0.113-0.116,0.174-0.174
		c0.247-0.24,0.596-0.242,0.84-0.001c0.165,0.162,0.327,0.326,0.485,0.495c0.345,0.365,0.88,0.484,1.346,0.295
		C4.991,2.287,5.29,1.83,5.281,1.324C5.279,1.225,5.281,1.125,5.281,1.026L5.281,1.026z M6.013,8.531
		c1.39-0.005,2.514-1.132,2.509-2.516c-0.005-1.388-1.134-2.506-2.522-2.5c-1.388,0.006-2.504,1.129-2.5,2.515
		C3.503,7.414,4.629,8.535,6.013,8.531z"/>
	<path fill="#FFFFFF" d="M6.013,6.996C5.472,6.998,5.033,6.563,5.031,6.025C5.029,5.49,5.469,5.048,6.006,5.044
		C6.543,5.043,6.985,5.481,6.986,6.02C6.99,6.556,6.552,6.995,6.013,6.996z"/>
</g>
<g>
	<path fill="#FFFFFF" d="M50.628,6.022l3.547-3.547c0.563-0.562,0.563-1.471,0-2.032c-0.563-0.561-1.472-0.561-2.03,0l-3.548,3.548
		l-3.548-3.548c-0.563-0.561-1.473-0.561-2.031,0c-0.563,0.562-0.563,1.472,0,2.032l3.547,3.547l-3.548,3.547
		c-0.563,0.562-0.563,1.472,0,2.031c0.279,0.278,0.646,0.422,1.018,0.422c0.368,0,0.734-0.144,1.018-0.422L48.6,8.054l3.548,3.549
		c0.279,0.276,0.647,0.42,1.018,0.42s0.733-0.144,1.018-0.42c0.563-0.563,0.563-1.476,0-2.033L50.628,6.022z"/>
</g>
<path fill="#747474" d="M75.675,0.743c-0.461-0.465-1.073-0.721-1.729-0.721c-0.651,0-1.267,0.256-1.729,0.721l-6.476,6.533
	l-0.06,0.059l0.004,0.004c-0.251,0.299-0.389,0.674-0.389,1.067c0,0.44,0.172,0.856,0.479,1.169c0.312,0.313,0.724,0.484,1.16,0.484
	c0.438,0,0.854-0.172,1.16-0.484l4.25-4.297c0,0,0.188-0.187,0.034-0.358c-0.057-0.063-0.175-0.186-0.242-0.234
	c-0.181-0.125-0.34,0.039-0.34,0.039l-4.247,4.297c-0.164,0.164-0.382,0.256-0.612,0.256s-0.448-0.092-0.61-0.256
	c-0.164-0.164-0.254-0.385-0.254-0.616c0-0.233,0.09-0.452,0.252-0.617l6.438-6.493c0.314-0.318,0.733-0.492,1.181-0.492
	c0.448,0,0.866,0.174,1.183,0.492c0.313,0.317,0.488,0.74,0.488,1.19c0,0.45-0.175,0.873-0.488,1.191l-6.479,6.531l-0.306,0.311
	c-0.463,0.465-1.078,0.725-1.732,0.725s-1.271-0.26-1.731-0.725c-0.463-0.469-0.717-1.088-0.717-1.748s0.254-1.279,0.717-1.748
	l3.764-3.817c0,0,0.156-0.146,0.02-0.301c-0.079-0.088-0.213-0.229-0.293-0.296c-0.141-0.115-0.276,0.048-0.276,0.048l-3.759,3.817
	c-0.608,0.614-0.943,1.428-0.943,2.297s0.335,1.688,0.943,2.301c0.607,0.613,1.419,0.951,2.28,0.951s1.673-0.338,2.279-0.951
	l6.781-6.838c0.462-0.465,0.716-1.084,0.716-1.743C76.389,1.827,76.135,1.208,75.675,0.743z"/>
</svg>
