<?xml version="1.0" encoding="utf-8"?>
<!DOCTYPE svg PUBLIC "-//W3C//DTD SVG 1.1//EN" "http://www.w3.org/Graphics/SVG/1.1/DTD/svg11.dtd">
<svg version="1.1" baseProfile="full"
 xmlns="http://www.w3.org/2000/svg"
 xmlns:xlink="http://www.w3.org/1999/xlink"
 xmlns:ev="http://www.w3.org/2001/xml-events" 
  height="13px" 
  width="16px" 
>
<path fill="rgb( 76, 79, 94 )"
 d="M15.777,3.26100000000002 C15.777,3.00999999999999 15.6769999999999,2.75900000000001 15.4960000000001,2.57799999999997 C15.4960000000001,2.57799999999997 14.1310000000001,1.21300000000002 14.1310000000001,1.21300000000002 C13.95,1.03199999999998 13.6990000000001,0.93200000000002 13.4480000000001,0.93200000000002 C13.1969999999999,0.93200000000002 12.9459999999999,1.03199999999998 12.7650000000001,1.21300000000002 C12.7650000000001,1.21300000000002 6.17900000000009,7.80900000000003 6.17900000000009,7.80900000000003 C6.17900000000009,7.80900000000003 3.22700000000009,4.84699999999998 3.22700000000009,4.84699999999998 C3.04600000000005,4.66699999999997 2.79500000000007,4.56599999999997 2.5440000000001,4.56599999999997 C2.29299999999989,4.56599999999997 2.04199999999992,4.66699999999997 1.8610000000001,4.84699999999998 C1.8610000000001,4.84699999999998 0.49600000000009,6.21300000000002 0.49600000000009,6.21300000000002 C0.31500000000005,6.39299999999997 0.21499999999992,6.64499999999998 0.21499999999992,6.89600000000002 C0.21499999999992,7.14699999999999 0.31500000000005,7.39800000000002 0.49600000000009,7.57799999999997 C0.49600000000009,7.57799999999997 4.13100000000009,11.213 4.13100000000009,11.213 C4.13100000000009,11.213 5.49600000000009,12.578 5.49600000000009,12.578 C5.67699999999991,12.759 5.92800000000011,12.859 6.17900000000009,12.859 C6.43000000000006,12.859 6.68100000000004,12.759 6.86200000000008,12.578 C6.86200000000008,12.578 8.22700000000009,11.213 8.22700000000009,11.213 C8.22700000000009,11.213 15.4960000000001,3.94400000000002 15.4960000000001,3.94400000000002 C15.6769999999999,3.76299999999998 15.777,3.512 15.777,3.26100000000002 Z "/>
</svg>
