<?xml version="1.0" encoding="utf-8"?>
<!-- Generator: Adobe Illustrator 16.0.0, SVG Export Plug-In . SVG Version: 6.00 Build 0)  -->
<!DOCTYPE svg PUBLIC "-//W3C//DTD SVG 1.1//EN" "http://www.w3.org/Graphics/SVG/1.1/DTD/svg11.dtd">
<svg version="1.1" id="Layer_1" xmlns="http://www.w3.org/2000/svg" xmlns:xlink="http://www.w3.org/1999/xlink" x="0px" y="0px"
	 width="260.686px" height="42px" viewBox="0 0 260.686 42" enable-background="new 0 0 260.686 42" xml:space="preserve">
<g>
	<circle fill="#F5F5F5" cx="21" cy="21" r="21"/>
	<path fill="#747474" d="M28.781,17.363c0-0.251-0.101-0.502-0.281-0.683l-1.365-1.365c-0.181-0.181-0.432-0.281-0.683-0.281
		s-0.503,0.1-0.683,0.281l-6.586,6.596l-2.952-2.961c-0.181-0.18-0.432-0.281-0.683-0.281s-0.502,0.101-0.683,0.281L13.5,20.315
		c-0.181,0.18-0.281,0.432-0.281,0.683c0,0.25,0.1,0.502,0.281,0.682l3.635,3.635l1.365,1.365c0.181,0.181,0.432,0.281,0.683,0.281
		c0.251,0,0.502-0.101,0.683-0.281l1.365-1.365l7.269-7.269C28.681,17.865,28.781,17.614,28.781,17.363z"/>
</g>
<g>
	<circle fill="#F5F5F5" cx="79.473" cy="21" r="21"/>
	<g>
		<g>
			<path fill="#747474" d="M86.732,26.213l-3.359-3.354c-0.011-0.01-0.021-0.021-0.029-0.027c0.589-0.951,0.931-2.071,0.931-3.27
				c0-3.435-2.8-6.229-6.24-6.229c-3.442,0-6.242,2.794-6.242,6.229s2.8,6.229,6.242,6.229c1.199,0,2.321-0.34,3.274-0.928
				c0.009,0.009,0.019,0.019,0.027,0.027l3.36,3.354c0.281,0.279,0.65,0.42,1.019,0.42c0.369,0,0.738-0.141,1.019-0.42
				C87.295,27.686,87.295,26.773,86.732,26.213z M78.033,23.875c-2.384,0-4.321-1.936-4.321-4.313c0-2.378,1.938-4.313,4.321-4.313
				c2.382,0,4.32,1.935,4.32,4.313C82.354,21.939,80.415,23.875,78.033,23.875z M79.953,18.604h-0.96v-0.958
				c0-0.529-0.431-0.959-0.96-0.959c-0.53,0-0.96,0.43-0.96,0.959v0.958h-0.96c-0.53,0-0.961,0.429-0.961,0.958
				s0.431,0.959,0.961,0.959h0.96v0.958c0,0.529,0.43,0.958,0.96,0.958c0.529,0,0.96-0.431,0.96-0.958v-0.958h0.96
				c0.529,0,0.96-0.43,0.96-0.959S80.483,18.604,79.953,18.604z"/>
		</g>
	</g>
</g>
<g>
	<circle fill="#F5F5F5" cx="137.945" cy="21" r="21"/>
	<g>
		<g>
			<path fill="#747474" d="M145.205,26.213l-3.361-3.354c-0.008-0.01-0.018-0.021-0.027-0.027c0.591-0.951,0.933-2.071,0.933-3.27
				c0-3.435-2.801-6.229-6.242-6.229c-3.44,0-6.24,2.794-6.24,6.229s2.8,6.229,6.24,6.229c1.201,0,2.322-0.34,3.275-0.928
				c0.01,0.009,0.018,0.019,0.026,0.027l3.359,3.354c0.281,0.279,0.649,0.42,1.02,0.42s0.736-0.141,1.021-0.42
				C145.767,27.686,145.767,26.773,145.205,26.213z M136.503,23.875c-2.382,0-4.32-1.936-4.32-4.313c0-2.378,1.938-4.313,4.32-4.313
				c2.383,0,4.32,1.935,4.32,4.313C140.824,21.939,138.886,23.875,136.503,23.875z M138.423,18.604h-3.839
				c-0.531,0-0.961,0.429-0.961,0.958s0.43,0.959,0.961,0.959h3.839c0.531,0,0.961-0.43,0.961-0.959S138.955,18.604,138.423,18.604z
				"/>
		</g>
	</g>
</g>
<g>
	<circle fill="#F5F5F5" cx="196.417" cy="21" r="21"/>
	<g>
		<g>
			<path fill="#747474" d="M198.151,21l4.626-4.617c0.32-0.319,0.32-0.835,0-1.154l-0.577-0.577c-0.318-0.319-0.836-0.319-1.156,0
				l-4.625,4.617l-4.627-4.617c-0.317-0.319-0.836-0.319-1.156,0l-0.577,0.577c-0.316,0.319-0.316,0.835,0,1.154L194.682,21
				l-4.626,4.617c-0.317,0.318-0.317,0.836,0,1.154l0.578,0.576c0.32,0.316,0.838,0.316,1.156,0l4.625-4.617l4.627,4.617
				c0.319,0.316,0.838,0.316,1.156,0l0.576-0.576c0.32-0.318,0.32-0.836,0-1.154L198.151,21z"/>
		</g>
	</g>
</g>
<g>
	<path fill="#747474" d="M250.835,19.202c-1.633,0-2.953,1.207-2.953,2.696c0,1.492,1.32,2.699,2.953,2.699
		c1.631,0,2.955-1.207,2.955-2.699C253.791,20.409,252.466,19.202,250.835,19.202z M258.714,16.501h-2.365
		c-0.324,0-0.674-0.229-0.776-0.512l-0.611-1.675c-0.103-0.281-0.453-0.511-0.776-0.511h-6.696c-0.323,0-0.678,0.229-0.776,0.513
		l-0.613,1.674c-0.1,0.281-0.451,0.511-0.774,0.511h-2.365c-1.082,0-1.967,0.812-1.967,1.8v8.096c0,0.989,0.885,1.801,1.967,1.801
		h15.76c1.082,0,1.97-0.812,1.97-1.801v-8.096C260.683,17.313,259.796,16.501,258.714,16.501z M250.835,26.396
		c-2.719,0-4.924-2.017-4.924-4.498c0-2.483,2.205-4.5,4.924-4.5c2.717,0,4.924,2.015,4.924,4.5S253.552,26.396,250.835,26.396z
		 M258.023,19.561c-0.381,0-0.688-0.283-0.688-0.631c0-0.348,0.309-0.629,0.688-0.629c0.384,0,0.691,0.281,0.691,0.629
		C258.714,19.278,258.404,19.561,258.023,19.561z"/>
</g>
</svg>
