<?xml version="1.0" encoding="utf-8"?>
<!-- Generator: Adobe Illustrator 16.0.0, SVG Export Plug-In . SVG Version: 6.00 Build 0)  -->
<!DOCTYPE svg PUBLIC "-//W3C//DTD SVG 1.1//EN" "http://www.w3.org/Graphics/SVG/1.1/DTD/svg11.dtd">
<svg version="1.1" id="Capa_1" xmlns="http://www.w3.org/2000/svg" xmlns:xlink="http://www.w3.org/1999/xlink" x="0px" y="0px"
	 width="28.018px" height="12px" viewBox="0 0 28.018 12" enable-background="new 0 0 28.018 12" xml:space="preserve">
<g>
	<path fill="#C0C0C0" d="M8.031,6l3.547-3.547c0.563-0.562,0.563-1.472,0-2.032c-0.561-0.561-1.473-0.561-2.031,0L5.999,3.967
		L2.452,0.42C1.891-0.14,0.98-0.14,0.42,0.42s-0.561,1.471,0,2.032L3.967,6L0.42,9.545c-0.561,0.563-0.561,1.473,0,2.033
		c0.28,0.279,0.648,0.42,1.016,0.42s0.735-0.141,1.017-0.42l3.547-3.547l3.548,3.547C9.826,11.857,10.194,12,10.563,12
		c0.367,0,0.735-0.143,1.017-0.422c0.562-0.563,0.562-1.473,0-2.031L8.031,6z"/>
	<g>
		<path fill="#A0A0A0" d="M24.048,6l3.547-3.547c0.563-0.562,0.563-1.472,0-2.032c-0.561-0.561-1.473-0.561-2.031,0l-3.548,3.546
			L18.469,0.42c-0.562-0.561-1.472-0.561-2.032,0s-0.561,1.471,0,2.032L19.983,6l-3.547,3.545c-0.561,0.563-0.561,1.473,0,2.033
			c0.28,0.279,0.648,0.42,1.016,0.42s0.735-0.141,1.017-0.42l3.547-3.547l3.548,3.547C25.843,11.857,26.211,12,26.579,12
			c0.367,0,0.735-0.143,1.017-0.422c0.562-0.563,0.562-1.473,0-2.031L24.048,6z"/>
	</g>
</g>
</svg>
