<?xml version="1.0" encoding="utf-8"?>
<!-- Generator: Adobe Illustrator 16.0.0, SVG Export Plug-In . SVG Version: 6.00 Build 0)  -->
<!DOCTYPE svg PUBLIC "-//W3C//DTD SVG 1.1//EN" "http://www.w3.org/Graphics/SVG/1.1/DTD/svg11.dtd">
<svg version="1.1" id="Layer_1" xmlns="http://www.w3.org/2000/svg" xmlns:xlink="http://www.w3.org/1999/xlink" x="0px" y="0px"
	 width="26px" height="26px" viewBox="0 0 26 26" enable-background="new 0 0 26 26" xml:space="preserve">
<circle fill-rule="evenodd" clip-rule="evenodd" fill="#EE4B08" cx="13" cy="13" r="13"/>
<path fill="#FFFFFF" d="M17.354,16.986H8.646c-0.539,0-0.976,0.447-0.976,0.997c0,0.551,0.437,0.997,0.976,0.997h8.709
	c0.539,0,0.976-0.446,0.976-0.997C18.33,17.434,17.894,16.986,17.354,16.986z M12.278,15.891c0.178,0.181,0.407,0.274,0.64,0.29
	c0.027,0.002,0.054,0.009,0.082,0.009c0.028,0,0.054-0.007,0.081-0.009c0.234-0.016,0.462-0.109,0.641-0.29l3.122-3.161
	c0.391-0.396,0.391-1.037,0-1.432c-0.392-0.396-1.024-0.396-1.415,0l-1.441,1.459v-4.74c0-0.55-0.442-0.997-0.987-0.997
	s-0.987,0.446-0.987,0.997v4.74l-1.441-1.459c-0.391-0.396-1.024-0.396-1.416,0c-0.391,0.395-0.391,1.036,0,1.432L12.278,15.891z"/>
</svg>
