<?xml version="1.0" encoding="utf-8"?>
<!DOCTYPE svg PUBLIC "-//W3C//DTD SVG 1.1//EN" "http://www.w3.org/Graphics/SVG/1.1/DTD/svg11.dtd">
<svg version="1.1" baseProfile="full"
 xmlns="http://www.w3.org/2000/svg"
 xmlns:xlink="http://www.w3.org/1999/xlink"
 xmlns:ev="http://www.w3.org/2001/xml-events" 
  height="12px" 
  width="12px" 
>
<path fill="rgb( 255, 255, 255 )"
 d="M10.125,0 C11.16,0 12,0.839 12,1.875 C12,2.297 11.86,2.68700000000001 11.625,3 C11.625,3 10.875,3.75 10.875,3.75 C10.875,3.75 8.25,1.125 8.25,1.125 C8.25,1.125 9,0.375 9,0.375 C9.31299999999999,0.13999999999999 9.70299999999997,0 10.125,0 ZM0.75,8.625 C0.75,8.625 0,12 0,12 C0,12 3.375,11.25 3.375,11.25 C3.375,11.25 10.312,4.31200000000001 10.312,4.31200000000001 C10.312,4.31200000000001 7.68700000000001,1.68700000000001 7.68700000000001,1.68700000000001 C7.68700000000001,1.68700000000001 0.75,8.625 0.75,8.625 ZM8.38599999999997,4.261 C8.38599999999997,4.261 3.13599999999997,9.511 3.13599999999997,9.511 C3.13599999999997,9.511 2.48900000000003,8.864 2.48900000000003,8.864 C2.48900000000003,8.864 7.73900000000003,3.614 7.73900000000003,3.614 C7.73900000000003,3.614 8.38599999999997,4.261 8.38599999999997,4.261 Z "/>
</svg>
