<?xml version="1.0" encoding="utf-8"?>
<!-- Generator: Adobe Illustrator 16.0.0, SVG Export Plug-In . SVG Version: 6.00 Build 0)  -->
<!DOCTYPE svg PUBLIC "-//W3C//DTD SVG 1.1//EN" "http://www.w3.org/Graphics/SVG/1.1/DTD/svg11.dtd">
<svg version="1.1" id="Layer_1" xmlns="http://www.w3.org/2000/svg" xmlns:xlink="http://www.w3.org/1999/xlink" x="0px" y="0px"
	 width="87px" height="87px" viewBox="0 0 87 87" enable-background="new 0 0 87 87" xml:space="preserve">
<path fill-rule="evenodd" clip-rule="evenodd" fill="#EE4B08" d="M43.5,0C67.524,0,87,19.476,87,43.5S67.524,87,43.5,87
	S0,67.524,0,43.5S19.476,0,43.5,0z"/>
<path fill-rule="evenodd" clip-rule="evenodd" fill="#FFFFFF" d="M41.604,25.821c7.47,1.796,12.033,7.591,11.026,13.492
	c-0.195,0.02-0.393,0.044-0.588,0.073c-2.959,0.437-5.803,1.85-7.58,4.31c-1.152,1.596-1.729,3.469-1.63,5.407
	c-1.64,0.497-3.394,0.778-5.19,0.812c-2.135,2.686-4.23,4.332-7.793,5.407c-0.143,0.043-0.251-0.097-0.227-0.21
	c0.459-2.075,0.919-4.15,1.378-6.227c-7.197-2.465-11.188-8.607-8.815-14.883C24.557,27.728,33.338,23.835,41.604,25.821
	L41.604,25.821z M39.431,34.331l2.924,0.329c1.194,0.135,1.887,1.306,1.414,2.396c0.281,0.603,0.175,1.306-0.229,1.826
	c0.112,0.551-0.055,1.12-0.424,1.542c0.103,1.04-0.767,1.854-1.816,1.854l-3.709,0.188c-0.5,0.026-0.902-0.161-1.324-0.401
	c-0.243-0.139-0.461-0.273-0.75-0.273l-0.843-0.004c-0.156,0-0.284-0.127-0.284-0.283v-5.262c0-0.156,0.128-0.283,0.284-0.283h0.129
	c0.102,0,0.259-0.036,0.332-0.117c0.919-1.011,1.471-1.78,1.806-3.151c0.16-0.653,0.236-1.296,0.27-1.935
	c0.105-2.037,2.167-1.372,2.203,1.007c0.01,0.719-0.101,1.374-0.207,2.087C39.182,34.021,39.228,34.309,39.431,34.331L39.431,34.331
	z M29.569,35.101l3.105,0.003c0.188,0,0.34,0.151,0.34,0.339v6.868c0,0.188-0.152,0.34-0.34,0.34l-3.105-0.003
	c-0.188,0-0.34-0.152-0.34-0.34V35.44C29.229,35.252,29.382,35.101,29.569,35.101L29.569,35.101z M31.657,40.193
	c0.816,0,0.816,1.237,0,1.237S30.841,40.193,31.657,40.193L31.657,40.193z M45.577,44.498c-2.801,3.876-1.076,8.523,2.555,11.111
	c1.566,1.116,3.488,1.887,5.529,2.187c0.61,0.824,1.235,1.517,1.966,2.111c0.844,0.688,1.824,1.245,3.077,1.726
	c0.529,0.202,1.123-0.063,1.325-0.591c0.104-0.269,0.069-0.469,0.024-0.727l-0.534-3.014c2.097-0.703,3.763-1.931,4.8-3.486
	c1.26-1.891,1.492-4.09,0.795-6.231c-0.743-2.28-2.607-4.227-4.997-5.477C55.563,39.726,48.815,40.019,45.577,44.498L45.577,44.498z
	 M59.167,43.923c1.927,1.009,3.416,2.537,3.988,4.296c0.501,1.535,0.354,3.104-0.553,4.464c-1.009,1.514-2.719,2.443-4.452,2.883
	c-0.552,0.105-0.918,0.633-0.821,1.187l0.375,2.118c-0.274-0.172-0.53-0.356-0.771-0.553c-0.678-0.553-1.248-1.21-1.818-2.016
	c-0.16-0.263-0.438-0.451-0.768-0.488c-1.861-0.207-3.618-0.875-5.023-1.876c-2.682-1.911-4.19-5.318-2.078-8.241
	C49.862,42.074,55.558,42.036,59.167,43.923L59.167,43.923z"/>
</svg>
