<?xml version="1.0" encoding="utf-8"?>
<!-- Generator: Adobe Illustrator 19.0.0, SVG Export Plug-In . SVG Version: 6.00 Build 0)  -->
<svg version="1.1" id="Layer_1" xmlns="http://www.w3.org/2000/svg" xmlns:xlink="http://www.w3.org/1999/xlink" x="0px" y="0px"
	 viewBox="-118 206.4 374.5 381.6" style="enable-background:new -118 206.4 374.5 381.6;" xml:space="preserve">
<style type="text/css">
	.st0{fill:none;stroke:#EC4D24;stroke-width:6.6535;stroke-miterlimit:10;}
	.st1{fill:none;stroke:#EE4B08;stroke-width:6.6535;stroke-miterlimit:10;}
</style>
<g>
	<path class="st0" d="M-66.4,578c0,0,45.3-25.1,75.8-12.8c19.5,6.3,38.7,11.5,60,11.5c100.2,0,181.4-81.5,181.4-182
		s-81.2-182-181.4-182S-112,294.2-112,394.7c0,34.5,11.3,67.9,27.5,95.2C-55.7,538.5-66.4,578-66.4,578z"/>
</g>
<g>
	<g>
		<path class="st1" d="M93.5,470.3c0,13.4-10.3,23.7-24.1,23.7c-13.9,0-24.1-10.3-24.1-23.7v-0.6c0-13.3,10.3-23.6,24.1-23.6
			s24.1,10.2,24.1,23.6V470.3z M94.1,311l-12,104.5c-0.8,7.5-5.8,12.2-12.7,12.2c-7,0-11.9-4.7-12.7-12.2l-12-104.6
			c-0.8-8.1,3.6-14.2,11.1-14.2H83C90.5,296.8,94.9,302.9,94.1,311L94.1,311z"/>
	</g>
</g>
</svg>
