<?xml version="1.0" encoding="utf-8"?>
<!-- Generator: Adobe Illustrator 16.0.0, SVG Export Plug-In . SVG Version: 6.00 Build 0)  -->
<!DOCTYPE svg PUBLIC "-//W3C//DTD SVG 1.1//EN" "http://www.w3.org/Graphics/SVG/1.1/DTD/svg11.dtd">
<svg version="1.1" id="Capa_1" xmlns="http://www.w3.org/2000/svg" xmlns:xlink="http://www.w3.org/1999/xlink" x="0px" y="0px"
	 width="26px" height="271.7px" viewBox="232.009 307.84 26 271.7" enable-background="new 232.009 307.84 26 271.7"
	 xml:space="preserve">
<g>
	<circle fill="#EE4B08" cx="245.009" cy="541.25" r="10.154"/>
	<g>
		<path fill="#FFFFFF" d="M246.728,541.25l3.001-3.002c0.477-0.475,0.477-1.245,0-1.719c-0.474-0.476-1.246-0.476-1.718,0l-3.002,3
			l-3.001-3.001c-0.475-0.476-1.246-0.476-1.72,0c-0.473,0.475-0.474,1.245,0,1.72l3.001,3.002l-3.001,3
			c-0.474,0.476-0.474,1.246,0,1.72c0.237,0.237,0.548,0.356,0.86,0.356c0.311,0,0.621-0.119,0.86-0.356l3.001-3.001l3.002,3.001
			c0.236,0.237,0.548,0.357,0.859,0.357c0.31,0,0.622-0.12,0.86-0.357c0.476-0.476,0.476-1.246,0-1.718L246.728,541.25z"/>
	</g>
</g>
<g>
	<path fill="#EE4B08" d="M249.744,368.009c0-1.295,0-2.561,0-3.871c2.435,2.162,4.843,4.299,7.266,6.451
		c-2.423,2.15-4.826,4.286-7.257,6.443c0-1.3,0-2.57,0-3.863c-0.472-0.108-0.93-0.226-1.391-0.318
		c-1.123-0.223-2.256-0.334-3.399-0.287c-1.915,0.075-3.697,0.631-5.334,1.687c-0.677,0.438-1.313,0.939-1.961,1.41
		c0.044-0.112,0.097-0.257,0.155-0.402c0.58-1.424,1.313-2.746,2.326-3.878c1.307-1.462,2.913-2.363,4.735-2.845
		c1.433-0.378,2.892-0.503,4.362-0.525C249.405,368.008,249.561,368.009,249.744,368.009z"/>
	<g>
		<g>
			<g>
				<path fill="#EE4B08" d="M247.774,377.062c-0.52,0.001-0.893,0.382-0.893,0.899l0.004,0.896l-12.04,0.059l-0.042-10.933
					l2.403-0.008c0.518-0.005,0.894-0.381,0.893-0.899c-0.003-0.52-0.382-0.895-0.899-0.893l-3.299,0.013
					c-0.518,0-0.895,0.38-0.893,0.898l0.05,12.723c0,0.52,0.38,0.896,0.899,0.892l13.831-0.064c0.518-0.001,0.894-0.381,0.892-0.898
					l-0.007-1.791C248.671,377.435,248.292,377.062,247.774,377.062z"/>
			</g>
		</g>
	</g>
</g>
<g>
	<g>
		<g>
			<polygon fill="#EE4B08" points="251.1,312.125 249.024,310.049 242.596,316.486 244.695,318.538 			"/>
			<path fill="#EE4B08" d="M250.812,308.27l-1.064,1.063l2.075,2.075l1.064-1.063c0.572-0.573,0.573-1.502,0-2.075
				C252.314,307.697,251.384,307.697,250.812,308.27z"/>
			<polygon fill="#EE4B08" points="240.489,320.668 244.031,319.175 241.968,317.159 			"/>
		</g>
	</g>
	<g>
		<g>
			<g>
				<path fill="#EE4B08" d="M251.506,315.256c-0.521,0-0.896,0.382-0.895,0.901l0.004,6.441l-12.072,0.06l-0.042-10.962l6.106-0.01
					c0.519-0.002,0.896-0.381,0.895-0.901c-0.003-0.52-0.382-0.896-0.901-0.894l-7.004,0.012c-0.519,0.001-0.896,0.382-0.895,0.901
					l0.049,12.756c0.001,0.521,0.381,0.897,0.902,0.895l13.868-0.063c0.52-0.002,0.897-0.382,0.895-0.901l-0.008-7.341
					C252.406,315.631,252.026,315.256,251.506,315.256z"/>
			</g>
		</g>
	</g>
</g>
<g>
	<g id="InviteKinnectors">
		<g>
			<path fill="#EE4B08" d="M246.093,430.812c-0.697-0.341-1.076-0.683-1.076-1.023c0-0.473,0.371-1.017,0.371-1.017
				c1.611-2.278,1.53-4.139,1.53-4.139c0-3.964-4.098-4.018-4.098-4.018s-4.097,0.054-4.097,4.018c0,0-0.08,1.864,1.531,4.139
				c0,0,0.372,0.546,0.372,1.017c0,0.473-0.704,0.944-2.007,1.416c0,0-2.05,0.653-3.199,2.663c0,0-0.559,1.029-0.559,1.568
				c0,0-0.147,0.658,1.104,0.746c0,0,2.4,0.227,6.855,0.227c1.63,0,2.951-0.031,4.008-0.07
				C245.609,434.831,245.369,432.615,246.093,430.812z"/>
		</g>
	</g>
	<g>
		<g>
			<polygon fill="#EE4B08" points="255.163,431.589 252.569,431.589 252.569,428.994 249.973,428.994 249.973,431.589 
				247.378,431.589 247.378,434.184 249.973,434.184 249.973,436.781 252.569,436.781 252.569,434.184 255.163,434.184 			"/>
		</g>
	</g>
</g>
<g>
	<g>
		<path fill="#EE4B08" d="M236.987,482.702l7.658,5.459c0.104,0.074,0.227,0.112,0.349,0.112c0.124,0,0.245-0.039,0.351-0.112
			l7.658-5.461c0.16-0.112,0.254-0.296,0.254-0.491v-5.005c-0.001-0.333-0.271-0.603-0.604-0.603h-15.318
			c-0.333,0-0.601,0.27-0.601,0.603v5.007C236.734,482.406,236.828,482.588,236.987,482.702z M237.938,477.807h14.113v4.093
			l-7.057,5.03l-7.056-5.03V477.807z"/>
		<path fill="#EE4B08" d="M240.32,480.383h8.968c0.361,0,0.654-0.295,0.654-0.656s-0.292-0.653-0.654-0.653h-8.968
			c-0.362,0-0.655,0.292-0.655,0.653S239.958,480.383,240.32,480.383z"/>
		<path fill="#EE4B08" d="M249.942,482.002c0-0.36-0.292-0.654-0.654-0.654h-8.968c-0.362,0-0.655,0.294-0.655,0.654
			c0,0.363,0.292,0.655,0.655,0.655h8.968C249.65,482.658,249.942,482.366,249.942,482.002z"/>
		<path fill="#EE4B08" d="M252.653,483.435l-7.659,5.461l-7.659-5.461l-2.032-1.449c-0.275,0.342-0.447,0.789-0.447,1.285v8.154
			c0,1.063,0.768,1.923,1.715,1.923h16.876c0.949,0,1.716-0.86,1.716-1.923v-8.154c0-0.503-0.176-0.956-0.458-1.299L252.653,483.435
			z"/>
	</g>
</g>
<g>
	<g>
		<g>
			<polygon fill="#FFFFFF" points="251.1,340.262 249.024,338.187 242.596,344.624 244.695,346.675 			"/>
			<path fill="#FFFFFF" d="M250.812,336.408l-1.064,1.063l2.075,2.075l1.064-1.063c0.572-0.573,0.573-1.502,0-2.075
				C252.314,335.834,251.384,335.834,250.812,336.408z"/>
			<polygon fill="#FFFFFF" points="240.489,348.806 244.031,347.313 241.968,345.296 			"/>
		</g>
	</g>
	<g>
		<g>
			<g>
				<path fill="#FFFFFF" d="M251.507,343.394c-0.521,0-0.896,0.382-0.895,0.901l0.003,6.441l-12.072,0.06l-0.042-10.962l6.106-0.01
					c0.519-0.003,0.896-0.381,0.895-0.901c-0.004-0.52-0.382-0.896-0.901-0.895l-7.004,0.013c-0.519,0.001-0.897,0.382-0.895,0.901
					l0.049,12.756c0.002,0.521,0.381,0.897,0.902,0.895l13.868-0.063c0.52-0.002,0.897-0.382,0.895-0.901l-0.007-7.341
					C252.407,343.769,252.026,343.394,251.507,343.394z"/>
			</g>
		</g>
	</g>
</g>
<g>
	<path fill="#FFFFFF" d="M249.744,396.147c0-1.295,0-2.561,0-3.872c2.435,2.163,4.843,4.3,7.266,6.452
		c-2.423,2.149-4.826,4.286-7.257,6.443c0-1.3,0-2.57,0-3.863c-0.472-0.108-0.93-0.226-1.391-0.318
		c-1.123-0.223-2.256-0.334-3.399-0.288c-1.915,0.076-3.697,0.632-5.334,1.688c-0.677,0.438-1.313,0.939-1.961,1.41
		c0.044-0.112,0.097-0.257,0.155-0.402c0.58-1.424,1.313-2.746,2.326-3.879c1.307-1.461,2.913-2.362,4.735-2.844
		c1.433-0.378,2.892-0.503,4.362-0.525C249.405,396.146,249.561,396.147,249.744,396.147z"/>
	<g>
		<g>
			<g>
				<path fill="#FFFFFF" d="M247.774,405.2c-0.52,0.001-0.893,0.382-0.893,0.899l0.004,0.895l-12.04,0.059l-0.042-10.932
					l2.403-0.008c0.518-0.005,0.894-0.381,0.893-0.899c-0.003-0.52-0.382-0.895-0.899-0.893l-3.299,0.013
					c-0.518,0-0.895,0.379-0.893,0.898l0.05,12.723c0,0.52,0.38,0.896,0.899,0.891l13.831-0.063
					c0.518-0.001,0.894-0.382,0.892-0.898l-0.007-1.792C248.671,405.573,248.292,405.2,247.774,405.2z"/>
			</g>
		</g>
	</g>
</g>
<g>
	<g id="InviteKinnectors_1_">
		<g>
			<path fill="#FFFFFF" d="M246.093,458.951c-0.697-0.341-1.076-0.684-1.076-1.024c0-0.472,0.371-1.017,0.371-1.017
				c1.611-2.277,1.53-4.138,1.53-4.138c0-3.965-4.098-4.019-4.098-4.019s-4.097,0.054-4.097,4.019c0,0-0.08,1.864,1.531,4.138
				c0,0,0.372,0.546,0.372,1.017c0,0.473-0.704,0.945-2.007,1.417c0,0-2.05,0.653-3.199,2.663c0,0-0.559,1.029-0.559,1.568
				c0,0-0.147,0.658,1.104,0.745c0,0,2.4,0.227,6.855,0.227c1.63,0,2.951-0.03,4.008-0.07
				C245.609,462.969,245.369,460.753,246.093,458.951z"/>
		</g>
	</g>
	<g>
		<g>
			<polygon fill="#FFFFFF" points="255.163,459.728 252.569,459.728 252.569,457.131 249.973,457.131 249.973,459.728 
				247.378,459.728 247.378,462.322 249.973,462.322 249.973,464.918 252.569,464.918 252.569,462.322 255.163,462.322 			"/>
		</g>
	</g>
</g>
<g>
	<g>
		<path fill="#FFFFFF" d="M236.987,510.839l7.658,5.459c0.104,0.074,0.227,0.112,0.349,0.112c0.124,0,0.245-0.039,0.351-0.112
			l7.658-5.461c0.16-0.112,0.254-0.296,0.254-0.491v-5.005c-0.001-0.333-0.271-0.603-0.604-0.603h-15.318
			c-0.333,0-0.601,0.27-0.601,0.603v5.007C236.734,510.543,236.828,510.726,236.987,510.839z M237.938,505.945h14.113v4.092
			l-7.057,5.031l-7.056-5.031V505.945z"/>
		<path fill="#FFFFFF" d="M240.32,508.521h8.968c0.361,0,0.654-0.295,0.654-0.656s-0.292-0.653-0.654-0.653h-8.968
			c-0.362,0-0.655,0.292-0.655,0.653S239.958,508.521,240.32,508.521z"/>
		<path fill="#FFFFFF" d="M249.942,510.14c0-0.36-0.292-0.654-0.654-0.654h-8.968c-0.362,0-0.655,0.293-0.655,0.654
			c0,0.363,0.292,0.655,0.655,0.655h8.968C249.65,510.795,249.942,510.503,249.942,510.14z"/>
		<path fill="#FFFFFF" d="M252.653,511.573l-7.659,5.461l-7.659-5.461l-2.032-1.449c-0.275,0.342-0.447,0.789-0.447,1.284v8.155
			c0,1.063,0.768,1.922,1.715,1.922h16.876c0.949,0,1.716-0.859,1.716-1.922v-8.155c0-0.502-0.176-0.955-0.458-1.298
			L252.653,511.573z"/>
	</g>
</g>
<g>
	<circle fill="#FFFFFF" cx="245.009" cy="569.388" r="10.154"/>
	<g>
		<path fill="#EE4B08" d="M246.728,569.388l3.001-3.002c0.477-0.475,0.477-1.245,0-1.719c-0.474-0.476-1.246-0.476-1.718,0l-3.002,3
			l-3.001-3.001c-0.475-0.476-1.246-0.476-1.72,0c-0.473,0.475-0.474,1.245,0,1.72l3.001,3.002l-3.001,3
			c-0.474,0.476-0.474,1.246,0,1.72c0.237,0.237,0.548,0.356,0.86,0.356c0.311,0,0.621-0.119,0.86-0.356l3.001-3.001l3.002,3.001
			c0.236,0.237,0.548,0.357,0.859,0.357c0.31,0,0.622-0.12,0.86-0.357c0.476-0.476,0.476-1.246,0-1.718L246.728,569.388z"/>
	</g>
</g>
</svg>
