<?xml version="1.0"?>
<!--Icons from directory ""-->
<svg xmlns="http://www.w3.org/2000/svg" width="30" height="400" viewBox="0 0 30 400"><svg xmlns:ev="http://www.w3.org/2001/xml-events" xmlns:xlink="http://www.w3.org/1999/xlink" id="feedback_" xml:space="preserve" height="100" viewBox="0 0 30 100" width="30" version="1.1" y="0" x="0px" enable-background="new 0 0 30 100"><path d="m30 47.714v-37.714c0-5.523-4.477-10-10-10h-20v100h20c5.523 0 10-4.477 10-10v-42.286z" fill="#EE4B08"/><g enable-background="new    " fill="#fff">	<path d="m20.06 79.904h-10.288v-6.708h1.214v5.392h3.186v-4.666h1.214v4.666h4.674v1.316z"/>	<path d="m17.659 66.712l0.162-1.261c0.762 0.198 1.354 0.566 1.775 1.105 0.421 0.537 0.631 1.225 0.631 2.062 0 1.054-0.335 1.889-1.006 2.506-0.672 0.617-1.613 0.926-2.825 0.926-1.254 0-2.227-0.312-2.919-0.937-0.692-0.623-1.039-1.433-1.039-2.428 0-0.963 0.34-1.75 1.018-2.359 0.679-0.611 1.633-0.916 2.863-0.916 0.075 0 0.188 0.002 0.337 0.006v5.373c0.818-0.046 1.445-0.27 1.88-0.672 0.436-0.402 0.653-0.904 0.653-1.506 0-0.447-0.122-0.83-0.364-1.146-0.244-0.317-0.633-0.568-1.166-0.753zm-2.041 4.009v-4.021c-0.627 0.054-1.098 0.207-1.411 0.461-0.486 0.389-0.729 0.893-0.729 1.512 0 0.561 0.194 1.033 0.582 1.414 0.388 0.382 0.908 0.593 1.558 0.634z"/>	<path d="m17.659 58.986l0.162-1.261c0.762 0.198 1.354 0.567 1.775 1.105s0.631 1.226 0.631 2.062c0 1.054-0.335 1.889-1.006 2.506-0.672 0.617-1.613 0.926-2.825 0.926-1.254 0-2.227-0.312-2.919-0.936s-1.039-1.434-1.039-2.428c0-0.963 0.34-1.75 1.018-2.36 0.679-0.61 1.633-0.916 2.863-0.916 0.075 0 0.188 0.003 0.337 0.007v5.372c0.818-0.046 1.445-0.269 1.88-0.672 0.436-0.402 0.653-0.904 0.653-1.505 0-0.448-0.122-0.83-0.364-1.146-0.244-0.316-0.633-0.568-1.166-0.754zm-2.041 4.01v-4.022c-0.627 0.054-1.098 0.208-1.411 0.461-0.486 0.39-0.729 0.894-0.729 1.513 0 0.561 0.194 1.032 0.582 1.414s0.908 0.593 1.558 0.634z"/>	<path d="m20.06 51.52h-0.94c0.739 0.457 1.108 1.129 1.108 2.015 0 0.574-0.164 1.103-0.49 1.583-0.328 0.482-0.785 0.855-1.373 1.119-0.586 0.266-1.262 0.397-2.023 0.397-0.744 0-1.419-0.12-2.024-0.36-0.606-0.238-1.07-0.598-1.394-1.078-0.322-0.479-0.484-1.015-0.484-1.607 0-0.434 0.095-0.82 0.284-1.159s0.437-0.615 0.74-0.827h-3.69v-1.215h10.286v1.132zm-3.719 3.859c0.953 0 1.668-0.194 2.14-0.584 0.473-0.389 0.709-0.848 0.709-1.376 0-0.534-0.226-0.987-0.677-1.36-0.452-0.373-1.141-0.559-2.067-0.559-1.02 0-1.768 0.189-2.245 0.568-0.478 0.381-0.716 0.849-0.716 1.404 0 0.543 0.229 0.996 0.688 1.36 0.458 0.365 1.181 0.547 2.168 0.547z"/>	<path d="m20.06 47.341v1.133h-10.288v-1.221h3.67c-0.669-0.516-1.004-1.174-1.004-1.974 0-0.443 0.093-0.862 0.277-1.258 0.185-0.396 0.444-0.722 0.779-0.978 0.334-0.255 0.738-0.455 1.21-0.6 0.473-0.145 0.979-0.217 1.517-0.217 1.276 0 2.264 0.305 2.961 0.915s1.045 1.343 1.045 2.197c0 0.851-0.367 1.518-1.102 2.001h0.935zm-3.783 0.013c0.894 0 1.539-0.117 1.937-0.353 0.65-0.385 0.976-0.904 0.976-1.56 0-0.534-0.239-0.995-0.72-1.384-0.479-0.389-1.193-0.584-2.144-0.584-0.973 0-1.69 0.187-2.154 0.56-0.463 0.373-0.694 0.824-0.694 1.354 0 0.533 0.239 0.995 0.719 1.384s1.173 0.583 2.08 0.583z"/>	<path d="m19.14 36.042c0.398 0.452 0.68 0.887 0.843 1.306 0.163 0.418 0.245 0.866 0.245 1.346 0 0.792-0.199 1.399-0.6 1.824-0.4 0.426-0.911 0.638-1.533 0.638-0.365 0-0.698-0.08-1-0.24-0.302-0.161-0.544-0.371-0.727-0.631-0.182-0.26-0.32-0.553-0.414-0.879-0.065-0.239-0.128-0.601-0.189-1.085-0.121-0.985-0.267-1.711-0.435-2.177-0.173-0.005-0.283-0.007-0.33-0.007-0.515 0-0.877 0.115-1.088 0.346-0.285 0.313-0.428 0.775-0.428 1.391 0 0.574 0.104 0.998 0.313 1.271s0.576 0.476 1.105 0.607l-0.169 1.193c-0.528-0.108-0.955-0.287-1.28-0.536-0.325-0.248-0.576-0.607-0.751-1.078-0.176-0.47-0.264-1.015-0.264-1.635 0-0.614 0.075-1.114 0.225-1.499 0.15-0.384 0.338-0.667 0.565-0.848s0.514-0.308 0.859-0.38c0.215-0.04 0.604-0.061 1.165-0.061h1.684c1.175 0 1.918-0.026 2.229-0.078s0.609-0.155 0.895-0.309v1.275c-0.262 0.128-0.569 0.21-0.92 0.246zm-2.821 0.102c0.188 0.443 0.347 1.107 0.478 1.994 0.074 0.502 0.159 0.856 0.252 1.064 0.094 0.208 0.23 0.369 0.411 0.481 0.18 0.113 0.38 0.17 0.6 0.17 0.337 0 0.617-0.123 0.842-0.37 0.225-0.246 0.337-0.606 0.337-1.081 0-0.471-0.106-0.889-0.319-1.255s-0.504-0.636-0.873-0.808c-0.285-0.131-0.707-0.196-1.264-0.196h-0.464z"/>	<path d="m17.329 28.316l0.162-1.2c0.855 0.131 1.526 0.467 2.01 1.007 0.484 0.541 0.727 1.204 0.727 1.991 0 0.985-0.333 1.777-1 2.377-0.666 0.599-1.621 0.898-2.866 0.898-0.805 0-1.509-0.129-2.112-0.387s-1.056-0.649-1.357-1.177c-0.302-0.526-0.453-1.1-0.453-1.719 0-0.782 0.205-1.422 0.614-1.92 0.409-0.497 0.991-0.816 1.744-0.956l0.189 1.187c-0.501 0.113-0.877 0.313-1.13 0.601s-0.379 0.634-0.379 1.041c0 0.615 0.228 1.114 0.684 1.499 0.457 0.385 1.179 0.576 2.165 0.576 1.001 0 1.729-0.186 2.183-0.556 0.453-0.371 0.681-0.854 0.681-1.452 0-0.479-0.151-0.879-0.456-1.2s-0.773-0.524-1.406-0.61z"/>	<path d="m20.06 26.064h-10.288v-1.221h5.866l-3.031-2.89v-1.58l2.765 2.754 4.688-3.032v1.506l-3.811 2.381 0.855 0.861h2.955v1.221z"/></g></svg><svg xmlns:ev="http://www.w3.org/2001/xml-events" xmlns:xlink="http://www.w3.org/1999/xlink" id="feedback_pressed" xml:space="preserve" height="100" viewBox="0 0 30 100" width="30" version="1.1" y="100" x="0px" enable-background="new 0 0 30 100"><path d="m30 47.714v-37.714c0-5.523-4.477-10-10-10h-20v100h20c5.523 0 10-4.477 10-10v-37.714l-4-2.286 4-2.286z" fill="#EE4B08"/><g enable-background="new    " fill="#fff">	<path d="m20.06 79.904h-10.288v-6.708h1.214v5.392h3.186v-4.666h1.214v4.666h4.674v1.316z"/>	<path d="m17.659 66.712l0.162-1.261c0.762 0.198 1.354 0.566 1.775 1.105 0.421 0.537 0.631 1.225 0.631 2.062 0 1.054-0.335 1.889-1.006 2.506-0.672 0.617-1.613 0.926-2.825 0.926-1.254 0-2.227-0.312-2.919-0.937-0.692-0.623-1.039-1.433-1.039-2.428 0-0.963 0.34-1.75 1.018-2.359 0.679-0.611 1.633-0.916 2.863-0.916 0.075 0 0.188 0.002 0.337 0.006v5.373c0.818-0.046 1.445-0.27 1.88-0.672 0.436-0.402 0.653-0.904 0.653-1.506 0-0.447-0.122-0.83-0.364-1.146-0.244-0.317-0.633-0.568-1.166-0.753zm-2.041 4.009v-4.021c-0.627 0.054-1.098 0.207-1.411 0.461-0.486 0.389-0.729 0.893-0.729 1.512 0 0.561 0.194 1.033 0.582 1.414 0.388 0.382 0.908 0.593 1.558 0.634z"/>	<path d="m17.659 58.986l0.162-1.261c0.762 0.198 1.354 0.567 1.775 1.105s0.631 1.226 0.631 2.062c0 1.054-0.335 1.889-1.006 2.506-0.672 0.617-1.613 0.926-2.825 0.926-1.254 0-2.227-0.312-2.919-0.936s-1.039-1.434-1.039-2.428c0-0.963 0.34-1.75 1.018-2.36 0.679-0.61 1.633-0.916 2.863-0.916 0.075 0 0.188 0.003 0.337 0.007v5.372c0.818-0.046 1.445-0.269 1.88-0.672 0.436-0.402 0.653-0.904 0.653-1.505 0-0.448-0.122-0.83-0.364-1.146-0.244-0.316-0.633-0.568-1.166-0.754zm-2.041 4.01v-4.022c-0.627 0.054-1.098 0.208-1.411 0.461-0.486 0.39-0.729 0.894-0.729 1.513 0 0.561 0.194 1.032 0.582 1.414s0.908 0.593 1.558 0.634z"/>	<path d="m20.06 51.52h-0.94c0.739 0.457 1.108 1.129 1.108 2.015 0 0.574-0.164 1.103-0.49 1.583-0.328 0.482-0.785 0.855-1.373 1.119-0.586 0.266-1.262 0.397-2.023 0.397-0.744 0-1.419-0.12-2.024-0.36-0.606-0.238-1.07-0.598-1.394-1.078-0.322-0.479-0.484-1.015-0.484-1.607 0-0.434 0.095-0.82 0.284-1.159s0.437-0.615 0.74-0.827h-3.69v-1.215h10.286v1.132zm-3.719 3.859c0.953 0 1.668-0.194 2.14-0.584 0.473-0.389 0.709-0.848 0.709-1.376 0-0.534-0.226-0.987-0.677-1.36-0.452-0.373-1.141-0.559-2.067-0.559-1.02 0-1.768 0.189-2.245 0.568-0.478 0.381-0.716 0.849-0.716 1.404 0 0.543 0.229 0.996 0.688 1.36 0.458 0.365 1.181 0.547 2.168 0.547z"/>	<path d="m20.06 47.341v1.133h-10.288v-1.221h3.67c-0.669-0.516-1.004-1.174-1.004-1.974 0-0.443 0.093-0.862 0.277-1.258 0.185-0.396 0.444-0.722 0.779-0.978 0.334-0.255 0.738-0.455 1.21-0.6 0.473-0.145 0.979-0.217 1.517-0.217 1.276 0 2.264 0.305 2.961 0.915s1.045 1.343 1.045 2.197c0 0.851-0.367 1.518-1.102 2.001h0.935zm-3.783 0.013c0.894 0 1.539-0.117 1.937-0.353 0.65-0.385 0.976-0.904 0.976-1.56 0-0.534-0.239-0.995-0.72-1.384-0.479-0.389-1.193-0.584-2.144-0.584-0.973 0-1.69 0.187-2.154 0.56-0.463 0.373-0.694 0.824-0.694 1.354 0 0.533 0.239 0.995 0.719 1.384s1.173 0.583 2.08 0.583z"/>	<path d="m19.14 36.042c0.398 0.452 0.68 0.887 0.843 1.306 0.163 0.418 0.245 0.866 0.245 1.346 0 0.792-0.199 1.399-0.6 1.824-0.4 0.426-0.911 0.638-1.533 0.638-0.365 0-0.698-0.08-1-0.24-0.302-0.161-0.544-0.371-0.727-0.631-0.182-0.26-0.32-0.553-0.414-0.879-0.065-0.239-0.128-0.601-0.189-1.085-0.121-0.985-0.267-1.711-0.435-2.177-0.173-0.005-0.283-0.007-0.33-0.007-0.515 0-0.877 0.115-1.088 0.346-0.285 0.313-0.428 0.775-0.428 1.391 0 0.574 0.104 0.998 0.313 1.271s0.576 0.476 1.105 0.607l-0.169 1.193c-0.528-0.108-0.955-0.287-1.28-0.536-0.325-0.248-0.576-0.607-0.751-1.078-0.176-0.47-0.264-1.015-0.264-1.635 0-0.614 0.075-1.114 0.225-1.499 0.15-0.384 0.338-0.667 0.565-0.848s0.514-0.308 0.859-0.38c0.215-0.04 0.604-0.061 1.165-0.061h1.684c1.175 0 1.918-0.026 2.229-0.078s0.609-0.155 0.895-0.309v1.275c-0.262 0.128-0.569 0.21-0.92 0.246zm-2.821 0.102c0.188 0.443 0.347 1.107 0.478 1.994 0.074 0.502 0.159 0.856 0.252 1.064 0.094 0.208 0.23 0.369 0.411 0.481 0.18 0.113 0.38 0.17 0.6 0.17 0.337 0 0.617-0.123 0.842-0.37 0.225-0.246 0.337-0.606 0.337-1.081 0-0.471-0.106-0.889-0.319-1.255s-0.504-0.636-0.873-0.808c-0.285-0.131-0.707-0.196-1.264-0.196h-0.464z"/>	<path d="m17.329 28.316l0.162-1.2c0.855 0.131 1.526 0.467 2.01 1.007 0.484 0.541 0.727 1.204 0.727 1.991 0 0.985-0.333 1.777-1 2.377-0.666 0.599-1.621 0.898-2.866 0.898-0.805 0-1.509-0.129-2.112-0.387s-1.056-0.649-1.357-1.177c-0.302-0.526-0.453-1.1-0.453-1.719 0-0.782 0.205-1.422 0.614-1.92 0.409-0.497 0.991-0.816 1.744-0.956l0.189 1.187c-0.501 0.113-0.877 0.313-1.13 0.601s-0.379 0.634-0.379 1.041c0 0.615 0.228 1.114 0.684 1.499 0.457 0.385 1.179 0.576 2.165 0.576 1.001 0 1.729-0.186 2.183-0.556 0.453-0.371 0.681-0.854 0.681-1.452 0-0.479-0.151-0.879-0.456-1.2s-0.773-0.524-1.406-0.61z"/>	<path d="m20.06 26.064h-10.288v-1.221h5.866l-3.031-2.89v-1.58l2.765 2.754 4.688-3.032v1.506l-3.811 2.381 0.855 0.861h2.955v1.221z"/></g></svg><svg xmlns:ev="http://www.w3.org/2001/xml-events" xmlns:xlink="http://www.w3.org/1999/xlink" id="leaderboard_" xml:space="preserve" height="100" viewBox="0 0 30 100" width="30" version="1.1" y="200" x="0px" enable-background="new 0 0 30 100"><path d="m0 52.285v37.715c0 5.523 4.477 10 10 10h20v-100h-20c-5.523 0-10 4.477-10 10v42.285z" fill="#EE4B08"/><g enable-background="new    " fill="#fff">	<path d="m20.06 88.378h-10.289v-1.314h9.074v-4.897h1.214v6.211z"/>	<path d="m17.66 75.824l0.16-1.261c0.764 0.198 1.355 0.566 1.775 1.105 0.422 0.537 0.633 1.225 0.633 2.062 0 1.054-0.336 1.889-1.008 2.506-0.671 0.617-1.613 0.926-2.824 0.926-1.254 0-2.228-0.312-2.92-0.937-0.692-0.623-1.038-1.433-1.038-2.428 0-0.963 0.339-1.75 1.018-2.359 0.678-0.611 1.633-0.916 2.863-0.916 0.075 0 0.187 0.002 0.337 0.006v5.373c0.818-0.046 1.445-0.27 1.881-0.672 0.435-0.402 0.652-0.904 0.652-1.506 0-0.447-0.121-0.83-0.365-1.146-0.243-0.316-0.631-0.567-1.164-0.753zm-2.043 4.009v-4.021c-0.627 0.054-1.097 0.207-1.41 0.461-0.487 0.389-0.73 0.893-0.73 1.512 0 0.561 0.194 1.033 0.583 1.414 0.387 0.382 0.907 0.593 1.557 0.634z"/>	<path d="m19.141 68.33c0.397 0.452 0.678 0.888 0.842 1.306s0.246 0.867 0.246 1.346c0 0.792-0.201 1.4-0.601 1.824-0.399 0.426-0.911 0.639-1.533 0.639-0.364 0-0.698-0.08-1-0.241s-0.544-0.37-0.727-0.631c-0.183-0.26-0.32-0.553-0.414-0.878-0.065-0.24-0.128-0.602-0.189-1.086-0.122-0.985-0.267-1.711-0.435-2.177-0.174-0.005-0.283-0.007-0.33-0.007-0.515 0-0.878 0.115-1.088 0.346-0.285 0.313-0.428 0.775-0.428 1.391 0 0.574 0.104 0.998 0.312 1.271 0.209 0.273 0.577 0.477 1.105 0.607l-0.168 1.193c-0.529-0.108-0.956-0.287-1.281-0.535-0.325-0.249-0.575-0.608-0.751-1.078-0.175-0.471-0.263-1.016-0.263-1.635 0-0.615 0.074-1.115 0.225-1.5 0.149-0.384 0.338-0.666 0.564-0.848 0.228-0.18 0.514-0.307 0.86-0.379 0.215-0.041 0.603-0.062 1.164-0.062h1.686c1.174 0 1.916-0.026 2.228-0.078s0.609-0.155 0.895-0.309v1.275c-0.262 0.128-0.569 0.21-0.919 0.246zm-2.822 0.102c0.187 0.443 0.347 1.108 0.478 1.994 0.074 0.502 0.158 0.856 0.252 1.065 0.094 0.207 0.23 0.368 0.41 0.48 0.181 0.113 0.381 0.17 0.601 0.17 0.337 0 0.618-0.123 0.843-0.369s0.336-0.607 0.336-1.082c0-0.471-0.105-0.889-0.318-1.255s-0.505-0.636-0.875-0.808c-0.285-0.131-0.705-0.196-1.263-0.196h-0.464z"/>	<path d="m20.06 60.632h-0.94c0.739 0.457 1.109 1.128 1.109 2.014 0 0.574-0.164 1.103-0.492 1.584-0.327 0.481-0.784 0.854-1.371 1.119-0.588 0.265-1.262 0.396-2.025 0.396-0.744 0-1.418-0.119-2.024-0.359-0.605-0.239-1.07-0.599-1.393-1.078s-0.484-1.016-0.484-1.607c0-0.434 0.095-0.82 0.284-1.16 0.189-0.339 0.437-0.615 0.74-0.827h-3.693v-1.214h10.289v1.132zm-3.72 3.859c0.955 0 1.668-0.195 2.141-0.584s0.709-0.848 0.709-1.377c0-0.533-0.226-0.986-0.678-1.359-0.451-0.373-1.14-0.56-2.066-0.56-1.02 0-1.769 0.19-2.246 0.569-0.477 0.38-0.715 0.848-0.715 1.404 0 0.543 0.229 0.996 0.688 1.359 0.457 0.366 1.181 0.548 2.167 0.548z"/>	<path d="m17.66 52.648l0.16-1.261c0.764 0.198 1.355 0.566 1.775 1.105 0.422 0.537 0.633 1.225 0.633 2.062 0 1.054-0.336 1.889-1.008 2.506-0.671 0.617-1.613 0.926-2.824 0.926-1.254 0-2.228-0.312-2.92-0.937-0.692-0.623-1.038-1.433-1.038-2.428 0-0.963 0.339-1.75 1.018-2.359 0.678-0.611 1.633-0.916 2.863-0.916 0.075 0 0.187 0.002 0.337 0.006v5.373c0.818-0.046 1.445-0.27 1.881-0.672 0.435-0.402 0.652-0.904 0.652-1.506 0-0.447-0.121-0.83-0.365-1.146-0.243-0.316-0.631-0.567-1.164-0.753zm-2.043 4.009v-4.021c-0.627 0.054-1.097 0.207-1.41 0.461-0.487 0.389-0.73 0.893-0.73 1.512 0 0.561 0.194 1.033 0.583 1.414 0.387 0.382 0.907 0.593 1.557 0.634z"/>	<path d="m20.06 49.868h-7.453v-1.099h1.13c-0.528-0.28-0.877-0.539-1.045-0.776-0.169-0.237-0.253-0.499-0.253-0.783 0-0.412 0.136-0.83 0.407-1.255l1.172 0.42c-0.183 0.298-0.274 0.597-0.274 0.896 0 0.267 0.084 0.506 0.249 0.719 0.167 0.212 0.397 0.364 0.691 0.455 0.449 0.135 0.941 0.203 1.475 0.203h3.901v1.22z"/>	<path d="m20.06 44.103v1.133h-10.289v-1.221h3.67c-0.669-0.515-1.003-1.173-1.003-1.974 0-0.443 0.092-0.862 0.277-1.258s0.444-0.721 0.778-0.977c0.335-0.255 0.738-0.455 1.211-0.6s0.979-0.217 1.516-0.217c1.277 0 2.265 0.305 2.962 0.916 0.696 0.61 1.046 1.343 1.046 2.197 0 0.85-0.367 1.517-1.102 2.001h0.934zm-3.783 0.014c0.894 0 1.539-0.118 1.937-0.353 0.65-0.384 0.976-0.904 0.976-1.56 0-0.534-0.24-0.995-0.719-1.384-0.48-0.389-1.195-0.583-2.145-0.583-0.973 0-1.691 0.187-2.154 0.56-0.464 0.373-0.695 0.824-0.695 1.354 0 0.533 0.24 0.995 0.72 1.383 0.479 0.388 1.172 0.583 2.08 0.583z"/>	<path d="m16.334 37.958c-1.381 0-2.403-0.371-3.067-1.112-0.552-0.619-0.828-1.375-0.828-2.265 0-0.99 0.336-1.8 1.007-2.428s1.599-0.943 2.783-0.943c0.959 0 1.713 0.139 2.263 0.417s0.977 0.683 1.28 1.214c0.305 0.531 0.457 1.111 0.457 1.74 0 1.008-0.335 1.823-1.004 2.445-0.669 0.621-1.633 0.932-2.891 0.932zm0-1.254c0.953 0 1.668-0.201 2.143-0.604 0.476-0.402 0.713-0.909 0.713-1.519 0-0.606-0.238-1.11-0.716-1.513-0.478-0.402-1.204-0.604-2.183-0.604-0.922 0-1.62 0.203-2.095 0.607-0.475 0.405-0.712 0.908-0.712 1.509 0 0.61 0.235 1.117 0.708 1.519 0.473 0.403 1.187 0.605 2.142 0.605z"/>	<path d="m19.141 25.078c0.397 0.452 0.678 0.887 0.842 1.306 0.164 0.418 0.246 0.867 0.246 1.346 0 0.792-0.201 1.399-0.601 1.824-0.399 0.425-0.911 0.638-1.533 0.638-0.364 0-0.698-0.08-1-0.241s-0.544-0.371-0.727-0.631c-0.183-0.26-0.32-0.553-0.414-0.878-0.065-0.239-0.128-0.601-0.189-1.085-0.122-0.986-0.267-1.711-0.435-2.177-0.174-0.004-0.283-0.007-0.33-0.007-0.515 0-0.878 0.115-1.088 0.346-0.285 0.312-0.428 0.775-0.428 1.39 0 0.574 0.104 0.998 0.312 1.272 0.209 0.273 0.577 0.476 1.105 0.607l-0.168 1.194c-0.529-0.109-0.956-0.287-1.281-0.536s-0.575-0.608-0.751-1.078c-0.175-0.47-0.263-1.015-0.263-1.635 0-0.615 0.074-1.115 0.225-1.499 0.149-0.384 0.338-0.667 0.564-0.848 0.228-0.181 0.514-0.308 0.86-0.38 0.215-0.041 0.603-0.061 1.164-0.061h1.686c1.174 0 1.916-0.026 2.228-0.078s0.609-0.155 0.895-0.309v1.275c-0.262 0.127-0.569 0.209-0.919 0.245zm-2.822 0.102c0.187 0.443 0.347 1.108 0.478 1.994 0.074 0.502 0.158 0.857 0.252 1.065s0.23 0.369 0.41 0.481c0.181 0.113 0.381 0.169 0.601 0.169 0.337 0 0.618-0.123 0.843-0.37 0.225-0.246 0.336-0.607 0.336-1.082 0-0.47-0.105-0.889-0.318-1.255s-0.505-0.635-0.875-0.807c-0.285-0.131-0.705-0.197-1.263-0.197h-0.464z"/>	<path d="m20.06 22.067h-7.453v-1.099h1.13c-0.528-0.28-0.877-0.539-1.045-0.776-0.169-0.237-0.253-0.499-0.253-0.783 0-0.412 0.136-0.83 0.407-1.255l1.172 0.42c-0.183 0.298-0.274 0.597-0.274 0.896 0 0.267 0.084 0.506 0.249 0.719 0.167 0.212 0.397 0.364 0.691 0.455 0.449 0.135 0.941 0.203 1.475 0.203h3.901v1.22z"/>	<path d="m20.06 12.754h-0.94c0.739 0.457 1.109 1.128 1.109 2.015 0 0.574-0.164 1.102-0.492 1.583-0.327 0.481-0.784 0.854-1.371 1.119-0.588 0.265-1.262 0.397-2.025 0.397-0.744 0-1.418-0.12-2.024-0.36-0.605-0.239-1.07-0.599-1.393-1.078s-0.484-1.015-0.484-1.607c0-0.434 0.095-0.821 0.284-1.16s0.437-0.615 0.74-0.828h-3.693v-1.214h10.289v1.133zm-3.72 3.86c0.955 0 1.668-0.194 2.141-0.583s0.709-0.848 0.709-1.376c0-0.534-0.226-0.987-0.678-1.36-0.451-0.373-1.14-0.56-2.066-0.56-1.02 0-1.769 0.19-2.246 0.569-0.477 0.38-0.715 0.848-0.715 1.404 0 0.542 0.229 0.996 0.688 1.36 0.457 0.364 1.181 0.546 2.167 0.546z"/></g></svg><svg xmlns:ev="http://www.w3.org/2001/xml-events" xmlns:xlink="http://www.w3.org/1999/xlink" id="leaderboard_pressed" xml:space="preserve" height="100" viewBox="0 0 30 100" width="30" version="1.1" y="300" x="0px" enable-background="new 0 0 30 100"><path d="m0 52.285v37.715c0 5.523 4.477 10 10 10h20v-100h-20c-5.523 0-10 4.477-10 10v37.714l4 2.286-4 2.285z" fill="#EE4B08"/><g enable-background="new    " fill="#fff">	<path d="m20.06 88.378h-10.289v-1.314h9.074v-4.897h1.214v6.211z"/>	<path d="m17.66 75.824l0.16-1.261c0.764 0.198 1.355 0.566 1.775 1.105 0.422 0.537 0.633 1.225 0.633 2.062 0 1.054-0.336 1.889-1.008 2.506-0.671 0.617-1.613 0.926-2.824 0.926-1.254 0-2.228-0.312-2.92-0.937-0.692-0.623-1.038-1.433-1.038-2.428 0-0.963 0.339-1.75 1.018-2.359 0.678-0.611 1.633-0.916 2.863-0.916 0.075 0 0.187 0.002 0.337 0.006v5.373c0.818-0.046 1.445-0.27 1.881-0.672 0.435-0.402 0.652-0.904 0.652-1.506 0-0.447-0.121-0.83-0.365-1.146-0.243-0.316-0.631-0.567-1.164-0.753zm-2.043 4.009v-4.021c-0.627 0.054-1.097 0.207-1.41 0.461-0.487 0.389-0.73 0.893-0.73 1.512 0 0.561 0.194 1.033 0.583 1.414 0.387 0.382 0.907 0.593 1.557 0.634z"/>	<path d="m19.141 68.33c0.397 0.452 0.678 0.888 0.842 1.306s0.246 0.867 0.246 1.346c0 0.792-0.201 1.4-0.601 1.824-0.399 0.426-0.911 0.639-1.533 0.639-0.364 0-0.698-0.08-1-0.241s-0.544-0.37-0.727-0.631c-0.183-0.26-0.32-0.553-0.414-0.878-0.065-0.24-0.128-0.602-0.189-1.086-0.122-0.985-0.267-1.711-0.435-2.177-0.174-0.005-0.283-0.007-0.33-0.007-0.515 0-0.878 0.115-1.088 0.346-0.285 0.313-0.428 0.775-0.428 1.391 0 0.574 0.104 0.998 0.312 1.271 0.209 0.273 0.577 0.477 1.105 0.607l-0.168 1.193c-0.529-0.108-0.956-0.287-1.281-0.535-0.325-0.249-0.575-0.608-0.751-1.078-0.175-0.471-0.263-1.016-0.263-1.635 0-0.615 0.074-1.115 0.225-1.5 0.149-0.384 0.338-0.666 0.564-0.848 0.228-0.18 0.514-0.307 0.86-0.379 0.215-0.041 0.603-0.062 1.164-0.062h1.686c1.174 0 1.916-0.026 2.228-0.078s0.609-0.155 0.895-0.309v1.275c-0.262 0.128-0.569 0.21-0.919 0.246zm-2.822 0.102c0.187 0.443 0.347 1.108 0.478 1.994 0.074 0.502 0.158 0.856 0.252 1.065 0.094 0.207 0.23 0.368 0.41 0.48 0.181 0.113 0.381 0.17 0.601 0.17 0.337 0 0.618-0.123 0.843-0.369s0.336-0.607 0.336-1.082c0-0.471-0.105-0.889-0.318-1.255s-0.505-0.636-0.875-0.808c-0.285-0.131-0.705-0.196-1.263-0.196h-0.464z"/>	<path d="m20.06 60.632h-0.94c0.739 0.457 1.109 1.128 1.109 2.014 0 0.574-0.164 1.103-0.492 1.584-0.327 0.481-0.784 0.854-1.371 1.119-0.588 0.265-1.262 0.396-2.025 0.396-0.744 0-1.418-0.119-2.024-0.359-0.605-0.239-1.07-0.599-1.393-1.078s-0.484-1.016-0.484-1.607c0-0.434 0.095-0.82 0.284-1.16 0.189-0.339 0.437-0.615 0.74-0.827h-3.693v-1.214h10.289v1.132zm-3.72 3.859c0.955 0 1.668-0.195 2.141-0.584s0.709-0.848 0.709-1.377c0-0.533-0.226-0.986-0.678-1.359-0.451-0.373-1.14-0.56-2.066-0.56-1.02 0-1.769 0.19-2.246 0.569-0.477 0.38-0.715 0.848-0.715 1.404 0 0.543 0.229 0.996 0.688 1.359 0.457 0.366 1.181 0.548 2.167 0.548z"/>	<path d="m17.66 52.648l0.16-1.261c0.764 0.198 1.355 0.566 1.775 1.105 0.422 0.537 0.633 1.225 0.633 2.062 0 1.054-0.336 1.889-1.008 2.506-0.671 0.617-1.613 0.926-2.824 0.926-1.254 0-2.228-0.312-2.92-0.937-0.692-0.623-1.038-1.433-1.038-2.428 0-0.963 0.339-1.75 1.018-2.359 0.678-0.611 1.633-0.916 2.863-0.916 0.075 0 0.187 0.002 0.337 0.006v5.373c0.818-0.046 1.445-0.27 1.881-0.672 0.435-0.402 0.652-0.904 0.652-1.506 0-0.447-0.121-0.83-0.365-1.146-0.243-0.316-0.631-0.567-1.164-0.753zm-2.043 4.009v-4.021c-0.627 0.054-1.097 0.207-1.41 0.461-0.487 0.389-0.73 0.893-0.73 1.512 0 0.561 0.194 1.033 0.583 1.414 0.387 0.382 0.907 0.593 1.557 0.634z"/>	<path d="m20.06 49.868h-7.453v-1.099h1.13c-0.528-0.28-0.877-0.539-1.045-0.776-0.169-0.237-0.253-0.499-0.253-0.783 0-0.412 0.136-0.83 0.407-1.255l1.172 0.42c-0.183 0.298-0.274 0.597-0.274 0.896 0 0.267 0.084 0.506 0.249 0.719 0.167 0.212 0.397 0.364 0.691 0.455 0.449 0.135 0.941 0.203 1.475 0.203h3.901v1.22z"/>	<path d="m20.06 44.103v1.133h-10.289v-1.221h3.67c-0.669-0.515-1.003-1.173-1.003-1.974 0-0.443 0.092-0.862 0.277-1.258s0.444-0.721 0.778-0.977c0.335-0.255 0.738-0.455 1.211-0.6s0.979-0.217 1.516-0.217c1.277 0 2.265 0.305 2.962 0.916 0.696 0.61 1.046 1.343 1.046 2.197 0 0.85-0.367 1.517-1.102 2.001h0.934zm-3.783 0.014c0.894 0 1.539-0.118 1.937-0.353 0.65-0.384 0.976-0.904 0.976-1.56 0-0.534-0.24-0.995-0.719-1.384-0.48-0.389-1.195-0.583-2.145-0.583-0.973 0-1.691 0.187-2.154 0.56-0.464 0.373-0.695 0.824-0.695 1.354 0 0.533 0.24 0.995 0.72 1.383 0.479 0.388 1.172 0.583 2.08 0.583z"/>	<path d="m16.334 37.958c-1.381 0-2.403-0.371-3.067-1.112-0.552-0.619-0.828-1.375-0.828-2.265 0-0.99 0.336-1.8 1.007-2.428s1.599-0.943 2.783-0.943c0.959 0 1.713 0.139 2.263 0.417s0.977 0.683 1.28 1.214c0.305 0.531 0.457 1.111 0.457 1.74 0 1.008-0.335 1.823-1.004 2.445-0.669 0.621-1.633 0.932-2.891 0.932zm0-1.254c0.953 0 1.668-0.201 2.143-0.604 0.476-0.402 0.713-0.909 0.713-1.519 0-0.606-0.238-1.11-0.716-1.513-0.478-0.402-1.204-0.604-2.183-0.604-0.922 0-1.62 0.203-2.095 0.607-0.475 0.405-0.712 0.908-0.712 1.509 0 0.61 0.235 1.117 0.708 1.519 0.473 0.403 1.187 0.605 2.142 0.605z"/>	<path d="m19.141 25.078c0.397 0.452 0.678 0.887 0.842 1.306 0.164 0.418 0.246 0.867 0.246 1.346 0 0.792-0.201 1.399-0.601 1.824-0.399 0.425-0.911 0.638-1.533 0.638-0.364 0-0.698-0.08-1-0.241s-0.544-0.371-0.727-0.631c-0.183-0.26-0.32-0.553-0.414-0.878-0.065-0.239-0.128-0.601-0.189-1.085-0.122-0.986-0.267-1.711-0.435-2.177-0.174-0.004-0.283-0.007-0.33-0.007-0.515 0-0.878 0.115-1.088 0.346-0.285 0.312-0.428 0.775-0.428 1.39 0 0.574 0.104 0.998 0.312 1.272 0.209 0.273 0.577 0.476 1.105 0.607l-0.168 1.194c-0.529-0.109-0.956-0.287-1.281-0.536s-0.575-0.608-0.751-1.078c-0.175-0.47-0.263-1.015-0.263-1.635 0-0.615 0.074-1.115 0.225-1.499 0.149-0.384 0.338-0.667 0.564-0.848 0.228-0.181 0.514-0.308 0.86-0.38 0.215-0.041 0.603-0.061 1.164-0.061h1.686c1.174 0 1.916-0.026 2.228-0.078s0.609-0.155 0.895-0.309v1.275c-0.262 0.127-0.569 0.209-0.919 0.245zm-2.822 0.102c0.187 0.443 0.347 1.108 0.478 1.994 0.074 0.502 0.158 0.857 0.252 1.065s0.23 0.369 0.41 0.481c0.181 0.113 0.381 0.169 0.601 0.169 0.337 0 0.618-0.123 0.843-0.37 0.225-0.246 0.336-0.607 0.336-1.082 0-0.47-0.105-0.889-0.318-1.255s-0.505-0.635-0.875-0.807c-0.285-0.131-0.705-0.197-1.263-0.197h-0.464z"/>	<path d="m20.06 22.067h-7.453v-1.099h1.13c-0.528-0.28-0.877-0.539-1.045-0.776-0.169-0.237-0.253-0.499-0.253-0.783 0-0.412 0.136-0.83 0.407-1.255l1.172 0.42c-0.183 0.298-0.274 0.597-0.274 0.896 0 0.267 0.084 0.506 0.249 0.719 0.167 0.212 0.397 0.364 0.691 0.455 0.449 0.135 0.941 0.203 1.475 0.203h3.901v1.22z"/>	<path d="m20.06 12.754h-0.94c0.739 0.457 1.109 1.128 1.109 2.015 0 0.574-0.164 1.102-0.492 1.583-0.327 0.481-0.784 0.854-1.371 1.119-0.588 0.265-1.262 0.397-2.025 0.397-0.744 0-1.418-0.12-2.024-0.36-0.605-0.239-1.07-0.599-1.393-1.078s-0.484-1.015-0.484-1.607c0-0.434 0.095-0.821 0.284-1.16s0.437-0.615 0.74-0.828h-3.693v-1.214h10.289v1.133zm-3.72 3.86c0.955 0 1.668-0.194 2.141-0.583s0.709-0.848 0.709-1.376c0-0.534-0.226-0.987-0.678-1.36-0.451-0.373-1.14-0.56-2.066-0.56-1.02 0-1.769 0.19-2.246 0.569-0.477 0.38-0.715 0.848-0.715 1.404 0 0.542 0.229 0.996 0.688 1.36 0.457 0.364 1.181 0.546 2.167 0.546z"/></g></svg></svg>
