<?xml version="1.0" encoding="utf-8"?>
<!-- Generator: Adobe Illustrator 16.0.0, SVG Export Plug-In . SVG Version: 6.00 Build 0)  -->
<!DOCTYPE svg PUBLIC "-//W3C//DTD SVG 1.1//EN" "http://www.w3.org/Graphics/SVG/1.1/DTD/svg11.dtd">
<svg version="1.1" id="Layer_1" xmlns="http://www.w3.org/2000/svg" xmlns:xlink="http://www.w3.org/1999/xlink" x="0px" y="0px"
	 width="19px" height="16px" viewBox="0 0 19 16" enable-background="new 0 0 19 16" xml:space="preserve">
<g>
	<g>
		<g>
			<path fill="#4C4F5E" d="M10.855,12.926c0-1.072,0.463-2.053,1.197-2.75c-0.477-0.268-0.818-0.377-0.818-0.377
				c-1.206-0.438-1.858-0.874-1.858-1.311c0-0.438,0.345-0.942,0.345-0.942c1.488-2.105,1.415-3.829,1.415-3.829
				C11.136,0.049,7.344,0,7.344,0S3.553,0.049,3.553,3.718c0,0-0.073,1.723,1.415,3.829c0,0,0.345,0.504,0.345,0.942
				c0,0.437-0.652,0.873-1.859,1.311c0,0-1.895,0.604-2.96,2.463c0,0-0.517,0.953-0.517,1.452c0,0-0.136,0.61,1.021,0.689
				c0,0,2.223,0.209,6.346,0.209c1.579,0,2.879-0.03,3.882-0.068C10.989,14.051,10.855,13.502,10.855,12.926z"/>
		</g>
	</g>
	<rect x="15.342" y="9.227" fill="#4C4F5E" width="0.601" height="6.773"/>
	<rect x="12.255" y="12.313" fill="#4C4F5E" width="6.773" height="0.601"/>
</g>
</svg>
