<?xml version="1.0" encoding="utf-8"?>
<!-- Generator: Adobe Illustrator 16.0.0, SVG Export Plug-In . SVG Version: 6.00 Build 0)  -->
<!DOCTYPE svg PUBLIC "-//W3C//DTD SVG 1.1//EN" "http://www.w3.org/Graphics/SVG/1.1/DTD/svg11.dtd">
<svg version="1.1" id="Capa_1" xmlns="http://www.w3.org/2000/svg" xmlns:xlink="http://www.w3.org/1999/xlink" x="0px" y="0px"
	 width="18px" height="472.403px" viewBox="0 0 18 472.403" enable-background="new 0 0 18 472.403" xml:space="preserve">
<g>
	<circle fill="#747474" cx="8.999" cy="65.801" r="8.999"/>
	<g>
		<path fill="#FFFFFF" d="M10.522,65.801l2.66-2.66c0.422-0.422,0.422-1.104,0-1.523c-0.42-0.421-1.104-0.421-1.521,0l-2.663,2.659
			l-2.66-2.66c-0.42-0.421-1.104-0.421-1.523,0s-0.42,1.104,0,1.524l2.66,2.66l-2.66,2.659c-0.42,0.423-0.42,1.104,0,1.524
			c0.21,0.21,0.486,0.314,0.762,0.314s0.551-0.104,0.765-0.314l2.659-2.66l2.661,2.66c0.209,0.21,0.486,0.316,0.762,0.316
			c0.277,0,0.553-0.106,0.764-0.316c0.422-0.422,0.422-1.104,0-1.523L10.522,65.801z"/>
	</g>
</g>
<g>
	<path fill="#747474" d="M12.55,118.057c0-0.972,0-1.921,0-2.904c1.825,1.622,3.634,3.225,5.45,4.838
		c-1.816,1.611-3.619,3.214-5.44,4.833c0-0.975,0-1.928,0-2.897c-0.354-0.081-0.699-0.17-1.045-0.239
		c-0.842-0.167-1.691-0.249-2.549-0.217c-1.438,0.057-2.773,0.475-4,1.266c-0.506,0.331-0.984,0.705-1.47,1.058
		c0.033-0.084,0.071-0.191,0.115-0.303c0.436-1.066,0.986-2.059,1.745-2.907c0.979-1.096,2.183-1.772,3.549-2.134
		c1.076-0.283,2.17-0.377,3.273-0.393C12.298,118.055,12.415,118.057,12.55,118.057z"/>
	<g>
		<g>
			<g>
				<path fill="#747474" d="M13.075,126.313c-0.39,0.001-0.67,0.287-0.67,0.676l0.004,1.673l-11.033,0.043l-0.03-12.202l1.803-0.007
					c0.388-0.001,0.67-0.286,0.67-0.675c-0.003-0.389-0.286-0.67-0.676-0.668l-2.474,0.01c-0.388,0.001-0.67,0.285-0.669,0.674
					l0.038,13.545c0.001,0.389,0.285,0.672,0.675,0.669l12.375-0.048c0.389-0.001,0.67-0.286,0.668-0.674l-0.006-2.344
					C13.749,126.592,13.464,126.313,13.075,126.313z"/>
			</g>
		</g>
	</g>
</g>
<g>
	<g>
		<g>
			<polygon fill="#747474" points="15.599,4.643 13.35,2.394 6.386,9.365 8.659,11.588 			"/>
			<path fill="#747474" d="M15.286,0.465l-1.15,1.153l2.248,2.248l1.15-1.153c0.621-0.621,0.621-1.627,0-2.248
				C16.915-0.155,15.907-0.155,15.286,0.465z"/>
			<polygon fill="#747474" points="4.104,13.897 7.94,12.279 5.707,10.096 			"/>
		</g>
	</g>
	<g>
		<g>
			<g>
				<path fill="#747474" d="M16.038,8.033c-0.563,0-0.971,0.414-0.971,0.978l0.006,6.979L1.994,16.054L1.949,4.179l6.615-0.011
					C9.126,4.164,9.534,3.754,9.534,3.19C9.53,2.627,9.12,2.218,8.556,2.22L0.968,2.235C0.406,2.236-0.004,2.648,0,3.211
					L0.053,17.03c0.001,0.563,0.413,0.974,0.978,0.97l15.022-0.067c0.563-0.002,0.974-0.414,0.972-0.978l-0.01-7.953
					C17.014,8.439,16.603,8.033,16.038,8.033z"/>
			</g>
		</g>
	</g>
</g>
<g>
	<g id="InviteKinnectors">
		<g>
			<path fill="#747474" d="M9.959,181.275c-0.616-0.301-0.954-0.604-0.954-0.906c0-0.419,0.329-0.901,0.329-0.901
				c1.426-2.02,1.356-3.668,1.356-3.668c0-3.514-3.632-3.561-3.632-3.561s-3.632,0.048-3.632,3.561c0,0-0.07,1.651,1.357,3.668
				c0,0,0.331,0.482,0.331,0.901c0,0.418-0.625,0.837-1.78,1.255c0,0-1.814,0.579-2.835,2.359c0,0-0.495,0.912-0.495,1.39
				c0,0-0.131,0.583,0.978,0.661c0,0,2.128,0.202,6.077,0.202c1.443,0,2.615-0.028,3.551-0.063
				C9.53,184.835,9.317,182.872,9.959,181.275z"/>
		</g>
	</g>
	<g>
		<g>
			<polygon fill="#747474" points="17.998,181.962 15.698,181.962 15.698,179.665 13.397,179.665 13.397,181.962 11.1,181.962 
				11.1,184.262 13.397,184.262 13.397,186.565 15.698,186.565 15.698,184.262 17.998,184.262 			"/>
		</g>
	</g>
</g>
<g>
	<g>
		<path fill="#747474" d="M1.888,234.188l6.785,4.835c0.093,0.066,0.201,0.102,0.31,0.102c0.11,0,0.219-0.035,0.312-0.102
			l6.787-4.837c0.143-0.101,0.223-0.263,0.223-0.437v-4.435c0-0.295-0.237-0.533-0.532-0.533H2.195
			c-0.295,0-0.533,0.238-0.533,0.533v4.437C1.663,233.923,1.747,234.087,1.888,234.188z M2.73,229.849h12.508v3.627l-6.254,4.459
			l-6.253-4.459L2.73,229.849L2.73,229.849z"/>
		<path fill="#747474" d="M4.842,232.131h7.949c0.32,0,0.578-0.262,0.578-0.582c0-0.32-0.258-0.58-0.578-0.58H4.842
			c-0.321,0-0.58,0.259-0.58,0.58C4.262,231.871,4.521,232.131,4.842,232.131z"/>
		<path fill="#747474" d="M13.369,233.568c0-0.321-0.26-0.58-0.58-0.58H4.842c-0.323,0-0.582,0.259-0.582,0.58
			c0,0.322,0.259,0.579,0.582,0.579h7.947C13.109,234.147,13.369,233.889,13.369,233.568z"/>
		<path fill="#747474" d="M15.771,234.836l-6.787,4.84l-6.788-4.84l-1.802-1.285C0.151,233.854,0,234.252,0,234.69v7.23
			c0,0.941,0.68,1.703,1.52,1.703h14.957c0.842,0,1.521-0.762,1.521-1.703v-7.23c0-0.444-0.156-0.846-0.406-1.15L15.771,234.836z"/>
	</g>
</g>
<g>
	<g>
		<g id="InviteKinnectors_1_">
			<g>
				<path fill="#747474" d="M10.641,295.182c-0.656-0.322-1.018-0.646-1.018-0.97c0-0.446,0.352-0.963,0.352-0.963
					c1.525-2.158,1.449-3.918,1.449-3.918c0-3.756-3.879-3.808-3.879-3.808s-3.883,0.052-3.883,3.808c0,0-0.075,1.762,1.451,3.918
					c0,0,0.353,0.517,0.353,0.963c0,0.447-0.667,0.896-1.901,1.342c0,0-1.939,0.619-3.03,2.521c0,0-0.529,0.975-0.529,1.484
					c0,0-0.14,0.625,1.045,0.707c0,0,2.274,0.215,6.495,0.215c1.543,0,2.792-0.029,3.792-0.066
					C10.183,298.992,9.957,296.888,10.641,295.182z"/>
			</g>
		</g>
		<g>
			<g>
				<polyline fill="#747474" points="16.02,295.919 11.859,295.919 11.859,298.376 16.02,298.376 				"/>
			</g>
		</g>
	</g>
	<path fill="#747474" d="M15.188,294.936v4.424l2.811-2.213L15.188,294.936z"/>
</g>
<g>
	<g id="InviteKinnectors_2_">
		<path fill="#747474" d="M0.003,353.421c0-0.291,0.3-0.846,0.3-0.846c0.621-1.078,1.723-1.431,1.723-1.431
			c0.702-0.257,1.08-0.509,1.08-0.765c0-0.254-0.2-0.547-0.2-0.547c-0.866-1.227-0.824-2.227-0.824-2.227
			c0-2.137,2.207-2.166,2.207-2.166s0.364,0.006,0.799,0.156c-0.096,0.338-0.146,0.709-0.146,1.104
			c-0.004,0.15-0.004,1.361,0.89,2.891c-0.053,0.078-0.105,0.158-0.161,0.242c0,0-0.199,0.293-0.199,0.547
			c0,0.187,0.197,0.367,0.571,0.55c-0.186,0.104-0.451,0.228-0.852,0.372c-0.162,0.054-1.786,0.628-2.728,2.27l-0.003,0.004
			l-0.004,0.006c-0.025,0.051-0.09,0.174-0.164,0.332c-1.111-0.035-1.693-0.094-1.693-0.094
			C-0.074,353.78,0.003,353.421,0.003,353.421z"/>
		<g>
			<path fill="#747474" d="M11.127,351.464c-0.555-0.266-0.85-0.533-0.85-0.801c0-0.365,0.287-0.785,0.287-0.785
				c1.238-1.748,1.178-3.185,1.178-3.185c0-3.053-3.154-3.094-3.154-3.094s-3.157,0.041-3.157,3.094c0,0-0.061,1.437,1.179,3.187
				c0,0,0.287,0.418,0.287,0.783c0,0.364-0.541,0.727-1.542,1.09c0,0-1.577,0.502-2.461,2.047c0,0-0.433,0.791-0.433,1.205
				c0,0-0.112,0.511,0.85,0.574c0,0,1.847,0.176,5.28,0.176c1.168,0,2.15-0.021,2.941-0.047
				C10.686,354.505,10.553,352.821,11.127,351.464z"/>
		</g>
	</g>
	<g>
		<g>
			<polygon fill="#747474" points="17.999,351.8 15.896,351.8 15.896,349.697 13.793,349.697 13.793,351.8 11.689,351.8 
				11.689,353.905 13.793,353.905 13.793,356.007 15.896,356.007 15.896,353.905 17.999,353.905 			"/>
		</g>
	</g>
</g>
<g id="InviteKinnectors_3_">
	<path fill="#747474" d="M17.995,410.503c0-0.305-0.313-0.887-0.313-0.887c-0.647-1.129-1.8-1.496-1.8-1.496
		c-0.734-0.266-1.132-0.531-1.132-0.799c0-0.266,0.209-0.572,0.209-0.572c0.905-1.281,0.86-2.328,0.86-2.328
		c0-2.232-2.308-2.262-2.308-2.262s-0.38,0.006-0.835,0.162c0.102,0.354,0.153,0.738,0.153,1.152
		c0.003,0.158,0.003,1.422-0.931,3.021c0.056,0.084,0.108,0.166,0.168,0.254c0,0,0.209,0.307,0.209,0.572
		c0,0.193-0.205,0.383-0.598,0.576c0.191,0.107,0.473,0.234,0.889,0.389c0.172,0.055,1.869,0.656,2.853,2.373l0.005,0.004
		l0.004,0.006c0.026,0.057,0.094,0.184,0.171,0.348c1.162-0.039,1.771-0.096,1.771-0.096
		C18.075,410.876,17.995,410.503,17.995,410.503z"/>
	<path fill="#747474" d="M0.003,410.503c0-0.305,0.313-0.887,0.313-0.887c0.648-1.129,1.799-1.496,1.799-1.496
		c0.735-0.266,1.132-0.531,1.132-0.799c0-0.266-0.209-0.572-0.209-0.572c-0.907-1.281-0.86-2.328-0.86-2.328
		c0-2.232,2.307-2.262,2.307-2.262s0.381,0.006,0.836,0.162c-0.101,0.354-0.153,0.738-0.153,1.152
		c-0.004,0.158-0.004,1.422,0.931,3.021c-0.055,0.084-0.109,0.166-0.169,0.254c0,0-0.209,0.307-0.209,0.572
		c0,0.193,0.206,0.383,0.599,0.576c-0.191,0.107-0.473,0.234-0.89,0.389c-0.172,0.055-1.869,0.656-2.854,2.373l-0.003,0.004
		l-0.005,0.006c-0.025,0.057-0.095,0.184-0.171,0.348c-1.163-0.039-1.771-0.096-1.771-0.096
		C-0.078,410.876,0.003,410.503,0.003,410.503z"/>
	<g>
		<path fill="#747474" d="M9.019,412.96c3.588,0,5.519-0.182,5.519-0.182c1.007-0.07,0.89-0.602,0.89-0.602
			c0-0.432-0.452-1.26-0.452-1.26c-0.925-1.619-2.573-2.143-2.573-2.143c-1.047-0.383-1.614-0.762-1.614-1.145
			c0-0.379,0.299-0.816,0.299-0.816c1.297-1.83,1.231-3.33,1.231-3.33c0-3.191-3.299-3.236-3.299-3.236s-3.296,0.045-3.296,3.234
			c0,0-0.063,1.502,1.231,3.328c0,0,0.3,0.441,0.3,0.82c0,0.383-0.567,0.762-1.617,1.145c0,0-1.649,0.521-2.575,2.143
			c0,0-0.45,0.828-0.45,1.26c0,0-0.117,0.529,0.889,0.602C3.499,412.781,5.433,412.96,9.019,412.96z"/>
	</g>
</g>
<path fill="#747474" d="M9,454.407c-4.97,0-9,4.027-9,8.998s4.03,8.998,9,8.998c4.971,0,8.999-4.027,8.999-8.998
	C17.998,458.434,13.971,454.407,9,454.407z M14.623,461.19l-5.451,5.449l-1.024,1.025c-0.135,0.135-0.322,0.211-0.512,0.211
	s-0.376-0.076-0.512-0.211L6.1,466.639l-2.725-2.723c-0.137-0.135-0.211-0.324-0.211-0.512c0-0.189,0.075-0.377,0.211-0.516
	l1.023-1.021c0.135-0.137,0.324-0.211,0.513-0.211c0.188,0,0.376,0.076,0.512,0.211l2.213,2.223l4.939-4.949
	c0.138-0.137,0.324-0.211,0.513-0.211s0.377,0.076,0.515,0.211l1.021,1.023c0.137,0.135,0.211,0.324,0.211,0.512
	C14.834,460.866,14.76,461.055,14.623,461.19z"/>
</svg>
