<?xml version="1.0" encoding="utf-8"?>
<!-- Generator: Adobe Illustrator 16.0.0, SVG Export Plug-In . SVG Version: 6.00 Build 0)  -->
<!DOCTYPE svg PUBLIC "-//W3C//DTD SVG 1.1//EN" "http://www.w3.org/Graphics/SVG/1.1/DTD/svg11.dtd">
<svg version="1.1" id="Layer_1" xmlns:ev="http://www.w3.org/2001/xml-events"
	 xmlns="http://www.w3.org/2000/svg" xmlns:xlink="http://www.w3.org/1999/xlink" x="0px" y="0px" width="22px" height="545.085px"
	 viewBox="0 0 22 545.085" enable-background="new 0 0 22 545.085" xml:space="preserve">
<path fill="#747474" d="M6.42,6.087L3.681,6.092c0,0-2.165,0.098-2.161,2.193v0.057C1.066,8.653,0.767,9.175,0.767,9.768
	c0,0.593,0.301,1.117,0.757,1.429c0.003,0.257,0.087,2.389,2.081,2.386c0,0,0.825,0.031,0.754,1.352l0.008,5.211
	c0,0-0.131,0.836,0.708,0.836c0,0,2.45-0.355,1.231-2.856c0.917-0.949-0.394-1.503,0.128-3.056c0,0,0.706-0.979,0.705-1.536
	l0.032-6.655C7.173,6.877,7.305,6.085,6.42,6.087z M18.971,7.432L18.96,1.35c-0.002-0.795-0.672,0.089-0.672,0.089
	C15.107,6.393,8.53,6.007,8.53,6.007C7.755,6.008,7.879,6.67,7.879,6.67l0.011,5.744c0,0.663,0.695,0.662,0.695,0.662
	c7.351-0.014,9.865,4.63,9.865,4.63s0.579,0.719,0.538-0.032l-0.012-6.069c0.744-0.4,1.258-1.183,1.256-2.089
	C20.232,8.607,19.715,7.831,18.971,7.432z M19.773,10.193c0,0,0.224-1.034-0.608-2.254C19.165,7.939,20.282,8.589,19.773,10.193z
	 M19.125,61H2.875C1.841,61,1,61.841,1,62.875v16.25C1,80.159,1.841,81,2.875,81h16.25C20.159,81,21,80.159,21,79.125v-16.25
	C21,61.841,20.159,61,19.125,61z M18.813,75.687c0,0.688-0.563,1.25-1.25,1.25H12.25c-0.688,0-1.25,0.422-1.25,0.938
	s-0.562,0.937-1.25,0.937H4.437c-0.687,0-1.25-0.562-1.25-1.25V64.437c0-0.687,0.563-1.25,1.25-1.25h13.125
	c0.688,0,1.25,0.563,1.25,1.25V75.687z M4.75,65.776h12.5v1.25H4.75V65.776z M4.75,68.276h7.869v1.25H4.75V68.276z M4.75,70.776
	h10.354v1.249H4.75V70.776z M4.5,123h3.4c0.828,0,1.5,0.671,1.5,1.5v3.4c0,0.828-0.672,1.5-1.5,1.5H4.5c-0.828,0-1.5-0.672-1.5-1.5
	v-3.4C3,123.671,3.672,123,4.5,123z M14.1,123h3.4c0.828,0,1.5,0.671,1.5,1.5v3.4c0,0.828-0.672,1.5-1.5,1.5h-3.4
	c-0.828,0-1.5-0.672-1.5-1.5v-3.4C12.6,123.671,13.271,123,14.1,123z M4.5,132.6h3.4c0.828,0,1.5,0.672,1.5,1.5v3.4
	c0,0.828-0.672,1.5-1.5,1.5H4.5c-0.828,0-1.5-0.672-1.5-1.5v-3.4C3,133.271,3.672,132.6,4.5,132.6z M14.1,132.6h3.4
	c0.828,0,1.5,0.672,1.5,1.5v3.4c0,0.828-0.672,1.5-1.5,1.5h-3.4c-0.828,0-1.5-0.672-1.5-1.5v-3.4
	C12.6,133.271,13.271,132.6,14.1,132.6z M19.125,121H2.875C1.841,121,1,121.841,1,122.875v16.25C1,140.159,1.841,141,2.875,141
	h16.25c1.034,0,1.875-0.841,1.875-1.875v-16.25C21,121.841,20.159,121,19.125,121z M9.75,139.813H3.438
	c-0.688,0-1.251-0.563-1.251-1.25v-15.125c0-0.687,0.563-1.25,1.251-1.25h15.125c0.688,0,1.25,0.563,1.25,1.25v15.25
	c0,0.688-0.563,1.25-1.25,1.25 M19.125,171H2.875C1.841,171,1,171.841,1,172.875v16.25C1,190.159,1.841,191,2.875,191h16.25
	c1.034,0,1.875-0.841,1.875-1.875v-16.25C21,171.841,20.159,171,19.125,171z M9.75,189.813H3.438c-0.688,0-1.251-0.563-1.251-1.25
	v-15.125c0-0.688,0.563-1.25,1.251-1.25h15.125c0.688,0,1.25,0.563,1.25,1.25v15.25c0,0.688-0.563,1.25-1.25,1.25 M4.44,185.471
	l1.662-4.418h0.316v4.418H4.44z M17.79,185.468h2.209v-4.417l-4.419,0.002l0.002,2.207v2.208H17.79z M17.79,185.577h-2.208v4.418H20
	l-0.001-4.418H17.79z M6.415,176.529L2,176.533v4.415h2.796l1.167-3.103c0.076-0.197,0.248-0.332,0.452-0.378V176.529z
	 M11.057,189.997l4.414-0.002v-4.418l-4.414,0.002V189.997z M17.789,176.527h-2.068l-0.142,0.281v4.137l4.418-0.004l-0.002-4.416
	L17.789,176.527z M6.527,185.579l0.001,2.216l0.002,2.202h4.417v-4.418H8.736H6.527z M15.775,176.418l4.221-0.002v-3.455
	l-3.729,2.475L15.775,176.418z M12.037,181.053h-0.983l0.001,1.934l0.008,0.009L12.037,181.053z M2.003,185.582v2.787l1.046-2.79
	L2.003,185.582z M14.311,176.527h-3.255v4.418h1.038L14.311,176.527z M2.003,185.475h1.09l1.661-4.418H2L2.003,185.475z
	 M6.415,176.421v-4.417H2v4.422L6.415,176.421z M8.019,181.053H6.526v4.418h2.21h2.211v-0.709c-0.11-0.039-0.209-0.102-0.283-0.199
	L8.019,181.053z M15.471,180.945v-3.922l-1.969,3.922H15.471z M11.054,176.418h3.309l0.851-1.693c0.05-0.095,0.121-0.182,0.214-0.24
	l0.04-0.027v-0.255L15.466,172l-4.417,0.003l0.002,2.207L11.054,176.418z M10.942,174.21l-0.001-2.206H6.524v4.417l4.421-0.003
	L10.942,174.21z M6.527,179.93v1.014h1.411l-1.197-1.584L6.527,179.93z M9.597,181.053l1.349,1.788l-0.001-1.788H9.597z
	 M15.579,174.384l3.591-2.383h-3.595l0.003,2.204L15.579,174.384L15.579,174.384z M4.4,185.579L2.736,190l3.683-0.003l-0.001-2.202
	l-0.002-2.216H4.4z M13.449,181.053l-1.715,3.412c-0.098,0.195-0.291,0.326-0.506,0.346c-0.063,0.004-0.115-0.02-0.171-0.029v0.689
	l4.414-0.003v-2.206v-2.209H13.449z M9.515,180.945h1.43v-4.418l-4.421,0.002v0.924c0.208-0.008,0.409,0.07,0.537,0.238
	L9.515,180.945z M6.418,180.945v-0.725l-0.274,0.725H6.418z M10.975,231.001c-5.522,0.074-9.939,4.61-9.866,10.133
	c0.074,5.523,4.611,9.939,10.133,9.865c5.521-0.073,9.939-4.61,9.865-10.132C21.034,235.343,16.497,230.927,10.975,231.001z
	 M10.992,232.305c1.49-0.02,2.896,0.336,4.131,0.98l-1.346,2.242c-0.807-0.393-1.711-0.614-2.668-0.614
	c-0.958,0-1.863,0.222-2.669,0.614l-1.345-2.24C8.263,232.678,9.586,232.324,10.992,232.305z M5.637,243.668l-2.242,1.346
	c-0.608-1.168-0.963-2.49-0.981-3.897c-0.02-1.489,0.336-2.896,0.98-4.13l2.243,1.346c-0.394,0.807-0.615,1.711-0.615,2.668
	S5.243,242.863,5.637,243.668z M11.225,249.695c-1.489,0.02-2.896-0.338-4.13-0.981l1.346-2.241c0.805,0.393,1.71,0.614,2.668,0.614
	c0.958,0,1.862-0.222,2.667-0.614l1.347,2.241C13.954,249.322,12.631,249.676,11.225,249.695z M11.109,245.783
	c-2.642,0-4.783-2.141-4.783-4.783c0-2.641,2.141-4.783,4.783-4.783c2.641,0,4.782,2.143,4.782,4.783
	C15.891,243.643,13.75,245.783,11.109,245.783z M16.58,243.668c0.395-0.805,0.615-1.711,0.615-2.668s-0.221-1.861-0.615-2.668
	l2.242-1.346c0.609,1.168,0.963,2.492,0.98,3.897c0.021,1.49-0.336,2.896-0.979,4.13L16.58,243.668z"/>
<path fill="#EE4B08" d="M6.42,300.173l-2.739,0.005c0,0-2.165,0.098-2.161,2.193v0.057c-0.454,0.311-0.753,0.833-0.753,1.426
	c0,0.594,0.301,1.117,0.757,1.43c0.003,0.257,0.087,2.389,2.081,2.386c0,0,0.825,0.031,0.754,1.353l0.008,5.211
	c0,0-0.131,0.836,0.708,0.836c0,0,2.45-0.355,1.231-2.856c0.917-0.949-0.394-1.503,0.128-3.056c0,0,0.706-0.979,0.705-1.536
	l0.032-6.655C7.173,300.963,7.305,300.171,6.42,300.173z M18.971,301.518l-0.011-6.082c-0.002-0.795-0.672,0.09-0.672,0.09
	c-3.181,4.953-9.758,4.567-9.758,4.567c-0.775,0.001-0.651,0.663-0.651,0.663L7.89,306.5c0,0.663,0.695,0.662,0.695,0.662
	c7.351-0.014,9.865,4.63,9.865,4.63s0.579,0.719,0.538-0.032l-0.012-6.068c0.744-0.4,1.258-1.184,1.256-2.09
	C20.232,302.693,19.715,301.917,18.971,301.518z M19.773,304.279c0,0,0.224-1.034-0.608-2.254
	C19.165,302.025,20.282,302.675,19.773,304.279z M19.125,355.086H2.875c-1.034,0-1.875,0.841-1.875,1.875v16.25
	c0,1.034,0.841,1.875,1.875,1.875h16.25c1.034,0,1.875-0.841,1.875-1.875v-16.25C21,355.927,20.159,355.086,19.125,355.086z
	 M18.813,369.773c0,0.688-0.563,1.25-1.25,1.25H12.25c-0.688,0-1.25,0.422-1.25,0.938s-0.562,0.938-1.25,0.938H4.437
	c-0.687,0-1.25-0.563-1.25-1.25v-13.125c0-0.688,0.563-1.25,1.25-1.25h13.125c0.688,0,1.25,0.563,1.25,1.25V369.773z M4.75,359.861
	h12.5v1.25H4.75V359.861z M4.75,362.361h7.869v1.25H4.75V362.361z M4.75,364.861h10.354v1.25H4.75V364.861z M4.5,417.086h3.4
	c0.828,0,1.5,0.671,1.5,1.5v3.4c0,0.828-0.672,1.5-1.5,1.5H4.5c-0.828,0-1.5-0.672-1.5-1.5v-3.4
	C3,417.757,3.672,417.086,4.5,417.086z M14.1,417.086h3.4c0.828,0,1.5,0.671,1.5,1.5v3.4c0,0.828-0.672,1.5-1.5,1.5h-3.4
	c-0.828,0-1.5-0.672-1.5-1.5v-3.4C12.6,417.757,13.271,417.086,14.1,417.086z M4.5,426.686h3.4c0.828,0,1.5,0.672,1.5,1.5v3.4
	c0,0.828-0.672,1.5-1.5,1.5H4.5c-0.828,0-1.5-0.672-1.5-1.5v-3.4C3,427.357,3.672,426.686,4.5,426.686z M14.1,426.686h3.4
	c0.828,0,1.5,0.672,1.5,1.5v3.4c0,0.828-0.672,1.5-1.5,1.5h-3.4c-0.828,0-1.5-0.672-1.5-1.5v-3.4
	C12.6,427.357,13.271,426.686,14.1,426.686z M19.125,415.086H2.875c-1.034,0-1.875,0.841-1.875,1.875v16.25
	c0,1.034,0.841,1.875,1.875,1.875h16.25c1.034,0,1.875-0.841,1.875-1.875v-16.25C21,415.927,20.159,415.086,19.125,415.086z
	 M9.75,433.898H3.438c-0.688,0-1.251-0.563-1.251-1.25v-15.125c0-0.688,0.563-1.25,1.251-1.25h15.125c0.688,0,1.25,0.563,1.25,1.25
	v15.25c0,0.688-0.563,1.25-1.25,1.25 M19.125,465.086H2.875c-1.034,0-1.875,0.841-1.875,1.875v16.25
	c0,1.034,0.841,1.875,1.875,1.875h16.25c1.034,0,1.875-0.841,1.875-1.875v-16.25C21,465.927,20.159,465.086,19.125,465.086z
	 M9.75,483.898H3.438c-0.688,0-1.251-0.563-1.251-1.25v-15.125c0-0.688,0.563-1.25,1.251-1.25h15.125c0.688,0,1.25,0.563,1.25,1.25
	v15.25c0,0.688-0.563,1.25-1.25,1.25 M4.44,479.557l1.662-4.418h0.316v4.418H4.44z M17.79,479.554h2.209v-4.417l-4.419,0.002
	l0.002,2.207v2.208H17.79z M17.79,479.663h-2.208v4.418H20l-0.001-4.418H17.79z M6.415,470.615L2,470.619v4.415h2.796l1.167-3.103
	c0.076-0.197,0.248-0.332,0.452-0.378V470.615z M11.057,484.083l4.414-0.002v-4.418l-4.414,0.002V484.083z M17.789,470.613h-2.068
	l-0.142,0.281v4.137l4.418-0.004l-0.002-4.416L17.789,470.613z M6.527,479.665l0.001,2.216l0.002,2.202h4.417v-4.418H8.736H6.527z
	 M15.775,470.504l4.221-0.002v-3.455l-3.729,2.475L15.775,470.504z M12.037,475.139h-0.983l0.001,1.934l0.008,0.009L12.037,475.139z
	 M2.003,479.668v2.787l1.046-2.79L2.003,479.668z M14.311,470.613h-3.255v4.418h1.038L14.311,470.613z M2.003,479.561h1.09
	l1.661-4.418H2L2.003,479.561z M6.415,470.507v-4.417H2v4.422L6.415,470.507z M8.019,475.139H6.526v4.418h2.21h2.211v-0.709
	c-0.11-0.039-0.209-0.102-0.283-0.199L8.019,475.139z M15.471,475.031v-3.922l-1.969,3.922H15.471z M11.054,470.504h3.309
	l0.851-1.693c0.05-0.095,0.121-0.182,0.214-0.24l0.04-0.027v-0.255l-0.002-2.202l-4.417,0.003l0.002,2.207L11.054,470.504z
	 M10.942,468.296l-0.001-2.206H6.524v4.417l4.421-0.003L10.942,468.296z M6.527,474.016v1.014h1.411l-1.197-1.584L6.527,474.016z
	 M9.597,475.139l1.349,1.788l-0.001-1.788H9.597z M15.579,468.47l3.591-2.383h-3.595l0.003,2.204L15.579,468.47L15.579,468.47z
	 M4.4,479.665l-1.664,4.421l3.683-0.003l-0.001-2.202l-0.002-2.216H4.4z M13.449,475.139l-1.715,3.412
	c-0.098,0.195-0.291,0.326-0.506,0.346c-0.063,0.004-0.115-0.02-0.171-0.029v0.689l4.414-0.003v-2.206v-2.209H13.449z
	 M9.515,475.031h1.43v-4.418l-4.421,0.002v0.924c0.208-0.008,0.409,0.07,0.537,0.238L9.515,475.031z M6.418,475.031v-0.725
	l-0.274,0.725H6.418z M10.975,525.087c-5.522,0.074-9.939,4.61-9.866,10.133c0.074,5.523,4.611,9.939,10.133,9.865
	c5.521-0.073,9.939-4.61,9.865-10.132C21.034,529.429,16.497,525.013,10.975,525.087z M10.992,526.391
	c1.49-0.02,2.896,0.336,4.131,0.98l-1.346,2.242c-0.807-0.393-1.711-0.614-2.668-0.614c-0.958,0-1.863,0.222-2.669,0.614
	l-1.345-2.24C8.263,526.764,9.586,526.41,10.992,526.391z M5.637,537.754L3.395,539.1c-0.608-1.168-0.963-2.49-0.981-3.897
	c-0.02-1.489,0.336-2.896,0.98-4.13l2.243,1.346c-0.394,0.807-0.615,1.711-0.615,2.668S5.243,536.949,5.637,537.754z
	 M11.225,543.781c-1.489,0.02-2.896-0.338-4.13-0.981l1.346-2.241c0.805,0.393,1.71,0.614,2.668,0.614
	c0.958,0,1.862-0.222,2.667-0.614l1.347,2.241C13.954,543.408,12.631,543.762,11.225,543.781z M11.109,539.869
	c-2.642,0-4.783-2.141-4.783-4.783c0-2.641,2.141-4.783,4.783-4.783c2.641,0,4.782,2.143,4.782,4.783
	C15.891,537.729,13.75,539.869,11.109,539.869z M16.58,537.754c0.395-0.805,0.615-1.711,0.615-2.668s-0.221-1.861-0.615-2.668
	l2.242-1.346c0.609,1.168,0.963,2.492,0.98,3.897c0.021,1.49-0.336,2.896-0.979,4.13L16.58,537.754z"/>
</svg>
