<?xml version="1.0" encoding="utf-8"?>
<!-- Generator: Adobe Illustrator 16.0.0, SVG Export Plug-In . SVG Version: 6.00 Build 0)  -->
<!DOCTYPE svg PUBLIC "-//W3C//DTD SVG 1.1//EN" "http://www.w3.org/Graphics/SVG/1.1/DTD/svg11.dtd">
<svg version="1.1" id="Layer_1" xmlns="http://www.w3.org/2000/svg" xmlns:xlink="http://www.w3.org/1999/xlink" x="0px" y="0px"
	 width="19px" height="802.952px" viewBox="0 0 19 802.952" enable-background="new 0 0 19 802.952" xml:space="preserve">
<g>
	<g>
		<path fill="#757575" d="M17.38,94.577H4.748c-0.862,0-1.617,0.755-1.617,1.618v0.97H1.619C0.755,97.166,0,97.923,0,98.785v16.303
			c0,0.862,0.755,1.619,1.619,1.619h12.63c0.862,0,1.62-0.757,1.62-1.619v-0.972h1.513c0.86,0,1.618-0.755,1.618-1.619v-16.3
			C19,95.225,18.244,94.577,17.38,94.577z M14.572,115.089L14.572,115.089c0,0.216-0.109,0.324-0.323,0.324H1.619
			c-0.215,0-0.326-0.108-0.326-0.324V98.787c0-0.215,0.11-0.323,0.326-0.323h1.512V112.5c0,0.863,0.755,1.618,1.62,1.618h9.821
			V115.089L14.572,115.089z M17.705,112.5c0,0.214-0.109,0.322-0.323,0.322H4.751c-0.216,0-0.325-0.108-0.325-0.322V96.196
			c0-0.214,0.109-0.322,0.325-0.322h12.631c0.214,0,0.323,0.108,0.323,0.322V112.5z M15.544,98.464H6.045
			c-0.326,0-0.648,0.323-0.648,0.647c0,0.324,0.323,0.647,0.648,0.647h9.499c0.325,0,0.647-0.323,0.647-0.647
			C16.193,98.68,15.869,98.464,15.544,98.464z M15.544,101.487H6.045c-0.326,0-0.648,0.323-0.648,0.647
			c0,0.324,0.323,0.647,0.648,0.647h9.499c0.325,0,0.647-0.323,0.647-0.647C16.193,101.702,15.869,101.487,15.544,101.487z
			 M15.544,104.401H6.045c-0.326,0-0.648,0.323-0.648,0.646c0,0.323,0.323,0.646,0.648,0.646h9.499c0.325,0,0.647-0.323,0.647-0.646
			C16.193,104.725,15.869,104.401,15.544,104.401z M15.544,107.423H6.045c-0.326,0-0.648,0.322-0.648,0.646
			c0,0.324,0.323,0.647,0.648,0.647h9.499c0.325,0,0.647-0.323,0.647-0.647C16.191,107.745,15.869,107.423,15.544,107.423z"/>
	</g>
</g>
<g id="InviteKinnectors">
	<g>
		<path fill="none" stroke="#757575" stroke-width="0.8" stroke-miterlimit="10" d="M9.499,66.985c5.315,0,8.177-0.271,8.177-0.271
			c1.488-0.101,1.318-0.888,1.318-0.888c0-0.642-0.67-1.869-0.67-1.869c-1.375-2.396-3.813-3.173-3.813-3.173
			c-1.557-0.564-2.395-1.126-2.395-1.69c0-0.562,0.441-1.212,0.441-1.212c1.922-2.713,1.825-4.932,1.825-4.932
			c0-4.728-4.886-4.793-4.886-4.793s-4.883,0.065-4.883,4.79c0,0-0.096,2.222,1.823,4.935c0,0,0.444,0.65,0.444,1.212
			c0,0.564-0.839,1.126-2.394,1.69c0,0-2.443,0.777-3.815,3.173c0,0-0.667,1.228-0.667,1.869c0,0-0.175,0.784,1.317,0.888
			C1.322,66.714,4.188,66.985,9.499,66.985z"/>
	</g>
</g>
<path fill="none" stroke="#747575" stroke-width="0.9" stroke-miterlimit="10" d="M15.958,191.05
	c-1.211-0.952-2.959-1.501-5.248-1.647v-1.538H8.473v1.538c-2.512,0.135-4.405,0.822-5.677,2.061
	c-1.272,1.239-1.907,2.78-1.907,4.624c0,1.348,0.316,2.489,0.949,3.428c0.632,0.938,1.381,1.62,2.244,2.044
	c0.864,0.425,2.327,0.928,4.391,1.509v5.488c-0.715-0.351-1.229-0.755-1.541-1.211c-0.312-0.456-0.559-1.196-0.741-2.222L0,205.854
	c0.184,1.035,0.459,1.919,0.828,2.648c0.368,0.73,0.891,1.411,1.569,2.044c0.679,0.631,1.488,1.125,2.422,1.482
	s2.152,0.604,3.654,0.737v2.937h2.237v-2.937c1.257-0.052,2.319-0.22,3.187-0.505c0.871-0.284,1.688-0.744,2.459-1.375
	c0.771-0.632,1.404-1.42,1.9-2.363c0.494-0.942,0.744-1.979,0.744-3.11c0-1.928-0.689-3.518-2.068-4.771
	c-1.043-0.935-3.115-1.819-6.222-2.659v-4.494c0.532,0.29,0.913,0.578,1.144,0.862c0.229,0.285,0.486,0.795,0.772,1.529l5.699-0.915
	C17.957,193.308,17.169,192.003,15.958,191.05z M8.473,197.406c-0.646-0.229-1.099-0.511-1.358-0.849
	c-0.26-0.339-0.388-0.737-0.388-1.194c0-0.438,0.126-0.817,0.383-1.139c0.254-0.324,0.709-0.595,1.363-0.813V197.406z
	 M10.71,203.727c0.992,0.353,1.659,0.733,2,1.144c0.342,0.411,0.513,0.86,0.513,1.348c0,0.563-0.201,1.068-0.604,1.521
	c-0.405,0.452-1.041,0.775-1.909,0.974V203.727z"/>
<g>
	<g>
		
			<rect x="3.242" y="149.188" fill="#747575" stroke="#747575" stroke-width="0.5" stroke-miterlimit="10" width="8.595" height="0.754"/>
		
			<rect x="3.242" y="153.333" fill="#747575" stroke="#747575" stroke-width="0.5" stroke-miterlimit="10" width="7.766" height="0.754"/>
		
			<rect x="3.242" y="157.479" fill="#747575" stroke="#747575" stroke-width="0.5" stroke-miterlimit="10" width="5.769" height="0.754"/>
		<path fill="#747575" stroke="#747575" stroke-width="0.5" stroke-miterlimit="10" d="M18.132,147.152
			c0-1.269-0.997-2.279-2.262-2.298H2.528c-0.906,0-1.66,0.754-1.66,1.66v16.057h13.419v-9.767h3.845V147.152z M13.533,161.817
			H1.582V146.51c0-0.489,0.413-0.906,0.942-0.906H14.12c-0.366,0.406-0.587,0.946-0.587,1.548V161.817z M17.418,152.05h-3.127
			l-0.037-4.898c0-0.75,0.537-1.389,1.243-1.548h0.377v-0.036c0.853,0.021,1.548,0.729,1.548,1.584v4.898H17.418z"/>
	</g>
</g>
<g>
	<g>
		<g>
			<path fill="#757575" d="M18.6,0H0.403C0.183,0,0,0.183,0,0.404v18.192C0,18.822,0.183,19,0.403,19h18.193
				C18.82,19,19,18.817,19,18.596V0.404C19.004,0.183,18.82,0,18.6,0z M0.811,0.811h17.384v2.513H0.811V0.811z M18.191,18.193H0.811
				V4.131h17.384v14.062H18.191z"/>
			<path fill="#757575" d="M2.905,1.66H2.099c-0.226,0-0.404,0.183-0.404,0.403c0,0.221,0.183,0.403,0.404,0.403h0.806
				c0.226,0,0.404-0.182,0.404-0.403C3.309,1.843,3.126,1.66,2.905,1.66z"/>
			<path fill="#757575" d="M5.418,1.66H4.611c-0.224,0-0.402,0.183-0.402,0.403c0,0.221,0.182,0.403,0.402,0.403h0.807
				c0.225,0,0.403-0.182,0.403-0.403C5.821,1.843,5.643,1.66,5.418,1.66z"/>
			<path fill="#757575" d="M16.906,1.66H9.885c-0.224,0-0.403,0.183-0.403,0.403c0,0.221,0.184,0.403,0.403,0.403h7.021
				c0.225,0,0.402-0.182,0.402-0.403C17.309,1.843,17.131,1.66,16.906,1.66z"/>
		</g>
	</g>
	<path fill="#747575" d="M7.25,16.973h8.462c0.452,0,0.82-0.368,0.82-0.82V14.46c0-0.452-0.368-0.82-0.82-0.82H7.25
		c-0.452,0-0.819,0.368-0.819,0.82v1.692C6.431,16.604,6.798,16.973,7.25,16.973z M7.224,14.46c0-0.015,0.012-0.027,0.026-0.027
		h8.462c0.015,0,0.026,0.012,0.026,0.027v1.692c0,0.015-0.012,0.026-0.026,0.026H7.25c-0.014,0-0.026-0.012-0.026-0.026V14.46z"/>
	<path fill="#747575" d="M4.127,16.973c0.919,0,1.666-0.748,1.666-1.666s-0.747-1.666-1.666-1.666c-0.918,0-1.667,0.748-1.667,1.666
		S3.208,16.973,4.127,16.973z M4.127,14.434c0.48,0,0.872,0.392,0.872,0.873S4.607,16.18,4.127,16.18
		c-0.481,0-0.873-0.391-0.873-0.873S3.646,14.434,4.127,14.434z"/>
	<path fill="#747575" d="M7.197,13.01h8.462c0.452,0,0.819-0.367,0.819-0.819v-1.692c0-0.452-0.367-0.82-0.819-0.82H7.197
		c-0.452,0-0.82,0.368-0.82,0.82v1.692C6.377,12.643,6.745,13.01,7.197,13.01z M7.17,10.499c0-0.016,0.011-0.027,0.027-0.027h8.462
		c0.015,0,0.026,0.012,0.026,0.027v1.692c0,0.014-0.013,0.026-0.026,0.026H7.197c-0.016,0-0.027-0.012-0.027-0.026V10.499z"/>
	<path fill="#747575" d="M4.073,13.056c0.919,0,1.667-0.748,1.667-1.666S4.992,9.724,4.073,9.724c-0.918,0-1.666,0.748-1.666,1.666
		S3.154,13.056,4.073,13.056z M4.073,10.518c0.481,0,0.873,0.392,0.873,0.873s-0.392,0.873-0.873,0.873
		c-0.481,0-0.873-0.392-0.873-0.873C3.2,10.909,3.592,10.518,4.073,10.518z"/>
	<path fill="#747575" d="M7.212,9.033h8.462c0.451,0,0.819-0.368,0.819-0.82V6.521c0-0.452-0.368-0.82-0.819-0.82H7.212
		c-0.452,0-0.82,0.368-0.82,0.82v1.692C6.393,8.665,6.761,9.033,7.212,9.033z M7.186,6.521c0-0.015,0.012-0.027,0.026-0.027h8.462
		c0.014,0,0.026,0.012,0.026,0.027v1.692c0,0.014-0.013,0.026-0.026,0.026H7.212c-0.014,0-0.026-0.012-0.026-0.026V6.521z"/>
	<path fill="#747575" d="M4.088,9.033c0.918,0,1.667-0.748,1.667-1.667c0-0.918-0.748-1.666-1.667-1.666S2.422,6.447,2.422,7.366
		C2.422,8.286,3.169,9.033,4.088,9.033z M4.088,6.494c0.481,0,0.873,0.392,0.873,0.873c0,0.481-0.391,0.873-0.873,0.873
		c-0.48,0-0.872-0.392-0.872-0.873C3.217,6.886,3.608,6.494,4.088,6.494z"/>
</g>
<g>
	<g>
		<path fill="#747575" d="M17.854,244.244v-2.418c0-0.264-0.213-0.478-0.478-0.478H0.478c-0.264,0-0.478,0.214-0.478,0.478v13.613
			c0,0.264,0.214,0.477,0.478,0.477h1.909v1.108c0,0.737,0.6,1.337,1.337,1.337h13.939c0.737,0,1.337-0.6,1.337-1.337v-11.458
			C19,244.894,18.501,244.337,17.854,244.244z M0.955,254.96v-12.658H16.9v1.928h-4.584c-0.735,0-1.336,0.6-1.336,1.336
			c0,0.211-0.172,0.383-0.383,0.383H3.724c-0.737,0-1.337,0.6-1.337,1.336v7.676L0.955,254.96L0.955,254.96z M18.045,257.024
			c0,0.21-0.171,0.382-0.382,0.382H3.724c-0.21,0-0.382-0.172-0.382-0.382v-9.739c0-0.21,0.171-0.381,0.382-0.381h6.874
			c0.737,0,1.338-0.6,1.338-1.338c0-0.21,0.17-0.381,0.381-0.381h5.348c0.211,0,0.382,0.171,0.382,0.381L18.045,257.024
			L18.045,257.024z"/>
		<path fill="#747575" d="M9.452,248.335H5.06c-0.263,0-0.477,0.214-0.477,0.478s0.214,0.478,0.477,0.478h4.392
			c0.264,0,0.478-0.214,0.478-0.478S9.716,248.335,9.452,248.335z"/>
		<path fill="#747575" d="M9.452,249.958H5.06c-0.263,0-0.477,0.214-0.477,0.478s0.214,0.478,0.477,0.478h4.392
			c0.264,0,0.478-0.214,0.478-0.478S9.716,249.958,9.452,249.958z"/>
	</g>
	<g>
		<path fill="#747575" d="M15.813,251.326v-0.7c0-0.999-0.813-1.813-1.813-1.813s-1.813,0.813-1.813,1.813v0.7
			c-0.26,0.05-0.455,0.278-0.455,0.551v1.252c0,1.251,1.019,2.268,2.269,2.268s2.269-1.017,2.269-2.268v-1.252
			C16.268,251.604,16.07,251.375,15.813,251.326z M12.854,251.316v-0.69c0-0.631,0.515-1.145,1.146-1.145s1.146,0.514,1.146,1.145
			v0.69H12.854z M16.055,253.128c0,1.133-0.923,2.055-2.056,2.055s-2.056-0.922-2.056-2.055v-1.252c0-0.191,0.156-0.348,0.35-0.348
			h3.412c0.191,0,0.35,0.156,0.35,0.348V253.128z"/>
		<path fill="#747575" d="M14.563,253.014c0-0.172-0.078-0.332-0.213-0.439c-0.137-0.107-0.313-0.146-0.482-0.106
			c-0.201,0.047-0.363,0.207-0.412,0.406c-0.055,0.223,0.025,0.447,0.202,0.583l-0.084,0.548c-0.009,0.063,0.009,0.127,0.051,0.177
			c0.042,0.048,0.103,0.076,0.167,0.076h0.001l0.417-0.001c0.064,0,0.125-0.029,0.168-0.077c0.041-0.049,0.059-0.113,0.05-0.177
			l-0.084-0.546C14.479,253.351,14.563,253.187,14.563,253.014z"/>
	</g>
</g>
<g>
	<g>
		<path fill="#EC4D24" d="M17.441,383H4.809c-0.862,0-1.617,0.756-1.617,1.619v0.971H1.68c-0.864,0-1.619,0.758-1.619,1.619v16.303
			c0,0.861,0.755,1.619,1.619,1.619h12.63c0.86,0,1.619-0.758,1.619-1.619v-0.973h1.514c0.858,0,1.617-0.756,1.617-1.619v-16.299
			C19.061,383.651,18.305,383,17.441,383z M14.633,403.514L14.633,403.514c0,0.217-0.109,0.324-0.322,0.324H1.68
			c-0.215,0-0.326-0.107-0.326-0.324v-16.303c0-0.215,0.11-0.322,0.326-0.322h1.512v14.035c0,0.863,0.755,1.617,1.62,1.617h9.821
			V403.514L14.633,403.514z M17.766,400.924c0,0.215-0.108,0.322-0.322,0.322H4.812c-0.216,0-0.325-0.107-0.325-0.322v-16.303
			c0-0.215,0.109-0.322,0.325-0.322h12.631c0.213,0,0.322,0.107,0.322,0.322V400.924L17.766,400.924z M15.605,386.889h-9.5
			c-0.326,0-0.648,0.322-0.648,0.646s0.323,0.646,0.648,0.646h9.5c0.324,0,0.647-0.322,0.647-0.646
			C16.256,387.104,15.93,386.889,15.605,386.889z M15.605,389.913h-9.5c-0.326,0-0.648,0.322-0.648,0.646s0.323,0.646,0.648,0.646
			h9.5c0.324,0,0.647-0.322,0.647-0.646C16.256,390.125,15.93,389.913,15.605,389.913z M15.605,392.827h-9.5
			c-0.326,0-0.648,0.322-0.648,0.646c0,0.322,0.323,0.646,0.648,0.646h9.5c0.324,0,0.647-0.324,0.647-0.646
			C16.256,393.149,15.93,392.827,15.605,392.827z M15.605,395.848h-9.5c-0.326,0-0.648,0.322-0.648,0.646s0.323,0.645,0.648,0.645
			h9.5c0.324,0,0.647-0.32,0.647-0.645S15.93,395.848,15.605,395.848z"/>
	</g>
</g>
<g id="InviteKinnectors_1_">
	<g>
		<path fill="none" stroke="#EC4D24" stroke-width="0.8" stroke-miterlimit="10" d="M9.56,355.411c5.315,0,8.176-0.271,8.176-0.271
			c1.488-0.1,1.318-0.887,1.318-0.887c0-0.643-0.67-1.869-0.67-1.869c-1.375-2.396-3.813-3.174-3.813-3.174
			c-1.557-0.564-2.396-1.127-2.396-1.689s0.443-1.213,0.443-1.213c1.92-2.713,1.823-4.932,1.823-4.932
			c0-4.729-4.885-4.793-4.885-4.793s-4.883,0.064-4.883,4.789c0,0-0.096,2.223,1.823,4.936c0,0,0.444,0.65,0.444,1.213
			s-0.839,1.125-2.394,1.689c0,0-2.443,0.777-3.815,3.174c0,0-0.667,1.229-0.667,1.869c0,0-0.175,0.783,1.317,0.887
			C1.383,355.139,4.249,355.411,9.56,355.411z"/>
	</g>
</g>
<path fill="none" stroke="#EC4D24" stroke-width="0.9" stroke-miterlimit="10" d="M16.02,479.475
	c-1.211-0.951-2.959-1.502-5.248-1.646v-1.539H8.534v1.539c-2.512,0.135-4.405,0.822-5.677,2.061s-1.907,2.779-1.907,4.623
	c0,1.35,0.316,2.49,0.949,3.43c0.632,0.938,1.381,1.619,2.244,2.043c0.864,0.426,2.327,0.928,4.391,1.51v5.488
	c-0.715-0.352-1.229-0.756-1.541-1.211c-0.312-0.457-0.559-1.197-0.741-2.223l-6.191,0.73c0.184,1.035,0.459,1.918,0.828,2.646
	c0.368,0.73,0.891,1.412,1.569,2.045c0.679,0.631,1.488,1.125,2.422,1.482s2.152,0.604,3.654,0.736v2.938h2.237v-2.938
	c1.256-0.053,2.317-0.221,3.186-0.504c0.871-0.285,1.689-0.744,2.459-1.375c0.771-0.633,1.404-1.422,1.9-2.363
	c0.494-0.943,0.744-1.98,0.744-3.111c0-1.928-0.689-3.518-2.068-4.77c-1.043-0.936-3.115-1.82-6.221-2.66v-4.494
	c0.53,0.291,0.912,0.578,1.143,0.863s0.486,0.795,0.773,1.527l5.699-0.914C18.018,481.733,17.23,480.428,16.02,479.475z
	 M8.534,485.831c-0.646-0.229-1.099-0.51-1.358-0.848c-0.26-0.34-0.388-0.738-0.388-1.195c0-0.438,0.126-0.816,0.383-1.139
	c0.254-0.324,0.709-0.596,1.363-0.813V485.831z M10.771,492.153c0.992,0.352,1.658,0.732,2,1.143
	c0.342,0.412,0.512,0.861,0.512,1.348c0,0.563-0.201,1.068-0.604,1.521c-0.404,0.453-1.041,0.775-1.908,0.975V492.153z"/>
<g>
	<g>
		
			<rect x="3.303" y="437.614" fill="#EC4D24" stroke="#EC4D24" stroke-width="0.5" stroke-miterlimit="10" width="8.595" height="0.754"/>
		
			<rect x="3.303" y="441.758" fill="#EC4D24" stroke="#EC4D24" stroke-width="0.5" stroke-miterlimit="10" width="7.765" height="0.754"/>
		
			<rect x="3.303" y="445.905" fill="#EC4D24" stroke="#EC4D24" stroke-width="0.5" stroke-miterlimit="10" width="5.769" height="0.754"/>
		<path fill="#EC4D24" stroke="#EC4D24" stroke-width="0.5" stroke-miterlimit="10" d="M18.193,435.577
			c0-1.27-0.998-2.279-2.262-2.297H2.589c-0.906,0-1.66,0.754-1.66,1.66v16.057h13.418v-9.766h3.846V435.577z M13.594,450.243H1.643
			v-15.309c0-0.488,0.413-0.904,0.942-0.904h11.597c-0.367,0.404-0.589,0.945-0.589,1.547L13.594,450.243L13.594,450.243z
			 M17.479,440.475h-3.127l-0.037-4.898c0-0.75,0.537-1.387,1.244-1.547h0.377v-0.035c0.853,0.02,1.547,0.727,1.547,1.582v4.898
			H17.479z"/>
	</g>
</g>
<g>
	<g>
		<g>
			<path fill="#EC4D24" d="M18.66,288.424H0.464c-0.221,0-0.403,0.185-0.403,0.404v18.191c0,0.227,0.183,0.404,0.403,0.404h18.194
				c0.225,0,0.402-0.182,0.402-0.404v-18.189C19.064,288.609,18.883,288.424,18.66,288.424z M0.872,289.237h17.386v2.514H0.872
				V289.237z M18.254,306.62H0.872v-14.063h17.386v14.063H18.254z"/>
			<path fill="#EC4D24" d="M2.966,290.084H2.16c-0.226,0-0.404,0.185-0.404,0.404c0,0.221,0.183,0.402,0.404,0.402h0.806
				c0.226,0,0.404-0.182,0.404-0.402C3.37,290.269,3.187,290.084,2.966,290.084z"/>
			<path fill="#EC4D24" d="M5.479,290.084H4.672c-0.224,0-0.402,0.185-0.402,0.404c0,0.221,0.182,0.402,0.402,0.402h0.807
				c0.225,0,0.403-0.182,0.403-0.402C5.882,290.269,5.704,290.084,5.479,290.084z"/>
			<path fill="#EC4D24" d="M16.967,290.084H9.946c-0.224,0-0.403,0.185-0.403,0.404c0,0.221,0.184,0.402,0.403,0.402h7.021
				c0.225,0,0.402-0.182,0.402-0.402C17.369,290.269,17.191,290.084,16.967,290.084z"/>
		</g>
	</g>
	<path fill="#EC4D24" d="M7.311,305.399h8.462c0.451,0,0.819-0.367,0.819-0.82v-1.691c0-0.453-0.368-0.82-0.819-0.82H7.311
		c-0.452,0-0.819,0.367-0.819,0.82v1.691C6.492,305.032,6.859,305.399,7.311,305.399z M7.285,302.885
		c0-0.014,0.012-0.025,0.026-0.025h8.462c0.014,0,0.026,0.012,0.026,0.025v1.693c0,0.014-0.014,0.025-0.026,0.025H7.311
		c-0.014,0-0.026-0.012-0.026-0.025V302.885z"/>
	<path fill="#EC4D24" d="M4.188,305.399c0.919,0,1.666-0.748,1.666-1.666s-0.747-1.666-1.666-1.666
		c-0.918,0-1.667,0.748-1.667,1.666S3.27,305.399,4.188,305.399z M4.188,302.86c0.48,0,0.872,0.393,0.872,0.873
		s-0.392,0.873-0.872,0.873c-0.481,0-0.873-0.393-0.873-0.873C3.315,303.25,3.707,302.86,4.188,302.86z"/>
	<path fill="#EC4D24" d="M7.258,301.436h8.463c0.45,0,0.817-0.367,0.817-0.818v-1.691c0-0.453-0.367-0.82-0.817-0.82H7.258
		c-0.452,0-0.82,0.367-0.82,0.82v1.691C6.438,301.069,6.806,301.436,7.258,301.436z M7.231,298.924c0-0.016,0.011-0.025,0.027-0.025
		h8.463c0.014,0,0.024,0.012,0.024,0.025v1.691c0,0.016-0.013,0.025-0.024,0.025H7.258c-0.016,0-0.027-0.012-0.027-0.025V298.924z"
		/>
	<path fill="#EC4D24" d="M4.134,301.483c0.919,0,1.667-0.748,1.667-1.666s-0.748-1.666-1.667-1.666
		c-0.918,0-1.666,0.748-1.666,1.666S3.215,301.483,4.134,301.483z M4.134,298.944c0.481,0,0.873,0.393,0.873,0.873
		s-0.392,0.873-0.873,0.873c-0.481,0-0.873-0.393-0.873-0.873C3.261,299.334,3.653,298.944,4.134,298.944z"/>
	<path fill="#EC4D24" d="M7.273,297.458h8.463c0.451,0,0.818-0.367,0.818-0.818v-1.691c0-0.453-0.367-0.82-0.818-0.82H7.273
		c-0.452,0-0.82,0.367-0.82,0.82v1.691C6.454,297.09,6.822,297.458,7.273,297.458z M7.247,294.947c0-0.016,0.012-0.026,0.026-0.026
		h8.463c0.014,0,0.025,0.012,0.025,0.026v1.692c0,0.015-0.013,0.025-0.025,0.025H7.273c-0.014,0-0.026-0.012-0.026-0.025V294.947z"
		/>
	<path fill="#EC4D24" d="M4.149,297.458c0.918,0,1.667-0.746,1.667-1.666c0-0.918-0.748-1.666-1.667-1.666s-1.666,0.748-1.666,1.666
		C2.483,296.711,3.23,297.458,4.149,297.458z M4.149,294.918c0.481,0,0.873,0.394,0.873,0.873c0,0.481-0.391,0.873-0.873,0.873
		c-0.48,0-0.872-0.392-0.872-0.873C3.278,295.312,3.669,294.918,4.149,294.918z"/>
</g>
<g>
	<g>
		<path fill="#EC4D24" d="M17.916,532.668v-2.418c0-0.264-0.215-0.479-0.479-0.479H0.539c-0.264,0-0.478,0.215-0.478,0.479v13.613
			c0,0.264,0.214,0.477,0.478,0.477h1.909v1.107c0,0.736,0.6,1.338,1.337,1.338h13.939c0.736,0,1.336-0.602,1.336-1.338v-11.457
			C19.061,533.319,18.563,532.762,17.916,532.668z M1.016,543.385v-12.658h15.945v1.928h-4.584c-0.736,0-1.336,0.6-1.336,1.336
			c0,0.211-0.172,0.383-0.383,0.383H3.785c-0.737,0-1.337,0.6-1.337,1.336v7.676H1.016L1.016,543.385z M18.105,545.45
			c0,0.209-0.17,0.381-0.381,0.381H3.785c-0.21,0-0.382-0.172-0.382-0.381v-9.74c0-0.209,0.171-0.381,0.382-0.381h6.874
			c0.737,0,1.338-0.6,1.338-1.338c0-0.209,0.17-0.381,0.381-0.381h5.349c0.211,0,0.381,0.172,0.381,0.381v11.459H18.105z"/>
		<path fill="#EC4D24" d="M9.513,536.76H5.121c-0.263,0-0.477,0.213-0.477,0.479c0,0.264,0.214,0.477,0.477,0.477h4.392
			c0.264,0,0.478-0.213,0.478-0.477C9.991,536.973,9.777,536.76,9.513,536.76z"/>
		<path fill="#EC4D24" d="M9.513,538.383H5.121c-0.263,0-0.477,0.213-0.477,0.479c0,0.264,0.214,0.477,0.477,0.477h4.392
			c0.264,0,0.478-0.213,0.478-0.477C9.991,538.596,9.777,538.383,9.513,538.383z"/>
	</g>
	<g>
		<path fill="#EC4D24" d="M15.873,539.75v-0.701c0-0.998-0.813-1.813-1.813-1.813s-1.813,0.813-1.813,1.813v0.701
			c-0.261,0.049-0.457,0.277-0.457,0.551v1.252c0,1.25,1.021,2.268,2.271,2.268s2.268-1.018,2.268-2.268v-1.252
			C16.328,540.03,16.133,539.799,15.873,539.75z M12.916,539.741v-0.689c0-0.631,0.514-1.145,1.145-1.145s1.146,0.514,1.146,1.145
			v0.689H12.916z M16.115,541.553c0,1.133-0.922,2.055-2.055,2.055c-1.134,0-2.056-0.922-2.056-2.055v-1.252
			c0-0.191,0.156-0.348,0.349-0.348h3.412c0.192,0,0.35,0.156,0.35,0.348V541.553z"/>
		<path fill="#EC4D24" d="M14.623,541.44c0-0.174-0.078-0.332-0.213-0.439c-0.137-0.107-0.313-0.146-0.482-0.107
			c-0.201,0.049-0.363,0.207-0.412,0.406c-0.055,0.225,0.025,0.447,0.201,0.584l-0.084,0.547c-0.008,0.064,0.01,0.127,0.051,0.178
			c0.043,0.049,0.104,0.076,0.168,0.076l0,0l0.418-0.002c0.064,0,0.125-0.027,0.168-0.076c0.041-0.049,0.06-0.113,0.049-0.178
			l-0.084-0.545C14.539,541.776,14.623,541.612,14.623,541.44z"/>
	</g>
</g>
<g id="setting-roll">
	<g>
		<path fill="none" stroke="#747575" stroke-linecap="round" stroke-linejoin="round" stroke-miterlimit="10" d="M18.281,580.572
			l-1.212-0.216c-0.216-0.909-0.563-1.817-1.081-2.553l0.692-0.996c0.26-0.346,0.216-0.822-0.087-1.125l-0.39-0.389l-0.39-0.39
			c-0.303-0.303-0.778-0.347-1.125-0.087l-0.995,0.692c-0.778-0.52-1.644-0.865-2.553-1.082l-0.216-1.211
			c-0.087-0.433-0.434-0.692-0.866-0.692H9.454H8.892c-0.433,0-0.779,0.303-0.865,0.692l-0.216,1.211
			c-0.952,0.174-1.817,0.52-2.553,1.039l-0.995-0.692c-0.346-0.26-0.822-0.217-1.125,0.086l-0.433,0.39l-0.39,0.433
			c-0.303,0.303-0.346,0.779-0.086,1.125l0.692,0.996c-0.52,0.778-0.866,1.644-1.082,2.553l-1.211,0.216
			c-0.433,0.087-0.692,0.433-0.692,0.866V582v0.563c0,0.433,0.303,0.778,0.692,0.865l1.211,0.216
			c0.216,0.952,0.563,1.817,1.082,2.554l-0.692,0.995c-0.26,0.346-0.216,0.821,0.086,1.125l0.39,0.389l0.389,0.39
			c0.303,0.303,0.779,0.347,1.125,0.087l0.995-0.692c0.779,0.52,1.645,0.865,2.553,1.082l0.216,1.211
			c0.086,0.433,0.433,0.692,0.865,0.692h0.606h0.563c0.433,0,0.779-0.303,0.865-0.692l0.217-1.211
			c0.908-0.217,1.817-0.563,2.553-1.082l0.995,0.692c0.347,0.26,0.822,0.216,1.125-0.087l0.39-0.39l0.39-0.389
			c0.303-0.304,0.346-0.779,0.086-1.125l-0.692-0.995c0.52-0.779,0.866-1.645,1.082-2.554l1.212-0.216
			c0.433-0.087,0.692-0.433,0.692-0.865V582v-0.563C18.974,581.004,18.671,580.659,18.281,580.572z"/>
		
			<circle fill="none" stroke="#747575" stroke-linecap="round" stroke-linejoin="round" stroke-miterlimit="10" cx="9.454" cy="582" r="3.461"/>
	</g>
</g>
<g id="flag">
	<path fill="none" stroke="#747575" stroke-miterlimit="10" d="M18,618.609c-0.17,0.129-1.955,1.677-5.43,1.677
		c-2.655,0-4.302-0.712-4.302-0.712c-1.724-0.664-2.593-0.773-4.096-0.773c-1.521,0-3.228,0.194-4.173,0.635v7.941
		c0.945-0.353,2.697-0.554,4.069-0.554c2.647,0,3.398,0.488,5.756,1.23c0.869,0.265,1.988,0.574,3.202,0.592
		c3.042,0.04,5.37-1.217,5.78-2.508l0.039-7.144c0-0.01,0.005-0.021,0.005-0.034C18.852,618.321,18.304,618.377,18,618.609z"/>
	<path fill="none" stroke="#747575" stroke-miterlimit="10" d="M0.056,628.932v4.186c0,0.591,0.666,1.069,1.413,1.069
		s1.353-0.479,1.353-1.069v-4.813c-0.862,0.078-1.676,0.219-2.051,0.359L0.056,628.932z"/>
	<path fill="none" stroke="#747575" stroke-miterlimit="10" d="M1.684,616.527h-0.43c-0.629,0-1.198,0.401-1.198,0.898v0.438
		c0.9-0.256,1.941-0.381,2.766-0.438C2.822,616.928,2.313,616.527,1.684,616.527z"/>
</g>
<g id="locker-2">
	<path fill="none" stroke="#747575" stroke-linecap="round" stroke-miterlimit="10" d="M18.096,674.047H0.905
		c-0.5,0-0.905-0.405-0.905-0.904v-15.301c0-0.329,0.178-0.632,0.465-0.791l3.401-1.89c0.134-0.075,0.286-0.114,0.439-0.114h10.389
		c0.153,0,0.305,0.039,0.439,0.114l3.4,1.89c0.288,0.159,0.466,0.462,0.466,0.791v15.301C19,673.642,18.595,674.047,18.096,674.047z
		"/>
	<line fill="none" stroke="#747575" stroke-linecap="round" stroke-miterlimit="10" x1="0" y1="657.762" x2="19" y2="657.762"/>
	<circle fill="none" stroke="#747575" stroke-linecap="round" stroke-miterlimit="10" cx="9.5" cy="665.905" r="5.429"/>
	<line fill="none" stroke="#747575" stroke-linecap="round" stroke-miterlimit="10" x1="9.5" y1="661.833" x2="9.5" y2="662.738"/>
	<line fill="none" stroke="#747575" stroke-linecap="round" stroke-miterlimit="10" x1="9.5" y1="669.072" x2="9.5" y2="669.976"/>
	
		<line fill="none" stroke="#747575" stroke-linecap="round" stroke-miterlimit="10" x1="13.571" y1="665.905" x2="12.667" y2="665.905"/>
	
		<line fill="none" stroke="#747575" stroke-linecap="round" stroke-miterlimit="10" x1="6.333" y1="665.905" x2="5.429" y2="665.905"/>
	
		<line fill="none" stroke="#747575" stroke-linecap="round" stroke-miterlimit="10" x1="12.379" y1="663.026" x2="11.739" y2="663.666"/>
	
		<line fill="none" stroke="#747575" stroke-linecap="round" stroke-miterlimit="10" x1="7.261" y1="668.144" x2="6.621" y2="668.784"/>
	
		<line fill="none" stroke="#747575" stroke-linecap="round" stroke-miterlimit="10" x1="12.379" y1="668.784" x2="11.739" y2="668.144"/>
	
		<line fill="none" stroke="#747575" stroke-linecap="round" stroke-miterlimit="10" x1="7.261" y1="663.666" x2="6.621" y2="663.026"/>
	<circle fill="none" stroke="#747575" stroke-linecap="round" stroke-miterlimit="10" cx="9.5" cy="665.905" r="1.81"/>
	
		<line fill="none" stroke="#747575" stroke-linecap="round" stroke-miterlimit="10" x1="9.5" y1="665.905" x2="11.31" y2="665.905"/>
	
		<line fill="none" stroke="#747575" stroke-linecap="round" stroke-miterlimit="10" x1="14.929" y1="660.024" x2="14.929" y2="660.928"/>
	
		<line fill="none" stroke="#747575" stroke-linecap="round" stroke-miterlimit="10" x1="16.738" y1="660.024" x2="16.738" y2="660.928"/>
	
		<line fill="none" stroke="#747575" stroke-linecap="round" stroke-miterlimit="10" x1="2.262" y1="674.5" x2="2.262" y2="674.953"/>
	
		<line fill="none" stroke="#747575" stroke-linecap="round" stroke-miterlimit="10" x1="16.286" y1="674.5" x2="16.286" y2="674.953"/>
</g>
<g id="setting-roll_1_">
	<g>
		<path fill="none" stroke="#EE4B08" stroke-linecap="round" stroke-linejoin="round" stroke-miterlimit="10" d="M18.347,708.571
			l-1.212-0.216c-0.216-0.909-0.563-1.817-1.081-2.553l0.692-0.996c0.26-0.346,0.216-0.822-0.087-1.125l-0.39-0.389l-0.39-0.39
			c-0.303-0.303-0.778-0.347-1.125-0.087l-0.995,0.692c-0.778-0.52-1.644-0.865-2.553-1.082l-0.216-1.211
			c-0.087-0.433-0.434-0.692-0.866-0.692H9.52H8.957c-0.433,0-0.778,0.303-0.865,0.692l-0.216,1.211
			c-0.953,0.174-1.818,0.52-2.554,1.039l-0.995-0.692c-0.346-0.26-0.822-0.217-1.125,0.086l-0.433,0.39l-0.39,0.433
			c-0.303,0.303-0.346,0.779-0.086,1.125l0.691,0.996c-0.52,0.778-0.865,1.644-1.082,2.553l-1.211,0.216
			C0.26,708.658,0,709.003,0,709.437V710v0.563c0,0.433,0.303,0.778,0.692,0.865l1.211,0.216c0.217,0.952,0.563,1.817,1.082,2.554
			l-0.691,0.995c-0.26,0.346-0.217,0.821,0.086,1.125l0.39,0.389l0.39,0.39c0.303,0.303,0.778,0.347,1.125,0.087l0.994-0.692
			c0.779,0.52,1.645,0.865,2.554,1.082l0.216,1.211c0.087,0.433,0.434,0.692,0.865,0.692H9.52h0.563
			c0.433,0,0.779-0.303,0.865-0.692l0.217-1.211c0.908-0.217,1.817-0.563,2.553-1.082l0.995,0.692
			c0.347,0.26,0.822,0.216,1.125-0.087l0.39-0.39l0.39-0.389c0.303-0.304,0.346-0.779,0.086-1.125l-0.692-0.995
			c0.52-0.779,0.866-1.645,1.082-2.554l1.212-0.216c0.433-0.087,0.692-0.433,0.692-0.865V710v-0.563
			C19.039,709.003,18.736,708.658,18.347,708.571z"/>
		
			<circle fill="none" stroke="#EE4B08" stroke-linecap="round" stroke-linejoin="round" stroke-miterlimit="10" cx="9.52" cy="709.999" r="3.461"/>
	</g>
</g>
<g id="flag_1_">
	<path fill="none" stroke="#EE4B08" stroke-miterlimit="10" d="M18.074,746.608c-0.17,0.129-1.955,1.677-5.43,1.677
		c-2.655,0-4.302-0.712-4.302-0.712c-1.724-0.664-2.593-0.773-4.096-0.773c-1.521,0-3.228,0.194-4.173,0.635v7.941
		c0.945-0.353,2.697-0.554,4.069-0.554c2.647,0,3.398,0.488,5.756,1.23c0.869,0.265,1.988,0.574,3.202,0.592
		c3.042,0.04,5.37-1.217,5.78-2.508l0.039-7.144c0-0.01,0.005-0.021,0.005-0.034C18.926,746.32,18.378,746.376,18.074,746.608z"/>
	<path fill="none" stroke="#EE4B08" stroke-miterlimit="10" d="M0.131,756.931v4.186c0,0.591,0.666,1.069,1.412,1.069
		c0.748,0,1.354-0.479,1.354-1.069v-4.813c-0.861,0.078-1.676,0.219-2.051,0.359L0.131,756.931z"/>
	<path fill="none" stroke="#EE4B08" stroke-miterlimit="10" d="M1.758,744.526h-0.43c-0.629,0-1.197,0.401-1.197,0.898v0.438
		c0.899-0.256,1.941-0.381,2.766-0.438C2.896,744.927,2.387,744.526,1.758,744.526z"/>
</g>
<g id="locker-2_1_">
	<path fill="none" stroke="#EE4B08" stroke-linecap="round" stroke-miterlimit="10" d="M18.096,802.046H0.904
		c-0.499,0-0.904-0.405-0.904-0.904v-15.301c0-0.329,0.178-0.632,0.465-0.791l3.402-1.89c0.134-0.075,0.285-0.114,0.438-0.114
		h10.389c0.153,0,0.305,0.039,0.439,0.114l3.4,1.89c0.288,0.159,0.466,0.462,0.466,0.791v15.301
		C19,801.641,18.595,802.046,18.096,802.046z"/>
	<line fill="none" stroke="#EE4B08" stroke-linecap="round" stroke-miterlimit="10" x1="0" y1="785.761" x2="19" y2="785.761"/>
	<circle fill="none" stroke="#EE4B08" stroke-linecap="round" stroke-miterlimit="10" cx="9.5" cy="793.904" r="5.429"/>
	<line fill="none" stroke="#EE4B08" stroke-linecap="round" stroke-miterlimit="10" x1="9.5" y1="789.833" x2="9.5" y2="790.737"/>
	<line fill="none" stroke="#EE4B08" stroke-linecap="round" stroke-miterlimit="10" x1="9.5" y1="797.071" x2="9.5" y2="797.975"/>
	
		<line fill="none" stroke="#EE4B08" stroke-linecap="round" stroke-miterlimit="10" x1="13.571" y1="793.904" x2="12.667" y2="793.904"/>
	
		<line fill="none" stroke="#EE4B08" stroke-linecap="round" stroke-miterlimit="10" x1="6.334" y1="793.904" x2="5.429" y2="793.904"/>
	
		<line fill="none" stroke="#EE4B08" stroke-linecap="round" stroke-miterlimit="10" x1="12.379" y1="791.025" x2="11.739" y2="791.665"/>
	
		<line fill="none" stroke="#EE4B08" stroke-linecap="round" stroke-miterlimit="10" x1="7.261" y1="796.143" x2="6.621" y2="796.783"/>
	
		<line fill="none" stroke="#EE4B08" stroke-linecap="round" stroke-miterlimit="10" x1="12.379" y1="796.783" x2="11.739" y2="796.143"/>
	
		<line fill="none" stroke="#EE4B08" stroke-linecap="round" stroke-miterlimit="10" x1="7.261" y1="791.665" x2="6.621" y2="791.025"/>
	<circle fill="none" stroke="#EE4B08" stroke-linecap="round" stroke-miterlimit="10" cx="9.5" cy="793.904" r="1.81"/>
	
		<line fill="none" stroke="#EE4B08" stroke-linecap="round" stroke-miterlimit="10" x1="9.5" y1="793.904" x2="11.31" y2="793.904"/>
	
		<line fill="none" stroke="#EE4B08" stroke-linecap="round" stroke-miterlimit="10" x1="14.929" y1="788.023" x2="14.929" y2="788.927"/>
	
		<line fill="none" stroke="#EE4B08" stroke-linecap="round" stroke-miterlimit="10" x1="16.738" y1="788.023" x2="16.738" y2="788.927"/>
	
		<line fill="none" stroke="#EE4B08" stroke-linecap="round" stroke-miterlimit="10" x1="2.262" y1="802.5" x2="2.262" y2="802.952"/>
	
		<line fill="none" stroke="#EE4B08" stroke-linecap="round" stroke-miterlimit="10" x1="16.286" y1="802.5" x2="16.286" y2="802.952"/>
</g>
</svg>
