<?xml version="1.0" encoding="utf-8"?>
<!-- Generator: Adobe Illustrator 16.0.0, SVG Export Plug-In . SVG Version: 6.00 Build 0)  -->
<!DOCTYPE svg PUBLIC "-//W3C//DTD SVG 1.1//EN" "http://www.w3.org/Graphics/SVG/1.1/DTD/svg11.dtd">
<svg version="1.1" id="Layer_1" xmlns="http://www.w3.org/2000/svg" xmlns:xlink="http://www.w3.org/1999/xlink" x="0px" y="0px"
	 width="28px" height="12px" viewBox="-0.09 0 28 12" enable-background="new -0.09 0 28 12" xml:space="preserve">
<g>
	<path fill="#505050" d="M7.758,0.026c0.256,0.106,0.416,0.31,0.539,0.541C8.602,1.14,8.712,1.745,8.553,2.374
		C8.497,2.587,8.364,2.784,8.254,2.98c-0.191,0.344-0.41,0.675-0.591,1.024C7.542,4.241,7.579,4.321,7.795,4.483
		C8.012,4.646,8.264,4.67,8.53,4.664c0.481-0.013,0.963-0.01,1.444-0.001c0.259,0.004,0.516,0.043,0.772,0.048
		c0.438,0.01,0.728,0.241,0.951,0.577c0.128,0.191,0.251,0.393,0.198,0.63c-0.034,0.157-0.106,0.308-0.17,0.458
		c-0.039,0.089-0.09,0.174-0.14,0.258c-0.063,0.107-0.052,0.205,0.015,0.307c0.08,0.125,0.16,0.252,0.227,0.384
		c0.118,0.239,0.104,0.477-0.061,0.694c-0.096,0.129-0.194,0.256-0.297,0.381c-0.074,0.096-0.097,0.191-0.039,0.305
		c0.031,0.066,0.049,0.14,0.076,0.209c0.11,0.281,0.067,0.541-0.119,0.779c-0.084,0.108-0.158,0.226-0.25,0.328
		c-0.104,0.113-0.117,0.24-0.09,0.381c0.023,0.109,0.045,0.222,0.073,0.33c0.033,0.132,0.006,0.244-0.075,0.353
		c-0.219,0.285-0.521,0.442-0.863,0.531c-0.627,0.164-1.268,0.269-1.914,0.335c-0.174,0.018-0.348,0.035-0.521,0.045
		c-0.701,0.036-1.376-0.127-2.049-0.288c-0.39-0.094-0.777-0.206-1.171-0.274c-0.328-0.058-0.664-0.067-0.997-0.092
		c-0.17-0.013-0.18-0.015-0.18-0.184c0-1.477,0.001-2.95-0.002-4.426c0-0.107,0.034-0.166,0.132-0.219
		c0.552-0.296,0.906-0.76,1.134-1.323c0.109-0.271,0.219-0.543,0.32-0.818C5.075,3.988,5.318,3.673,5.6,3.384
		C5.74,3.24,5.877,3.092,6.034,2.966c0.42-0.343,0.676-0.787,0.818-1.291c0.102-0.358,0.162-0.729,0.228-1.096
		c0.045-0.247,0.125-0.46,0.392-0.553C7.553-0.001,7.648-0.017,7.758,0.026z"/>
	<path fill="#505050" d="M2.621,8.927c0,0.764,0,1.525,0,2.289c0,0.27-0.153,0.438-0.43,0.441c-0.61,0.008-1.22,0.008-1.829,0.001
		c-0.3-0.004-0.442-0.155-0.448-0.462c-0.007-0.331-0.002-0.662-0.002-0.992c0-1.156,0-2.313,0-3.469c0-0.038,0-0.077,0.003-0.116
		c0.024-0.286,0.167-0.423,0.461-0.425c0.59-0.004,1.18-0.004,1.769-0.001c0.328,0.002,0.477,0.159,0.477,0.479
		C2.621,7.424,2.621,8.176,2.621,8.927z"/>
</g>
<g>
	<path fill="#EE4B08" d="M23.759,0.026c0.256,0.106,0.416,0.31,0.539,0.541c0.305,0.572,0.414,1.178,0.256,1.807
		c-0.057,0.213-0.189,0.41-0.299,0.606c-0.191,0.344-0.41,0.675-0.592,1.024c-0.121,0.236-0.084,0.316,0.133,0.479
		c0.217,0.163,0.469,0.187,0.734,0.181c0.482-0.013,0.963-0.01,1.445-0.001c0.258,0.004,0.516,0.043,0.771,0.048
		c0.439,0.01,0.729,0.241,0.951,0.577c0.129,0.191,0.252,0.393,0.199,0.63c-0.035,0.157-0.107,0.308-0.17,0.458
		c-0.039,0.089-0.09,0.174-0.141,0.258c-0.063,0.107-0.051,0.205,0.016,0.307c0.08,0.125,0.16,0.252,0.227,0.384
		c0.117,0.239,0.104,0.477-0.061,0.694c-0.096,0.129-0.195,0.256-0.297,0.381c-0.074,0.096-0.098,0.191-0.039,0.305
		c0.031,0.066,0.049,0.14,0.076,0.209c0.109,0.281,0.066,0.541-0.119,0.779c-0.084,0.108-0.158,0.226-0.25,0.328
		c-0.104,0.113-0.117,0.24-0.09,0.381c0.023,0.109,0.045,0.222,0.072,0.33c0.033,0.132,0.006,0.244-0.074,0.353
		c-0.219,0.285-0.521,0.442-0.863,0.531c-0.627,0.164-1.268,0.269-1.914,0.335c-0.174,0.018-0.348,0.035-0.521,0.045
		c-0.701,0.036-1.377-0.127-2.049-0.288c-0.391-0.094-0.777-0.206-1.172-0.274c-0.328-0.058-0.664-0.067-0.996-0.092
		c-0.17-0.013-0.181-0.015-0.181-0.184c0-1.477,0.001-2.95-0.002-4.426c0-0.107,0.034-0.166,0.132-0.219
		c0.553-0.296,0.906-0.76,1.135-1.323c0.108-0.271,0.219-0.543,0.319-0.818c0.14-0.383,0.384-0.698,0.665-0.987
		c0.141-0.144,0.277-0.292,0.434-0.418c0.42-0.343,0.676-0.787,0.818-1.291c0.102-0.358,0.162-0.729,0.227-1.096
		c0.045-0.247,0.125-0.46,0.393-0.553C23.554-0.001,23.649-0.017,23.759,0.026z"/>
	<path fill="#EE4B08" d="M18.622,8.591c0,0.764,0,1.525,0,2.289c0,0.27-0.153,0.438-0.431,0.441c-0.61,0.008-1.22,0.008-1.829,0.001
		c-0.3-0.004-0.441-0.155-0.447-0.462c-0.008-0.331-0.002-0.662-0.002-0.992c0-1.156,0-2.313,0-3.469c0-0.038,0-0.077,0.002-0.116
		c0.024-0.286,0.168-0.423,0.461-0.425c0.591-0.004,1.181-0.004,1.77-0.001c0.328,0.002,0.477,0.159,0.477,0.48
		C18.622,7.088,18.622,7.84,18.622,8.591z"/>
</g>
</svg>
