<?xml version="1.0" encoding="utf-8"?>
<!-- Generator: Adobe Illustrator 16.0.0, SVG Export Plug-In . SVG Version: 6.00 Build 0)  -->
<!DOCTYPE svg PUBLIC "-//W3C//DTD SVG 1.1//EN" "http://www.w3.org/Graphics/SVG/1.1/DTD/svg11.dtd">
<svg version="1.1" id="Layer_1" xmlns="http://www.w3.org/2000/svg" xmlns:xlink="http://www.w3.org/1999/xlink" x="0px" y="0px"
	 width="378px" height="385.133px" viewBox="-118.44 -176.796 378 385.133" enable-background="new -118.44 -176.796 378 385.133"
	 xml:space="preserve">
<g>
	<path fill="none" stroke="#909090" stroke-width="2.6501" stroke-miterlimit="10" stroke-dasharray="13.2504,13.2504" d="
		M71.266-171.84c-102.956,0-186.431,83.488-186.431,186.476c0,2.847,0.201,5.668,0.343,8.488
		c25.75,0.014,34.725,25.803,27.135,44.035c5.266,2.342,9.944,6.741,13.159,13.885c12.74,28.26,26.967,57.634,30.552,87.888
		c72.541-3.248,149.714,39.893,207.995-26.165c26.139-29.619,47.89-59.096,75.711-71.713c1.825-8.088,6.548-15.334,14.183-19.461
		c2.444-11.957,3.843-24.289,3.843-36.957C257.756-88.352,174.267-171.84,71.266-171.84z"/>
	<g>
		<path fill="none" stroke="#909090" stroke-width="2.6501" stroke-miterlimit="10" stroke-dasharray="13.2504,13.2504" d="
			M-4.84,124.275h150.561v-15.619H23.156l2.614-3.972c6.754-10.223,15.554-19.307,24.56-27.563
			c9.782-8.929,20.186-17.184,30.563-25.439C94.04,41.176,107.55,30.475,119.221,18.35c10.145-10.494,19.488-22.735,23.705-36.865
			c1.605-5.357,2.434-10.87,2.434-16.473c0-15.98-5.435-30.564-16.719-41.977c-13.017-13.238-31.676-20.07-50-20.924
			c-19.332-0.919-39.129,4.697-54.295,16.938C12.053-71.025,4.024-53.337,1.372-37.602l18.912,1.798
			c1.19-12.047,5.693-22.968,14.777-31.379c29.219-27.083,90.993-13.393,90.993,31.586c0,13.794-6.961,26.656-15.321,37.202
			c-2.794,3.52-5.874,6.845-9.006,10.029c-3.934,3.999-8.048,7.815-12.215,11.542C78.616,32.843,67.1,41.965,55.506,50.765
			c-5.409,4.089-10.662,8.437-15.735,12.939c-5.848,5.202-11.542,10.649-16.925,16.317C12.985,90.399-2.717,108.89-4.84,124.275
			L-4.84,124.275z"/>
	</g>
</g>
<path fill="#EC4D24" d="M135.772,36.815C96.977,10.017,75.252,8.774,32.382,29.75C17.818,36.854,1.909,43.519-14.383,44.928
	c-32.971,2.86-48.725-16.045-78.409-20.858c-8.094-1.307-16.039-1.721-23.964-2.109c1.637,32.751,12.667,64.155,28.26,90.204
	c29.904,50.336,18.789,91.29,18.789,91.29s47.069-26.022,78.694-13.302c20.225,6.535,40.166,11.905,62.293,11.905
	c91.51,0,167.726-65.257,184.807-151.733C219.156,65.528,172.133,61.944,135.772,36.815z"/>
<g>
	<path fill="#F5F5F5" d="M25.776,104.685c6.754-10.223,15.541-19.307,24.56-27.563c9.769-8.929,20.186-17.184,30.557-25.439
		c10.856-8.682,21.739-17.688,31.858-27.329c-6.082-2.949-11.943-5.149-17.663-6.443c-1.863,1.746-3.675,3.559-5.577,5.267
		c-10.896,9.666-22.418,18.788-34.013,27.588c-5.409,4.089-10.649,8.437-15.722,12.939c-5.849,5.202-11.542,10.649-16.925,16.317
		C12.991,90.399-2.717,108.89-4.84,124.275h150.561v-15.619H23.162L25.776,104.685z"/>
</g>
</svg>
