<?xml version="1.0" encoding="utf-8"?>
<!-- Generator: Adobe Illustrator 16.0.0, SVG Export Plug-In . SVG Version: 6.00 Build 0)  -->
<!DOCTYPE svg PUBLIC "-//W3C//DTD SVG 1.1//EN" "http://www.w3.org/Graphics/SVG/1.1/DTD/svg11.dtd">
<svg version="1.1" id="Layer_1" xmlns="http://www.w3.org/2000/svg" xmlns:xlink="http://www.w3.org/1999/xlink" x="0px" y="0px"
	 width="87px" height="87px" viewBox="0 0 87 87" enable-background="new 0 0 87 87" xml:space="preserve">
<path fill-rule="evenodd" clip-rule="evenodd" fill="#EE4B08" d="M43.5,0C67.524,0,87,19.476,87,43.5C87,67.523,67.524,87,43.5,87
	S0,67.523,0,43.5C0,19.476,19.476,0,43.5,0z"/>
<path fill-rule="evenodd" clip-rule="evenodd" fill="#FFFFFF" d="M41.221,61.041c-1.441-0.986-1.189-3.646,1.473-4.135
	c0.518-0.096,0.025-0.746,0.576-0.803c0.436-0.045,0.83-0.174,0.881,0.305c0.064,0.596,0.868-0.02,2.028,0.791
	c0.649,0.455,1.292,1.668,0.598,1.74l-1.31,0.133c-0.411,0.043-0.313-0.393-0.627-0.689c-0.371-0.35-1.897-0.203-2.258,0.125
	c-0.292,0.268-0.258,0.803,0.092,1.02c0.975,0.598,4.665-0.068,4.952,2.637c0.168,1.582-0.837,2.455-2.382,2.771
	c-0.582,0.121,0.083,0.963-0.545,1.027c-0.733,0.074-0.796,0.121-0.867-0.553c-0.066-0.617-0.963,0.055-2.232-0.859
	c-0.493-0.355-0.812-0.859-0.956-1.512c-0.044-0.197,0.095-0.385,0.3-0.406l1.418-0.146c0.461-0.047,0.316,0.514,0.662,0.857
	c0.438,0.436,1.989,0.178,2.357-0.137c0.331-0.279,0.284-0.844-0.074-1.082C44.458,61.57,42.486,61.908,41.221,61.041L41.221,61.041
	z M28.297,25.181c1.342,0,2.43-1.069,2.43-2.391c0-1.32-1.088-2.391-2.43-2.391c-1.343,0-2.431,1.07-2.431,2.391
	C25.866,24.111,26.954,25.181,28.297,25.181L28.297,25.181z M36.328,21.912c0.895,0,1.619-0.714,1.619-1.594
	c0-0.881-0.725-1.594-1.619-1.594c-0.896,0-1.621,0.713-1.621,1.594C34.707,21.198,35.433,21.912,36.328,21.912L36.328,21.912z
	 M58.784,25.371c1.343,0,2.431-1.07,2.431-2.391s-1.088-2.391-2.431-2.391s-2.431,1.07-2.431,2.391S57.441,25.371,58.784,25.371
	L58.784,25.371z M40.705,30.736c1.342,0,2.43-1.07,2.43-2.391s-1.088-2.391-2.43-2.391s-2.43,1.07-2.43,2.391
	S39.363,30.736,40.705,30.736L40.705,30.736z M47.848,22.781c1.342,0,2.43-1.07,2.43-2.391S49.189,18,47.848,18
	s-2.43,1.07-2.43,2.391S46.506,22.781,47.848,22.781L47.848,22.781z M52.141,28.542c1.342,0,2.43-1.07,2.43-2.391
	s-1.088-2.391-2.43-2.391s-2.43,1.07-2.43,2.391S50.799,28.542,52.141,28.542L52.141,28.542z M44.695,26.396
	c1.023,0.007,2.026,0.029,3.001,0.066c0.065,0.918,0.418,1.759,0.971,2.434c-1.156-0.057-2.339-0.092-3.529-0.105
	c0.015-0.146,0.022-0.295,0.022-0.444C45.16,27.645,44.993,26.982,44.695,26.396L44.695,26.396z M56.443,27.296
	c0.107,0.019,0.216,0.037,0.322,0.056c3.826,0.689,6.193,1.888,6.193,3.432c0,0.078-0.006,0.155-0.018,0.231
	c0.059,0.369-0.06,0.761-0.353,1.041l-3.59,3.444l-9.665,9.271c-0.039,0.078-0.456,3.977-0.778,6.743
	c-0.167,1.43-0.308,2.559-0.357,2.701c2.339,1.396,3.903,3.928,3.903,6.816c0,4.4-3.627,7.969-8.102,7.969s-8.102-3.568-8.102-7.969
	c0-2.893,1.566-5.424,3.91-6.82c-0.059-0.152-0.204-1.302-0.372-2.748c-0.321-2.76-0.725-6.603-0.771-6.692l-9.412-9.028
	l-3.843-3.687c-0.293-0.28-0.411-0.672-0.353-1.041c-0.012-0.076-0.018-0.153-0.018-0.231c0-1.544,2.367-2.742,6.193-3.432
	c1.541-0.277,3.35-0.505,5.348-0.669c-0.215,0.513-0.332,1.074-0.332,1.663c0,0.257,0.021,0.509,0.065,0.754
	c-1.683,0.147-3.256,0.347-4.644,0.596c-2.396,0.432-3.947,0.806-4.172,1.034l0.261,0.25c0.572,0.228,1.963,0.54,3.911,0.891
	c2.456,0.442,5.492,0.724,8.685,0.845c0.115,0.009,0.231,0.014,0.349,0.014h0.016c5.491,0.186,11.398-0.101,15.607-0.858
	c1.949-0.351,3.339-0.663,3.91-0.891l0.262-0.25c-0.225-0.229-1.776-0.603-4.172-1.034c-0.416-0.074-0.848-0.145-1.296-0.21
	c0.09-0.075,0.176-0.153,0.259-0.235C55.834,28.717,56.236,28.046,56.443,27.296L56.443,27.296z M56.891,34.191
	c-7.143,1.31-18.639,1.31-25.781,0l3.221,3.09c1.393,0.311,2.9,0.551,4.474,0.715c3.368,0.35,7.093,0.347,10.46-0.008
	c1.547-0.163,3.033-0.4,4.406-0.707L56.891,34.191L56.891,34.191z M50.59,40.235c-4.273,0.548-8.904,0.548-13.181-0.001l2.817,2.702
	c0.57,0.132,1.15,0.234,1.738,0.307c1.349,0.166,2.718,0.165,4.066,0.001c0.589-0.072,1.17-0.174,1.739-0.305L50.59,40.235
	L50.59,40.235z M46.799,45.552c-1.857,0.274-3.74,0.274-5.598-0.001l0.24,2.061c1.683,0.551,3.434,0.547,5.116,0.003L46.799,45.552
	L46.799,45.552z M46.259,50.162c-1.523,0.334-2.995,0.332-4.519,0l0.365,3.119c1.243-0.293,2.546-0.293,3.789,0L46.259,50.162
	L46.259,50.162z"/>
</svg>
