<?xml version="1.0" encoding="utf-8"?>
<!-- Generator: Adobe Illustrator 16.0.0, SVG Export Plug-In . SVG Version: 6.00 Build 0)  -->
<!DOCTYPE svg PUBLIC "-//W3C//DTD SVG 1.1//EN" "http://www.w3.org/Graphics/SVG/1.1/DTD/svg11.dtd">
<svg version="1.1" id="Layer_1" xmlns="http://www.w3.org/2000/svg" xmlns:xlink="http://www.w3.org/1999/xlink" x="0px" y="0px"
	 width="353.751px" height="150.887px" viewBox="0 0 353.751 150.887" enable-background="new 0 0 353.751 150.887"
	 xml:space="preserve">
<g id="Layer_2" display="none">
	<rect y="-25.462" display="inline" fill="#505050" width="612.66" height="586.393"/>
</g>
<g id="Layer_1_1_">
	<g>
		<path fill="#FFFFFF" d="M20.018,86.033c11.056,0,20.019,8.963,20.019,20.02s-8.963,20.018-20.019,20.018
			C8.962,126.068,0,117.107,0,106.051C0,94.996,8.962,86.033,20.018,86.033z"/>
		<path fill="#EE4B08" d="M25.364,98.81h-9.84c-0.576,0-1.043,0.472-1.043,1.049v11.533c0,0.58,0.467,1.049,1.043,1.049h9.84
			c0.576,0,1.043-0.469,1.043-1.049V99.859C26.407,99.279,25.94,98.81,25.364,98.81z"/>
	</g>
	<g>
		<path fill="#FFFFFF" d="M69.622,86.033c11.055,0,20.019,8.963,20.019,20.018c0,11.059-8.964,20.02-20.019,20.02
			c-11.056,0-20.018-8.961-20.018-20.02C49.604,94.996,58.565,86.033,69.622,86.033z"/>
		<path fill="#505050" d="M74.968,98.81h-9.84c-0.576,0-1.043,0.47-1.043,1.049v11.532c0,0.58,0.467,1.049,1.043,1.049h9.84
			c0.576,0,1.043-0.469,1.043-1.049V99.859C76.011,99.28,75.544,98.81,74.968,98.81z"/>
	</g>
	<path fill="#DDDDDD" d="M9.227,148.962c-0.104,0.104-0.244,0.158-0.382,0.158c-0.137,0-0.274-0.054-0.382-0.158
		c-0.208-0.217-0.21-0.562,0-0.771c1.166-1.188,1.744-2.732,1.746-4.287c-0.002-1.546-0.582-3.085-1.746-4.266
		c-0.208-0.215-0.208-0.561,0-0.775c0.211-0.213,0.551-0.213,0.764,0c1.368,1.393,2.059,3.219,2.059,5.041
		C11.285,145.73,10.602,147.564,9.227,148.962z M7.768,147.216c-0.106,0.107-0.244,0.16-0.381,0.16c-0.14,0-0.275-0.053-0.38-0.16
		c-0.212-0.213-0.212-0.563,0-0.773c0.69-0.699,1.034-1.621,1.035-2.544c-0.001-0.921-0.345-1.835-1.035-2.54
		c-0.212-0.212-0.212-0.561,0-0.771c0.209-0.213,0.55-0.213,0.761,0c0.9,0.914,1.353,2.113,1.351,3.313
		C9.12,145.096,8.668,146.3,7.768,147.216z M4.946,148.152l-3.233-2.303c0,0-0.31-0.033-0.664-0.106v-3.437
		c0.355-0.084,0.664-0.114,0.664-0.114l3.304-2.365c0,0,0.522-0.377,0.522,0.008c0,0.451,0,7.81,0,8.301
		C5.539,148.628,4.946,148.152,4.946,148.152z M0,145.212c0-0.447,0-1.57,0-2.213c0-0.246,0.253-0.422,0.563-0.545v3.164
		C0.253,145.519,0,145.384,0,145.212z"/>
	<path fill="#DDDDDD" d="M37.828,150.726c-0.104,0.104-0.242,0.157-0.381,0.157c-0.139,0-0.275-0.053-0.38-0.157
		c-0.209-0.213-0.212-0.562,0-0.772c1.646-1.674,2.463-3.854,2.463-6.049c0-2.188-0.821-4.363-2.463-6.031
		c-0.209-0.213-0.209-0.561,0-0.771c0.21-0.214,0.551-0.214,0.761,0c1.85,1.877,2.781,4.343,2.78,6.807
		C40.609,146.371,39.684,148.841,37.828,150.726z M36.041,148.962c-0.104,0.104-0.244,0.158-0.382,0.158
		c-0.137,0-0.274-0.054-0.382-0.158c-0.208-0.217-0.21-0.562,0-0.771c1.166-1.188,1.743-2.732,1.746-4.287
		c-0.003-1.545-0.582-3.084-1.746-4.266c-0.208-0.215-0.208-0.563,0-0.775c0.21-0.213,0.551-0.213,0.764,0
		c1.368,1.395,2.059,3.219,2.059,5.041C38.1,145.731,37.416,147.565,36.041,148.962z M34.582,147.216
		c-0.106,0.107-0.244,0.16-0.381,0.16c-0.14,0-0.276-0.053-0.38-0.16c-0.212-0.213-0.212-0.563,0-0.773
		c0.69-0.699,1.034-1.621,1.035-2.545c-0.001-0.921-0.345-1.835-1.035-2.539c-0.212-0.213-0.212-0.561,0-0.771
		c0.209-0.213,0.55-0.213,0.761,0c0.9,0.914,1.353,2.113,1.351,3.313C35.935,145.096,35.482,146.3,34.582,147.216z M31.76,148.153
		l-3.233-2.303c0,0-0.31-0.033-0.664-0.105v-3.438c0.355-0.084,0.664-0.113,0.664-0.113l3.304-2.365c0,0,0.522-0.377,0.522,0.008
		c0,0.451,0,7.81,0,8.303C32.353,148.631,31.76,148.153,31.76,148.153z M26.814,145.212c0-0.447,0-1.57,0-2.213
		c0-0.246,0.253-0.422,0.563-0.545v3.162C27.067,145.519,26.814,145.384,26.814,145.212z"/>
	<path fill="#DDDDDD" d="M65.179,148.523c-2.485,0-4.501-2.015-4.501-4.501c0-2.482,2.018-4.499,4.501-4.499
		c2.483,0,4.499,2.017,4.499,4.499C69.678,146.509,67.662,148.523,65.179,148.523z M65.179,140.285
		c-2.063,0-3.738,1.674-3.738,3.736c0,2.064,1.674,3.739,3.738,3.739s3.735-1.675,3.735-3.739
		C68.914,141.958,67.242,140.285,65.179,140.285z M67.724,145.628l-0.942,0.94c0,0-1.494-1.604-1.603-1.604
		c-0.11,0-1.604,1.604-1.604,1.604l-0.942-0.94c0,0,1.601-1.474,1.601-1.604c0-0.134-1.601-1.604-1.601-1.604l0.942-0.942
		c0,0,1.506,1.604,1.604,1.604c0.097,0,1.603-1.604,1.603-1.604l0.942,0.942c0,0-1.603,1.496-1.603,1.604
		S67.724,145.628,67.724,145.628z M58.829,147.791l-3.233-2.304c0,0-0.31-0.032-0.664-0.106v-3.437
		c0.355-0.084,0.664-0.112,0.664-0.112l3.304-2.367c0,0,0.522-0.377,0.522,0.011c0,0.448,0,7.81,0,8.301
		C59.422,148.269,58.829,147.791,58.829,147.791z M53.883,144.852c0-0.449,0-1.572,0-2.213c0-0.246,0.253-0.424,0.563-0.547v3.162
		C54.136,145.158,53.883,145.023,53.883,144.852z"/>
	<path fill="#DDDDDD" d="M103.509,108.643c-1.655-0.752-2.692-1.828-2.692-3.021c0-1.92,2.682-3.524,6.303-3.983v-2.07
		c-4.793,0.572-8.4,3.063-8.4,6.056c0,1.724,1.202,3.276,3.137,4.396C103.967,111.285,105.018,109.225,103.509,108.643z
		 M116.119,100.973c-1.127-1.016-2.702,0.527-1.629,1.441c1.906,0.756,3.127,1.91,3.127,3.205c0,1.918-2.68,3.524-6.301,3.983v2.067
		c4.793-0.569,8.397-3.063,8.397-6.053C119.717,103.764,118.32,102.104,116.119,100.973z M108.045,103.035l3.418-2.007
		c0.497-0.293,0.498-0.771,0.002-1.063l-3.449-2.047c-0.496-0.295-0.896-0.07-0.894,0.496l0.019,4.119
		C107.143,103.104,107.547,103.328,108.045,103.035z M110.418,108.216l-3.449,2.049c-0.496,0.295-0.494,0.771,0.004,1.063
		l3.416,2.006c0.498,0.293,0.903,0.066,0.906-0.5l0.018-4.119C111.314,108.145,110.914,107.923,110.418,108.216z"/>
	<g>
		<path fill="#EE4B08" stroke="#F5F5F5" stroke-width="4" d="M41.003,2.271c20.986,0,38,17.014,38,38c0,20.985-17.014,38-38,38
			c-20.987,0-38-17.015-38-38C3.003,19.284,20.016,2.271,41.003,2.271z"/>
		<path fill="#FFFFFF" d="M50.664,38.436L34.346,27.574c-0.482-0.304-1.081-0.253-1.533-0.253c-1.81,0-1.802,1.476-1.802,1.85v22.2
			c0,0.315-0.008,1.852,1.802,1.852c0.452,0,1.051,0.05,1.533-0.254l16.318-10.86c1.339-0.842,1.106-1.836,1.106-1.836
			S52.003,39.277,50.664,38.436z"/>
	</g>
	<g>
		<path fill="#EE4B08" stroke="#F5F5F5" stroke-width="4" d="M131.754,2.271c20.986,0,38,17.014,38,38c0,20.985-17.014,38-38,38
			s-38-17.015-38-38C93.754,19.284,110.768,2.271,131.754,2.271z"/>
		<path fill="#FFFFFF" d="M128.48,28.271h-4.09c-0.904,0-1.639,0.827-1.639,1.847v20.308c0,1.02,0.73,1.847,1.639,1.847h4.09
			c0.902,0,1.638-0.827,1.638-1.847V30.117C130.117,29.098,129.385,28.271,128.48,28.271z M139.117,28.271h-4.09
			c-0.904,0-1.637,0.827-1.637,1.847v20.308c0,1.02,0.729,1.847,1.637,1.847h4.09c0.904,0,1.637-0.827,1.637-1.847V30.117
			C140.754,29.098,140.021,28.271,139.117,28.271z"/>
	</g>
	<path fill="#EE4B08" d="M126.248,150.734c-0.104,0.104-0.242,0.157-0.381,0.157s-0.275-0.053-0.381-0.157
		c-0.209-0.213-0.211-0.562,0-0.772c1.646-1.673,2.464-3.854,2.464-6.048c0-2.188-0.821-4.364-2.464-6.032
		c-0.209-0.213-0.209-0.561,0-0.771c0.211-0.214,0.553-0.214,0.762,0c1.852,1.877,2.781,4.344,2.779,6.807
		C129.029,146.379,128.104,148.848,126.248,150.734z M124.461,148.969c-0.104,0.105-0.244,0.158-0.381,0.158
		c-0.139,0-0.275-0.053-0.383-0.158c-0.209-0.217-0.211-0.561,0-0.771c1.166-1.188,1.742-2.733,1.746-4.287
		c-0.004-1.545-0.582-3.084-1.746-4.267c-0.209-0.215-0.209-0.563,0-0.774c0.21-0.213,0.551-0.213,0.764,0
		c1.369,1.394,2.061,3.218,2.061,5.041C126.521,145.739,125.836,147.573,124.461,148.969z M123.002,147.223
		c-0.105,0.107-0.244,0.16-0.381,0.16c-0.141,0-0.275-0.053-0.38-0.16c-0.212-0.213-0.212-0.563,0-0.772
		c0.69-0.7,1.034-1.621,1.034-2.546c0-0.921-0.344-1.835-1.034-2.538c-0.212-0.214-0.212-0.562,0-0.772
		c0.209-0.213,0.55-0.213,0.761,0c0.9,0.914,1.354,2.113,1.352,3.313C124.355,145.104,123.902,146.307,123.002,147.223z
		 M120.18,148.161l-3.231-2.304c0,0-0.31-0.032-0.664-0.105v-3.438c0.354-0.084,0.664-0.112,0.664-0.112l3.305-2.366
		c0,0,0.521-0.377,0.521,0.008c0,0.451,0,7.81,0,8.303C120.773,148.638,120.18,148.161,120.18,148.161z M115.234,145.219
		c0-0.447,0-1.57,0-2.213c0-0.246,0.252-0.422,0.563-0.545v3.162C115.486,145.527,115.234,145.391,115.234,145.219z"/>
	<path fill="#EE4B08" d="M96.184,148.531c-2.486,0-4.502-2.016-4.502-4.502c0-2.482,2.018-4.498,4.502-4.498
		c2.481,0,4.498,2.016,4.498,4.498C100.682,146.516,98.665,148.531,96.184,148.531z M96.184,140.293
		c-2.063,0-3.738,1.674-3.738,3.736c0,2.064,1.674,3.739,3.738,3.739c2.063,0,3.733-1.675,3.733-3.739
		C99.917,141.966,98.245,140.293,96.184,140.293z M98.729,145.635l-0.942,0.941c0,0-1.494-1.604-1.603-1.604
		c-0.111,0-1.604,1.604-1.604,1.604l-0.942-0.941c0,0,1.602-1.473,1.602-1.604c0-0.134-1.602-1.604-1.602-1.604l0.942-0.942
		c0,0,1.506,1.604,1.604,1.604c0.096,0,1.603-1.604,1.603-1.604l0.942,0.942c0,0-1.604,1.496-1.604,1.604
		S98.729,145.635,98.729,145.635z M89.832,147.799l-3.232-2.303c0,0-0.311-0.033-0.664-0.107v-3.436
		c0.354-0.084,0.664-0.113,0.664-0.113l3.304-2.367c0,0,0.521-0.377,0.521,0.011c0,0.448,0,7.81,0,8.302
		C90.425,148.277,89.832,147.799,89.832,147.799z M84.886,144.86c0-0.448,0-1.571,0-2.213c0-0.246,0.253-0.424,0.563-0.547v3.162
		C85.139,145.166,84.886,145.031,84.886,144.86z"/>
	<g>
		<path fill="#EE4B08" stroke="#F5F5F5" stroke-width="4" d="M222.362,2.271c20.986,0,38,17.014,38,38c0,20.985-17.014,38-38,38
			c-20.987,0-38-17.015-38-38C184.362,19.284,201.375,2.271,222.362,2.271z"/>
		<path fill="#FFB292" d="M232.023,38.436l-16.318-10.861c-0.481-0.304-1.08-0.253-1.533-0.253c-1.81,0-1.802,1.476-1.802,1.85v22.2
			c0,0.315-0.008,1.852,1.802,1.852c0.453,0,1.052,0.05,1.533-0.254l16.318-10.86c1.339-0.842,1.105-1.836,1.105-1.836
			S233.362,39.277,232.023,38.436z"/>
	</g>
	<g>
		<path fill="#EE4B08" stroke="#F5F5F5" stroke-width="4" d="M313.113,2.271c20.986,0,38,17.014,38,38c0,20.985-17.014,38-38,38
			s-38-17.015-38-38C275.113,19.284,292.127,2.271,313.113,2.271z"/>
		<path fill="#FFB292" d="M309.84,28.271h-4.09c-0.904,0-1.639,0.827-1.639,1.847v20.308c0,1.02,0.73,1.847,1.639,1.847h4.09
			c0.902,0,1.638-0.827,1.638-1.847V30.117C311.477,29.098,310.744,28.271,309.84,28.271z M320.477,28.271h-4.09
			c-0.904,0-1.637,0.827-1.637,1.847v20.308c0,1.02,0.729,1.847,1.637,1.847h4.09c0.904,0,1.637-0.827,1.637-1.847V30.117
			C322.113,29.098,321.381,28.271,320.477,28.271z"/>
	</g>
</g>
<path fill="#EE4B08" d="M139.538,108.643c-1.655-0.752-2.692-1.828-2.692-3.021c0-1.92,2.68-3.524,6.301-3.983v-2.07
	c-4.793,0.572-8.398,3.063-8.398,6.056c0,1.724,1.202,3.276,3.135,4.396C139.996,111.285,141.047,109.225,139.538,108.643z
	 M152.148,100.973c-1.127-1.016-2.703,0.527-1.629,1.441c1.904,0.756,3.127,1.91,3.127,3.205c0,1.918-2.682,3.524-6.301,3.983v2.067
	c4.793-0.569,8.397-3.063,8.397-6.053C155.746,103.764,154.35,102.104,152.148,100.973z M144.074,103.035l3.418-2.007
	c0.496-0.293,0.498-0.771,0.002-1.063l-3.449-2.047c-0.496-0.295-0.896-0.07-0.895,0.496l0.02,4.119
	C143.172,103.104,143.576,103.328,144.074,103.035z M146.447,108.216l-3.449,2.049c-0.496,0.295-0.494,0.771,0.004,1.063
	l3.416,2.006c0.498,0.293,0.902,0.066,0.906-0.5l0.018-4.119C147.344,108.145,146.943,107.923,146.447,108.216z"/>
</svg>
