<?xml version="1.0" encoding="utf-8"?>
<!-- Generator: Adobe Illustrator 16.0.0, SVG Export Plug-In . SVG Version: 6.00 Build 0)  -->
<!DOCTYPE svg PUBLIC "-//W3C//DTD SVG 1.1//EN" "http://www.w3.org/Graphics/SVG/1.1/DTD/svg11.dtd">
<svg version="1.1" id="Layer_1" xmlns="http://www.w3.org/2000/svg" xmlns:xlink="http://www.w3.org/1999/xlink" x="0px" y="0px"
	 width="14px" height="13.866px" viewBox="1.836 0.358 14 13.866" enable-background="new 1.836 0.358 14 13.866"
	 xml:space="preserve">
<g id="InviteKinnectors">
	<g>
		<path fill="#FFFFFF" d="M8.835,14.235c3.918,0,6.027-0.2,6.027-0.2c1.098-0.074,0.97-0.654,0.97-0.654
			c0-0.474-0.492-1.378-0.492-1.378c-1.011-1.766-2.81-2.338-2.81-2.338c-1.145-0.416-1.763-0.83-1.763-1.246
			c0-0.415,0.326-0.894,0.326-0.894c1.416-1.999,1.345-3.636,1.345-3.636c0-3.484-3.603-3.531-3.603-3.531s-3.599,0.047-3.599,3.53
			c0,0-0.071,1.638,1.345,3.636c0,0,0.327,0.479,0.327,0.895c0,0.416-0.619,0.83-1.765,1.246c0,0-1.8,0.572-2.811,2.338
			c0,0-0.492,0.904-0.492,1.378c0,0-0.128,0.577,0.971,0.654C2.809,14.035,4.921,14.235,8.835,14.235z"/>
	</g>
</g>
</svg>
