<?xml version="1.0" encoding="utf-8"?>
<!-- Generator: Adobe Illustrator 16.0.0, SVG Export Plug-In . SVG Version: 6.00 Build 0)  -->
<!DOCTYPE svg PUBLIC "-//W3C//DTD SVG 1.1//EN" "http://www.w3.org/Graphics/SVG/1.1/DTD/svg11.dtd">
<svg version="1.1" id="Isolation_Mode" xmlns="http://www.w3.org/2000/svg" xmlns:xlink="http://www.w3.org/1999/xlink" x="0px"
	 y="0px" width="16px" height="37.6px" viewBox="0 0 16 37.6" enable-background="new 0 0 16 37.6" xml:space="preserve">
<g>
	<g>
		<path fill="#FFFFFF" d="M7.748,13.46c0-2.534,2.054-4.588,4.588-4.588c1.214,0,2.318,0.472,3.139,1.242
			c0.244-0.617,0.409-1.274,0.486-1.96c0.448-3.997-3.02-7.667-6.822-8.095c-4.576-0.513-8.635,2.313-9.083,6.31
			c-0.26,2.315,0.401,4.381,1.905,5.982L1.556,15.96l3.819-1.674c0.484,0.136,1.6,0.35,2.121,0.407
			c0.145,0.017,0.288,0.027,0.431,0.037C7.81,14.328,7.748,13.902,7.748,13.46z M4.076,5.004c0-0.145,0.115-0.26,0.26-0.26h7.33
			c0.143,0,0.259,0.115,0.259,0.26v0.551c0,0.145-0.116,0.26-0.259,0.26h-7.33c-0.145,0-0.26-0.115-0.26-0.26V5.004z M4.336,7.89
			c-0.145,0-0.26-0.115-0.26-0.26V7.079c0-0.144,0.115-0.26,0.26-0.26h5.707c0.145,0,0.26,0.116,0.26,0.26V7.63
			c0,0.145-0.115,0.26-0.26,0.26H4.336z"/>
		<circle fill="#20CE1B" cx="12.336" cy="13.46" r="3.224"/>
	</g>
	<g>
		<path fill="#B5B5B5" d="M7.748,34.375c0-2.534,2.054-4.588,4.588-4.588c1.214,0,2.318,0.472,3.139,1.242
			c0.244-0.617,0.409-1.274,0.486-1.961c0.448-3.996-3.02-7.668-6.822-8.095c-4.574-0.514-8.635,2.313-9.083,6.311
			c-0.26,2.313,0.401,4.381,1.905,5.98l-0.405,3.608l3.82-1.674c0.484,0.136,1.6,0.35,2.121,0.407
			c0.145,0.017,0.287,0.027,0.43,0.037C7.811,35.243,7.748,34.817,7.748,34.375z M4.076,25.919c0-0.145,0.115-0.26,0.26-0.26h7.329
			c0.144,0,0.259,0.115,0.259,0.26v0.551c0,0.146-0.115,0.261-0.259,0.261H4.336c-0.145,0-0.26-0.115-0.26-0.261V25.919z
			 M4.336,28.805c-0.145,0-0.26-0.116-0.26-0.26v-0.552c0-0.146,0.115-0.26,0.26-0.26h5.706c0.144,0,0.26,0.114,0.26,0.26v0.552
			c0,0.144-0.116,0.26-0.26,0.26H4.336z"/>
		<circle fill="#B5B5B5" cx="12.336" cy="34.375" r="3.224"/>
	</g>
</g>
</svg>
