<?xml version="1.0" encoding="utf-8"?>
<!-- Generator: Adobe Illustrator 16.0.0, SVG Export Plug-In . SVG Version: 6.00 Build 0)  -->
<!DOCTYPE svg PUBLIC "-//W3C//DTD SVG 1.1//EN" "http://www.w3.org/Graphics/SVG/1.1/DTD/svg11.dtd">
<svg version="1.1" id="icon-dislike" xmlns="http://www.w3.org/2000/svg" xmlns:xlink="http://www.w3.org/1999/xlink" x="0px"
	 y="0px" width="550px" height="12px" viewBox="0 0 550 12" enable-background="new 0 0 550 12" xml:space="preserve">
<path fill="#FFFFFF" d="M351.236,3.604c0-1.207,0-2.384,0-3.604c2.268,2.014,4.509,4,6.763,6.003
	c-2.255,2.001-4.491,3.988-6.753,5.997c0-1.21,0-2.396,0-3.595c-0.439-0.104-0.865-0.214-1.294-0.302
	c-1.046-0.205-2.101-0.309-3.164-0.268c-1.782,0.068-3.44,0.588-4.963,1.568c-0.63,0.408-1.222,0.877-1.826,1.313
	c0.042-0.104,0.09-0.24,0.144-0.375c0.541-1.326,1.226-2.556,2.166-3.605c1.217-1.36,2.709-2.198,4.406-2.646
	c1.334-0.352,2.691-0.468,4.063-0.487C350.922,3.604,351.068,3.604,351.236,3.604L351.236,3.604z"/>
<path fill="#505050" d="M302.236,3.604c0-1.207,0-2.385,0-3.604c2.268,2.014,4.509,4,6.763,6.003
	c-2.255,2.001-4.491,3.988-6.753,5.997c0-1.209,0-2.395,0-3.594c-0.439-0.104-0.865-0.213-1.294-0.301
	c-1.046-0.205-2.101-0.311-3.164-0.27c-1.782,0.07-3.44,0.588-4.963,1.572c-0.632,0.406-1.224,0.875-1.826,1.313
	c0.042-0.104,0.09-0.238,0.146-0.375c0.539-1.322,1.224-2.557,2.164-3.606c1.219-1.361,2.709-2.199,4.406-2.647
	c1.334-0.351,2.691-0.468,4.063-0.486C301.922,3.604,302.068,3.604,302.236,3.604L302.236,3.604z"/>
<path fill="#FFFFFF" d="M251,1.352c0.521-0.58,1.146-0.981,1.894-1.198c2.104-0.609,4.184,0.648,4.588,2.798
	c0.178,0.946-0.027,1.843-0.467,2.691c-0.429,0.83-1.011,1.544-1.64,2.225c-1.021,1.104-2.146,2.102-3.252,3.112
	c-0.336,0.308-0.674,0.611-1.011,0.916c-0.036,0.033-0.075,0.064-0.122,0.104c-0.263-0.236-0.523-0.466-0.775-0.705
	c-1.053-0.979-2.114-1.954-3.146-2.955c-0.756-0.73-1.441-1.533-1.967-2.457c-0.443-0.781-0.693-1.613-0.644-2.524
	c0.086-1.523,1.136-2.851,2.613-3.224c1.473-0.371,2.739,0.039,3.807,1.103c0.033,0.033,0.063,0.068,0.099,0.103
	C250.978,1.34,250.983,1.34,251,1.352L251,1.352L251,1.352z"/>
<path fill="#505050" d="M202.001,1.352c0.521-0.578,1.146-0.98,1.893-1.196c2.104-0.61,4.185,0.646,4.588,2.797
	c0.178,0.946-0.026,1.843-0.467,2.692c-0.428,0.83-1.011,1.542-1.64,2.223c-1.021,1.104-2.146,2.102-3.252,3.112
	c-0.336,0.308-0.673,0.611-1.011,0.916c-0.035,0.033-0.075,0.064-0.122,0.104c-0.263-0.236-0.523-0.466-0.775-0.705
	c-1.053-0.979-2.114-1.954-3.146-2.955c-0.755-0.73-1.44-1.531-1.966-2.456c-0.443-0.781-0.693-1.613-0.644-2.525
	c0.086-1.521,1.136-2.85,2.614-3.223c1.473-0.371,2.738,0.039,3.806,1.104c0.033,0.03,0.063,0.063,0.098,0.1
	C201.979,1.34,201.984,1.342,202.001,1.352L202.001,1.352L202.001,1.352z"/>
<path fill="#FFFFFF" d="M450.946,7.818c-0.587,0-1.113,0.252-1.487,0.652l-4.374-2.178c0.016-0.104,0.023-0.207,0.023-0.313
	c0-0.104-0.012-0.205-0.022-0.307l4.368-2.152c0.374,0.403,0.901,0.658,1.491,0.658c1.136,0,2.056-0.938,2.056-2.092
	c0-1.152-0.92-2.092-2.056-2.092c-1.138,0-2.057,0.938-2.057,2.092c0,0.104,0.013,0.205,0.024,0.307l-4.367,2.152
	c-0.375-0.402-0.904-0.656-1.493-0.656c-1.135,0-2.055,0.936-2.055,2.09c0,1.152,0.92,2.09,2.055,2.09
	c0.586,0,1.113-0.252,1.487-0.648l4.374,2.178c-0.017,0.104-0.025,0.205-0.025,0.314c0,1.15,0.92,2.09,2.059,2.09
	c1.135,0,2.054-0.939,2.054-2.09C453.001,8.758,452.081,7.818,450.946,7.818z"/>
<path fill="#505050" d="M401.946,7.821c-0.586,0-1.113,0.25-1.486,0.649l-4.375-2.178c0.016-0.103,0.025-0.206,0.025-0.313
	c0-0.104-0.013-0.205-0.023-0.307l4.367-2.152c0.375,0.404,0.902,0.656,1.492,0.656c1.135,0,2.055-0.936,2.055-2.09
	c0-1.154-0.92-2.09-2.055-2.09c-1.138,0-2.058,0.936-2.058,2.09c0,0.104,0.013,0.205,0.025,0.305l-4.367,2.154
	c-0.375-0.402-0.904-0.656-1.494-0.656c-1.135,0-2.055,0.937-2.055,2.088c0,1.154,0.92,2.091,2.055,2.091
	c0.586,0,1.113-0.25,1.488-0.649l4.373,2.181c-0.016,0.103-0.025,0.207-0.025,0.313c0,1.154,0.92,2.09,2.06,2.09
	c1.135,0,2.053-0.936,2.053-2.09S403.081,7.821,401.946,7.821z"/>
<g>
	<path fill="#FFFFFF" d="M56.848,0.025c0.259,0.105,0.416,0.311,0.539,0.541c0.307,0.572,0.415,1.178,0.256,1.807
		c-0.056,0.213-0.188,0.41-0.299,0.605c-0.188,0.345-0.41,0.676-0.591,1.025c-0.121,0.234-0.084,0.314,0.132,0.479
		c0.216,0.165,0.472,0.188,0.735,0.181c0.479-0.013,0.963-0.01,1.444-0.001c0.259,0.004,0.516,0.043,0.771,0.049
		c0.438,0.01,0.729,0.24,0.951,0.576c0.128,0.191,0.251,0.395,0.198,0.631c-0.034,0.156-0.106,0.309-0.17,0.457
		c-0.039,0.091-0.093,0.176-0.143,0.26C60.609,6.74,60.62,6.84,60.689,6.941c0.077,0.125,0.157,0.252,0.227,0.385
		c0.118,0.238,0.104,0.479-0.063,0.693c-0.098,0.129-0.192,0.256-0.298,0.381c-0.071,0.098-0.097,0.19-0.039,0.307
		c0.031,0.064,0.052,0.143,0.076,0.209c0.11,0.279,0.067,0.541-0.119,0.777c-0.084,0.108-0.155,0.229-0.25,0.328
		c-0.104,0.112-0.114,0.239-0.09,0.381c0.023,0.108,0.045,0.225,0.073,0.33c0.033,0.133,0.006,0.244-0.076,0.354
		c-0.218,0.285-0.521,0.441-0.861,0.531c-0.628,0.162-1.269,0.27-1.912,0.334c-0.177,0.02-0.351,0.035-0.521,0.045
		c-0.702,0.037-1.376-0.127-2.049-0.287c-0.392-0.094-0.777-0.207-1.171-0.271c-0.328-0.059-0.664-0.067-0.997-0.094
		c-0.17-0.014-0.18-0.016-0.18-0.186c0-1.477,0.001-2.949-0.004-4.428c0-0.104,0.033-0.166,0.134-0.219
		c0.552-0.296,0.903-0.761,1.134-1.324c0.107-0.271,0.219-0.543,0.32-0.817c0.14-0.383,0.383-0.696,0.663-0.985
		c0.142-0.146,0.277-0.292,0.436-0.418c0.421-0.345,0.677-0.787,0.817-1.291c0.103-0.359,0.162-0.729,0.229-1.097
		c0.045-0.246,0.125-0.461,0.392-0.554C56.643-0.002,56.739-0.018,56.848,0.025z"/>
	<path fill="#FFFFFF" d="M51.711,8.926c0,0.764,0,1.523,0,2.289c0,0.27-0.153,0.438-0.43,0.439c-0.61,0.008-1.223,0.008-1.829,0.002
		c-0.3-0.006-0.442-0.156-0.448-0.463c-0.007-0.33-0.002-0.662-0.002-0.992c0-1.155,0-2.313,0-3.469c0-0.039,0-0.077,0.003-0.116
		c0.024-0.286,0.167-0.423,0.461-0.425c0.59-0.004,1.182-0.004,1.771-0.002c0.328,0.002,0.477,0.16,0.477,0.479
		C51.711,7.423,51.711,8.175,51.711,8.926z"/>
</g>
<g>
	<path fill="#505050" d="M7.847,0.026c0.258,0.106,0.416,0.31,0.539,0.541c0.308,0.572,0.416,1.178,0.256,1.807
		c-0.056,0.214-0.188,0.41-0.299,0.605c-0.189,0.345-0.41,0.676-0.591,1.024c-0.12,0.235-0.084,0.315,0.132,0.479
		C8.101,4.645,8.353,4.67,8.619,4.663c0.479-0.013,0.963-0.01,1.444-0.001c0.259,0.006,0.516,0.043,0.771,0.049
		c0.438,0.01,0.729,0.24,0.951,0.576c0.128,0.191,0.251,0.395,0.199,0.631c-0.035,0.156-0.107,0.309-0.173,0.459
		c-0.036,0.089-0.09,0.175-0.139,0.259c-0.062,0.105-0.052,0.205,0.015,0.307c0.08,0.125,0.16,0.252,0.229,0.384
		c0.118,0.239,0.104,0.479-0.063,0.694c-0.096,0.129-0.193,0.256-0.297,0.381c-0.072,0.096-0.097,0.19-0.039,0.305
		c0.031,0.066,0.052,0.143,0.076,0.209c0.11,0.281,0.067,0.54-0.117,0.777c-0.086,0.109-0.157,0.229-0.25,0.328
		c-0.104,0.113-0.119,0.24-0.092,0.381c0.023,0.109,0.045,0.226,0.073,0.33c0.033,0.134,0.007,0.244-0.075,0.355
		c-0.219,0.283-0.521,0.439-0.861,0.529c-0.629,0.164-1.27,0.27-1.914,0.334c-0.176,0.02-0.35,0.035-0.521,0.045
		c-0.701,0.037-1.376-0.127-2.05-0.285c-0.391-0.096-0.775-0.207-1.17-0.275c-0.328-0.057-0.664-0.065-0.998-0.092
		c-0.17-0.014-0.182-0.016-0.182-0.186c0-1.477,0.002-2.948-0.002-4.426c0-0.106,0.033-0.166,0.133-0.219
		C4.12,6.216,4.471,5.752,4.702,5.188C4.809,4.917,4.921,4.645,5.02,4.372c0.143-0.384,0.385-0.697,0.666-0.986
		C5.827,3.24,5.963,3.094,6.122,2.968c0.42-0.344,0.676-0.787,0.817-1.291c0.102-0.359,0.16-0.729,0.228-1.098
		C7.212,0.333,7.292,0.12,7.561,0.026C7.642-0.001,7.739-0.017,7.847,0.026z"/>
	<path fill="#505050" d="M2.711,8.928c0,0.765,0,1.523,0,2.287c0,0.271-0.154,0.438-0.43,0.441c-0.611,0.008-1.223,0.008-1.83,0
		c-0.299-0.005-0.441-0.154-0.447-0.462c-0.008-0.332-0.002-0.661-0.002-0.991c0-1.155,0-2.313,0-3.47c0-0.037,0-0.076,0.002-0.115
		c0.025-0.287,0.168-0.424,0.461-0.426c0.59-0.004,1.18-0.004,1.771-0.002c0.326,0.002,0.477,0.16,0.477,0.48
		C2.711,7.425,2.711,8.177,2.711,8.928z"/>
</g>
<path fill="#FFFFFF" d="M543.715,0.728c-0.938,0.191-1.761,0.029-2.207-0.117V0.394H540V12h1.508V6.396
	c1.664,0.157,3.078-0.121,4.621-0.604c1.821-0.564,3.688-0.072,3.869,0.033L550,0.205C547.742-0.379,545.088,0.443,543.715,0.728z"
	/>
<path fill="#505050" d="M494.715,0.728c-0.938,0.191-1.758,0.027-2.205-0.117V0.394H491V12h1.51V6.396
	c1.664,0.159,3.076-0.121,4.619-0.604c1.824-0.564,3.688-0.073,3.871,0.033v-5.62C498.744-0.379,496.088,0.443,494.715,0.728z"/>
<g>
	<path fill="#505050" d="M102.147,11.975c-0.257-0.105-0.416-0.311-0.539-0.541c-0.306-0.572-0.414-1.178-0.256-1.809
		c0.057-0.215,0.188-0.408,0.299-0.605c0.19-0.346,0.41-0.676,0.592-1.021c0.121-0.238,0.084-0.318-0.133-0.48
		c-0.217-0.162-0.469-0.186-0.733-0.18c-0.481,0.012-0.964,0.01-1.444,0c-0.259-0.004-0.516-0.043-0.771-0.047
		c-0.438-0.012-0.729-0.242-0.95-0.578c-0.128-0.189-0.251-0.393-0.198-0.63c0.034-0.157,0.105-0.308,0.17-0.458
		c0.039-0.089,0.092-0.174,0.141-0.258c0.063-0.107,0.051-0.205-0.016-0.307c-0.08-0.125-0.158-0.252-0.227-0.385
		c-0.118-0.238-0.104-0.478,0.061-0.693c0.098-0.129,0.194-0.256,0.299-0.381c0.072-0.098,0.096-0.191,0.037-0.307
		c-0.031-0.064-0.049-0.141-0.076-0.209c-0.108-0.279-0.065-0.541,0.118-0.777C98.606,2.2,98.681,2.08,98.772,1.98
		c0.104-0.113,0.117-0.24,0.092-0.381c-0.023-0.109-0.047-0.223-0.074-0.33c-0.032-0.133-0.006-0.244,0.076-0.354
		c0.218-0.284,0.521-0.44,0.86-0.53c0.628-0.162,1.269-0.27,1.915-0.336c0.176-0.019,0.35-0.033,0.521-0.045
		c0.701-0.035,1.375,0.127,2.049,0.287c0.391,0.096,0.777,0.207,1.171,0.275c0.328,0.057,0.664,0.064,0.997,0.092
		c0.17,0.014,0.181,0.016,0.181,0.186c0,1.477-0.001,2.948,0.002,4.426c0,0.105-0.032,0.166-0.132,0.22
		c-0.553,0.296-0.904,0.76-1.135,1.323c-0.108,0.271-0.219,0.541-0.319,0.816c-0.141,0.385-0.384,0.697-0.666,0.986
		c-0.14,0.145-0.276,0.293-0.434,0.418c-0.421,0.344-0.677,0.787-0.817,1.291c-0.102,0.355-0.162,0.729-0.228,1.098
		c-0.046,0.246-0.125,0.459-0.392,0.553C102.354,12.002,102.256,12.018,102.147,11.975z"/>
	<path fill="#505050" d="M107.285,3.074c0-0.764,0-1.525,0-2.289c0-0.27,0.151-0.438,0.43-0.441c0.609-0.008,1.222-0.008,1.829,0
		c0.301,0.004,0.442,0.154,0.448,0.461c0.006,0.332,0.002,0.662,0.002,0.992c0,1.156,0,2.313,0,3.469c0,0.039,0,0.078-0.004,0.117
		c-0.022,0.285-0.166,0.422-0.461,0.424c-0.59,0.004-1.182,0.004-1.771,0.002c-0.328-0.002-0.479-0.158-0.479-0.479
		C107.285,4.577,107.285,3.825,107.285,3.074z"/>
</g>
<g>
	<path fill="#FFFFFF" d="M151.147,11.975c-0.256-0.105-0.416-0.311-0.539-0.541c-0.306-0.572-0.414-1.178-0.256-1.808
		c0.057-0.213,0.188-0.409,0.299-0.606c0.19-0.344,0.41-0.674,0.593-1.022c0.12-0.236,0.084-0.315-0.134-0.479
		c-0.217-0.164-0.469-0.188-0.733-0.182c-0.479,0.014-0.963,0.01-1.442,0.002c-0.261-0.005-0.518-0.044-0.772-0.049
		c-0.438-0.01-0.728-0.24-0.951-0.576c-0.128-0.193-0.251-0.394-0.198-0.631c0.034-0.157,0.105-0.307,0.17-0.458
		c0.039-0.089,0.092-0.174,0.141-0.258c0.063-0.108,0.053-0.205-0.016-0.307c-0.08-0.125-0.158-0.252-0.227-0.384
		c-0.118-0.239-0.104-0.476,0.061-0.694c0.098-0.129,0.194-0.256,0.299-0.381c0.072-0.096,0.097-0.191,0.037-0.305
		c-0.031-0.066-0.049-0.14-0.076-0.209c-0.108-0.281-0.065-0.541,0.119-0.779c0.084-0.108,0.158-0.225,0.25-0.328
		c0.104-0.113,0.117-0.24,0.092-0.381c-0.023-0.109-0.047-0.222-0.073-0.33c-0.033-0.132-0.007-0.244,0.075-0.352
		c0.219-0.285,0.521-0.442,0.861-0.531c0.627-0.164,1.27-0.269,1.914-0.336c0.176-0.018,0.35-0.035,0.521-0.045
		c0.701-0.036,1.376,0.127,2.049,0.288c0.391,0.094,0.777,0.207,1.171,0.275c0.328,0.057,0.664,0.067,0.997,0.092
		c0.17,0.013,0.182,0.015,0.182,0.184c0,1.477-0.002,2.95,0.002,4.426c0,0.107-0.033,0.166-0.133,0.219
		c-0.553,0.296-0.904,0.76-1.135,1.325c-0.107,0.27-0.219,0.541-0.318,0.815c-0.142,0.383-0.385,0.698-0.666,0.987
		c-0.141,0.144-0.276,0.292-0.435,0.418c-0.42,0.343-0.676,0.787-0.817,1.291c-0.102,0.357-0.162,0.729-0.228,1.096
		c-0.045,0.247-0.125,0.46-0.392,0.555C151.354,12.001,151.256,12.018,151.147,11.975z"/>
	<path fill="#FFFFFF" d="M156.285,3.073c0-0.764,0-1.525,0-2.289c0-0.27,0.152-0.438,0.43-0.441
		c0.609-0.008,1.223-0.008,1.829-0.001c0.301,0.005,0.442,0.155,0.448,0.462c0.007,0.331,0.002,0.662,0.002,0.992
		c0,1.156,0,2.313,0,3.469c0,0.038,0,0.077-0.004,0.116c-0.022,0.286-0.166,0.423-0.461,0.425c-0.59,0.004-1.18,0.004-1.771,0.001
		c-0.328-0.002-0.479-0.159-0.479-0.48C156.285,4.576,156.285,3.824,156.285,3.073z"/>
</g>
</svg>
