<?xml version="1.0" encoding="utf-8"?>
<!-- Generator: Adobe Illustrator 16.0.0, SVG Export Plug-In . SVG Version: 6.00 Build 0)  -->
<!DOCTYPE svg PUBLIC "-//W3C//DTD SVG 1.1//EN" "http://www.w3.org/Graphics/SVG/1.1/DTD/svg11.dtd">
<svg version="1.1" id="Layer_1" xmlns="http://www.w3.org/2000/svg" xmlns:xlink="http://www.w3.org/1999/xlink" x="0px" y="0px"
	 width="66px" height="30px" viewBox="0 0 66 30" enable-background="new 0 0 66 30" xml:space="preserve">
<g>
	<circle fill="#C0BFBF" cx="15" cy="15" r="15"/>
	<g>
		<path fill="#FFFFFF" d="M15,13.54c-1.328,0-2.4,0.98-2.4,2.19c0,1.212,1.072,2.193,2.4,2.193c1.324,0,2.399-0.983,2.399-2.193
			S16.324,13.54,15,13.54z M21.399,11.346h-1.92c-0.265,0-0.548-0.185-0.632-0.416L18.35,9.568c-0.082-0.228-0.367-0.415-0.63-0.415
			h-5.44c-0.264,0-0.55,0.187-0.631,0.417l-0.499,1.359c-0.081,0.229-0.367,0.416-0.631,0.416H8.598C7.719,11.346,7,12.004,7,12.807
			v6.579c0,0.804,0.719,1.461,1.598,1.461h12.802c0.88,0,1.601-0.657,1.601-1.461v-6.579C23,12.006,22.279,11.346,21.399,11.346z
			 M15,19.385c-2.21,0-4-1.637-4-3.654c0-2.017,1.79-3.654,4-3.654c2.207,0,4,1.637,4,3.654C19,17.75,17.207,19.385,15,19.385z
			 M20.838,13.831c-0.309,0-0.559-0.229-0.559-0.511c0-0.283,0.252-0.514,0.559-0.514c0.312,0,0.562,0.229,0.562,0.514
			C21.399,13.601,21.148,13.831,20.838,13.831z"/>
	</g>
</g>
<g>
	<circle fill="#9E9D9D" cx="51" cy="15" r="15"/>
	<g>
		<path fill="#FFFFFF" d="M51,13.54c-1.328,0-2.4,0.98-2.4,2.19c0,1.212,1.072,2.193,2.4,2.193c1.324,0,2.399-0.983,2.399-2.193
			S52.324,13.54,51,13.54z M57.399,11.345h-1.92c-0.265,0-0.548-0.184-0.632-0.416L54.35,9.569c-0.082-0.228-0.367-0.416-0.63-0.416
			h-5.44c-0.264,0-0.55,0.186-0.631,0.417l-0.499,1.36c-0.081,0.229-0.367,0.416-0.631,0.416h-1.921
			c-0.879,0-1.598,0.659-1.598,1.462v6.579c0,0.804,0.719,1.461,1.598,1.461h12.802c0.88,0,1.601-0.657,1.601-1.461v-6.579
			C59,12.005,58.279,11.345,57.399,11.345z M51,19.385c-2.21,0-4-1.637-4-3.654c0-2.017,1.79-3.654,4-3.654c2.207,0,4,1.636,4,3.654
			C55,17.75,53.207,19.385,51,19.385z M56.838,13.831c-0.309,0-0.559-0.229-0.559-0.511c0-0.284,0.252-0.513,0.559-0.513
			c0.312,0,0.562,0.229,0.562,0.513C57.399,13.601,57.148,13.831,56.838,13.831z"/>
	</g>
</g>
</svg>
