<?xml version="1.0" encoding="utf-8"?>
<!-- Generator: Adobe Illustrator 16.0.0, SVG Export Plug-In . SVG Version: 6.00 Build 0)  -->
<!DOCTYPE svg PUBLIC "-//W3C//DTD SVG 1.1//EN" "http://www.w3.org/Graphics/SVG/1.1/DTD/svg11.dtd">
<svg version="1.1" id="Layer_1" xmlns="http://www.w3.org/2000/svg" xmlns:xlink="http://www.w3.org/1999/xlink" x="0px" y="0px"
	 width="25.917px" height="11.467px" viewBox="0 0 25.917 11.467" enable-background="new 0 0 25.917 11.467" xml:space="preserve">
<g>
	<path d="M405.523,296.627l-2.15-2.149c-0.279-0.28-0.733-0.28-1.014,0l-0.821,0.82l3.163,3.164l0.822-0.822
		C405.803,297.36,405.803,296.907,405.523,296.627z"/>
	<path d="M394.289,304.843c-0.062,0.244,0.01,0.502,0.188,0.681c0.137,0.136,0.319,0.21,0.508,0.21c0.057,0,0.115-0.008,0.174-0.021
		l2.305-0.576l-2.598-2.599L394.289,304.843z"/>
	<path d="M402.359,297.155l-1.328-1.328c0,0-5.896,5.899-5.936,5.942l1.321,1.329L402.359,297.155z"/>
	<path d="M396.924,303.583l1.33,1.321c0.043-0.042,5.941-5.937,5.941-5.937l-1.329-1.328L396.924,303.583z"/>
</g>
<g>
	<path fill="#A0A0A0" d="M25.707,2.36l-2.15-2.15c-0.279-0.28-0.734-0.28-1.014,0l-0.822,0.821l3.164,3.164l0.822-0.822
		C25.986,3.093,25.986,2.64,25.707,2.36z"/>
	<path fill="#A0A0A0" d="M14.473,10.576c-0.063,0.244,0.01,0.502,0.188,0.681c0.137,0.136,0.318,0.21,0.508,0.21
		c0.057,0,0.115-0.008,0.174-0.021l2.303-0.576l-2.596-2.599L14.473,10.576z"/>
	<path fill="#A0A0A0" d="M22.543,2.889l-1.328-1.328c0,0-5.896,5.899-5.936,5.942l1.32,1.329L22.543,2.889z"/>
	<path fill="#A0A0A0" d="M17.107,9.316l1.328,1.321c0.045-0.042,5.943-5.937,5.943-5.937l-1.33-1.328L17.107,9.316z"/>
</g>
<g>
	<path fill="#C0C0C0" d="M11.257,2.36l-2.15-2.15c-0.279-0.28-0.734-0.28-1.014,0L7.271,1.031l3.164,3.164l0.822-0.822
		C11.536,3.093,11.536,2.64,11.257,2.36z"/>
	<path fill="#C0C0C0" d="M0.021,10.576c-0.061,0.244,0.01,0.502,0.188,0.681c0.136,0.136,0.319,0.21,0.507,0.21
		c0.058,0,0.116-0.008,0.174-0.021l2.305-0.576L0.598,8.271L0.021,10.576z"/>
	<path fill="#C0C0C0" d="M8.093,2.889L6.765,1.561c0,0-5.897,5.899-5.936,5.942l1.321,1.329L8.093,2.889z"/>
	<path fill="#C0C0C0" d="M2.657,9.316l1.329,1.321C4.03,10.596,9.929,4.7,9.929,4.7l-1.33-1.327L2.657,9.316z"/>
</g>
</svg>
