<?xml version="1.0" encoding="utf-8"?>
<!-- Generator: Adobe Illustrator 16.0.0, SVG Export Plug-In . SVG Version: 6.00 Build 0)  -->
<!DOCTYPE svg PUBLIC "-//W3C//DTD SVG 1.1//EN" "http://www.w3.org/Graphics/SVG/1.1/DTD/svg11.dtd">
<svg version="1.1" id="Layer_1" xmlns="http://www.w3.org/2000/svg" xmlns:xlink="http://www.w3.org/1999/xlink" x="0px" y="0px"
	 width="24px" height="13.76px" viewBox="3.698 2.12 24 13.76" enable-background="new 3.698 2.12 24 13.76" xml:space="preserve">
<g>
	<rect x="8.598" y="7.043" fill="none" width="0.902" height="6.973"/>
	<rect x="8.597" y="7.043" fill="none" width="0.903" height="6.973"/>
	<rect x="8.598" y="7.043" fill="none" width="0.902" height="6.973"/>
	<path fill="#C0C0C0" d="M4.462,14.352c0,0.84,0.688,1.528,1.529,1.528h6.116c0.84,0,1.529-0.688,1.529-1.528V5.178H4.462V14.352z
		 M10.616,7.043h0.902v6.973h-0.902V7.043z M8.597,7.043H9.5v6.973H8.597V7.043z M6.58,7.043h0.903v6.973H6.58V7.043z"/>
	<polygon fill="#C0C0C0" points="11.724,2.884 10.96,2.12 7.137,2.12 6.373,2.884 3.698,2.884 3.698,4.413 14.4,4.413 14.4,2.884 	
		"/>
</g>
<g>
	<rect x="21.896" y="7.043" fill="#FFFFFF" width="0.901" height="6.973"/>
	<rect x="21.895" y="7.043" fill="#FFFFFF" width="0.903" height="6.973"/>
	<rect x="21.896" y="7.043" fill="#FFFFFF" width="0.901" height="6.973"/>
	<path fill="#A0A0A0" d="M17.759,14.352c0,0.84,0.688,1.528,1.529,1.528h6.116c0.841,0,1.528-0.688,1.528-1.528V5.178h-9.174V14.352
		z M23.912,7.043h0.903v6.973h-0.903V7.043z M21.895,7.043h0.903v6.973h-0.903V7.043z M19.878,7.043h0.902v6.973h-0.902V7.043z"/>
	<polygon fill="#A0A0A0" points="25.022,2.884 24.257,2.12 20.435,2.12 19.67,2.884 16.995,2.884 16.995,4.413 27.698,4.413 
		27.698,2.884 	"/>
</g>
</svg>
