<?xml version="1.0" encoding="utf-8"?>
<!-- Generator: Adobe Illustrator 16.0.0, SVG Export Plug-In . SVG Version: 6.00 Build 0)  -->
<!DOCTYPE svg PUBLIC "-//W3C//DTD SVG 1.1//EN" "http://www.w3.org/Graphics/SVG/1.1/DTD/svg11.dtd">
<svg version="1.1" id="Layer_1" xmlns="http://www.w3.org/2000/svg" xmlns:xlink="http://www.w3.org/1999/xlink" x="0px" y="0px"
	 width="87px" height="87px" viewBox="0 0 87 87" enable-background="new 0 0 87 87" xml:space="preserve">
<g>
	<g>
		<g>
			<circle fill-rule="evenodd" clip-rule="evenodd" fill="#EE4B08" cx="43.5" cy="43.5" r="43.5"/>
		</g>
	</g>
	<path fill="#FFFFFF" d="M50.199,23c-1.179,0-2.134,0.917-2.134,2.048c0,1.095,0.793,3.455,2.134,3.455s2.134-2.36,2.134-3.455
		C52.333,23.917,51.377,23,50.199,23L50.199,23z M52.729,54.688c-0.75-0.732-0.772-1.943-0.052-2.705s1.912-0.785,2.661-0.053
		l5.84,5.689c1.822,1.781-0.861,4.467-2.609,2.758L52.729,54.688L52.729,54.688z M51.671,49.697
		c0.573-0.605,1.478,0.281,0.904,0.885l-1.432,1.505c-0.575,0.604-1.477-0.282-0.904-0.885L51.671,49.697L51.671,49.697z
		 M50.105,36.158c3.729,3.725,3.801,9.797,0.172,13.619c-3.635,3.83-9.663,3.952-13.455,0.231
		c-3.767-3.696-3.887-9.823-0.227-13.678c3.635-3.829,9.663-3.952,13.456-0.231C50.07,36.118,50.088,36.139,50.105,36.158
		L50.105,36.158z M51.07,42.924c-0.07-4.291-3.551-7.7-7.762-7.629c-4.221,0.07-7.575,3.609-7.505,7.889
		c0.07,4.292,3.55,7.701,7.761,7.631C47.785,50.743,51.14,47.205,51.07,42.924L51.07,42.924z M43.279,37.292
		c1.215,0,2.2,0.953,2.2,2.13c0,1.138-0.817,3.594-2.2,3.594s-2.2-2.456-2.2-3.594C41.079,38.245,42.064,37.292,43.279,37.292
		L43.279,37.292z M38.597,45.743c0.033-0.327,0.075-0.745,0.334-0.948c0.104-0.083,2.345-1.023,2.611-1.099
		c0.246,0.983,0.712,3.284,1.167,4.193c0.022-0.441,0.187-2.313,0.208-2.755c0.121-0.08,0.241-0.16,0.362-0.24
		c0.121,0.08,0.241,0.16,0.362,0.24c0.022,0.441,0.187,2.313,0.208,2.755c0.455-0.909,0.922-3.21,1.168-4.193
		c0.27,0.077,2.525,1.026,2.624,1.11c0.247,0.207,0.288,0.615,0.32,0.937c0.027,0.274,0.056,0.54,0.085,0.799
		c-0.148,0.2-0.309,0.394-0.482,0.575c-0.021,0.023-0.043,0.047-0.064,0.07c-1.058,1.076-2.471,1.684-3.967,1.709
		c-1.53,0.025-2.993-0.564-4.093-1.646c-0.022-0.022-0.046-0.044-0.069-0.065c-0.313-0.318-0.585-0.668-0.815-1.043
		C38.569,46.012,38.583,45.879,38.597,45.743L38.597,45.743z M48.289,53.544c-0.156,0.922-0.427,1.905-0.859,3.032l-0.002,0.582
		c-0.002,0.158-0.004,0.793-0.008,0.953c-0.104,0.117-0.302,0.188-0.469,0.238c-0.064,1.207-0.145,4.123-0.229,5.65h-3.055
		l-0.086-5.352c-0.006-0.211-0.153-0.317-0.301-0.317c-0.147,0-0.295,0.106-0.301,0.317L42.892,64h-3.055
		c-0.085-1.527-0.166-4.443-0.229-5.65c-0.167-0.051-0.365-0.121-0.469-0.238c-0.003-0.16-0.006-0.795-0.008-0.953l-0.002-0.581
		c-0.459-1.196-0.736-2.231-0.888-3.202c1.648,0.858,3.492,1.301,5.384,1.269C45.259,54.616,46.844,54.236,48.289,53.544
		L48.289,53.544z M56.963,38.509c1.178,0,2.133,0.917,2.133,2.048c0,1.094-0.793,3.455-2.133,3.455
		c-1.342,0-2.135-2.361-2.135-3.455C54.828,39.426,55.784,38.509,56.963,38.509L56.963,38.509z M54.696,44.888
		c0.286-0.114,0.509-0.2,0.581-0.221c0.238,0.945,0.691,3.158,1.132,4.032c0.021-0.424,0.181-2.225,0.202-2.649
		c0.117-0.077,0.234-0.153,0.352-0.231c0.116,0.078,0.233,0.154,0.35,0.231c0.021,0.425,0.182,2.226,0.203,2.649
		c0.441-0.874,0.893-3.087,1.131-4.032c0.263,0.073,2.45,0.987,2.546,1.067c0.239,0.199,0.279,0.592,0.311,0.9
		c0.362,3.582,0.87,5.665,0.054,8.695l-4.912-4.785c-0.594-0.578-1.326-0.921-2.083-1.029c-0.11-0.449-0.343-0.873-0.695-1.219
		c-0.058-0.056-0.118-0.109-0.18-0.159C54.178,47.114,54.52,46.02,54.696,44.888L54.696,44.888z M60.369,62.791
		c-0.019,0.456-0.037,0.873-0.057,1.209h-2.979l-0.035-2.204C58.199,62.653,59.319,62.946,60.369,62.791L60.369,62.791z
		 M56.637,61.152L56.592,64h-2.98c-0.078-1.377-0.15-4.142-0.209-5.243c-0.162-0.049-0.354-0.116-0.455-0.229
		c-0.004-0.154-0.006-0.765-0.008-0.917v-0.061L56.637,61.152L56.637,61.152z M29.597,38.509c1.178,0,2.133,0.917,2.133,2.048
		c0,1.094-0.793,3.455-2.133,3.455c-1.341,0-2.134-2.361-2.134-3.455C27.462,39.426,28.418,38.509,29.597,38.509L29.597,38.509z
		 M25.056,46.635c0.032-0.314,0.073-0.716,0.324-0.912c0.102-0.079,2.274-0.983,2.532-1.056c0.238,0.945,0.69,3.158,1.131,4.032
		c0.021-0.424,0.181-2.225,0.203-2.649c0.117-0.077,0.234-0.153,0.351-0.231c0.117,0.078,0.234,0.154,0.351,0.231
		c0.021,0.425,0.181,2.226,0.202,2.649c0.441-0.874,0.894-3.087,1.132-4.032c0.1,0.028,0.481,0.179,0.919,0.358
		c0.327,1.933,1.13,3.746,2.341,5.279c0.197,2.186,0.128,4.039-0.92,6.747l-0.002,0.56c-0.002,0.152-0.004,0.763-0.007,0.917
		c-0.102,0.112-0.293,0.18-0.456,0.229c-0.058,1.102-0.131,3.866-0.209,5.243h-2.979l-0.079-4.955
		c-0.005-0.204-0.148-0.307-0.292-0.307c-0.143,0-0.287,0.103-0.292,0.307L29.226,64h-2.98c-0.078-1.377-0.151-4.142-0.209-5.243
		c-0.163-0.049-0.354-0.116-0.456-0.229c-0.003-0.154-0.006-0.765-0.007-0.917l-0.002-0.559C24,52.993,24.628,50.855,25.056,46.635
		L25.056,46.635z M36.359,23c1.178,0,2.133,0.917,2.133,2.048c0,1.095-0.792,3.455-2.133,3.455s-2.134-2.36-2.134-3.455
		C34.226,23.917,35.181,23,36.359,23L36.359,23z M31.818,31.126c0.032-0.314,0.073-0.716,0.324-0.912
		c0.101-0.079,2.274-0.983,2.532-1.056c0.238,0.945,0.691,2.518,1.131,3.393c0.021-0.424,0.182-1.586,0.203-2.01
		c0.117-0.077,0.234-0.154,0.351-0.23c0.117,0.076,0.234,0.153,0.351,0.23c0.021,0.424,0.181,1.586,0.203,2.01
		c0.441-0.875,0.893-2.447,1.131-3.393c0.262,0.073,2.449,0.986,2.545,1.066c0.239,0.201,0.279,0.593,0.311,0.901
		c0.021,0.21,0.042,0.413,0.064,0.612c-2.117,0.477-4.067,1.562-5.621,3.153c-0.036,0.034-0.071,0.069-0.105,0.105
		c-1.05,1.104-1.862,2.392-2.405,3.787c-0.176-0.31-0.396-0.591-0.653-0.837c-0.246-0.235-0.524-0.438-0.829-0.601
		C31.232,35.446,31.562,33.662,31.818,31.126L31.818,31.126z M54.74,31.126c-0.031-0.314-0.073-0.716-0.324-0.912
		c-0.102-0.079-2.273-0.983-2.531-1.056c-0.239,0.945-0.691,2.518-1.133,3.393c-0.021-0.424-0.181-1.586-0.201-2.01
		c-0.117-0.077-0.234-0.154-0.352-0.23c-0.117,0.076-0.234,0.153-0.351,0.23c-0.021,0.424-0.181,1.586-0.202,2.01
		c-0.441-0.875-0.894-2.447-1.132-3.393c-0.263,0.073-2.45,0.986-2.546,1.066c-0.238,0.201-0.279,0.593-0.311,0.901
		c-0.019,0.187-0.037,0.368-0.057,0.547c2.154,0.421,4.155,1.47,5.762,3.048c0.035,0.035,0.069,0.07,0.103,0.107
		c1.052,1.061,1.879,2.303,2.45,3.656c0.137-0.193,0.291-0.373,0.463-0.537c0.245-0.235,0.523-0.438,0.828-0.6
		C55.326,35.446,54.997,33.662,54.74,31.126L54.74,31.126z"/>
</g>
</svg>
