<?xml version="1.0" encoding="utf-8"?>
<!-- Generator: Adobe Illustrator 16.0.0, SVG Export Plug-In . SVG Version: 6.00 Build 0)  -->
<!DOCTYPE svg PUBLIC "-//W3C//DTD SVG 1.1//EN" "http://www.w3.org/Graphics/SVG/1.1/DTD/svg11.dtd">
<svg version="1.1" id="Layer_1" xmlns="http://www.w3.org/2000/svg" xmlns:xlink="http://www.w3.org/1999/xlink" x="0px" y="0px"
	 width="120px" height="19.494px" viewBox="10 0 120 19.494" enable-background="new 10 0 120 19.494" xml:space="preserve">
<g>
	<g>
		<path fill="#F7901E" d="M29.75,6.989l-6.166-0.896L20.82,0.504C20.71,0.271,20.501,0,20.22,0c-0.283,0-0.491,0.271-0.602,0.504
			l-2.764,5.589l-6.166,0.896C10.381,7.039,10,7.187,10,7.555c0,0.221,0.16,0.43,0.307,0.59l4.471,4.348l-1.057,6.143
			c-0.012,0.086-0.024,0.158-0.024,0.244c0,0.32,0.16,0.615,0.516,0.615c0.172,0,0.332-0.063,0.491-0.146l5.515-2.899l5.515,2.899
			c0.147,0.086,0.319,0.146,0.491,0.146c0.356,0,0.504-0.295,0.504-0.615c0-0.086,0-0.158-0.012-0.244l-1.057-6.143l4.459-4.348
			c0.16-0.16,0.319-0.369,0.319-0.59C30.438,7.187,30.045,7.039,29.75,6.989z"/>
	</g>
</g>
<g>
	<g>
		<path fill="#F7901E" d="M54.642,6.989l-6.166-0.896l-2.765-5.589C45.602,0.271,45.393,0,45.112,0
			c-0.283,0-0.492,0.271-0.603,0.504l-2.764,5.589l-6.166,0.896c-0.307,0.05-0.688,0.198-0.688,0.566c0,0.221,0.16,0.43,0.307,0.59
			l4.471,4.349l-1.057,6.144c-0.012,0.086-0.024,0.157-0.024,0.243c0,0.32,0.16,0.615,0.516,0.615c0.172,0,0.332-0.063,0.491-0.146
			l5.515-2.9l5.516,2.9c0.146,0.086,0.318,0.146,0.49,0.146c0.356,0,0.504-0.295,0.504-0.615c0-0.086,0-0.157-0.012-0.243
			l-1.057-6.144l4.459-4.349c0.16-0.16,0.318-0.369,0.318-0.59C55.331,7.188,54.937,7.039,54.642,6.989z"/>
	</g>
</g>
<g>
	<g>
		<path fill="#F7901E" d="M104.423,6.988l-6.166-0.896l-2.764-5.589c-0.109-0.232-0.318-0.504-0.601-0.504
			c-0.283,0-0.492,0.271-0.603,0.504l-2.765,5.589l-6.166,0.896c-0.308,0.05-0.688,0.198-0.688,0.566c0,0.221,0.16,0.43,0.309,0.59
			l4.471,4.349l-1.057,6.143c-0.014,0.086-0.024,0.158-0.024,0.244c0,0.32,0.16,0.615,0.517,0.615c0.172,0,0.332-0.063,0.49-0.146
			l5.516-2.899l5.516,2.899c0.146,0.086,0.318,0.146,0.49,0.146c0.355,0,0.504-0.295,0.504-0.615c0-0.086,0-0.158-0.012-0.244
			l-1.057-6.143l4.459-4.349c0.16-0.16,0.317-0.369,0.317-0.59C105.111,7.187,104.718,7.038,104.423,6.988z"/>
	</g>
</g>
<g>
	<g>
		<path fill="#F7901E" d="M79.533,6.988l-6.166-0.896l-2.765-5.589c-0.109-0.232-0.318-0.504-0.601-0.504
			c-0.283,0-0.492,0.271-0.603,0.504l-2.764,5.589l-6.166,0.896c-0.307,0.05-0.688,0.198-0.688,0.566c0,0.221,0.16,0.43,0.307,0.59
			l4.471,4.349l-1.057,6.143c-0.012,0.086-0.024,0.158-0.024,0.244c0,0.32,0.16,0.615,0.516,0.615c0.172,0,0.332-0.063,0.491-0.146
			L70,16.449l5.517,2.899c0.146,0.086,0.317,0.146,0.489,0.146c0.356,0,0.505-0.295,0.505-0.615c0-0.086,0-0.158-0.013-0.244
			l-1.057-6.143L79.9,8.144c0.16-0.16,0.318-0.369,0.318-0.59C80.222,7.186,79.828,7.038,79.533,6.988z"/>
	</g>
</g>
<g>
	<g>
		<path fill="#F7901E" d="M129.314,6.987l-6.166-0.896l-2.766-5.589c-0.108-0.232-0.317-0.504-0.6-0.504
			c-0.283,0-0.492,0.271-0.603,0.504l-2.765,5.589l-6.166,0.896c-0.308,0.05-0.688,0.198-0.688,0.566c0,0.221,0.16,0.43,0.308,0.59
			l4.471,4.349l-1.057,6.143c-0.013,0.087-0.023,0.158-0.023,0.244c0,0.32,0.16,0.615,0.516,0.615c0.172,0,0.332-0.063,0.491-0.146
			l5.515-2.9l5.516,2.9c0.146,0.086,0.318,0.146,0.49,0.146c0.356,0,0.504-0.295,0.504-0.615c0-0.086,0-0.157-0.012-0.244
			l-1.057-6.143l4.459-4.349c0.16-0.16,0.318-0.369,0.318-0.59C130.002,7.186,129.609,7.037,129.314,6.987z"/>
	</g>
</g>
</svg>
