<?xml version="1.0" encoding="utf-8"?>
<!-- Generator: Adobe Illustrator 16.0.0, SVG Export Plug-In . SVG Version: 6.00 Build 0)  -->
<!DOCTYPE svg PUBLIC "-//W3C//DTD SVG 1.1//EN" "http://www.w3.org/Graphics/SVG/1.1/DTD/svg11.dtd">
<svg version="1.1" id="Layer_1" xmlns="http://www.w3.org/2000/svg" xmlns:xlink="http://www.w3.org/1999/xlink" x="0px" y="0px"
	 width="92.295px" height="19.494px" viewBox="0 0 92.295 19.494" enable-background="new 0 0 92.295 19.494" xml:space="preserve">
<g>
	<g>
		<path fill="#F7901E" d="M19.751,6.989l-6.166-0.896l-2.764-5.589C10.711,0.271,10.502,0,10.22,0C9.937,0,9.729,0.271,9.618,0.504
			L6.854,6.093L0.688,6.989C0.381,7.039,0,7.187,0,7.555c0,0.221,0.16,0.43,0.307,0.59l4.471,4.348l-1.057,6.143
			c-0.012,0.086-0.024,0.159-0.024,0.245c0,0.319,0.16,0.614,0.516,0.614c0.172,0,0.332-0.062,0.491-0.147l5.515-2.899l5.515,2.899
			c0.147,0.086,0.319,0.147,0.491,0.147c0.356,0,0.504-0.295,0.504-0.614c0-0.086,0-0.159-0.012-0.245l-1.057-6.143l4.459-4.348
			c0.16-0.16,0.319-0.369,0.319-0.59C20.439,7.187,20.046,7.039,19.751,6.989z M55.68,6.989l-6.166-0.896L46.75,0.504
			C46.578,0.172,46.369,0,46.147,0c-0.221,0-0.442,0.172-0.602,0.504l-2.764,5.589l-6.167,0.896
			c-0.736,0.11-0.908,0.627-0.381,1.155l4.472,4.348l-1.056,6.143c-0.086,0.54,0.109,0.859,0.49,0.859
			c0.136,0,0.308-0.049,0.492-0.147l5.515-2.899l5.516,2.899c0.185,0.099,0.356,0.147,0.491,0.147c0.381,0,0.577-0.319,0.491-0.859
			l-1.056-6.143l4.458-4.348C56.588,7.616,56.416,7.1,55.68,6.989z M50.496,11.362l-0.602,0.577l0.146,0.811l0.737,4.361
			l-3.905-2.063l-0.726-0.381V2.838l1.953,3.955l0.368,0.737l0.811,0.123l4.373,0.639L50.496,11.362z M92.295,7.555
			c0-0.368-0.393-0.516-0.688-0.565l-6.166-0.896l-2.764-5.589C82.566,0.271,82.357,0,82.076,0c-0.283,0-0.492,0.271-0.603,0.504
			L78.71,6.093l-6.166,0.896c-0.308,0.05-0.688,0.197-0.688,0.565c0,0.221,0.16,0.43,0.308,0.59l4.472,4.348l-1.057,6.143
			c-0.013,0.086-0.025,0.159-0.025,0.245c0,0.319,0.16,0.614,0.517,0.614c0.172,0,0.331-0.062,0.491-0.147l5.516-2.899l5.515,2.899
			c0.147,0.086,0.319,0.147,0.491,0.147c0.356,0,0.504-0.282,0.504-0.614c0-0.086,0-0.159-0.013-0.245l-1.056-6.143l4.459-4.348
			C92.136,7.984,92.295,7.775,92.295,7.555z M85.822,11.939l0.885,5.172l-4.631-2.444l-4.644,2.444l0.896-5.172L74.57,8.292
			l5.184-0.762l2.322-4.692l2.32,4.692l5.184,0.762L85.822,11.939z"/>
	</g>
</g>
</svg>
