<?xml version="1.0" encoding="utf-8"?>
<!-- Generator: Adobe Illustrator 16.0.0, SVG Export Plug-In . SVG Version: 6.00 Build 0)  -->
<!DOCTYPE svg PUBLIC "-//W3C//DTD SVG 1.1//EN" "http://www.w3.org/Graphics/SVG/1.1/DTD/svg11.dtd">
<svg version="1.1" id="Layer_1" xmlns="http://www.w3.org/2000/svg" xmlns:xlink="http://www.w3.org/1999/xlink" x="0px" y="0px"
	 width="21.474px" height="25.914px" viewBox="0 0 21.474 25.914" enable-background="new 0 0 21.474 25.914" xml:space="preserve">
<g>
	<g>
		<path fill="#397BBF" d="M21.447,6.672c-0.014-0.699-0.026-1.36-0.026-2c0-0.501-0.4-0.906-0.895-0.906
			c-3.825,0-6.738-1.115-9.166-3.509c-0.348-0.343-0.9-0.343-1.247,0C7.685,2.65,4.773,3.766,0.948,3.766
			c-0.494,0-0.895,0.405-0.895,0.906c0,0.64-0.013,1.301-0.025,2.001c-0.123,6.511-0.291,15.428,10.416,19.191
			c0.095,0.033,0.193,0.05,0.293,0.05c0.099,0,0.197-0.017,0.293-0.05C21.737,22.101,21.569,13.184,21.447,6.672z M10.737,24.045
			C1.554,20.662,1.693,13.253,1.816,6.707c0.008-0.393,0.015-0.773,0.02-1.146c3.583-0.153,6.448-1.254,8.901-3.421
			c2.452,2.167,5.318,3.268,8.901,3.421c0.005,0.373,0.013,0.754,0.02,1.146C19.781,13.252,19.919,20.662,10.737,24.045z
			 M13.817,9.806L9.5,14.184l-1.843-1.868c-0.349-0.354-0.915-0.354-1.265,0s-0.35,0.929,0,1.283l2.475,2.509
			c0.175,0.178,0.403,0.266,0.633,0.266c0.229,0,0.458-0.088,0.632-0.266l4.95-5.019c0.35-0.354,0.35-0.929,0-1.283
			C14.733,9.452,14.167,9.451,13.817,9.806z"/>
	</g>
</g>
</svg>
