<?xml version="1.0" encoding="utf-8"?>
<!-- Generator: Adobe Illustrator 16.0.0, SVG Export Plug-In . SVG Version: 6.00 Build 0)  -->
<!DOCTYPE svg PUBLIC "-//W3C//DTD SVG 1.1//EN" "http://www.w3.org/Graphics/SVG/1.1/DTD/svg11.dtd">
<svg version="1.1" id="Layer_1" xmlns="http://www.w3.org/2000/svg" xmlns:xlink="http://www.w3.org/1999/xlink" x="0px" y="0px"
	 width="613.333px" height="60px" viewBox="0 0 613.333 60" enable-background="new 0 0 613.333 60" xml:space="preserve">
<g>
	<circle fill-rule="evenodd" clip-rule="evenodd" fill="#EE4B08" cx="30" cy="30" r="30"/>
	<g>
		<path fill-rule="evenodd" clip-rule="evenodd" fill="#FFFFFF" d="M21.129,38.004c-0.006-0.92-0.008-1.842-0.021-2.763
			c-0.004-0.235,0.146-0.214,0.297-0.214c0.982-0.001,1.963-0.004,2.943-0.004c4.578,0.001,9.156,0.003,13.736,0.004
			c0.529,0,0.439-0.006,0.439,0.451c-0.002,0.842-0.012,1.684-0.018,2.525C32.715,38.004,26.922,38.004,21.129,38.004z"/>
		<path fill-rule="evenodd" clip-rule="evenodd" fill="#FFFFFF" d="M15,23.305c0.209-0.563,0.561-0.953,1.207-0.964
			c0.623-0.011,1.135,0.438,1.23,1.067c0.092,0.594-0.287,1.193-0.857,1.365c-0.6,0.18-1.219-0.109-1.479-0.688
			c-0.035-0.081-0.068-0.163-0.102-0.245C15,23.662,15,23.483,15,23.305z"/>
		<path fill-rule="evenodd" clip-rule="evenodd" fill="#FFFFFF" d="M30.115,21.996c0.396,0.189,0.725,0.438,0.844,0.893
			c0.17,0.643-0.16,1.295-0.773,1.514c-0.604,0.217-1.262-0.077-1.529-0.682c-0.262-0.59-0.01-1.302,0.568-1.606
			c0.078-0.041,0.156-0.079,0.236-0.118C29.68,21.996,29.896,21.996,30.115,21.996z"/>
		<path fill-rule="evenodd" clip-rule="evenodd" fill="#FFFFFF" d="M42.08,26.264c-0.041,0.094-0.078,0.19-0.125,0.283
			c-1.107,2.203-2.217,4.404-3.318,6.611c-0.102,0.205-0.217,0.281-0.451,0.28c-5.602-0.007-11.203-0.006-16.805-0.003
			c-0.162,0-0.273-0.02-0.354-0.189c-1.133-2.346-2.271-4.688-3.41-7.029c-0.012-0.027-0.016-0.058-0.012-0.104
			c1.498,2.196,3.527,3.433,6.227,3.322c2.715-0.11,4.643-1.509,5.973-3.882c1.32,2.322,3.242,3.734,5.938,3.879
			C38.432,29.574,40.496,28.401,42.08,26.264z"/>
		<path fill-rule="evenodd" clip-rule="evenodd" fill="#FFFFFF" d="M43.789,22.34C44.457,22.345,45,22.902,45,23.584
			c-0.002,0.689-0.563,1.246-1.248,1.235c-0.678-0.011-1.211-0.56-1.209-1.243C42.547,22.881,43.096,22.334,43.789,22.34z"/>
		<path fill-rule="evenodd" clip-rule="evenodd" fill="#FFFFFF" d="M21.559,28.162c0.814-0.549,1.412-1.22,1.879-2.082
			c0.482,0.889,1.119,1.574,1.977,2.143C24.094,28.615,22.861,28.609,21.559,28.162z"/>
		<path fill-rule="evenodd" clip-rule="evenodd" fill="#FFFFFF" d="M34.479,28.244c0.844-0.543,1.506-1.234,1.998-2.162
			c0.455,0.809,1.016,1.461,1.736,1.966C37.693,28.543,35.398,28.676,34.479,28.244z"/>
		<path fill-rule="evenodd" clip-rule="evenodd" fill="#FFFFFF" d="M37.512,24.199c0.004,0.558-0.447,1.023-0.986,1.018
			c-0.527-0.006-0.973-0.461-0.979-1c-0.008-0.56,0.436-1.012,0.99-1.008C37.08,23.213,37.508,23.648,37.512,24.199z"/>
		<path fill-rule="evenodd" clip-rule="evenodd" fill="#FFFFFF" d="M24.475,24.227c-0.012,0.549-0.488,1.012-1.02,0.989
			c-0.521-0.021-0.967-0.5-0.955-1.026c0.016-0.563,0.469-0.998,1.021-0.979C24.061,23.23,24.486,23.684,24.475,24.227z"/>
	</g>
</g>
<g>
	<circle fill-rule="evenodd" clip-rule="evenodd" fill="#EE4B08" cx="122.222" cy="30" r="30"/>
	<g>
		<path fill-rule="evenodd" clip-rule="evenodd" fill="#FFFFFF" d="M121.616,32.044c-3.315,0-6.604,0-9.894,0
			c0-0.023,0-0.045,0-0.068c0.126-0.121,0.263-0.232,0.377-0.363c4.787-5.47,9.573-10.941,14.359-16.411"/>
		<path fill-rule="evenodd" clip-rule="evenodd" fill="#FFFFFF" d="M122.829,27.735c3.322,0,6.607,0,9.894,0
			c0,0.022,0,0.045,0,0.067c-0.126,0.121-0.263,0.233-0.377,0.364c-4.796,5.477-9.771,11.154-14.565,16.632"/>
	</g>
</g>
<g>
	<circle fill-rule="evenodd" clip-rule="evenodd" fill="#EE4B08" cx="214.444" cy="30" r="30"/>
	<g>
		<path fill-rule="evenodd" clip-rule="evenodd" fill="#FFFFFF" d="M206.609,45.001c0.571-1.425,1.124-2.813,1.693-4.194
			c0.034-0.083,0.196-0.155,0.301-0.16c0.429-0.018,0.86,0.009,1.289-0.018c0.116-0.008,0.286-0.121,0.326-0.226
			c0.29-0.767,0.847-1.221,1.597-1.495c0.958-0.352,1.186-0.992,0.702-1.896c-0.037-0.068-0.071-0.141-0.12-0.201
			c-0.671-0.848-0.618-1.766-0.135-2.637c0.414-0.747,0.313-1.378-0.196-1.973c-0.889-1.037-1.801-2.055-2.723-3.063
			c-0.15-0.165-0.398-0.239-0.602-0.354c-3.147-1.775-5.402-4.292-6.441-7.803c-0.332-1.121-0.441-2.271-0.289-3.479
			c1.258,0,2.515,0,3.795,0c0.195-0.85,0.382-1.669,0.573-2.503c5.348,0,10.673,0,16.037,0c0.188,0.82,0.376,1.64,0.569,2.481
			c1.295,0,2.583,0,3.935,0c0,0.664,0.058,1.313-0.01,1.948c-0.292,2.718-1.577,4.954-3.445,6.889
			c-1.012,1.05-2.187,1.882-3.459,2.589c-0.422,0.235-0.815,0.553-1.153,0.898c-0.61,0.623-1.182,1.285-1.746,1.951
			c-0.25,0.296-0.458,0.632-0.656,0.967c-0.213,0.36-0.192,0.729-0.021,1.12c0.186,0.425,0.329,0.872,0.456,1.319
			c0.136,0.479,0.005,0.92-0.25,1.342c-0.188,0.309-0.378,0.628-0.494,0.968c-0.193,0.571,0.041,1.109,0.586,1.309
			c0.882,0.323,1.618,0.775,1.933,1.728c0.022,0.066,0.18,0.123,0.276,0.125c0.43,0.014,0.86-0.006,1.29,0.012
			c0.107,0.004,0.273,0.073,0.307,0.156c0.569,1.381,1.122,2.769,1.697,4.2C217.013,45.001,211.838,45.001,206.609,45.001z
			 M223.102,18.732c0.208,2.736-0.314,5.271-1.631,7.636c2.397-1.997,4.053-4.392,4.265-7.636
			C224.83,18.732,224.001,18.732,223.102,18.732z M207.223,26.203c-1.255-2.332-1.725-4.822-1.533-7.438c-0.872,0-1.673,0-2.517,0
			C203.386,21.885,204.952,24.232,207.223,26.203z"/>
	</g>
</g>
<g>
	<circle fill-rule="evenodd" clip-rule="evenodd" fill="#EE4B08" cx="306.667" cy="30" r="30"/>
	<g>
		<path fill-rule="evenodd" clip-rule="evenodd" fill="#FFFFFF" d="M305.854,15.338c0.005,0.613,0.024,1.226,0.003,1.838
			c-0.004,0.116-0.149,0.284-0.268,0.33c-0.925,0.366-1.86,0.705-2.789,1.061c-0.107,0.041-0.255,0.123-0.278,0.215
			c-0.162,0.611-0.553,1.077-1.007,1.463c-1.03,0.875-2.093,1.712-3.162,2.539c-0.229,0.178-0.326,0.34-0.315,0.627
			c0.022,0.586,0.007,1.174,0.008,1.762c0.002,0.782,0.528,1.325,1.321,1.374c0.622,0.038,1.192-0.149,1.719-0.443
			c0.589-0.328,1.148-0.708,1.749-1.083c0.856,0.59,1.898,0.685,2.999,0.783c-0.104,0.121-0.17,0.206-0.244,0.283
			c-1.392,1.454-2.684,2.983-3.539,4.827c-0.533,1.149-0.88,2.343-0.646,3.634c0.009,0.049,0.017,0.1,0.028,0.15
			c0.21,0.883,0.27,0.936,1.158,0.938c3.092,0.004,6.183,0.002,9.274,0c0.099,0,0.198-0.014,0.228-0.018
			c0.068-1.451,0.134-2.871,0.201-4.301c-0.645,0.195-1.322,0.4-2.001,0.607c-0.029-0.035-0.059-0.07-0.088-0.105
			c0.087-0.057,0.182-0.104,0.26-0.17c0.639-0.551,1.281-1.097,1.906-1.662c0.12-0.107,0.217-0.279,0.251-0.438
			c0.081-0.37,0.117-0.751,0.183-1.206c-1.048,0.487-2.031,0.945-3.014,1.402c-0.013-0.018-0.026-0.035-0.039-0.053
			c0.475-0.508,0.948-1.018,1.424-1.523c0.533-0.568,1.079-1.127,1.596-1.709c0.131-0.147,0.234-0.37,0.245-0.564
			c0.031-0.592,0.011-1.188,0.011-1.781c-0.049-0.014-0.098-0.027-0.146-0.041c-1.323,1.195-2.646,2.391-3.971,3.586
			c-0.018-0.014-0.035-0.029-0.053-0.044c0.214-0.343,0.426-0.685,0.64-1.026c0.91-1.448,1.816-2.898,2.736-4.341
			c0.134-0.209,0.148-0.375,0.047-0.597c-0.67-1.455-1.634-2.674-2.894-3.661c-0.1-0.078-0.22-0.201-0.229-0.313
			c-0.098-1.081-0.741-1.7-1.706-2.044c-0.345-0.123-0.706-0.197-1.061-0.295C306.212,15.338,306.033,15.338,305.854,15.338z"/>
		<path fill-rule="evenodd" clip-rule="evenodd" fill="#FFFFFF" d="M315.667,44.662c-0.003-0.789-0.25-1.463-0.669-2.074
			c-0.848-1.24-2.069-1.982-3.427-2.537c-0.112-0.045-0.251-0.037-0.378-0.037c-3.014-0.002-6.028-0.004-9.043,0.004
			c-0.209,0-0.433,0.047-0.626,0.129c-1.241,0.525-2.35,1.236-3.149,2.354c-0.502,0.701-0.757,1.5-0.7,2.162
			C303.655,44.662,309.639,44.662,315.667,44.662z"/>
		<path fill-rule="evenodd" clip-rule="evenodd" fill="#FFFFFF" d="M306.698,36.273c-2.031,0-4.063,0.002-6.093,0
			c-1.239-0.002-1.93,0.992-1.514,2.184c0.224,0.641,0.646,0.949,1.321,0.949c4.19,0,8.381,0,12.57-0.002
			c0.782,0,1.218-0.355,1.415-1.129c0.184-0.717-0.106-1.553-0.68-1.846c-0.205-0.105-0.463-0.148-0.696-0.148
			C310.914,36.27,308.807,36.273,306.698,36.273z"/>
	</g>
</g>
<g>
	<circle fill-rule="evenodd" clip-rule="evenodd" fill="#EE4B08" cx="398.889" cy="30" r="30"/>
	<g>
		<path fill-rule="evenodd" clip-rule="evenodd" fill="#FFFFFF" d="M381.389,29.907c1.49-0.447,2.981-0.887,4.469-1.342
			c2.063-0.629,4.124-1.268,6.186-1.904c0.116-0.035,0.229-0.08,0.374-0.129c-0.779-1.764-1.55-3.508-2.378-5.381
			c1.863,0.822,3.612,1.596,5.397,2.383c0.425-1.385,0.839-2.738,1.255-4.092c0.666-2.164,1.333-4.328,1.997-6.494
			c0.045-0.146,0.072-0.299,0.108-0.447c0.062,0,0.124,0,0.185,0c0.473,1.578,0.939,3.158,1.419,4.732
			c0.602,1.977,1.214,3.947,1.823,5.92c0.036,0.115,0.082,0.229,0.135,0.373c1.764-0.779,3.506-1.549,5.377-2.375
			c-0.823,1.863-1.595,3.611-2.382,5.395c1.136,0.352,2.238,0.693,3.34,1.031c2.386,0.734,4.771,1.467,7.158,2.197
			c0.176,0.053,0.357,0.09,0.537,0.133c0,0.063,0,0.123,0,0.186c-1.534,0.461-3.068,0.918-4.6,1.385
			c-2.019,0.615-4.035,1.238-6.052,1.859c-0.116,0.035-0.229,0.08-0.376,0.135c0.78,1.762,1.55,3.504,2.377,5.375
			c-1.861-0.822-3.609-1.594-5.395-2.381c-0.352,1.137-0.694,2.238-1.032,3.34c-0.732,2.387-1.464,4.771-2.194,7.158
			c-0.054,0.176-0.09,0.357-0.135,0.535c-0.062,0-0.124,0-0.185,0c-0.5-1.666-0.996-3.334-1.503-4.998
			c-0.575-1.887-1.159-3.77-1.74-5.654c-0.036-0.115-0.081-0.229-0.134-0.377c-1.762,0.779-3.505,1.551-5.379,2.379
			c0.822-1.861,1.593-3.609,2.381-5.395c-1.224-0.379-2.413-0.75-3.604-1.115c-2.327-0.715-4.654-1.428-6.982-2.139
			c-0.146-0.045-0.298-0.072-0.447-0.107C381.389,30.03,381.389,29.97,381.389,29.907z M398.85,29.968c0-5.576,0-11.027,0-16.479
			c-0.245,0.625-0.438,1.258-0.633,1.891c-1.049,3.416-2.101,6.832-3.138,10.252c-0.053,0.174-0.052,0.463,0.054,0.572
			C396.331,27.448,397.555,28.665,398.85,29.968z M415.503,29.976c-0.118-0.059-0.131-0.066-0.146-0.07
			c-4.078-1.258-8.154-2.518-12.237-3.756c-0.151-0.047-0.415,0.066-0.542,0.189c-1.136,1.111-2.254,2.24-3.376,3.365
			c-0.069,0.068-0.126,0.148-0.227,0.271C404.5,29.976,409.953,29.976,415.503,29.976z M398.848,30.038c-5.568,0-11.019,0-16.47,0
			c0.641,0.25,1.287,0.449,1.934,0.648c3.417,1.049,6.833,2.1,10.252,3.137c0.16,0.049,0.426,0.035,0.531-0.066
			C396.333,32.554,397.551,31.329,398.848,30.038z M398.927,30.036c0,5.572,0,11.023,0,16.477c0.223-0.553,0.395-1.111,0.566-1.668
			c1.075-3.506,2.152-7.01,3.215-10.52c0.048-0.16,0.038-0.428-0.063-0.531C401.445,32.556,400.222,31.337,398.927,30.036z
			 M406.915,21.854c-1.516,0.654-3,1.295-4.498,1.939c0.215,0.691,0.412,1.324,0.607,1.951
			C404.338,24.431,405.608,23.161,406.915,21.854z M406.917,37.919c0.018-0.01,0.037-0.021,0.055-0.033
			c-0.623-1.445-1.246-2.891-1.878-4.357c-0.684,0.213-1.32,0.41-1.937,0.6C404.432,35.415,405.674,36.667,406.917,37.919z
			 M394.608,25.87c-1.271-1.279-2.515-2.531-3.853-3.875c0.667,1.549,1.289,2.994,1.925,4.475
			C393.351,26.261,393.989,26.062,394.608,25.87z M390.905,38.124c1.543-0.666,2.988-1.289,4.454-1.92
			c-0.214-0.688-0.411-1.322-0.599-1.926C393.48,35.556,392.231,36.802,390.905,38.124z"/>
	</g>
</g>
<g>
	<circle fill-rule="evenodd" clip-rule="evenodd" fill="#EE4B08" cx="491.111" cy="30" r="30"/>
	<g>
		<path fill-rule="evenodd" clip-rule="evenodd" fill="#FFFFFF" d="M476.111,37.157c0.071-0.412,0.122-0.828,0.218-1.234
			c0.389-1.639,1.4-2.789,2.925-3.426c1.084-0.455,2.213-0.82,3.352-1.115c1.379-0.355,2.348-1.092,2.875-2.439
			c0.272-0.695,0.646-1.355,1.018-2.006c0.472-0.828,1.176-1.406,2.085-1.699c0.261-0.084,0.564-0.115,0.831-0.068
			c0.174,0.029,0.366,0.217,0.453,0.385c0.042,0.08-0.113,0.307-0.229,0.414c-0.398,0.373-0.858,0.686-1.22,1.088
			c-0.538,0.598-0.863,1.301-0.709,2.145c0.073,0.398,0.248,0.74,0.579,0.984c0.38,0.281,0.789,0.26,1.136-0.053
			c2.2-1.979,4.396-3.961,6.598-5.936c1.345-1.207,2.695-2.406,4.052-3.6c0.171-0.15,0.237-0.301,0.233-0.523
			c-0.012-0.693-0.009-1.387,0-2.08c0.003-0.203,0.024-0.412,0.082-0.605c0.096-0.32,0.268-0.557,0.653-0.613
			c1.302-0.191,2.6-0.414,3.901-0.617c0.221-0.033,0.453-0.063,0.67-0.031c0.173,0.027,0.332,0.15,0.497,0.23
			c0,0.098,0,0.195,0,0.293c-0.207,0.117-0.4,0.285-0.622,0.34c-0.605,0.146-1.22,0.26-1.836,0.359
			c-0.289,0.045-0.498,0.166-0.68,0.393c-0.309,0.385-0.429,0.816-0.456,1.299c-0.01,0.176-0.089,0.385-0.207,0.51
			c-4.156,4.453-8.319,8.9-12.489,13.34c-0.215,0.229-0.266,0.463-0.213,0.744c0.139,0.754,0.819,1.383,1.634,1.518
			c0.714,0.117,1.364-0.229,1.759-0.943c0.141-0.256,0.248-0.531,0.399-0.779c0.315-0.518,0.738-0.707,1.131-0.539
			c0.402,0.174,0.648,0.713,0.488,1.23c-0.416,1.344-1.169,2.375-2.647,2.684c-0.363,0.074-0.725,0.152-1.085,0.236
			c-0.666,0.158-1.221,0.496-1.556,1.1c-0.405,0.732-0.76,1.492-1.145,2.236c-0.367,0.707-0.677,1.459-1.134,2.104
			c-0.865,1.225-2.05,2.014-3.562,2.248c-0.036,0.006-0.069,0.031-0.104,0.047c-0.312,0-0.625,0-0.938,0
			c-0.247-0.049-0.497-0.088-0.742-0.148c-1.851-0.453-3.327-1.496-4.543-2.928c-0.671-0.789-1.194-1.664-1.366-2.709
			c-0.036-0.219-0.058-0.439-0.086-0.66C476.111,37.938,476.111,37.548,476.111,37.157z M486.407,35.7
			c0.94-0.002,1.715-0.779,1.711-1.717c-0.004-0.941-0.774-1.707-1.719-1.709c-0.949-0.002-1.721,0.76-1.727,1.701
			C484.667,34.925,485.449,35.702,486.407,35.7z M479.495,37.567c-0.163,0.135-0.353,0.25-0.486,0.414
			c-0.154,0.188-0.103,0.404,0.04,0.594c0.786,1.041,1.692,1.967,2.745,2.74c0.273,0.201,0.542,0.162,0.764-0.064
			c0.221-0.225,0.255-0.494,0.054-0.768c-0.769-1.043-1.681-1.947-2.721-2.723C479.794,37.688,479.669,37.651,479.495,37.567z
			 M501.7,16.046c0,0.184-0.148,0.332-0.332,0.332s-0.332-0.148-0.332-0.332s0.148-0.332,0.332-0.332S501.7,15.862,501.7,16.046z
			 M504.493,15.558c0,0.184-0.148,0.332-0.332,0.332c-0.183,0-0.332-0.148-0.332-0.332s0.149-0.332,0.332-0.332
			C504.344,15.226,504.493,15.374,504.493,15.558z"/>
	</g>
</g>
<g>
	<circle fill-rule="evenodd" clip-rule="evenodd" fill="#EE4B08" cx="583.333" cy="30" r="30"/>
	<g>
		<path fill-rule="evenodd" clip-rule="evenodd" fill="#FFFFFF" d="M583.299,20.311c1.264-2.661,3.531-3.666,6.248-3.723
			c4.241-0.088,7.762,2.76,8.576,6.913c0.54,2.753,0.023,5.387-1.353,7.836c-0.991,1.764-2.371,3.2-3.923,4.467
			c-1.578,1.287-3.208,2.511-4.808,3.771c-1.286,1.013-2.509,2.093-3.575,3.345c-0.555,0.651-1.643,0.702-2.216,0.045
			c-1.924-2.207-4.291-3.888-6.584-5.659c-1.668-1.288-3.292-2.625-4.625-4.276c-1.997-2.473-2.889-5.308-2.673-8.463
			c0.283-4.135,3.396-7.376,7.525-7.922c1.3-0.172,2.568-0.061,3.797,0.402C581.314,17.659,582.668,18.581,583.299,20.311z"/>
	</g>
</g>
</svg>
