<?xml version="1.0" encoding="utf-8"?>
<!-- Generator: Adobe Illustrator 16.0.0, SVG Export Plug-In . SVG Version: 6.00 Build 0)  -->
<!DOCTYPE svg PUBLIC "-//W3C//DTD SVG 1.1//EN" "http://www.w3.org/Graphics/SVG/1.1/DTD/svg11.dtd">
<svg version="1.1" id="Layer_1" xmlns="http://www.w3.org/2000/svg" xmlns:xlink="http://www.w3.org/1999/xlink" x="0px" y="0px"
	 width="93.261px" height="20.218px" viewBox="0 0 93.261 20.218" enable-background="new 0 0 93.261 20.218" xml:space="preserve">
<path fill="#3B5998" d="M7.234,5.464c0,0.354,0,1.931,0,1.931H5.723v2.36h1.511v7.017h3.105V9.755h2.083c0,0,0.195-1.132,0.29-2.369
	c-0.271,0-2.361,0-2.361,0s0-1.374,0-1.614c0-0.241,0.338-0.566,0.673-0.566c0.334,0,1.039,0,1.692,0c0-0.321,0-1.432,0-2.457
	c-0.872,0-1.863,0-2.3,0C7.157,2.748,7.234,5.111,7.234,5.464z"/>
<path fill="#00ABF0" d="M41.051,4.791c-0.107,0.221-0.307,0.499-0.599,0.835c-0.292,0.336-0.652,0.632-1.081,0.887
	c0.012,0.093,0.021,0.18,0.027,0.261c0.006,0.082,0.009,0.168,0.009,0.261c0,0.487-0.057,1.021-0.17,1.602s-0.289,1.168-0.527,1.766
	c-0.238,0.597-0.539,1.189-0.902,1.775c-0.363,0.585-0.795,1.128-1.295,1.627c-0.5,0.498-1.069,0.939-1.707,1.322
	c-0.637,0.383-1.349,0.666-2.135,0.852c-0.917,0.197-1.834,0.296-2.752,0.296c-0.393,0-0.801-0.02-1.224-0.061
	c-0.423-0.04-0.846-0.116-1.269-0.226c-0.423-0.111-0.84-0.259-1.251-0.444c-0.411-0.186-0.795-0.423-1.152-0.714
	c0.929,0.128,1.808,0.056,2.636-0.217s1.582-0.658,2.26-1.157c-0.155,0-0.36-0.015-0.616-0.043c-0.256-0.029-0.53-0.116-0.822-0.261
	c-0.292-0.146-0.586-0.369-0.884-0.671c-0.298-0.301-0.56-0.725-0.786-1.27c0.071,0.022,0.169,0.037,0.294,0.043
	c0.125,0.006,0.259,0.003,0.402-0.008c0.143-0.013,0.283-0.026,0.42-0.044c0.137-0.018,0.259-0.038,0.366-0.061
	c-0.62-0.186-1.105-0.432-1.457-0.74c-0.351-0.308-0.61-0.623-0.777-0.948c-0.167-0.324-0.271-0.632-0.313-0.922
	s-0.063-0.517-0.063-0.679c0.155,0.093,0.381,0.191,0.679,0.296c0.297,0.104,0.566,0.15,0.804,0.139
	c-0.488-0.395-0.843-0.786-1.063-1.174c-0.22-0.389-0.352-0.766-0.393-1.131c-0.042-0.366-0.021-0.722,0.063-1.07
	c0.083-0.348,0.197-0.685,0.339-1.009c0.655,0.719,1.308,1.302,1.957,1.748c0.649,0.447,1.269,0.792,1.858,1.035
	c0.589,0.244,1.141,0.406,1.653,0.487s0.959,0.122,1.34,0.122c-0.071-0.464-0.074-0.905-0.009-1.322
	c0.065-0.418,0.203-0.801,0.411-1.148c0.208-0.348,0.485-0.646,0.831-0.896c0.346-0.25,0.757-0.438,1.233-0.566
	c0.583-0.162,1.144-0.156,1.68,0.018c0.536,0.174,0.995,0.476,1.375,0.905c0.167-0.011,0.429-0.064,0.787-0.157
	s0.804-0.296,1.34-0.608c-0.036,0.116-0.092,0.258-0.169,0.426c-0.078,0.168-0.176,0.339-0.295,0.514
	c-0.119,0.174-0.262,0.342-0.429,0.504c-0.167,0.163-0.357,0.296-0.572,0.4c0.179-0.034,0.375-0.075,0.589-0.122
	c0.179-0.046,0.387-0.107,0.625-0.183C40.557,4.985,40.801,4.895,41.051,4.791z"/>
<g>
	<g>
		<path fill="#D95232" d="M55.617,3.005c-1.434,0-2.427,0.315-3.319,1.054c-0.703,0.607-1.122,1.489-1.122,2.36
			c0,1.341,1.021,2.767,2.914,2.767c0.182,0,0.383-0.019,0.562-0.036l-0.026,0.064c-0.076,0.183-0.148,0.354-0.148,0.623
			c0,0.523,0.252,0.846,0.496,1.158l0.03,0.04l-0.055,0.003c-0.781,0.054-2.236,0.153-3.299,0.808
			c-1.255,0.747-1.353,1.834-1.353,2.149c0,1.254,1.167,2.52,3.775,2.52c3.031,0,4.618-1.675,4.618-3.329
			c0-1.224-0.717-1.828-1.477-2.47l-0.642-0.5c-0.199-0.165-0.445-0.369-0.445-0.749c0-0.373,0.246-0.619,0.465-0.836l0.022-0.023
			c0.692-0.546,1.479-1.166,1.479-2.506c0-1.348-0.841-2.044-1.245-2.379h1.067c0.013,0,0.026-0.004,0.037-0.011l0.92-0.579
			c0.025-0.017,0.038-0.048,0.029-0.078c-0.008-0.03-0.036-0.051-0.066-0.051H55.617z M57.515,13.874
			c0,1.174-0.989,1.903-2.582,1.903c-1.848,0-3.09-0.864-3.09-2.151c0-0.839,0.508-1.45,1.508-1.813
			c0.802-0.271,1.836-0.284,1.846-0.284c0.176,0,0.264,0,0.403,0.018C56.893,12.468,57.515,12.953,57.515,13.874z M56.109,8.199
			c-0.295,0.295-0.774,0.493-1.194,0.493c-1.551,0-2.194-2.042-2.194-3.135c0-0.556,0.126-0.982,0.386-1.305
			c0.282-0.353,0.765-0.581,1.229-0.581c1.425,0,2.212,1.917,2.212,3.241C56.548,7.122,56.548,7.757,56.109,8.199z M63.345,9.315
			h-1.696V7.624c0-0.039-0.03-0.069-0.069-0.069H60.85c-0.038,0-0.069,0.031-0.069,0.069v1.691h-1.687
			c-0.039,0-0.07,0.031-0.07,0.07v0.74c0,0.038,0.031,0.069,0.07,0.069h1.687v1.703c0,0.038,0.031,0.069,0.069,0.069h0.729
			c0.039,0,0.069-0.031,0.069-0.069v-1.703h1.696c0.038,0,0.069-0.031,0.069-0.07V9.385C63.414,9.346,63.383,9.315,63.345,9.315z"/>
	</g>
</g>
<g>
	<g>
		<path fill="#0177B5" d="M73.84,16.239h3.01V7.492h-3.01V16.239z M86.732,8.291c-0.633-0.668-1.469-1.002-2.508-1.002
			c-0.385,0-0.732,0.046-1.047,0.137c-0.313,0.091-0.576,0.219-0.793,0.384c-0.215,0.165-0.389,0.318-0.516,0.459
			c-0.121,0.134-0.24,0.29-0.355,0.467V7.492h-3.002l0.008,0.424c0.008,0.282,0.01,1.153,0.01,2.612
			c0,1.459-0.006,3.361-0.018,5.711h3.002v-4.882c0-0.3,0.033-0.538,0.1-0.715c0.129-0.3,0.322-0.551,0.58-0.754
			c0.258-0.204,0.58-0.305,0.963-0.305c0.523,0,0.908,0.175,1.154,0.525s0.369,0.833,0.369,1.452v4.677h3.002v-5.012
			C87.682,9.936,87.365,8.958,86.732,8.291z M75.363,3.281c-0.506,0-0.914,0.143-1.227,0.428c-0.314,0.285-0.471,0.646-0.471,1.081
			c0,0.43,0.152,0.789,0.457,1.077C74.426,6.156,74.828,6.3,75.326,6.3h0.02c0.51,0,0.922-0.144,1.236-0.433
			c0.313-0.288,0.467-0.647,0.461-1.077c-0.006-0.436-0.162-0.796-0.467-1.081C76.273,3.424,75.869,3.281,75.363,3.281z"/>
	</g>
</g>
</svg>
