<?xml version="1.0" encoding="utf-8"?>
<!DOCTYPE svg PUBLIC "-//W3C//DTD SVG 1.1//EN" "http://www.w3.org/Graphics/SVG/1.1/DTD/svg11.dtd">
<svg version="1.1" baseProfile="full"
 xmlns="http://www.w3.org/2000/svg"
 xmlns:xlink="http://www.w3.org/1999/xlink"
 xmlns:ev="http://www.w3.org/2001/xml-events" 
  height="28px" 
  width="414px" 
>
<path stroke="rgb( 229, 229, 229 )" stroke-width="1px" stroke-linecap="butt" stroke-linejoin="miter" fill="rgb( 255, 255, 255 )"
 d="M400,28 C394.819,28 390.298,25.183 387.877,21 C387.877,21 220.122,21 220.122,21 C217.701,25.183 213.181,28 208,28 C202.819,28 198.298,25.183 195.878,21 C195.878,21 26.122,21 26.122,21 C23.701,25.183 19.181,28 14,28 C6.26800000000003,28 0,21.732 0,14 C0,6.268 6.26800000000003,0 14,0 C19.181,0 23.701,2.81699999999999 26.122,7 C26.122,7 195.877,7 195.877,7 C198.298,2.81699999999999 202.819,0 208,0 C213.181,0 217.701,2.81699999999999 220.122,7 C220.122,7 387.877,7 387.877,7 C390.298,2.81699999999999 394.819,0 400,0 C407.732,0 414,6.268 414,14 C414,21.732 407.732,28 400,28 Z "/>
</svg>
