<?xml version="1.0" encoding="utf-8"?>
<!-- Generator: Adobe Illustrator 16.0.0, SVG Export Plug-In . SVG Version: 6.00 Build 0)  -->
<!DOCTYPE svg PUBLIC "-//W3C//DTD SVG 1.1//EN" "http://www.w3.org/Graphics/SVG/1.1/DTD/svg11.dtd">
<svg version="1.1" id="Capa_1" xmlns="http://www.w3.org/2000/svg" xmlns:xlink="http://www.w3.org/1999/xlink" x="0px" y="0px"
	 width="38px" height="12.275px" viewBox="0 0 38 12.275" enable-background="new 0 0 38 12.275" xml:space="preserve">
<g>
	<g>
		<path fill="#EE4B08" d="M11.638,10.008H7.455l-0.563,0.551C6.654,10.791,6.337,10.921,6,10.921s-0.653-0.13-0.892-0.361
			l-0.564-0.551H0.363C0.162,10.008,0,10.166,0,10.362v1.42c0,0.197,0.162,0.355,0.363,0.355h11.274
			c0.198,0,0.362-0.158,0.362-0.355v-1.42C12,10.166,11.837,10.008,11.638,10.008z"/>
		<path fill="#EE4B08" d="M5.212,10.008l0.23,0.225c0.154,0.148,0.354,0.225,0.557,0.225s0.402-0.076,0.557-0.225l0.23-0.225
			l3.686-3.604c0.309-0.301,0.203-0.545-0.23-0.545H8.748V0.445c0-0.17-0.144-0.308-0.314-0.308H3.567
			c-0.173,0-0.314,0.138-0.314,0.308V5.86H1.758c-0.435,0-0.538,0.244-0.229,0.545L5.212,10.008z"/>
	</g>
</g>
<g>
	<g>
		<path fill="#505050" d="M37.639,10.008h-4.184l-0.563,0.551c-0.238,0.232-0.556,0.362-0.893,0.362s-0.652-0.13-0.893-0.361
			l-0.563-0.551h-4.181C26.162,10.008,26,10.166,26,10.362v1.42c0,0.197,0.162,0.355,0.363,0.355h11.273
			c0.199,0,0.363-0.158,0.363-0.355v-1.42C38,10.166,37.838,10.008,37.639,10.008z"/>
		<path fill="#505050" d="M31.212,10.008l0.229,0.225c0.154,0.148,0.354,0.225,0.558,0.225s0.401-0.076,0.558-0.225l0.23-0.225
			l3.686-3.604c0.309-0.301,0.203-0.545-0.23-0.545h-1.494V0.445c0-0.17-0.145-0.308-0.314-0.308h-4.867
			c-0.172,0-0.313,0.138-0.313,0.308V5.86h-1.495c-0.435,0-0.538,0.244-0.229,0.545L31.212,10.008z"/>
	</g>
</g>
</svg>
