<?xml version="1.0" encoding="utf-8"?>
<!-- Generator: Adobe Illustrator 16.0.0, SVG Export Plug-In . SVG Version: 6.00 Build 0)  -->
<!DOCTYPE svg PUBLIC "-//W3C//DTD SVG 1.1//EN" "http://www.w3.org/Graphics/SVG/1.1/DTD/svg11.dtd">
<svg version="1.1" id="Capa_1" xmlns="http://www.w3.org/2000/svg" xmlns:xlink="http://www.w3.org/1999/xlink" x="0px" y="0px"
	 width="13px" height="228.443px" viewBox="0 0 13 228.443" enable-background="new 0 0 13 228.443" xml:space="preserve">
<g>
	<circle fill="#747474" cx="6.5" cy="67.814" r="6.5"/>
	<g>
		<path fill="#FFFFFF" d="M7.6,67.814l1.922-1.921c0.307-0.305,0.307-0.797,0-1.102c-0.305-0.304-0.797-0.304-1.1,0l-1.923,1.922
			l-1.922-1.923c-0.303-0.304-0.797-0.304-1.1,0c-0.303,0.307-0.303,0.8,0,1.103l1.921,1.921l-1.921,1.921
			c-0.303,0.305-0.303,0.797,0,1.1c0.152,0.152,0.351,0.229,0.551,0.229c0.199,0,0.397-0.076,0.552-0.229l1.92-1.921l1.922,1.921
			c0.151,0.152,0.352,0.229,0.551,0.229c0.2,0,0.399-0.076,0.553-0.229c0.306-0.305,0.306-0.797,0-1.1L7.6,67.814z"/>
	</g>
</g>
<g>
	<g>
		<g>
			<polygon fill="#747474" points="11.269,3.355 9.644,1.731 4.61,6.764 6.254,8.371 			"/>
			<path fill="#747474" d="M11.04,0.338l-0.831,0.833l1.624,1.623l0.832-0.833c0.446-0.448,0.446-1.175,0-1.623
				C12.217-0.113,11.488-0.113,11.04,0.338z"/>
			<polygon fill="#747474" points="2.964,10.04 5.734,8.87 4.122,7.294 			"/>
		</g>
	</g>
	<g>
		<g>
			<g>
				<path fill="#747474" d="M11.584,5.803c-0.408,0-0.703,0.301-0.703,0.707l0.007,5.041L1.44,11.596L1.408,3.02l4.778-0.009
					c0.405-0.003,0.7-0.3,0.7-0.706C6.883,1.9,6.587,1.604,6.18,1.606L0.7,1.617c-0.407,0-0.703,0.298-0.7,0.704l0.038,9.979
					c0,0.406,0.298,0.703,0.708,0.7l10.848-0.048c0.407-0.001,0.704-0.299,0.703-0.707l-0.008-5.744
					C12.288,6.095,11.992,5.803,11.584,5.803z"/>
			</g>
		</g>
	</g>
</g>
<g>
	<g>
		<g>
			<polygon fill="#FFFFFF" points="11.268,34.01 9.643,32.385 4.611,37.42 6.254,39.027 			"/>
			<path fill="#FFFFFF" d="M11.04,30.993l-0.831,0.832l1.624,1.625l0.831-0.833c0.448-0.449,0.448-1.175,0-1.624
				C12.217,30.545,11.488,30.545,11.04,30.993z"/>
			<polygon fill="#FFFFFF" points="2.964,40.694 5.734,39.526 4.122,37.949 			"/>
		</g>
	</g>
	<g>
		<g>
			<g>
				<path fill="#FFFFFF" d="M11.583,36.459c-0.407,0-0.702,0.302-0.702,0.707l0.006,5.04L1.44,42.252l-0.032-8.575l4.777-0.01
					c0.404-0.003,0.699-0.298,0.699-0.708C6.882,32.554,6.586,32.26,6.18,32.26l-5.481,0.01C0.293,32.272-0.003,32.57,0,32.978
					l0.038,9.979c0.001,0.407,0.298,0.704,0.708,0.701l10.849-0.049c0.406,0,0.703-0.299,0.701-0.706l-0.007-5.744
					C12.288,36.752,11.992,36.459,11.583,36.459z"/>
			</g>
		</g>
	</g>
</g>
<g>
	<circle fill="#FFFFFF" cx="6.5" cy="98.471" r="6.5"/>
	<g>
		<path fill="#EE4B08" d="M7.6,98.471l1.922-1.921c0.307-0.307,0.307-0.797,0-1.102c-0.305-0.304-0.797-0.304-1.1,0l-1.923,1.92
			l-1.921-1.921c-0.303-0.304-0.797-0.304-1.1,0c-0.303,0.306-0.303,0.799,0,1.103l1.92,1.921l-1.92,1.921
			c-0.303,0.305-0.303,0.797,0,1.101c0.152,0.151,0.351,0.228,0.551,0.228c0.199,0,0.397-0.075,0.552-0.228L6.5,99.571l1.922,1.921
			c0.151,0.151,0.352,0.229,0.551,0.229c0.2,0,0.399-0.076,0.553-0.229c0.306-0.306,0.306-0.798,0-1.101L7.6,98.471z"/>
	</g>
</g>
<path fill="#747474" d="M11.375,128.099h-0.813v-2.251c0-2.242-1.82-4.063-4.063-4.063s-4.063,1.818-4.063,4.063v2.251H1.625
	c-0.894,0-1.625,0.729-1.625,1.625v5.122c0,0.896,0.731,1.625,1.625,1.625h9.75c0.895,0,1.625-0.729,1.625-1.625v-5.122
	C13,128.829,12.27,128.099,11.375,128.099z M7.109,133.021c0,0.313-0.254,0.568-0.568,0.568s-0.568-0.255-0.568-0.568v-1.516
	c0-0.313,0.254-0.568,0.568-0.568s0.568,0.255,0.568,0.568V133.021z M9.02,128.099H3.981v-2.251c0-1.389,1.13-2.52,2.52-2.52
	c1.39,0,2.519,1.131,2.519,2.52V128.099z"/>
<path fill="#FFFFFF" d="M11.375,158.757h-0.813v-2.251c0-2.242-1.82-4.063-4.063-4.063s-4.063,1.818-4.063,4.063v2.251H1.625
	c-0.894,0-1.625,0.729-1.625,1.625v5.122c0,0.896,0.731,1.625,1.625,1.625h9.75c0.895,0,1.625-0.729,1.625-1.625v-5.122
	C13,159.486,12.27,158.757,11.375,158.757z M7.109,163.678c0,0.313-0.254,0.568-0.568,0.568c-0.313,0-0.568-0.255-0.568-0.568
	v-1.516c0-0.313,0.255-0.568,0.568-0.568c0.314,0,0.568,0.255,0.568,0.568V163.678z M9.02,158.757H3.981v-2.251
	c0-1.389,1.13-2.52,2.52-2.52s2.519,1.131,2.519,2.52V158.757z"/>
<path fill="#747474" d="M9.02,189.414H3.981v-2.251c0-1.389,1.13-2.52,2.52-2.52c0.594,0,1.133,0.215,1.564,0.561
	c0.084-0.532,0.445-1.007,1.076-1.103c-0.712-0.615-1.628-1.001-2.643-1.001c-2.243,0-4.063,1.818-4.063,4.063v2.251H1.625
	c-0.894,0-1.625,0.729-1.625,1.625v5.122c0,0.896,0.731,1.625,1.625,1.625h9.75c0.895,0,1.625-0.729,1.625-1.625v-5.122
	c0-0.896-0.73-1.625-1.625-1.625h-0.813 M7.109,194.336c0,0.313-0.254,0.568-0.568,0.568c-0.313,0-0.568-0.255-0.568-0.568v-1.516
	c0-0.313,0.255-0.568,0.568-0.568c0.314,0,0.568,0.255,0.568,0.568V194.336z"/>
<path fill="#FFFFFF" d="M9.02,220.071H3.981v-2.251c0-1.389,1.13-2.52,2.52-2.52c0.594,0,1.133,0.215,1.564,0.561
	c0.084-0.532,0.445-1.007,1.076-1.103c-0.712-0.615-1.628-1.001-2.643-1.001c-2.243,0-4.063,1.818-4.063,4.063v2.251H1.625
	c-0.894,0-1.625,0.729-1.625,1.625v5.122c0,0.896,0.731,1.625,1.625,1.625h9.75c0.895,0,1.625-0.729,1.625-1.625v-5.122
	c0-0.896-0.73-1.625-1.625-1.625h-0.813 M7.109,224.993c0,0.313-0.254,0.568-0.568,0.568c-0.313,0-0.568-0.255-0.568-0.568v-1.516
	c0-0.313,0.255-0.568,0.568-0.568c0.314,0,0.568,0.255,0.568,0.568V224.993z"/>
</svg>
