<?xml version="1.0" encoding="utf-8"?>
<!-- Generator: Adobe Illustrator 16.0.0, SVG Export Plug-In . SVG Version: 6.00 Build 0)  -->
<!DOCTYPE svg PUBLIC "-//W3C//DTD SVG 1.1//EN" "http://www.w3.org/Graphics/SVG/1.1/DTD/svg11.dtd">
<svg version="1.1" id="Isolation_Mode" xmlns="http://www.w3.org/2000/svg" xmlns:xlink="http://www.w3.org/1999/xlink" x="0px"
	 y="0px" width="16px" height="13.463px" viewBox="7 8.269 16 13.463" enable-background="new 7 8.269 16 13.463"
	 xml:space="preserve">
<g id="cart">
	<path fill="#0080E8" d="M7.044,11.075l2.624,6.874c0.097,0.259,0.341,0.425,0.613,0.427l7.001,0.021
		c0.273,0,0.519-0.166,0.621-0.422l2.561-6.61l1.207-1.331l0.446,0.006C22.604,10.04,23,9.647,23,9.161
		c0.001-0.487-0.391-0.882-0.88-0.884l-0.835-0.008c-0.253,0-0.488,0.105-0.657,0.291l-1.492,1.65L7.662,10.178
		c-0.215,0-0.421,0.107-0.544,0.286C6.993,10.645,6.966,10.87,7.044,11.075z M10.548,15.51l6.102,0.017v0.881l-6.104-0.021
		L10.548,15.51z M9.756,13.654l7.954,0.021l-0.003,0.879l-7.953-0.02L9.756,13.654z M9.063,11.786l9.411,0.024l-0.003,0.88
		l-9.41-0.025L9.063,11.786z"/>
	<circle fill="#0080E8" cx="16.255" cy="20.41" r="1.321"/>
	<circle fill="#0080E8" cx="11.4" cy="20.396" r="1.32"/>
</g>
</svg>
