<?xml version="1.0" encoding="utf-8"?>
<!-- Generator: Adobe Illustrator 16.0.0, SVG Export Plug-In . SVG Version: 6.00 Build 0)  -->
<!DOCTYPE svg PUBLIC "-//W3C//DTD SVG 1.1//EN" "http://www.w3.org/Graphics/SVG/1.1/DTD/svg11.dtd">
<svg version="1.1" id="Layer_1" xmlns="http://www.w3.org/2000/svg" xmlns:xlink="http://www.w3.org/1999/xlink" x="0px" y="0px"
	 width="48px" height="42.004px" viewBox="63.611 2.998 48 42.004" enable-background="new 63.611 2.998 48 42.004"
	 xml:space="preserve">
<g id="dashboard">
	<path fill="#999999" d="M81.613,18.184c0,1.554-1.257,2.813-2.812,2.813H66.425c-1.554,0-2.813-1.26-2.813-2.813V5.812
		c0-1.55,1.26-2.814,2.813-2.814H78.8c1.555,0,2.812,1.264,2.812,2.814v12.372H81.613z"/>
	<path fill="#999999" d="M87.616,42.193c0,1.553-1.265,2.809-2.816,2.809H66.425c-1.554,0-2.813-1.256-2.813-2.809V29.82
		c0-1.555,1.26-2.817,2.813-2.817h18.377c1.555,0,2.816,1.265,2.816,2.817L87.616,42.193L87.616,42.193z"/>
	<path fill="#999999" d="M108.803,8.999c1.554,0,2.808,1.264,2.808,2.813v24.377c0,1.545-1.254,2.813-2.808,2.813H96.425
		c-1.549,0-2.813-1.27-2.813-2.813V11.812c0-1.549,1.265-2.813,2.813-2.813H108.803L108.803,8.999z"/>
</g>
</svg>
