<?xml version="1.0" encoding="utf-8"?>
<!-- Generator: Adobe Illustrator 16.0.0, SVG Export Plug-In . SVG Version: 6.00 Build 0)  -->
<!DOCTYPE svg PUBLIC "-//W3C//DTD SVG 1.1//EN" "http://www.w3.org/Graphics/SVG/1.1/DTD/svg11.dtd">
<svg version="1.1" id="Layer_1" xmlns="http://www.w3.org/2000/svg" xmlns:xlink="http://www.w3.org/1999/xlink" x="0px" y="0px"
	 width="47.998px" height="36.083px" viewBox="127.222 5.957 47.998 36.083" enable-background="new 127.222 5.957 47.998 36.083"
	 xml:space="preserve">
<g id="inbox">
	<path fill="#999999" d="M134.781,32.938c1.06-0.981,2.128-1.955,3.19-2.932c1.4-1.288,2.824-2.548,4.25-3.816
		c0.974-0.852,1.943-1.708,2.918-2.566c-0.513-0.443-1.021-0.887-1.529-1.335c-1.275-1.131-2.554-2.265-3.82-3.403
		c-1.305-1.17-2.604-2.356-3.898-3.545c-1.49-1.361-2.966-2.742-4.427-4.135c-0.941-0.895-1.882-1.795-2.817-2.703
		c-0.891,1.137-1.425,2.566-1.425,4.12v22.756c0,1.364,0.403,2.626,1.104,3.671c0.908-0.887,1.832-1.75,2.747-2.629
		C132.304,35.251,133.537,34.091,134.781,32.938z"/>
	<path fill="#999999" d="M164.879,33.249c-1.405-1.123-2.822-2.254-4.22-3.394c-1.212-0.98-2.419-1.965-3.631-2.965
		c-0.504-0.428-1.02-0.853-1.527-1.283c-0.072-0.055-0.151-0.114-0.22-0.17c-0.026-0.026-0.032-0.006-0.053,0.014
		c-0.132,0.109-0.269,0.22-0.395,0.33c-0.252,0.218-0.499,0.436-0.751,0.644c0.032-0.021,0.059-0.048,0.079-0.067
		c-0.404,0.379-0.835,0.674-1.344,0.898c-0.512,0.208-1.039,0.301-1.593,0.32c-0.549-0.014-1.075-0.112-1.593-0.317
		c-0.502-0.229-0.938-0.524-1.347-0.905c0.029,0.026,0.053,0.051,0.079,0.068c-0.239-0.201-0.485-0.415-0.729-0.625
		c-0.13-0.111-0.258-0.227-0.384-0.333c-0.006-0.008-0.053-0.053-0.058-0.05c-0.066,0.059-0.135,0.109-0.197,0.165
		c-0.979,0.819-1.963,1.63-2.949,2.442c-1.383,1.137-2.768,2.274-4.169,3.394c-1.195,0.963-2.4,1.915-3.604,2.864
		c-1.262,0.99-2.521,1.974-3.799,2.955c-1.168,0.89-2.33,1.779-3.503,2.651c1.217,1.325,2.965,2.154,4.9,2.154h34.699
		c1.944,0,3.685-0.829,4.899-2.156c-1.49-1.106-2.969-2.233-4.438-3.368C167.654,35.436,166.264,34.354,164.879,33.249z"/>
	<path fill="#999999" d="M167.696,14.295c-1.049,0.976-2.109,1.941-3.169,2.909c-1.417,1.294-2.857,2.574-4.293,3.85
		c-0.966,0.855-1.949,1.716-2.918,2.568c0.394,0.344,0.793,0.692,1.179,1.034c1.184,1.039,2.366,2.08,3.528,3.135
		c1.308,1.176,2.607,2.354,3.903,3.532c1.183,1.083,2.362,2.181,3.529,3.276c1.569,1.476,3.12,2.957,4.652,4.452
		c0.703-1.055,1.112-2.312,1.112-3.676V12.618c0-1.554-0.535-2.983-1.423-4.117c-0.798,0.77-1.596,1.53-2.394,2.291
		C170.194,11.965,168.951,13.135,167.696,14.295z"/>
	<path fill="#999999" d="M137.759,14.132c1.398,1.118,2.796,2.238,4.187,3.361c1.206,0.977,2.405,1.957,3.6,2.957
		c1.009,0.842,2.016,1.68,3.021,2.521c0.504,0.417,1.005,0.848,1.509,1.277c0.082,0.071,0.166,0.14,0.244,0.213
		c0.291,0.268,0.669,0.344,1.053,0.336c0.201-0.037,0.38-0.072,0.56-0.179c0.131-0.068,0.243-0.168,0.354-0.271
		c0.06-0.055,0.129-0.11,0.189-0.165c1.008-0.85,2.015-1.702,3.032-2.545c0.964-0.811,1.938-1.616,2.912-2.411
		c1.383-1.139,2.767-2.274,4.17-3.393c1.198-0.96,2.397-1.913,3.604-2.862c1.26-0.992,2.521-1.976,3.794-2.957
		c1.022-0.782,2.052-1.559,3.075-2.33c-1.187-1.076-2.755-1.727-4.477-1.727h-34.699c-1.723,0-3.285,0.65-4.47,1.721
		c1.476,1.1,2.938,2.22,4.391,3.349C135.127,12.057,136.452,13.085,137.759,14.132z"/>
</g>
</svg>
