<?xml version="1.0" encoding="utf-8"?>
<!-- Generator: Adobe Illustrator 16.0.0, SVG Export Plug-In . SVG Version: 6.00 Build 0)  -->
<!DOCTYPE svg PUBLIC "-//W3C//DTD SVG 1.1//EN" "http://www.w3.org/Graphics/SVG/1.1/DTD/svg11.dtd">
<svg version="1.1" id="Layer_1" xmlns="http://www.w3.org/2000/svg" xmlns:xlink="http://www.w3.org/1999/xlink" x="0px" y="0px"
	 width="47.996px" height="39.621px" viewBox="190.836 4.176 47.996 39.621" enable-background="new 190.836 4.176 47.996 39.621"
	 xml:space="preserve">
<g id="InviteKinnectors">
	<path fill="#999999" d="M238.823,36.154c0-0.951-0.978-2.762-0.978-2.762c-2.021-3.521-5.612-4.668-5.612-4.668
		c-2.293-0.83-3.529-1.656-3.529-2.488c0-0.83,0.653-1.788,0.653-1.788c2.828-3.993,2.684-7.261,2.684-7.261
		c0-6.962-7.193-7.053-7.193-7.053s-1.188,0.015-2.604,0.503c0.313,1.106,0.479,2.31,0.479,3.598c0.01,0.491,0.01,4.438-2.902,9.425
		c0.17,0.262,0.34,0.52,0.524,0.788c0,0,0.652,0.958,0.652,1.788c0,0.6-0.643,1.195-1.862,1.791
		c0.601,0.334,1.471,0.736,2.772,1.215c0.533,0.173,5.828,2.048,8.896,7.398l0.011,0.017l0.014,0.016
		c0.082,0.173,0.294,0.567,0.533,1.08c3.624-0.117,5.522-0.295,5.522-0.295C239.077,37.313,238.823,36.154,238.823,36.154z"/>
	<g>
		<path fill="#999999" d="M210.825,43.822c11.191,0,17.216-0.572,17.216-0.572c3.135-0.213,2.771-1.868,2.771-1.868
			c0-1.353-1.405-3.937-1.405-3.937c-2.887-5.047-8.028-6.682-8.028-6.682c-3.269-1.188-5.033-2.371-5.033-3.56
			c0-1.187,0.935-2.554,0.935-2.554c4.041-5.709,3.84-10.385,3.84-10.385c0-9.954-10.289-10.089-10.289-10.089
			s-10.282,0.135-10.282,10.086c0,0-0.2,4.678,3.843,10.386c0,0,0.935,1.367,0.935,2.555s-1.769,2.371-5.042,3.561
			c0,0-5.143,1.635-8.031,6.68c0,0-1.403,2.584-1.403,3.938c0,0-0.366,1.646,2.772,1.868
			C193.61,43.25,199.646,43.822,210.825,43.822z"/>
	</g>
</g>
</svg>
