<?xml version="1.0" encoding="utf-8"?>
<!-- Generator: Adobe Illustrator 16.0.0, SVG Export Plug-In . SVG Version: 6.00 Build 0)  -->
<!DOCTYPE svg PUBLIC "-//W3C//DTD SVG 1.1//EN" "http://www.w3.org/Graphics/SVG/1.1/DTD/svg11.dtd">
<svg version="1.1" id="Layer_1" xmlns="http://www.w3.org/2000/svg" xmlns:xlink="http://www.w3.org/1999/xlink" x="0px" y="0px"
	 width="48px" height="48px" viewBox="318.054 0 48 48" enable-background="new 318.054 0 48 48" xml:space="preserve">
<g id="search">
	<path fill="#999999" d="M336.054,4.498c-7.5,0-13.5,6-13.5,13.505c0,7.498,6,13.498,13.5,13.498c7.494,0,13.494-6,13.494-13.498
		C349.549,10.498,343.549,4.498,336.054,4.498L336.054,4.498z M364.674,40.255c0.881,0.865,1.381,1.995,1.381,3.25
		c0,2.495-2,4.495-4.5,4.495c-1.253,0-2.375-0.505-3.125-1.38l0,0L345.174,33.5c-2.625,1.62-5.75,2.495-9.122,2.495
		c-9.875,0-17.997-8-17.997-17.993c0-9.88,8.122-18.002,18-18.002c10.003,0,18,8.123,18,18.002c0,3.37-0.884,6.498-2.5,9.123
		L364.674,40.255z"/>
</g>
</svg>
