<?xml version="1.0" encoding="utf-8"?>
<!-- Generator: Adobe Illustrator 16.0.0, SVG Export Plug-In . SVG Version: 6.00 Build 0)  -->
<!DOCTYPE svg PUBLIC "-//W3C//DTD SVG 1.1//EN" "http://www.w3.org/Graphics/SVG/1.1/DTD/svg11.dtd">
<svg version="1.1" id="Layer_1" xmlns="http://www.w3.org/2000/svg" xmlns:xlink="http://www.w3.org/1999/xlink" x="0px" y="0px"
	 width="48px" height="41.141px" viewBox="0 3.429 48 41.141" enable-background="new 0 3.429 48 41.141" xml:space="preserve">
<g>
	<g>
		<path fill="#999999" d="M46.041,3.429H1.959C0.877,3.429,0,4.306,0,5.388v5.877c0,1.082,0.877,1.959,1.959,1.959h44.082
			c1.082,0,1.959-0.877,1.959-1.959V5.388C48,4.306,47.123,3.429,46.041,3.429z M46.041,19.102H1.959
			C0.877,19.102,0,19.979,0,21.061v5.876c0,1.082,0.877,1.961,1.959,1.961h44.082c1.082,0,1.959-0.879,1.959-1.961v-5.876
			C48,19.979,47.123,19.102,46.041,19.102z M46.041,34.775H1.959C0.877,34.775,0,35.652,0,36.734v5.877
			c0,1.082,0.877,1.959,1.959,1.959h44.082c1.082,0,1.959-0.877,1.959-1.959v-5.877C48,35.652,47.123,34.775,46.041,34.775z"/>
	</g>
</g>
</svg>
