<?xml version="1.0" encoding="utf-8"?>
<!-- Generator: Adobe Illustrator 16.0.0, SVG Export Plug-In . SVG Version: 6.00 Build 0)  -->
<!DOCTYPE svg PUBLIC "-//W3C//DTD SVG 1.1//EN" "http://www.w3.org/Graphics/SVG/1.1/DTD/svg11.dtd">
<svg version="1.1" id="Layer_1" xmlns="http://www.w3.org/2000/svg" xmlns:xlink="http://www.w3.org/1999/xlink" x="0px" y="0px"
	 width="216px" height="46px" viewBox="0 0 216 46" enable-background="new 0 0 216 46" xml:space="preserve">
<g>
	<path fill="#EF4C09" d="M178.671,6.468c3.558-3.142,7.993-5.464,12.771-5.909c9.154-1.176,18.566,4.249,22.449,12.564
		c2.14,4.007,2.392,8.681,1.888,13.107c-1.013,6.15-4.808,11.817-10.104,15.103c-4.703,2.693-10.36,4.175-15.745,2.97
		c-1.843-0.341-3.606-0.988-5.326-1.72c-2.12-1.141-4.254,0.594-6.313,1.033c-0.179-1.888,1.388-4.309-0.41-5.766
		c-3.987-4.101-6.363-9.861-6.058-15.612C171.681,16.319,174.437,10.534,178.671,6.468L178.671,6.468z"/>
	<path fill="#FFFFFF" d="M188.779,10.178c4.11-2.588,10.227-1.99,13.28,1.967c1.783,2.164,1.966,5.192,1.393,7.831
		c-0.953,3.295-3.947,5.267-6.517,7.247c-2.218,1.863-4.782,3.256-7.03,5.079c4.729,0.153,9.467-0.202,14.189,0.099
		c0.015,0.811,0.015,1.616,0.01,2.421c-6.279,0.129-12.568,0.188-18.848-0.029c0.128-0.914-0.396-2.213,0.607-2.752
		c4.225-3.043,8.369-6.195,12.479-9.387c2.802-2.135,3.582-6.685,1.112-9.353c-1.981-2.248-5.366-2.135-8.019-1.438
		c-2.608,0.889-2.861,3.938-4.273,5.908c-0.668-0.578-2.056-0.83-1.818-1.976C185.543,13.528,186.838,11.379,188.779,10.178
		L188.779,10.178z"/>
	<g>
		<path fill="#FFFFFF" d="M7.758,30.183c3.72-3.532,7.761-6.715,11.373-10.355c-0.292-0.237-0.884-0.717-1.176-0.954
			c-5.632,4.264-10.494,9.441-15.958,13.908c-0.178-6.897,0.094-13.799-0.153-20.696C1.41,12.07,0.55,12.031,0.12,12.016
			c-0.183,10.929-0.128,21.872-0.025,32.806c0.445-0.005,1.334-0.01,1.779-0.015c0.183-3.162-0.094-6.334,0.158-9.486
			c1.122-1.565,2.757-2.648,4.204-3.888c3.804,4.012,7.204,8.389,11.047,12.366c0.573,0.667,1.417,0.948,2.213,1.25
			c-0.173-0.662-0.069-1.453-0.504-2.016C15.184,38.809,11.404,34.55,7.758,30.183z"/>
		<path fill="#FFFFFF" d="M26.493,16.636c0.059-1.374,0.074-2.752,0.069-4.126c-0.652-0.02-1.305-0.039-1.957-0.059
			c-0.005,1.402,0,2.806,0.02,4.214C25.248,16.65,25.87,16.646,26.493,16.636z"/>
		<path fill="#FFFFFF" d="M169.467,42.479c-2.213,0.548-4.748,1.487-6.882,0.237c-2.125-1.205-2.431-3.918-2.461-6.121
			c0-5.173-0.015-10.346,0.02-15.519c2.609-0.024,5.213,0,7.816-0.074c0.044-0.509,0.089-1.018,0.133-1.526
			c-2.647-0.148-5.296-0.089-7.944-0.139c-0.078-2.287,0.114-4.59-0.123-6.867c-0.455-0.499-0.924-0.514-1.413-0.045
			c-0.262,2.238-0.079,4.496-0.144,6.744c-1.828,0.139-3.676,0.113-5.488,0.391c-0.405,0.484-0.376,0.938,0.074,1.368
			c1.798,0.257,3.621,0.108,5.43,0.163c0.099,5.968-0.144,11.941,0.123,17.904c0.074,2.752,2.104,5.316,4.798,5.943
			c2.069,0.633,4.199-0.034,6.146-0.755C169.521,43.616,169.491,43.048,169.467,42.479z"/>
		<path fill="#FFFFFF" d="M47.203,18.889c-4.525-0.05-8.784,2.776-10.726,6.832c-0.055-2.124-0.218-4.238-0.316-6.358
			c-0.523,0.021-1.042,0.04-1.566,0.06c-0.049,8.474-0.044,16.946-0.005,25.42c0.538,0.009,1.072,0.019,1.61,0.034
			c0.232-5.03-0.311-10.099,0.41-15.099c0.904-4.273,4.407-8.112,8.799-8.863c3.479-0.825,7.426,0.528,9.595,3.394
			c1.21,1.676,1.848,3.755,1.818,5.82c0.01,4.891-0.044,9.782,0.02,14.669c0.598,0.015,1.201,0.034,1.798,0.054
			c0.237-4.569,0.059-9.145,0.134-13.715c0.054-2.87-0.489-5.934-2.396-8.187C54.199,20.223,50.671,18.726,47.203,18.889z"/>
		<path fill="#FFFFFF" d="M90.878,29.629c-0.06-3.098-1.398-6.21-3.839-8.166c-3.878-3.267-9.896-3.429-14.081-0.652
			c-1.868,1.19-3.132,3.048-4.575,4.679c-0.094-2.031-0.064-4.066-0.104-6.097c-0.548,0.005-1.097,0.01-1.64,0.015
			c-0.05,8.482-0.055,16.966,0,25.448c0.543-0.005,1.092-0.005,1.635-0.009c0.089-3.913,0.005-7.832,0.044-11.749
			c0.044-3.162,1.057-6.384,3.246-8.721c2.584-3.058,7.03-4.48,10.869-3.261c3.775,0.964,6.477,4.709,6.521,8.553
			c0.04,4.955,0.025,9.91-0.01,14.866c0.375,0.188,1.117,0.554,1.492,0.735c0.306-1.393,0.528-2.811,0.469-4.238
			C90.843,37.232,90.927,33.429,90.878,29.629z"/>
		<path fill="#FFFFFF" d="M116.974,20.672c-2.752-1.704-6.132-1.966-9.273-1.586c-4.373,0.647-8.221,3.804-9.752,7.949
			c-1.922,4.782-0.746,10.583,2.786,14.313c5.059,4.979,14.111,5.113,19.135-0.005c-1.631-1.261-3.162,0.39-4.719,0.913
			c-3.676,1.655-8.078,1.161-11.497-0.869c-2.574-1.709-4.021-4.629-4.609-7.594c4.456-0.128,8.917-0.03,13.378-0.064
			c3.449-0.039,6.922,0.192,10.351-0.316C123.673,28.527,121.281,23.177,116.974,20.672z M99.089,31.896
			c-0.079-4.861,3.251-9.861,8.167-10.81c2.46-0.351,5.063-0.41,7.439,0.396c4.076,1.709,6.527,6.066,6.527,10.404
			C113.846,31.932,106.465,31.911,99.089,31.896z"/>
		<path fill="#FFFFFF" d="M26.562,34.6c-0.099-5.074,0.222-10.163-0.213-15.227c-0.558-0.006-1.116-0.011-1.674-0.016
			c-0.099,7.392,0.01,14.787-0.064,22.179c-0.025,1.363,0.094,2.732,0.41,4.065c0.553-0.464,1.447-0.76,1.413-1.625
			C26.729,40.859,26.488,37.722,26.562,34.6z"/>
		<path fill="#FFFFFF" d="M144.986,42.44c-3.681,1.507-8.083,0.845-11.284-1.458c-5.395-4.402-5.099-13.666,0.163-18.063
			c2.51-2.317,6.225-2.287,9.396-1.843c2.772,0.36,4.284,3.157,6.941,3.75c-0.044-1.784-1.428-3.014-2.811-3.923
			c-4.031-2.678-9.565-2.372-13.686-0.055c-5.815,3.493-7.327,11.783-4.367,17.608c2.159,4.288,7.05,6.729,11.743,6.68
			c3.438-0.218,7.001-1.571,9.204-4.308c0.045-0.663-0.029-1.319-0.063-1.977C148.454,40.019,147.036,41.743,144.986,42.44z"/>
	</g>
</g>
</svg>
