<?xml version="1.0" encoding="utf-8"?>
<!DOCTYPE svg PUBLIC "-//W3C//DTD SVG 1.1//EN" "http://www.w3.org/Graphics/SVG/1.1/DTD/svg11.dtd">
<svg version="1.1" baseProfile="full"
 xmlns="http://www.w3.org/2000/svg"
 xmlns:xlink="http://www.w3.org/1999/xlink"
 xmlns:ev="http://www.w3.org/2001/xml-events" 
  height="25px" 
  width="30px" 
>
<path fill="rgb( 255, 255, 255 )"
 d="M11.784,2.71699999999998 C17.007,2.71699999999998 21.426,5.66300000000001 21.426,9.14499999999998 C21.426,12.626 17.007,15.572 11.784,15.572 C10.914,15.572 10.06,15.489 9.22300000000001,15.338 C9.22300000000001,15.338 8.33600000000001,15.171 8.33600000000001,15.171 C8.33600000000001,15.171 7.59899999999999,15.689 7.59899999999999,15.689 C7.26499999999999,15.924 6.91300000000001,16.141 6.56200000000001,16.342 C6.56200000000001,16.342 7.14800000000002,14.936 7.14800000000002,14.936 C7.14800000000002,14.936 5.524,13.999 5.524,13.999 C3.38099999999997,12.76 2.14299999999997,10.986 2.14299999999997,9.14499999999998 C2.14299999999997,5.66300000000001 6.56200000000001,2.71699999999998 11.784,2.71699999999998 ZM11.784,0.57400000000001 C5.27300000000002,0.57400000000001 0,4.40699999999998 0,9.14499999999998 C0,11.856 1.74099999999999,14.283 4.45299999999997,15.857 C3.88299999999998,17.246 3.14699999999999,17.899 2.49400000000003,18.635 C2.31,18.853 2.09199999999998,19.054 2.15899999999999,19.372 C2.15899999999999,19.372 2.15899999999999,19.372 2.15899999999999,19.372 C2.20999999999998,19.657 2.44400000000002,19.857 2.69499999999999,19.857 C2.71199999999999,19.857 2.72800000000001,19.857 2.745,19.857 C3.24700000000001,19.79 3.733,19.707 4.185,19.59 C5.875,19.154 7.44900000000001,18.435 8.83800000000002,17.447 C9.77600000000001,17.614 10.763,17.715 11.784,17.715 C18.296,17.715 23.568,13.882 23.568,9.14499999999998 C23.568,4.40699999999998 18.296,0.57400000000001 11.784,0.57400000000001 ZM25.544,20.142 C28.255,18.569 29.996,16.158 29.996,13.43 C29.996,10.634 28.155,8.15699999999998 25.326,6.60000000000002 C25.577,7.42000000000002 25.711,8.274 25.711,9.14499999999998 C25.711,12.141 24.171,14.903 21.376,16.945 C18.781,18.82 15.383,19.857 11.784,19.857 C11.299,19.857 10.797,19.824 10.311,19.79 C12.404,21.163 15.182,22 18.212,22 C19.233,22 20.221,21.9 21.158,21.732 C22.547,22.72 24.121,23.44 25.811,23.875 C26.263,23.992 26.749,24.076 27.251,24.143 C27.519,24.176 27.77,23.958 27.837,23.657 C27.837,23.657 27.837,23.657 27.837,23.657 C27.904,23.339 27.686,23.138 27.502,22.921 C26.849,22.184 26.113,21.531 25.544,20.142 Z "/>
</svg>
