<?xml version="1.0" encoding="utf-8"?>
<!DOCTYPE svg PUBLIC "-//W3C//DTD SVG 1.1//EN" "http://www.w3.org/Graphics/SVG/1.1/DTD/svg11.dtd">
<svg version="1.1" baseProfile="full"
 xmlns="http://www.w3.org/2000/svg"
 xmlns:xlink="http://www.w3.org/1999/xlink"
 xmlns:ev="http://www.w3.org/2001/xml-events" 
  height="30px" 
  width="40px" 
>
<path fill="rgb( 255, 255, 255 )"
 d="M37.779,22.139 C36.552,22.139 35.558,21.132 35.558,19.889 C35.558,18.647 36.552,17.64 37.779,17.64 C39.006,17.64 40,18.647 40,19.889 C40,21.132 39.006,22.139 37.779,22.139 ZM34.428,8.06299999999999 C33.202,8.06299999999999 32.207,7.05500000000001 32.207,5.81299999999999 C32.207,4.56999999999999 33.202,3.56299999999999 34.428,3.56299999999999 C35.655,3.56299999999999 36.65,4.56999999999999 36.65,5.81299999999999 C36.65,7.05500000000001 35.655,8.06299999999999 34.428,8.06299999999999 ZM27.834,13.506 C27.834,13.506 27.834,19.033 27.834,19.033 C27.834,19.033 35.136,19.033 35.136,19.033 C35.046,19.287 34.997,19.593 34.997,19.899 C34.997,20.185 35.04,20.455 35.118,20.709 C35.118,20.709 27.847,20.709 27.847,20.709 C27.847,20.709 27.847,30 27.847,30 C27.847,30 20,30 20,30 C20,30 12.157,30 12.157,30 C12.157,30 12.157,20.709 12.157,20.709 C12.157,20.709 4.88099999999997,20.709 4.88099999999997,20.709 C4.95999999999998,20.455 5.00200000000001,20.185 5.00200000000001,19.899 C5.00200000000001,19.592 4.95299999999997,19.287 4.863,19.033 C4.863,19.033 12.168,19.033 12.168,19.033 C12.168,19.033 12.168,13.503 12.168,13.503 C12.168,13.503 6.97800000000001,8.238 6.97800000000001,8.238 C7.476,7.94099999999997 7.87599999999998,7.488 8.11399999999998,6.94900000000001 C8.11399999999998,6.94900000000001 13.305,12.178 13.305,12.178 C13.305,12.178 19.125,12.178 19.125,12.178 C19.125,12.178 19.125,4.90499999999997 19.125,4.90499999999997 C19.426,5.005 19.686,5.06200000000001 19.993,5.06599999999997 C20.31,5.06299999999999 20.629,5.00700000000001 20.88,4.90499999999997 C20.88,4.90499999999997 20.88,12.178 20.88,12.178 C20.88,12.178 26.697,12.178 26.697,12.178 C26.697,12.178 31.888,6.95100000000002 31.888,6.95100000000002 C32.126,7.49099999999999 32.525,7.95100000000002 33.024,8.24900000000002 C33.024,8.24900000000002 27.834,13.506 27.834,13.506 ZM20.045,14.312 C20.027,14.312 19.973,14.312 19.955,14.312 C18.391,14.312 17.133,15.596 17.131,17.178 C17.131,18.77 18.392,20.048 19.957,20.048 C19.974,20.048 20.025,20.048 20.043,20.048 C21.607,20.048 22.867,18.771 22.867,17.178 C22.867,15.596 21.61,14.312 20.045,14.312 ZM23.837,22.194 C23.837,21.274 23.112,20.505 22.303,20.505 C22.303,20.505 17.698,20.505 17.698,20.505 C16.888,20.505 16.167,21.274 16.167,22.194 C16.167,22.194 16.167,26.801 16.167,26.801 C16.167,26.801 23.836,26.801 23.836,26.801 C23.836,26.801 23.837,26.801 23.837,26.801 C23.837,26.801 23.837,22.194 23.837,22.194 ZM20.028,4.49900000000002 C20.018,4.49900000000002 20.009,4.49799999999999 20,4.49799999999999 C19.99,4.49900000000002 19.981,4.49900000000002 19.971,4.49900000000002 C18.745,4.49900000000002 17.75,3.49099999999999 17.75,2.25 C17.75,1.00700000000001 18.745,0 19.971,0 C19.981,0 19.99,0.00099999999998 20,0.00099999999998 C20.009,0.00099999999998 20.018,0 20.028,0 C21.255,0 22.25,1.00700000000001 22.25,2.25 C22.25,3.49200000000002 21.255,4.49900000000002 20.028,4.49900000000002 ZM5.572,8.06299999999999 C4.34500000000003,8.06299999999999 3.35000000000002,7.05500000000001 3.35000000000002,5.81299999999999 C3.35000000000002,4.56999999999999 4.34500000000003,3.56299999999999 5.572,3.56299999999999 C6.798,3.56299999999999 7.79300000000001,4.56999999999999 7.79300000000001,5.81299999999999 C7.79300000000001,7.05500000000001 6.798,8.06299999999999 5.572,8.06299999999999 ZM4.44200000000001,19.889 C4.44200000000001,21.132 3.44799999999998,22.139 2.221,22.139 C0.99400000000003,22.139 0,21.132 0,19.889 C0,18.647 0.99400000000003,17.64 2.221,17.64 C3.44799999999998,17.64 4.44200000000001,18.647 4.44200000000001,19.889 Z "/>
</svg>
