<?xml version="1.0" encoding="utf-8"?>
<!DOCTYPE svg PUBLIC "-//W3C//DTD SVG 1.1//EN" "http://www.w3.org/Graphics/SVG/1.1/DTD/svg11.dtd">
<svg version="1.1" baseProfile="full"
 xmlns="http://www.w3.org/2000/svg"
 xmlns:xlink="http://www.w3.org/1999/xlink"
 xmlns:ev="http://www.w3.org/2001/xml-events" 
  height="27px" 
  width="30px" 
>
<path fill="rgb( 255, 255, 255 )"
 d="M27.854,9.00200000000001 C27.854,9.00200000000001 27.854,2.57400000000001 27.854,2.57400000000001 C27.854,1.40199999999999 26.883,0.43200000000002 25.711,0.43200000000002 C22.497,3.11000000000001 17.141,6.85899999999998 10.713,6.85899999999998 C10.713,6.85899999999998 2.678,6.85899999999998 2.678,6.85899999999998 C1.20499999999998,6.85899999999998 0,8.065 0,9.53800000000001 C0,9.53800000000001 0,12.751 0,12.751 C0,14.224 1.20499999999998,15.43 2.678,15.43 C2.678,15.43 4.72000000000003,15.43 4.72000000000003,15.43 C3.54899999999998,19.196 4.988,22.175 5.959,25.155 C7.49900000000002,26.578 11.818,26.544 12.855,24.502 C11.081,23.113 9.57499999999999,21.757 10.746,19.832 C9.44099999999997,18.493 10.127,16.166 12.119,15.497 C17.927,15.982 22.731,19.38 25.711,21.857 C26.883,21.857 27.854,20.887 27.854,19.715 C27.854,19.715 27.854,13.287 27.854,13.287 C29.042,13.287 29.996,12.333 29.996,11.145 C29.996,9.95600000000002 29.042,9.00200000000001 27.854,9.00200000000001 ZM25.711,19.112 C21.342,15.764 17.107,13.873 12.855,13.404 C12.855,13.404 12.855,8.88499999999999 12.855,8.88499999999999 C17.107,8.416 21.342,6.49099999999999 25.711,3.14299999999997 C25.711,3.14299999999997 25.711,19.112 25.711,19.112 Z "/>
</svg>
